%TF.GenerationSoftware,KiCad,Pcbnew,9.0.7*%
%TF.CreationDate,2026-04-13T08:58:08+03:00*%
%TF.ProjectId,3dFilamentDryer,33644669-6c61-46d6-956e-744472796572,rev?*%
%TF.SameCoordinates,Original*%
%TF.FileFunction,Paste,Top*%
%TF.FilePolarity,Positive*%
%FSLAX46Y46*%
G04 Gerber Fmt 4.6, Leading zero omitted, Abs format (unit mm)*
G04 Created by KiCad (PCBNEW 9.0.7) date 2026-04-13 08:58:08*
%MOMM*%
%LPD*%
G01*
G04 APERTURE LIST*
G04 Aperture macros list*
%AMRoundRect*
0 Rectangle with rounded corners*
0 $1 Rounding radius*
0 $2 $3 $4 $5 $6 $7 $8 $9 X,Y pos of 4 corners*
0 Add a 4 corners polygon primitive as box body*
4,1,4,$2,$3,$4,$5,$6,$7,$8,$9,$2,$3,0*
0 Add four circle primitives for the rounded corners*
1,1,$1+$1,$2,$3*
1,1,$1+$1,$4,$5*
1,1,$1+$1,$6,$7*
1,1,$1+$1,$8,$9*
0 Add four rect primitives between the rounded corners*
20,1,$1+$1,$2,$3,$4,$5,0*
20,1,$1+$1,$4,$5,$6,$7,0*
20,1,$1+$1,$6,$7,$8,$9,0*
20,1,$1+$1,$8,$9,$2,$3,0*%
G04 Aperture macros list end*
%ADD10RoundRect,0.135000X-0.185000X0.135000X-0.185000X-0.135000X0.185000X-0.135000X0.185000X0.135000X0*%
%ADD11RoundRect,0.150000X0.587500X0.150000X-0.587500X0.150000X-0.587500X-0.150000X0.587500X-0.150000X0*%
%ADD12RoundRect,0.150000X-0.512500X-0.150000X0.512500X-0.150000X0.512500X0.150000X-0.512500X0.150000X0*%
%ADD13RoundRect,0.135000X0.135000X0.185000X-0.135000X0.185000X-0.135000X-0.185000X0.135000X-0.185000X0*%
%ADD14RoundRect,0.225000X0.225000X0.375000X-0.225000X0.375000X-0.225000X-0.375000X0.225000X-0.375000X0*%
%ADD15RoundRect,0.140000X-0.140000X-0.170000X0.140000X-0.170000X0.140000X0.170000X-0.140000X0.170000X0*%
%ADD16RoundRect,0.135000X0.185000X-0.135000X0.185000X0.135000X-0.185000X0.135000X-0.185000X-0.135000X0*%
%ADD17RoundRect,0.135000X-0.135000X-0.185000X0.135000X-0.185000X0.135000X0.185000X-0.135000X0.185000X0*%
%ADD18R,1.500000X0.900000*%
%ADD19R,0.900000X1.500000*%
%ADD20R,0.900000X0.900000*%
%ADD21RoundRect,0.140000X-0.170000X0.140000X-0.170000X-0.140000X0.170000X-0.140000X0.170000X0.140000X0*%
%ADD22RoundRect,0.200000X0.200000X0.275000X-0.200000X0.275000X-0.200000X-0.275000X0.200000X-0.275000X0*%
%ADD23RoundRect,0.225000X0.250000X-0.225000X0.250000X0.225000X-0.250000X0.225000X-0.250000X-0.225000X0*%
%ADD24RoundRect,0.375000X-0.375000X0.625000X-0.375000X-0.625000X0.375000X-0.625000X0.375000X0.625000X0*%
%ADD25RoundRect,0.500000X-1.400000X0.500000X-1.400000X-0.500000X1.400000X-0.500000X1.400000X0.500000X0*%
%ADD26RoundRect,0.140000X0.170000X-0.140000X0.170000X0.140000X-0.170000X0.140000X-0.170000X-0.140000X0*%
G04 APERTURE END LIST*
D10*
%TO.C,R11*%
X191750000Y-84240000D03*
X191750000Y-85260000D03*
%TD*%
%TO.C,R8*%
X198750000Y-109750000D03*
X198750000Y-110770000D03*
%TD*%
D11*
%TO.C,Q4*%
X130000000Y-108400000D03*
X130000000Y-106500000D03*
X128125000Y-107450000D03*
%TD*%
D12*
%TO.C,U6*%
X199112500Y-114800000D03*
X199112500Y-115750000D03*
X199112500Y-116700000D03*
X201387500Y-116700000D03*
X201387500Y-114800000D03*
%TD*%
D13*
%TO.C,R12*%
X216020000Y-102000000D03*
X215000000Y-102000000D03*
%TD*%
D14*
%TO.C,D5*%
X139650000Y-109500000D03*
X136350000Y-109500000D03*
%TD*%
D15*
%TO.C,C5*%
X202270000Y-113250000D03*
X203230000Y-113250000D03*
%TD*%
D13*
%TO.C,R4*%
X160250000Y-122250000D03*
X159230000Y-122250000D03*
%TD*%
%TO.C,R10*%
X191760000Y-90750000D03*
X190740000Y-90750000D03*
%TD*%
D16*
%TO.C,R14*%
X177250000Y-97270000D03*
X177250000Y-96250000D03*
%TD*%
D10*
%TO.C,R13*%
X175250000Y-98730000D03*
X175250000Y-99750000D03*
%TD*%
D17*
%TO.C,R15*%
X136490000Y-106000000D03*
X137510000Y-106000000D03*
%TD*%
D12*
%TO.C,Q3*%
X179112500Y-98300000D03*
X179112500Y-100200000D03*
X181387500Y-99250000D03*
%TD*%
D18*
%TO.C,U3*%
X193765000Y-82540000D03*
X193765000Y-83810000D03*
X193765000Y-85080000D03*
X193765000Y-86350000D03*
X193765000Y-87620000D03*
X193765000Y-88890000D03*
X193765000Y-90160000D03*
X193765000Y-91430000D03*
X193765000Y-92700000D03*
X193765000Y-93970000D03*
X193765000Y-95240000D03*
X193765000Y-96510000D03*
X193765000Y-97780000D03*
X193765000Y-99050000D03*
D19*
X196800000Y-100300000D03*
X198070000Y-100300000D03*
X199340000Y-100300000D03*
X200610000Y-100300000D03*
X201880000Y-100300000D03*
X203150000Y-100300000D03*
X204420000Y-100300000D03*
X205690000Y-100300000D03*
X206960000Y-100300000D03*
X208230000Y-100300000D03*
D18*
X211265000Y-99050000D03*
X211265000Y-97780000D03*
X211265000Y-96510000D03*
X211265000Y-95240000D03*
X211265000Y-93970000D03*
X211265000Y-92700000D03*
X211265000Y-91430000D03*
X211265000Y-90160000D03*
X211265000Y-88890000D03*
X211265000Y-87620000D03*
X211265000Y-86350000D03*
X211265000Y-85080000D03*
X211265000Y-83810000D03*
X211265000Y-82540000D03*
D20*
X199615000Y-88860000D03*
X199615000Y-90260000D03*
X199615000Y-91660000D03*
X201015000Y-88860000D03*
X201015000Y-90260000D03*
X201015000Y-91660000D03*
X202415000Y-88860000D03*
X202415000Y-90260000D03*
X202415000Y-91660000D03*
%TD*%
D21*
%TO.C,C8*%
X189955000Y-83130000D03*
X189955000Y-84090000D03*
%TD*%
D12*
%TO.C,Q2*%
X179112500Y-93300000D03*
X179112500Y-95200000D03*
X181387500Y-94250000D03*
%TD*%
D22*
%TO.C,R9*%
X202075000Y-118250000D03*
X200425000Y-118250000D03*
%TD*%
D23*
%TO.C,C7*%
X188750000Y-84250000D03*
X188750000Y-82700000D03*
%TD*%
D17*
%TO.C,R16*%
X131990000Y-108000000D03*
X133010000Y-108000000D03*
%TD*%
D24*
%TO.C,U2*%
X172337500Y-93100000D03*
X170037500Y-93100000D03*
D25*
X170037500Y-99400000D03*
D24*
X167737500Y-93100000D03*
%TD*%
D26*
%TO.C,C6*%
X191750000Y-87230000D03*
X191750000Y-86270000D03*
%TD*%
M02*
