%TF.GenerationSoftware,KiCad,Pcbnew,9.0.7*%
%TF.CreationDate,2026-03-17T17:04:05+03:00*%
%TF.ProjectId,3dFilamentDryer,33644669-6c61-46d6-956e-744472796572,rev?*%
%TF.SameCoordinates,Original*%
%TF.FileFunction,Legend,Top*%
%TF.FilePolarity,Positive*%
%FSLAX46Y46*%
G04 Gerber Fmt 4.6, Leading zero omitted, Abs format (unit mm)*
G04 Created by KiCad (PCBNEW 9.0.7) date 2026-03-17 17:04:05*
%MOMM*%
%LPD*%
G01*
G04 APERTURE LIST*
G04 Aperture macros list*
%AMRoundRect*
0 Rectangle with rounded corners*
0 $1 Rounding radius*
0 $2 $3 $4 $5 $6 $7 $8 $9 X,Y pos of 4 corners*
0 Add a 4 corners polygon primitive as box body*
4,1,4,$2,$3,$4,$5,$6,$7,$8,$9,$2,$3,0*
0 Add four circle primitives for the rounded corners*
1,1,$1+$1,$2,$3*
1,1,$1+$1,$4,$5*
1,1,$1+$1,$6,$7*
1,1,$1+$1,$8,$9*
0 Add four rect primitives between the rounded corners*
20,1,$1+$1,$2,$3,$4,$5,0*
20,1,$1+$1,$4,$5,$6,$7,0*
20,1,$1+$1,$6,$7,$8,$9,0*
20,1,$1+$1,$8,$9,$2,$3,0*%
G04 Aperture macros list end*
%ADD10C,0.100000*%
%ADD11C,0.400000*%
%ADD12C,0.250000*%
%ADD13C,0.050000*%
%ADD14C,0.150000*%
%ADD15C,0.080000*%
%ADD16C,0.120000*%
%ADD17RoundRect,0.135000X-0.185000X0.135000X-0.185000X-0.135000X0.185000X-0.135000X0.185000X0.135000X0*%
%ADD18C,1.700000*%
%ADD19R,1.700000X1.700000*%
%ADD20C,2.540000*%
%ADD21RoundRect,0.150000X0.587500X0.150000X-0.587500X0.150000X-0.587500X-0.150000X0.587500X-0.150000X0*%
%ADD22C,2.400000*%
%ADD23C,2.300000*%
%ADD24RoundRect,0.575000X0.575000X0.575000X-0.575000X0.575000X-0.575000X-0.575000X0.575000X-0.575000X0*%
%ADD25C,2.500000*%
%ADD26C,3.000000*%
%ADD27C,1.600000*%
%ADD28RoundRect,0.250000X-0.550000X-0.550000X0.550000X-0.550000X0.550000X0.550000X-0.550000X0.550000X0*%
%ADD29C,1.800000*%
%ADD30RoundRect,0.150000X-0.512500X-0.150000X0.512500X-0.150000X0.512500X0.150000X-0.512500X0.150000X0*%
%ADD31C,2.200000*%
%ADD32RoundRect,0.249999X0.850001X0.850001X-0.850001X0.850001X-0.850001X-0.850001X0.850001X-0.850001X0*%
%ADD33RoundRect,0.135000X0.135000X0.185000X-0.135000X0.185000X-0.135000X-0.185000X0.135000X-0.185000X0*%
%ADD34RoundRect,0.225000X0.225000X0.375000X-0.225000X0.375000X-0.225000X-0.375000X0.225000X-0.375000X0*%
%ADD35RoundRect,0.140000X-0.140000X-0.170000X0.140000X-0.170000X0.140000X0.170000X-0.140000X0.170000X0*%
%ADD36C,3.900000*%
%ADD37RoundRect,0.250002X-1.699998X1.699998X-1.699998X-1.699998X1.699998X-1.699998X1.699998X1.699998X0*%
%ADD38RoundRect,0.135000X0.185000X-0.135000X0.185000X0.135000X-0.185000X0.135000X-0.185000X-0.135000X0*%
%ADD39RoundRect,0.575000X-0.575000X-0.575000X0.575000X-0.575000X0.575000X0.575000X-0.575000X0.575000X0*%
%ADD40O,1.905000X2.000000*%
%ADD41R,1.905000X2.000000*%
%ADD42RoundRect,0.135000X-0.135000X-0.185000X0.135000X-0.185000X0.135000X0.185000X-0.135000X0.185000X0*%
%ADD43R,0.900000X0.900000*%
%ADD44C,0.600000*%
%ADD45R,1.500000X0.900000*%
%ADD46R,0.900000X1.500000*%
%ADD47C,2.000000*%
%ADD48RoundRect,0.250002X1.699998X1.699998X-1.699998X1.699998X-1.699998X-1.699998X1.699998X-1.699998X0*%
%ADD49RoundRect,0.140000X-0.170000X0.140000X-0.170000X-0.140000X0.170000X-0.140000X0.170000X0.140000X0*%
%ADD50RoundRect,0.200000X0.200000X0.275000X-0.200000X0.275000X-0.200000X-0.275000X0.200000X-0.275000X0*%
%ADD51RoundRect,0.225000X0.250000X-0.225000X0.250000X0.225000X-0.250000X0.225000X-0.250000X-0.225000X0*%
%ADD52RoundRect,0.250000X0.550000X-0.550000X0.550000X0.550000X-0.550000X0.550000X-0.550000X-0.550000X0*%
%ADD53O,1.700000X2.000000*%
%ADD54RoundRect,0.250000X-0.600000X-0.750000X0.600000X-0.750000X0.600000X0.750000X-0.600000X0.750000X0*%
%ADD55RoundRect,0.375000X-0.375000X0.625000X-0.375000X-0.625000X0.375000X-0.625000X0.375000X0.625000X0*%
%ADD56RoundRect,0.500000X-1.400000X0.500000X-1.400000X-0.500000X1.400000X-0.500000X1.400000X0.500000X0*%
%ADD57RoundRect,0.140000X0.170000X-0.140000X0.170000X0.140000X-0.170000X0.140000X-0.170000X-0.140000X0*%
%ADD58C,3.500000*%
%ADD59RoundRect,0.250002X-1.499998X1.499998X-1.499998X-1.499998X1.499998X-1.499998X1.499998X1.499998X0*%
G04 APERTURE END LIST*
D10*
X219375312Y-113277180D02*
X219327693Y-113324800D01*
X219327693Y-113324800D02*
X219184836Y-113372419D01*
X219184836Y-113372419D02*
X219089598Y-113372419D01*
X219089598Y-113372419D02*
X218946741Y-113324800D01*
X218946741Y-113324800D02*
X218851503Y-113229561D01*
X218851503Y-113229561D02*
X218803884Y-113134323D01*
X218803884Y-113134323D02*
X218756265Y-112943847D01*
X218756265Y-112943847D02*
X218756265Y-112800990D01*
X218756265Y-112800990D02*
X218803884Y-112610514D01*
X218803884Y-112610514D02*
X218851503Y-112515276D01*
X218851503Y-112515276D02*
X218946741Y-112420038D01*
X218946741Y-112420038D02*
X219089598Y-112372419D01*
X219089598Y-112372419D02*
X219184836Y-112372419D01*
X219184836Y-112372419D02*
X219327693Y-112420038D01*
X219327693Y-112420038D02*
X219375312Y-112467657D01*
X219756265Y-113324800D02*
X219899122Y-113372419D01*
X219899122Y-113372419D02*
X220137217Y-113372419D01*
X220137217Y-113372419D02*
X220232455Y-113324800D01*
X220232455Y-113324800D02*
X220280074Y-113277180D01*
X220280074Y-113277180D02*
X220327693Y-113181942D01*
X220327693Y-113181942D02*
X220327693Y-113086704D01*
X220327693Y-113086704D02*
X220280074Y-112991466D01*
X220280074Y-112991466D02*
X220232455Y-112943847D01*
X220232455Y-112943847D02*
X220137217Y-112896228D01*
X220137217Y-112896228D02*
X219946741Y-112848609D01*
X219946741Y-112848609D02*
X219851503Y-112800990D01*
X219851503Y-112800990D02*
X219803884Y-112753371D01*
X219803884Y-112753371D02*
X219756265Y-112658133D01*
X219756265Y-112658133D02*
X219756265Y-112562895D01*
X219756265Y-112562895D02*
X219803884Y-112467657D01*
X219803884Y-112467657D02*
X219851503Y-112420038D01*
X219851503Y-112420038D02*
X219946741Y-112372419D01*
X219946741Y-112372419D02*
X220184836Y-112372419D01*
X220184836Y-112372419D02*
X220327693Y-112420038D01*
X216161027Y-94372419D02*
X216732455Y-94372419D01*
X216446741Y-95372419D02*
X216446741Y-94372419D01*
X216827694Y-95467657D02*
X217589598Y-95467657D01*
X218399122Y-95277180D02*
X218351503Y-95324800D01*
X218351503Y-95324800D02*
X218208646Y-95372419D01*
X218208646Y-95372419D02*
X218113408Y-95372419D01*
X218113408Y-95372419D02*
X217970551Y-95324800D01*
X217970551Y-95324800D02*
X217875313Y-95229561D01*
X217875313Y-95229561D02*
X217827694Y-95134323D01*
X217827694Y-95134323D02*
X217780075Y-94943847D01*
X217780075Y-94943847D02*
X217780075Y-94800990D01*
X217780075Y-94800990D02*
X217827694Y-94610514D01*
X217827694Y-94610514D02*
X217875313Y-94515276D01*
X217875313Y-94515276D02*
X217970551Y-94420038D01*
X217970551Y-94420038D02*
X218113408Y-94372419D01*
X218113408Y-94372419D02*
X218208646Y-94372419D01*
X218208646Y-94372419D02*
X218351503Y-94420038D01*
X218351503Y-94420038D02*
X218399122Y-94467657D01*
X219303884Y-95372419D02*
X218827694Y-95372419D01*
X218827694Y-95372419D02*
X218827694Y-94372419D01*
X219637218Y-95372419D02*
X219637218Y-94372419D01*
X220208646Y-95372419D02*
X219780075Y-94800990D01*
X220208646Y-94372419D02*
X219637218Y-94943847D01*
X188125312Y-96122419D02*
X187791979Y-95646228D01*
X187553884Y-96122419D02*
X187553884Y-95122419D01*
X187553884Y-95122419D02*
X187934836Y-95122419D01*
X187934836Y-95122419D02*
X188030074Y-95170038D01*
X188030074Y-95170038D02*
X188077693Y-95217657D01*
X188077693Y-95217657D02*
X188125312Y-95312895D01*
X188125312Y-95312895D02*
X188125312Y-95455752D01*
X188125312Y-95455752D02*
X188077693Y-95550990D01*
X188077693Y-95550990D02*
X188030074Y-95598609D01*
X188030074Y-95598609D02*
X187934836Y-95646228D01*
X187934836Y-95646228D02*
X187553884Y-95646228D01*
X188458646Y-95122419D02*
X189125312Y-96122419D01*
X189125312Y-95122419D02*
X188458646Y-96122419D01*
X219280074Y-117372419D02*
X218803884Y-117372419D01*
X218803884Y-117372419D02*
X218756265Y-117848609D01*
X218756265Y-117848609D02*
X218803884Y-117800990D01*
X218803884Y-117800990D02*
X218899122Y-117753371D01*
X218899122Y-117753371D02*
X219137217Y-117753371D01*
X219137217Y-117753371D02*
X219232455Y-117800990D01*
X219232455Y-117800990D02*
X219280074Y-117848609D01*
X219280074Y-117848609D02*
X219327693Y-117943847D01*
X219327693Y-117943847D02*
X219327693Y-118181942D01*
X219327693Y-118181942D02*
X219280074Y-118277180D01*
X219280074Y-118277180D02*
X219232455Y-118324800D01*
X219232455Y-118324800D02*
X219137217Y-118372419D01*
X219137217Y-118372419D02*
X218899122Y-118372419D01*
X218899122Y-118372419D02*
X218803884Y-118324800D01*
X218803884Y-118324800D02*
X218756265Y-118277180D01*
X219613408Y-117372419D02*
X219946741Y-118372419D01*
X219946741Y-118372419D02*
X220280074Y-117372419D01*
X213756265Y-105824800D02*
X213899122Y-105872419D01*
X213899122Y-105872419D02*
X214137217Y-105872419D01*
X214137217Y-105872419D02*
X214232455Y-105824800D01*
X214232455Y-105824800D02*
X214280074Y-105777180D01*
X214280074Y-105777180D02*
X214327693Y-105681942D01*
X214327693Y-105681942D02*
X214327693Y-105586704D01*
X214327693Y-105586704D02*
X214280074Y-105491466D01*
X214280074Y-105491466D02*
X214232455Y-105443847D01*
X214232455Y-105443847D02*
X214137217Y-105396228D01*
X214137217Y-105396228D02*
X213946741Y-105348609D01*
X213946741Y-105348609D02*
X213851503Y-105300990D01*
X213851503Y-105300990D02*
X213803884Y-105253371D01*
X213803884Y-105253371D02*
X213756265Y-105158133D01*
X213756265Y-105158133D02*
X213756265Y-105062895D01*
X213756265Y-105062895D02*
X213803884Y-104967657D01*
X213803884Y-104967657D02*
X213851503Y-104920038D01*
X213851503Y-104920038D02*
X213946741Y-104872419D01*
X213946741Y-104872419D02*
X214184836Y-104872419D01*
X214184836Y-104872419D02*
X214327693Y-104920038D01*
X214756265Y-105872419D02*
X214756265Y-104872419D01*
X214756265Y-104872419D02*
X214994360Y-104872419D01*
X214994360Y-104872419D02*
X215137217Y-104920038D01*
X215137217Y-104920038D02*
X215232455Y-105015276D01*
X215232455Y-105015276D02*
X215280074Y-105110514D01*
X215280074Y-105110514D02*
X215327693Y-105300990D01*
X215327693Y-105300990D02*
X215327693Y-105443847D01*
X215327693Y-105443847D02*
X215280074Y-105634323D01*
X215280074Y-105634323D02*
X215232455Y-105729561D01*
X215232455Y-105729561D02*
X215137217Y-105824800D01*
X215137217Y-105824800D02*
X214994360Y-105872419D01*
X214994360Y-105872419D02*
X214756265Y-105872419D01*
X215756265Y-105872419D02*
X215756265Y-104872419D01*
X216518169Y-106253371D02*
X216470550Y-106205752D01*
X216470550Y-106205752D02*
X216375312Y-106062895D01*
X216375312Y-106062895D02*
X216327693Y-105967657D01*
X216327693Y-105967657D02*
X216280074Y-105824800D01*
X216280074Y-105824800D02*
X216232455Y-105586704D01*
X216232455Y-105586704D02*
X216232455Y-105396228D01*
X216232455Y-105396228D02*
X216280074Y-105158133D01*
X216280074Y-105158133D02*
X216327693Y-105015276D01*
X216327693Y-105015276D02*
X216375312Y-104920038D01*
X216375312Y-104920038D02*
X216470550Y-104777180D01*
X216470550Y-104777180D02*
X216518169Y-104729561D01*
X216899122Y-105872419D02*
X216899122Y-104872419D01*
X216899122Y-104872419D02*
X217232455Y-105586704D01*
X217232455Y-105586704D02*
X217565788Y-104872419D01*
X217565788Y-104872419D02*
X217565788Y-105872419D01*
X218232455Y-104872419D02*
X218422931Y-104872419D01*
X218422931Y-104872419D02*
X218518169Y-104920038D01*
X218518169Y-104920038D02*
X218613407Y-105015276D01*
X218613407Y-105015276D02*
X218661026Y-105205752D01*
X218661026Y-105205752D02*
X218661026Y-105539085D01*
X218661026Y-105539085D02*
X218613407Y-105729561D01*
X218613407Y-105729561D02*
X218518169Y-105824800D01*
X218518169Y-105824800D02*
X218422931Y-105872419D01*
X218422931Y-105872419D02*
X218232455Y-105872419D01*
X218232455Y-105872419D02*
X218137217Y-105824800D01*
X218137217Y-105824800D02*
X218041979Y-105729561D01*
X218041979Y-105729561D02*
X217994360Y-105539085D01*
X217994360Y-105539085D02*
X217994360Y-105205752D01*
X217994360Y-105205752D02*
X218041979Y-105015276D01*
X218041979Y-105015276D02*
X218137217Y-104920038D01*
X218137217Y-104920038D02*
X218232455Y-104872419D01*
X219041979Y-105824800D02*
X219184836Y-105872419D01*
X219184836Y-105872419D02*
X219422931Y-105872419D01*
X219422931Y-105872419D02*
X219518169Y-105824800D01*
X219518169Y-105824800D02*
X219565788Y-105777180D01*
X219565788Y-105777180D02*
X219613407Y-105681942D01*
X219613407Y-105681942D02*
X219613407Y-105586704D01*
X219613407Y-105586704D02*
X219565788Y-105491466D01*
X219565788Y-105491466D02*
X219518169Y-105443847D01*
X219518169Y-105443847D02*
X219422931Y-105396228D01*
X219422931Y-105396228D02*
X219232455Y-105348609D01*
X219232455Y-105348609D02*
X219137217Y-105300990D01*
X219137217Y-105300990D02*
X219089598Y-105253371D01*
X219089598Y-105253371D02*
X219041979Y-105158133D01*
X219041979Y-105158133D02*
X219041979Y-105062895D01*
X219041979Y-105062895D02*
X219089598Y-104967657D01*
X219089598Y-104967657D02*
X219137217Y-104920038D01*
X219137217Y-104920038D02*
X219232455Y-104872419D01*
X219232455Y-104872419D02*
X219470550Y-104872419D01*
X219470550Y-104872419D02*
X219613407Y-104920038D01*
X220041979Y-105872419D02*
X220041979Y-104872419D01*
X220422931Y-106253371D02*
X220470550Y-106205752D01*
X220470550Y-106205752D02*
X220565788Y-106062895D01*
X220565788Y-106062895D02*
X220613407Y-105967657D01*
X220613407Y-105967657D02*
X220661026Y-105824800D01*
X220661026Y-105824800D02*
X220708645Y-105586704D01*
X220708645Y-105586704D02*
X220708645Y-105396228D01*
X220708645Y-105396228D02*
X220661026Y-105158133D01*
X220661026Y-105158133D02*
X220613407Y-105015276D01*
X220613407Y-105015276D02*
X220565788Y-104920038D01*
X220565788Y-104920038D02*
X220470550Y-104777180D01*
X220470550Y-104777180D02*
X220422931Y-104729561D01*
D11*
X64739347Y-127234438D02*
X64739347Y-125234438D01*
X64739347Y-125234438D02*
X65882204Y-127234438D01*
X65882204Y-127234438D02*
X65882204Y-125234438D01*
D10*
X187411027Y-92622419D02*
X187982455Y-92622419D01*
X187696741Y-93622419D02*
X187696741Y-92622419D01*
X188220551Y-92622419D02*
X188887217Y-93622419D01*
X188887217Y-92622419D02*
X188220551Y-93622419D01*
X188077693Y-85170038D02*
X187982455Y-85122419D01*
X187982455Y-85122419D02*
X187839598Y-85122419D01*
X187839598Y-85122419D02*
X187696741Y-85170038D01*
X187696741Y-85170038D02*
X187601503Y-85265276D01*
X187601503Y-85265276D02*
X187553884Y-85360514D01*
X187553884Y-85360514D02*
X187506265Y-85550990D01*
X187506265Y-85550990D02*
X187506265Y-85693847D01*
X187506265Y-85693847D02*
X187553884Y-85884323D01*
X187553884Y-85884323D02*
X187601503Y-85979561D01*
X187601503Y-85979561D02*
X187696741Y-86074800D01*
X187696741Y-86074800D02*
X187839598Y-86122419D01*
X187839598Y-86122419D02*
X187934836Y-86122419D01*
X187934836Y-86122419D02*
X188077693Y-86074800D01*
X188077693Y-86074800D02*
X188125312Y-86027180D01*
X188125312Y-86027180D02*
X188125312Y-85693847D01*
X188125312Y-85693847D02*
X187934836Y-85693847D01*
X188553884Y-86122419D02*
X188553884Y-85122419D01*
X188553884Y-85122419D02*
X189125312Y-86122419D01*
X189125312Y-86122419D02*
X189125312Y-85122419D01*
X189601503Y-86122419D02*
X189601503Y-85122419D01*
X189601503Y-85122419D02*
X189839598Y-85122419D01*
X189839598Y-85122419D02*
X189982455Y-85170038D01*
X189982455Y-85170038D02*
X190077693Y-85265276D01*
X190077693Y-85265276D02*
X190125312Y-85360514D01*
X190125312Y-85360514D02*
X190172931Y-85550990D01*
X190172931Y-85550990D02*
X190172931Y-85693847D01*
X190172931Y-85693847D02*
X190125312Y-85884323D01*
X190125312Y-85884323D02*
X190077693Y-85979561D01*
X190077693Y-85979561D02*
X189982455Y-86074800D01*
X189982455Y-86074800D02*
X189839598Y-86122419D01*
X189839598Y-86122419D02*
X189601503Y-86122419D01*
X217756265Y-103324800D02*
X217899122Y-103372419D01*
X217899122Y-103372419D02*
X218137217Y-103372419D01*
X218137217Y-103372419D02*
X218232455Y-103324800D01*
X218232455Y-103324800D02*
X218280074Y-103277180D01*
X218280074Y-103277180D02*
X218327693Y-103181942D01*
X218327693Y-103181942D02*
X218327693Y-103086704D01*
X218327693Y-103086704D02*
X218280074Y-102991466D01*
X218280074Y-102991466D02*
X218232455Y-102943847D01*
X218232455Y-102943847D02*
X218137217Y-102896228D01*
X218137217Y-102896228D02*
X217946741Y-102848609D01*
X217946741Y-102848609D02*
X217851503Y-102800990D01*
X217851503Y-102800990D02*
X217803884Y-102753371D01*
X217803884Y-102753371D02*
X217756265Y-102658133D01*
X217756265Y-102658133D02*
X217756265Y-102562895D01*
X217756265Y-102562895D02*
X217803884Y-102467657D01*
X217803884Y-102467657D02*
X217851503Y-102420038D01*
X217851503Y-102420038D02*
X217946741Y-102372419D01*
X217946741Y-102372419D02*
X218184836Y-102372419D01*
X218184836Y-102372419D02*
X218327693Y-102420038D01*
X219327693Y-103277180D02*
X219280074Y-103324800D01*
X219280074Y-103324800D02*
X219137217Y-103372419D01*
X219137217Y-103372419D02*
X219041979Y-103372419D01*
X219041979Y-103372419D02*
X218899122Y-103324800D01*
X218899122Y-103324800D02*
X218803884Y-103229561D01*
X218803884Y-103229561D02*
X218756265Y-103134323D01*
X218756265Y-103134323D02*
X218708646Y-102943847D01*
X218708646Y-102943847D02*
X218708646Y-102800990D01*
X218708646Y-102800990D02*
X218756265Y-102610514D01*
X218756265Y-102610514D02*
X218803884Y-102515276D01*
X218803884Y-102515276D02*
X218899122Y-102420038D01*
X218899122Y-102420038D02*
X219041979Y-102372419D01*
X219041979Y-102372419D02*
X219137217Y-102372419D01*
X219137217Y-102372419D02*
X219280074Y-102420038D01*
X219280074Y-102420038D02*
X219327693Y-102467657D01*
X219756265Y-103372419D02*
X219756265Y-102372419D01*
X220327693Y-103372419D02*
X219899122Y-102800990D01*
X220327693Y-102372419D02*
X219756265Y-102943847D01*
X216661027Y-91872419D02*
X217232455Y-91872419D01*
X216946741Y-92872419D02*
X216946741Y-91872419D01*
X217327694Y-92967657D02*
X218089598Y-92967657D01*
X218899122Y-92777180D02*
X218851503Y-92824800D01*
X218851503Y-92824800D02*
X218708646Y-92872419D01*
X218708646Y-92872419D02*
X218613408Y-92872419D01*
X218613408Y-92872419D02*
X218470551Y-92824800D01*
X218470551Y-92824800D02*
X218375313Y-92729561D01*
X218375313Y-92729561D02*
X218327694Y-92634323D01*
X218327694Y-92634323D02*
X218280075Y-92443847D01*
X218280075Y-92443847D02*
X218280075Y-92300990D01*
X218280075Y-92300990D02*
X218327694Y-92110514D01*
X218327694Y-92110514D02*
X218375313Y-92015276D01*
X218375313Y-92015276D02*
X218470551Y-91920038D01*
X218470551Y-91920038D02*
X218613408Y-91872419D01*
X218613408Y-91872419D02*
X218708646Y-91872419D01*
X218708646Y-91872419D02*
X218851503Y-91920038D01*
X218851503Y-91920038D02*
X218899122Y-91967657D01*
X219280075Y-92824800D02*
X219422932Y-92872419D01*
X219422932Y-92872419D02*
X219661027Y-92872419D01*
X219661027Y-92872419D02*
X219756265Y-92824800D01*
X219756265Y-92824800D02*
X219803884Y-92777180D01*
X219803884Y-92777180D02*
X219851503Y-92681942D01*
X219851503Y-92681942D02*
X219851503Y-92586704D01*
X219851503Y-92586704D02*
X219803884Y-92491466D01*
X219803884Y-92491466D02*
X219756265Y-92443847D01*
X219756265Y-92443847D02*
X219661027Y-92396228D01*
X219661027Y-92396228D02*
X219470551Y-92348609D01*
X219470551Y-92348609D02*
X219375313Y-92300990D01*
X219375313Y-92300990D02*
X219327694Y-92253371D01*
X219327694Y-92253371D02*
X219280075Y-92158133D01*
X219280075Y-92158133D02*
X219280075Y-92062895D01*
X219280075Y-92062895D02*
X219327694Y-91967657D01*
X219327694Y-91967657D02*
X219375313Y-91920038D01*
X219375313Y-91920038D02*
X219470551Y-91872419D01*
X219470551Y-91872419D02*
X219708646Y-91872419D01*
X219708646Y-91872419D02*
X219851503Y-91920038D01*
X213256265Y-98324800D02*
X213399122Y-98372419D01*
X213399122Y-98372419D02*
X213637217Y-98372419D01*
X213637217Y-98372419D02*
X213732455Y-98324800D01*
X213732455Y-98324800D02*
X213780074Y-98277180D01*
X213780074Y-98277180D02*
X213827693Y-98181942D01*
X213827693Y-98181942D02*
X213827693Y-98086704D01*
X213827693Y-98086704D02*
X213780074Y-97991466D01*
X213780074Y-97991466D02*
X213732455Y-97943847D01*
X213732455Y-97943847D02*
X213637217Y-97896228D01*
X213637217Y-97896228D02*
X213446741Y-97848609D01*
X213446741Y-97848609D02*
X213351503Y-97800990D01*
X213351503Y-97800990D02*
X213303884Y-97753371D01*
X213303884Y-97753371D02*
X213256265Y-97658133D01*
X213256265Y-97658133D02*
X213256265Y-97562895D01*
X213256265Y-97562895D02*
X213303884Y-97467657D01*
X213303884Y-97467657D02*
X213351503Y-97420038D01*
X213351503Y-97420038D02*
X213446741Y-97372419D01*
X213446741Y-97372419D02*
X213684836Y-97372419D01*
X213684836Y-97372419D02*
X213827693Y-97420038D01*
X214256265Y-98372419D02*
X214256265Y-97372419D01*
X214256265Y-97372419D02*
X214494360Y-97372419D01*
X214494360Y-97372419D02*
X214637217Y-97420038D01*
X214637217Y-97420038D02*
X214732455Y-97515276D01*
X214732455Y-97515276D02*
X214780074Y-97610514D01*
X214780074Y-97610514D02*
X214827693Y-97800990D01*
X214827693Y-97800990D02*
X214827693Y-97943847D01*
X214827693Y-97943847D02*
X214780074Y-98134323D01*
X214780074Y-98134323D02*
X214732455Y-98229561D01*
X214732455Y-98229561D02*
X214637217Y-98324800D01*
X214637217Y-98324800D02*
X214494360Y-98372419D01*
X214494360Y-98372419D02*
X214256265Y-98372419D01*
X215446741Y-97372419D02*
X215637217Y-97372419D01*
X215637217Y-97372419D02*
X215732455Y-97420038D01*
X215732455Y-97420038D02*
X215827693Y-97515276D01*
X215827693Y-97515276D02*
X215875312Y-97705752D01*
X215875312Y-97705752D02*
X215875312Y-98039085D01*
X215875312Y-98039085D02*
X215827693Y-98229561D01*
X215827693Y-98229561D02*
X215732455Y-98324800D01*
X215732455Y-98324800D02*
X215637217Y-98372419D01*
X215637217Y-98372419D02*
X215446741Y-98372419D01*
X215446741Y-98372419D02*
X215351503Y-98324800D01*
X215351503Y-98324800D02*
X215256265Y-98229561D01*
X215256265Y-98229561D02*
X215208646Y-98039085D01*
X215208646Y-98039085D02*
X215208646Y-97705752D01*
X215208646Y-97705752D02*
X215256265Y-97515276D01*
X215256265Y-97515276D02*
X215351503Y-97420038D01*
X215351503Y-97420038D02*
X215446741Y-97372419D01*
X216589598Y-98753371D02*
X216541979Y-98705752D01*
X216541979Y-98705752D02*
X216446741Y-98562895D01*
X216446741Y-98562895D02*
X216399122Y-98467657D01*
X216399122Y-98467657D02*
X216351503Y-98324800D01*
X216351503Y-98324800D02*
X216303884Y-98086704D01*
X216303884Y-98086704D02*
X216303884Y-97896228D01*
X216303884Y-97896228D02*
X216351503Y-97658133D01*
X216351503Y-97658133D02*
X216399122Y-97515276D01*
X216399122Y-97515276D02*
X216446741Y-97420038D01*
X216446741Y-97420038D02*
X216541979Y-97277180D01*
X216541979Y-97277180D02*
X216589598Y-97229561D01*
X216970551Y-98372419D02*
X216970551Y-97372419D01*
X216970551Y-97372419D02*
X217303884Y-98086704D01*
X217303884Y-98086704D02*
X217637217Y-97372419D01*
X217637217Y-97372419D02*
X217637217Y-98372419D01*
X218113408Y-98372419D02*
X218113408Y-97372419D01*
X218541979Y-98324800D02*
X218684836Y-98372419D01*
X218684836Y-98372419D02*
X218922931Y-98372419D01*
X218922931Y-98372419D02*
X219018169Y-98324800D01*
X219018169Y-98324800D02*
X219065788Y-98277180D01*
X219065788Y-98277180D02*
X219113407Y-98181942D01*
X219113407Y-98181942D02*
X219113407Y-98086704D01*
X219113407Y-98086704D02*
X219065788Y-97991466D01*
X219065788Y-97991466D02*
X219018169Y-97943847D01*
X219018169Y-97943847D02*
X218922931Y-97896228D01*
X218922931Y-97896228D02*
X218732455Y-97848609D01*
X218732455Y-97848609D02*
X218637217Y-97800990D01*
X218637217Y-97800990D02*
X218589598Y-97753371D01*
X218589598Y-97753371D02*
X218541979Y-97658133D01*
X218541979Y-97658133D02*
X218541979Y-97562895D01*
X218541979Y-97562895D02*
X218589598Y-97467657D01*
X218589598Y-97467657D02*
X218637217Y-97420038D01*
X218637217Y-97420038D02*
X218732455Y-97372419D01*
X218732455Y-97372419D02*
X218970550Y-97372419D01*
X218970550Y-97372419D02*
X219113407Y-97420038D01*
X219732455Y-97372419D02*
X219922931Y-97372419D01*
X219922931Y-97372419D02*
X220018169Y-97420038D01*
X220018169Y-97420038D02*
X220113407Y-97515276D01*
X220113407Y-97515276D02*
X220161026Y-97705752D01*
X220161026Y-97705752D02*
X220161026Y-98039085D01*
X220161026Y-98039085D02*
X220113407Y-98229561D01*
X220113407Y-98229561D02*
X220018169Y-98324800D01*
X220018169Y-98324800D02*
X219922931Y-98372419D01*
X219922931Y-98372419D02*
X219732455Y-98372419D01*
X219732455Y-98372419D02*
X219637217Y-98324800D01*
X219637217Y-98324800D02*
X219541979Y-98229561D01*
X219541979Y-98229561D02*
X219494360Y-98039085D01*
X219494360Y-98039085D02*
X219494360Y-97705752D01*
X219494360Y-97705752D02*
X219541979Y-97515276D01*
X219541979Y-97515276D02*
X219637217Y-97420038D01*
X219637217Y-97420038D02*
X219732455Y-97372419D01*
X220494360Y-98753371D02*
X220541979Y-98705752D01*
X220541979Y-98705752D02*
X220637217Y-98562895D01*
X220637217Y-98562895D02*
X220684836Y-98467657D01*
X220684836Y-98467657D02*
X220732455Y-98324800D01*
X220732455Y-98324800D02*
X220780074Y-98086704D01*
X220780074Y-98086704D02*
X220780074Y-97896228D01*
X220780074Y-97896228D02*
X220732455Y-97658133D01*
X220732455Y-97658133D02*
X220684836Y-97515276D01*
X220684836Y-97515276D02*
X220637217Y-97420038D01*
X220637217Y-97420038D02*
X220541979Y-97277180D01*
X220541979Y-97277180D02*
X220494360Y-97229561D01*
X188125312Y-88622419D02*
X187791979Y-88146228D01*
X187553884Y-88622419D02*
X187553884Y-87622419D01*
X187553884Y-87622419D02*
X187934836Y-87622419D01*
X187934836Y-87622419D02*
X188030074Y-87670038D01*
X188030074Y-87670038D02*
X188077693Y-87717657D01*
X188077693Y-87717657D02*
X188125312Y-87812895D01*
X188125312Y-87812895D02*
X188125312Y-87955752D01*
X188125312Y-87955752D02*
X188077693Y-88050990D01*
X188077693Y-88050990D02*
X188030074Y-88098609D01*
X188030074Y-88098609D02*
X187934836Y-88146228D01*
X187934836Y-88146228D02*
X187553884Y-88146228D01*
X188411027Y-87622419D02*
X188982455Y-87622419D01*
X188696741Y-88622419D02*
X188696741Y-87622419D01*
X189268170Y-88574800D02*
X189411027Y-88622419D01*
X189411027Y-88622419D02*
X189649122Y-88622419D01*
X189649122Y-88622419D02*
X189744360Y-88574800D01*
X189744360Y-88574800D02*
X189791979Y-88527180D01*
X189791979Y-88527180D02*
X189839598Y-88431942D01*
X189839598Y-88431942D02*
X189839598Y-88336704D01*
X189839598Y-88336704D02*
X189791979Y-88241466D01*
X189791979Y-88241466D02*
X189744360Y-88193847D01*
X189744360Y-88193847D02*
X189649122Y-88146228D01*
X189649122Y-88146228D02*
X189458646Y-88098609D01*
X189458646Y-88098609D02*
X189363408Y-88050990D01*
X189363408Y-88050990D02*
X189315789Y-88003371D01*
X189315789Y-88003371D02*
X189268170Y-87908133D01*
X189268170Y-87908133D02*
X189268170Y-87812895D01*
X189268170Y-87812895D02*
X189315789Y-87717657D01*
X189315789Y-87717657D02*
X189363408Y-87670038D01*
X189363408Y-87670038D02*
X189458646Y-87622419D01*
X189458646Y-87622419D02*
X189696741Y-87622419D01*
X189696741Y-87622419D02*
X189839598Y-87670038D01*
D11*
X65691728Y-111734438D02*
X64739347Y-111734438D01*
X64739347Y-111734438D02*
X64739347Y-109734438D01*
D10*
X75637217Y-93348609D02*
X75303884Y-93348609D01*
X75303884Y-93872419D02*
X75303884Y-92872419D01*
X75303884Y-92872419D02*
X75780074Y-92872419D01*
X76684836Y-93872419D02*
X76113408Y-93872419D01*
X76399122Y-93872419D02*
X76399122Y-92872419D01*
X76399122Y-92872419D02*
X76303884Y-93015276D01*
X76303884Y-93015276D02*
X76208646Y-93110514D01*
X76208646Y-93110514D02*
X76113408Y-93158133D01*
X78684837Y-93872419D02*
X78637218Y-93872419D01*
X78637218Y-93872419D02*
X78541979Y-93824800D01*
X78541979Y-93824800D02*
X78399122Y-93681942D01*
X78399122Y-93681942D02*
X78161027Y-93396228D01*
X78161027Y-93396228D02*
X78065789Y-93253371D01*
X78065789Y-93253371D02*
X78018170Y-93110514D01*
X78018170Y-93110514D02*
X78018170Y-93015276D01*
X78018170Y-93015276D02*
X78065789Y-92920038D01*
X78065789Y-92920038D02*
X78161027Y-92872419D01*
X78161027Y-92872419D02*
X78208646Y-92872419D01*
X78208646Y-92872419D02*
X78303884Y-92920038D01*
X78303884Y-92920038D02*
X78351503Y-93015276D01*
X78351503Y-93015276D02*
X78351503Y-93062895D01*
X78351503Y-93062895D02*
X78303884Y-93158133D01*
X78303884Y-93158133D02*
X78256265Y-93205752D01*
X78256265Y-93205752D02*
X77970551Y-93396228D01*
X77970551Y-93396228D02*
X77922932Y-93443847D01*
X77922932Y-93443847D02*
X77875313Y-93539085D01*
X77875313Y-93539085D02*
X77875313Y-93681942D01*
X77875313Y-93681942D02*
X77922932Y-93777180D01*
X77922932Y-93777180D02*
X77970551Y-93824800D01*
X77970551Y-93824800D02*
X78065789Y-93872419D01*
X78065789Y-93872419D02*
X78208646Y-93872419D01*
X78208646Y-93872419D02*
X78303884Y-93824800D01*
X78303884Y-93824800D02*
X78351503Y-93777180D01*
X78351503Y-93777180D02*
X78494360Y-93586704D01*
X78494360Y-93586704D02*
X78541979Y-93443847D01*
X78541979Y-93443847D02*
X78541979Y-93348609D01*
X80208646Y-93348609D02*
X79875313Y-93348609D01*
X79875313Y-93872419D02*
X79875313Y-92872419D01*
X79875313Y-92872419D02*
X80351503Y-92872419D01*
X80684837Y-92967657D02*
X80732456Y-92920038D01*
X80732456Y-92920038D02*
X80827694Y-92872419D01*
X80827694Y-92872419D02*
X81065789Y-92872419D01*
X81065789Y-92872419D02*
X81161027Y-92920038D01*
X81161027Y-92920038D02*
X81208646Y-92967657D01*
X81208646Y-92967657D02*
X81256265Y-93062895D01*
X81256265Y-93062895D02*
X81256265Y-93158133D01*
X81256265Y-93158133D02*
X81208646Y-93300990D01*
X81208646Y-93300990D02*
X80637218Y-93872419D01*
X80637218Y-93872419D02*
X81256265Y-93872419D01*
X81684837Y-93777180D02*
X81732456Y-93824800D01*
X81732456Y-93824800D02*
X81684837Y-93872419D01*
X81684837Y-93872419D02*
X81637218Y-93824800D01*
X81637218Y-93824800D02*
X81684837Y-93777180D01*
X81684837Y-93777180D02*
X81684837Y-93872419D01*
X81684837Y-93253371D02*
X81732456Y-93300990D01*
X81732456Y-93300990D02*
X81684837Y-93348609D01*
X81684837Y-93348609D02*
X81637218Y-93300990D01*
X81637218Y-93300990D02*
X81684837Y-93253371D01*
X81684837Y-93253371D02*
X81684837Y-93348609D01*
X83446741Y-93872419D02*
X82875313Y-93872419D01*
X83161027Y-93872419D02*
X83161027Y-92872419D01*
X83161027Y-92872419D02*
X83065789Y-93015276D01*
X83065789Y-93015276D02*
X82970551Y-93110514D01*
X82970551Y-93110514D02*
X82875313Y-93158133D01*
X83827694Y-93586704D02*
X84303884Y-93586704D01*
X83732456Y-93872419D02*
X84065789Y-92872419D01*
X84065789Y-92872419D02*
X84399122Y-93872419D01*
X85446742Y-93824800D02*
X85589599Y-93872419D01*
X85589599Y-93872419D02*
X85827694Y-93872419D01*
X85827694Y-93872419D02*
X85922932Y-93824800D01*
X85922932Y-93824800D02*
X85970551Y-93777180D01*
X85970551Y-93777180D02*
X86018170Y-93681942D01*
X86018170Y-93681942D02*
X86018170Y-93586704D01*
X86018170Y-93586704D02*
X85970551Y-93491466D01*
X85970551Y-93491466D02*
X85922932Y-93443847D01*
X85922932Y-93443847D02*
X85827694Y-93396228D01*
X85827694Y-93396228D02*
X85637218Y-93348609D01*
X85637218Y-93348609D02*
X85541980Y-93300990D01*
X85541980Y-93300990D02*
X85494361Y-93253371D01*
X85494361Y-93253371D02*
X85446742Y-93158133D01*
X85446742Y-93158133D02*
X85446742Y-93062895D01*
X85446742Y-93062895D02*
X85494361Y-92967657D01*
X85494361Y-92967657D02*
X85541980Y-92920038D01*
X85541980Y-92920038D02*
X85637218Y-92872419D01*
X85637218Y-92872419D02*
X85875313Y-92872419D01*
X85875313Y-92872419D02*
X86018170Y-92920038D01*
X86589599Y-93872419D02*
X86494361Y-93824800D01*
X86494361Y-93824800D02*
X86446742Y-93729561D01*
X86446742Y-93729561D02*
X86446742Y-92872419D01*
X87113409Y-93872419D02*
X87018171Y-93824800D01*
X87018171Y-93824800D02*
X86970552Y-93777180D01*
X86970552Y-93777180D02*
X86922933Y-93681942D01*
X86922933Y-93681942D02*
X86922933Y-93396228D01*
X86922933Y-93396228D02*
X86970552Y-93300990D01*
X86970552Y-93300990D02*
X87018171Y-93253371D01*
X87018171Y-93253371D02*
X87113409Y-93205752D01*
X87113409Y-93205752D02*
X87256266Y-93205752D01*
X87256266Y-93205752D02*
X87351504Y-93253371D01*
X87351504Y-93253371D02*
X87399123Y-93300990D01*
X87399123Y-93300990D02*
X87446742Y-93396228D01*
X87446742Y-93396228D02*
X87446742Y-93681942D01*
X87446742Y-93681942D02*
X87399123Y-93777180D01*
X87399123Y-93777180D02*
X87351504Y-93824800D01*
X87351504Y-93824800D02*
X87256266Y-93872419D01*
X87256266Y-93872419D02*
X87113409Y-93872419D01*
X87780076Y-93205752D02*
X87970552Y-93872419D01*
X87970552Y-93872419D02*
X88161028Y-93396228D01*
X88161028Y-93396228D02*
X88351504Y-93872419D01*
X88351504Y-93872419D02*
X88541980Y-93205752D01*
X90018171Y-93348609D02*
X90161028Y-93396228D01*
X90161028Y-93396228D02*
X90208647Y-93443847D01*
X90208647Y-93443847D02*
X90256266Y-93539085D01*
X90256266Y-93539085D02*
X90256266Y-93681942D01*
X90256266Y-93681942D02*
X90208647Y-93777180D01*
X90208647Y-93777180D02*
X90161028Y-93824800D01*
X90161028Y-93824800D02*
X90065790Y-93872419D01*
X90065790Y-93872419D02*
X89684838Y-93872419D01*
X89684838Y-93872419D02*
X89684838Y-92872419D01*
X89684838Y-92872419D02*
X90018171Y-92872419D01*
X90018171Y-92872419D02*
X90113409Y-92920038D01*
X90113409Y-92920038D02*
X90161028Y-92967657D01*
X90161028Y-92967657D02*
X90208647Y-93062895D01*
X90208647Y-93062895D02*
X90208647Y-93158133D01*
X90208647Y-93158133D02*
X90161028Y-93253371D01*
X90161028Y-93253371D02*
X90113409Y-93300990D01*
X90113409Y-93300990D02*
X90018171Y-93348609D01*
X90018171Y-93348609D02*
X89684838Y-93348609D01*
X90827695Y-93872419D02*
X90732457Y-93824800D01*
X90732457Y-93824800D02*
X90684838Y-93729561D01*
X90684838Y-93729561D02*
X90684838Y-92872419D01*
X91351505Y-93872419D02*
X91256267Y-93824800D01*
X91256267Y-93824800D02*
X91208648Y-93777180D01*
X91208648Y-93777180D02*
X91161029Y-93681942D01*
X91161029Y-93681942D02*
X91161029Y-93396228D01*
X91161029Y-93396228D02*
X91208648Y-93300990D01*
X91208648Y-93300990D02*
X91256267Y-93253371D01*
X91256267Y-93253371D02*
X91351505Y-93205752D01*
X91351505Y-93205752D02*
X91494362Y-93205752D01*
X91494362Y-93205752D02*
X91589600Y-93253371D01*
X91589600Y-93253371D02*
X91637219Y-93300990D01*
X91637219Y-93300990D02*
X91684838Y-93396228D01*
X91684838Y-93396228D02*
X91684838Y-93681942D01*
X91684838Y-93681942D02*
X91637219Y-93777180D01*
X91637219Y-93777180D02*
X91589600Y-93824800D01*
X91589600Y-93824800D02*
X91494362Y-93872419D01*
X91494362Y-93872419D02*
X91351505Y-93872419D01*
X92018172Y-93205752D02*
X92208648Y-93872419D01*
X92208648Y-93872419D02*
X92399124Y-93396228D01*
X92399124Y-93396228D02*
X92589600Y-93872419D01*
X92589600Y-93872419D02*
X92780076Y-93205752D01*
X76137217Y-117348609D02*
X75803884Y-117348609D01*
X75803884Y-117872419D02*
X75803884Y-116872419D01*
X75803884Y-116872419D02*
X76280074Y-116872419D01*
X76565789Y-116872419D02*
X77184836Y-116872419D01*
X77184836Y-116872419D02*
X76851503Y-117253371D01*
X76851503Y-117253371D02*
X76994360Y-117253371D01*
X76994360Y-117253371D02*
X77089598Y-117300990D01*
X77089598Y-117300990D02*
X77137217Y-117348609D01*
X77137217Y-117348609D02*
X77184836Y-117443847D01*
X77184836Y-117443847D02*
X77184836Y-117681942D01*
X77184836Y-117681942D02*
X77137217Y-117777180D01*
X77137217Y-117777180D02*
X77089598Y-117824800D01*
X77089598Y-117824800D02*
X76994360Y-117872419D01*
X76994360Y-117872419D02*
X76708646Y-117872419D01*
X76708646Y-117872419D02*
X76613408Y-117824800D01*
X76613408Y-117824800D02*
X76565789Y-117777180D01*
X79184837Y-117872419D02*
X79137218Y-117872419D01*
X79137218Y-117872419D02*
X79041979Y-117824800D01*
X79041979Y-117824800D02*
X78899122Y-117681942D01*
X78899122Y-117681942D02*
X78661027Y-117396228D01*
X78661027Y-117396228D02*
X78565789Y-117253371D01*
X78565789Y-117253371D02*
X78518170Y-117110514D01*
X78518170Y-117110514D02*
X78518170Y-117015276D01*
X78518170Y-117015276D02*
X78565789Y-116920038D01*
X78565789Y-116920038D02*
X78661027Y-116872419D01*
X78661027Y-116872419D02*
X78708646Y-116872419D01*
X78708646Y-116872419D02*
X78803884Y-116920038D01*
X78803884Y-116920038D02*
X78851503Y-117015276D01*
X78851503Y-117015276D02*
X78851503Y-117062895D01*
X78851503Y-117062895D02*
X78803884Y-117158133D01*
X78803884Y-117158133D02*
X78756265Y-117205752D01*
X78756265Y-117205752D02*
X78470551Y-117396228D01*
X78470551Y-117396228D02*
X78422932Y-117443847D01*
X78422932Y-117443847D02*
X78375313Y-117539085D01*
X78375313Y-117539085D02*
X78375313Y-117681942D01*
X78375313Y-117681942D02*
X78422932Y-117777180D01*
X78422932Y-117777180D02*
X78470551Y-117824800D01*
X78470551Y-117824800D02*
X78565789Y-117872419D01*
X78565789Y-117872419D02*
X78708646Y-117872419D01*
X78708646Y-117872419D02*
X78803884Y-117824800D01*
X78803884Y-117824800D02*
X78851503Y-117777180D01*
X78851503Y-117777180D02*
X78994360Y-117586704D01*
X78994360Y-117586704D02*
X79041979Y-117443847D01*
X79041979Y-117443847D02*
X79041979Y-117348609D01*
X80708646Y-117348609D02*
X80375313Y-117348609D01*
X80375313Y-117872419D02*
X80375313Y-116872419D01*
X80375313Y-116872419D02*
X80851503Y-116872419D01*
X81661027Y-117205752D02*
X81661027Y-117872419D01*
X81422932Y-116824800D02*
X81184837Y-117539085D01*
X81184837Y-117539085D02*
X81803884Y-117539085D01*
X82184837Y-117777180D02*
X82232456Y-117824800D01*
X82232456Y-117824800D02*
X82184837Y-117872419D01*
X82184837Y-117872419D02*
X82137218Y-117824800D01*
X82137218Y-117824800D02*
X82184837Y-117777180D01*
X82184837Y-117777180D02*
X82184837Y-117872419D01*
X82184837Y-117253371D02*
X82232456Y-117300990D01*
X82232456Y-117300990D02*
X82184837Y-117348609D01*
X82184837Y-117348609D02*
X82137218Y-117300990D01*
X82137218Y-117300990D02*
X82184837Y-117253371D01*
X82184837Y-117253371D02*
X82184837Y-117348609D01*
X83375313Y-116967657D02*
X83422932Y-116920038D01*
X83422932Y-116920038D02*
X83518170Y-116872419D01*
X83518170Y-116872419D02*
X83756265Y-116872419D01*
X83756265Y-116872419D02*
X83851503Y-116920038D01*
X83851503Y-116920038D02*
X83899122Y-116967657D01*
X83899122Y-116967657D02*
X83946741Y-117062895D01*
X83946741Y-117062895D02*
X83946741Y-117158133D01*
X83946741Y-117158133D02*
X83899122Y-117300990D01*
X83899122Y-117300990D02*
X83327694Y-117872419D01*
X83327694Y-117872419D02*
X83946741Y-117872419D01*
X84375313Y-117777180D02*
X84422932Y-117824800D01*
X84422932Y-117824800D02*
X84375313Y-117872419D01*
X84375313Y-117872419D02*
X84327694Y-117824800D01*
X84327694Y-117824800D02*
X84375313Y-117777180D01*
X84375313Y-117777180D02*
X84375313Y-117872419D01*
X85327693Y-116872419D02*
X84851503Y-116872419D01*
X84851503Y-116872419D02*
X84803884Y-117348609D01*
X84803884Y-117348609D02*
X84851503Y-117300990D01*
X84851503Y-117300990D02*
X84946741Y-117253371D01*
X84946741Y-117253371D02*
X85184836Y-117253371D01*
X85184836Y-117253371D02*
X85280074Y-117300990D01*
X85280074Y-117300990D02*
X85327693Y-117348609D01*
X85327693Y-117348609D02*
X85375312Y-117443847D01*
X85375312Y-117443847D02*
X85375312Y-117681942D01*
X85375312Y-117681942D02*
X85327693Y-117777180D01*
X85327693Y-117777180D02*
X85280074Y-117824800D01*
X85280074Y-117824800D02*
X85184836Y-117872419D01*
X85184836Y-117872419D02*
X84946741Y-117872419D01*
X84946741Y-117872419D02*
X84851503Y-117824800D01*
X84851503Y-117824800D02*
X84803884Y-117777180D01*
X85756265Y-117586704D02*
X86232455Y-117586704D01*
X85661027Y-117872419D02*
X85994360Y-116872419D01*
X85994360Y-116872419D02*
X86327693Y-117872419D01*
X87422932Y-117872419D02*
X87422932Y-116872419D01*
X87422932Y-116872419D02*
X87994360Y-117872419D01*
X87994360Y-117872419D02*
X87994360Y-116872419D01*
X88613408Y-117872419D02*
X88518170Y-117824800D01*
X88518170Y-117824800D02*
X88470551Y-117777180D01*
X88470551Y-117777180D02*
X88422932Y-117681942D01*
X88422932Y-117681942D02*
X88422932Y-117396228D01*
X88422932Y-117396228D02*
X88470551Y-117300990D01*
X88470551Y-117300990D02*
X88518170Y-117253371D01*
X88518170Y-117253371D02*
X88613408Y-117205752D01*
X88613408Y-117205752D02*
X88756265Y-117205752D01*
X88756265Y-117205752D02*
X88851503Y-117253371D01*
X88851503Y-117253371D02*
X88899122Y-117300990D01*
X88899122Y-117300990D02*
X88946741Y-117396228D01*
X88946741Y-117396228D02*
X88946741Y-117681942D01*
X88946741Y-117681942D02*
X88899122Y-117777180D01*
X88899122Y-117777180D02*
X88851503Y-117824800D01*
X88851503Y-117824800D02*
X88756265Y-117872419D01*
X88756265Y-117872419D02*
X88613408Y-117872419D01*
X89375313Y-117872419D02*
X89375313Y-117205752D01*
X89375313Y-117396228D02*
X89422932Y-117300990D01*
X89422932Y-117300990D02*
X89470551Y-117253371D01*
X89470551Y-117253371D02*
X89565789Y-117205752D01*
X89565789Y-117205752D02*
X89661027Y-117205752D01*
X89994361Y-117872419D02*
X89994361Y-117205752D01*
X89994361Y-117300990D02*
X90041980Y-117253371D01*
X90041980Y-117253371D02*
X90137218Y-117205752D01*
X90137218Y-117205752D02*
X90280075Y-117205752D01*
X90280075Y-117205752D02*
X90375313Y-117253371D01*
X90375313Y-117253371D02*
X90422932Y-117348609D01*
X90422932Y-117348609D02*
X90422932Y-117872419D01*
X90422932Y-117348609D02*
X90470551Y-117253371D01*
X90470551Y-117253371D02*
X90565789Y-117205752D01*
X90565789Y-117205752D02*
X90708646Y-117205752D01*
X90708646Y-117205752D02*
X90803885Y-117253371D01*
X90803885Y-117253371D02*
X90851504Y-117348609D01*
X90851504Y-117348609D02*
X90851504Y-117872419D01*
X91756265Y-117872419D02*
X91756265Y-117348609D01*
X91756265Y-117348609D02*
X91708646Y-117253371D01*
X91708646Y-117253371D02*
X91613408Y-117205752D01*
X91613408Y-117205752D02*
X91422932Y-117205752D01*
X91422932Y-117205752D02*
X91327694Y-117253371D01*
X91756265Y-117824800D02*
X91661027Y-117872419D01*
X91661027Y-117872419D02*
X91422932Y-117872419D01*
X91422932Y-117872419D02*
X91327694Y-117824800D01*
X91327694Y-117824800D02*
X91280075Y-117729561D01*
X91280075Y-117729561D02*
X91280075Y-117634323D01*
X91280075Y-117634323D02*
X91327694Y-117539085D01*
X91327694Y-117539085D02*
X91422932Y-117491466D01*
X91422932Y-117491466D02*
X91661027Y-117491466D01*
X91661027Y-117491466D02*
X91756265Y-117443847D01*
X92375313Y-117872419D02*
X92280075Y-117824800D01*
X92280075Y-117824800D02*
X92232456Y-117729561D01*
X92232456Y-117729561D02*
X92232456Y-116872419D01*
X218280074Y-100872419D02*
X217803884Y-100872419D01*
X217803884Y-100872419D02*
X217803884Y-99872419D01*
X218613408Y-100348609D02*
X218946741Y-100348609D01*
X219089598Y-100872419D02*
X218613408Y-100872419D01*
X218613408Y-100872419D02*
X218613408Y-99872419D01*
X218613408Y-99872419D02*
X219089598Y-99872419D01*
X219518170Y-100872419D02*
X219518170Y-99872419D01*
X219518170Y-99872419D02*
X219756265Y-99872419D01*
X219756265Y-99872419D02*
X219899122Y-99920038D01*
X219899122Y-99920038D02*
X219994360Y-100015276D01*
X219994360Y-100015276D02*
X220041979Y-100110514D01*
X220041979Y-100110514D02*
X220089598Y-100300990D01*
X220089598Y-100300990D02*
X220089598Y-100443847D01*
X220089598Y-100443847D02*
X220041979Y-100634323D01*
X220041979Y-100634323D02*
X219994360Y-100729561D01*
X219994360Y-100729561D02*
X219899122Y-100824800D01*
X219899122Y-100824800D02*
X219756265Y-100872419D01*
X219756265Y-100872419D02*
X219518170Y-100872419D01*
X218303884Y-108372419D02*
X218303884Y-107372419D01*
X218303884Y-107372419D02*
X218541979Y-107372419D01*
X218541979Y-107372419D02*
X218684836Y-107420038D01*
X218684836Y-107420038D02*
X218780074Y-107515276D01*
X218780074Y-107515276D02*
X218827693Y-107610514D01*
X218827693Y-107610514D02*
X218875312Y-107800990D01*
X218875312Y-107800990D02*
X218875312Y-107943847D01*
X218875312Y-107943847D02*
X218827693Y-108134323D01*
X218827693Y-108134323D02*
X218780074Y-108229561D01*
X218780074Y-108229561D02*
X218684836Y-108324800D01*
X218684836Y-108324800D02*
X218541979Y-108372419D01*
X218541979Y-108372419D02*
X218303884Y-108372419D01*
X219875312Y-108277180D02*
X219827693Y-108324800D01*
X219827693Y-108324800D02*
X219684836Y-108372419D01*
X219684836Y-108372419D02*
X219589598Y-108372419D01*
X219589598Y-108372419D02*
X219446741Y-108324800D01*
X219446741Y-108324800D02*
X219351503Y-108229561D01*
X219351503Y-108229561D02*
X219303884Y-108134323D01*
X219303884Y-108134323D02*
X219256265Y-107943847D01*
X219256265Y-107943847D02*
X219256265Y-107800990D01*
X219256265Y-107800990D02*
X219303884Y-107610514D01*
X219303884Y-107610514D02*
X219351503Y-107515276D01*
X219351503Y-107515276D02*
X219446741Y-107420038D01*
X219446741Y-107420038D02*
X219589598Y-107372419D01*
X219589598Y-107372419D02*
X219684836Y-107372419D01*
X219684836Y-107372419D02*
X219827693Y-107420038D01*
X219827693Y-107420038D02*
X219875312Y-107467657D01*
X218375312Y-110872419D02*
X218041979Y-110396228D01*
X217803884Y-110872419D02*
X217803884Y-109872419D01*
X217803884Y-109872419D02*
X218184836Y-109872419D01*
X218184836Y-109872419D02*
X218280074Y-109920038D01*
X218280074Y-109920038D02*
X218327693Y-109967657D01*
X218327693Y-109967657D02*
X218375312Y-110062895D01*
X218375312Y-110062895D02*
X218375312Y-110205752D01*
X218375312Y-110205752D02*
X218327693Y-110300990D01*
X218327693Y-110300990D02*
X218280074Y-110348609D01*
X218280074Y-110348609D02*
X218184836Y-110396228D01*
X218184836Y-110396228D02*
X217803884Y-110396228D01*
X218756265Y-110824800D02*
X218899122Y-110872419D01*
X218899122Y-110872419D02*
X219137217Y-110872419D01*
X219137217Y-110872419D02*
X219232455Y-110824800D01*
X219232455Y-110824800D02*
X219280074Y-110777180D01*
X219280074Y-110777180D02*
X219327693Y-110681942D01*
X219327693Y-110681942D02*
X219327693Y-110586704D01*
X219327693Y-110586704D02*
X219280074Y-110491466D01*
X219280074Y-110491466D02*
X219232455Y-110443847D01*
X219232455Y-110443847D02*
X219137217Y-110396228D01*
X219137217Y-110396228D02*
X218946741Y-110348609D01*
X218946741Y-110348609D02*
X218851503Y-110300990D01*
X218851503Y-110300990D02*
X218803884Y-110253371D01*
X218803884Y-110253371D02*
X218756265Y-110158133D01*
X218756265Y-110158133D02*
X218756265Y-110062895D01*
X218756265Y-110062895D02*
X218803884Y-109967657D01*
X218803884Y-109967657D02*
X218851503Y-109920038D01*
X218851503Y-109920038D02*
X218946741Y-109872419D01*
X218946741Y-109872419D02*
X219184836Y-109872419D01*
X219184836Y-109872419D02*
X219327693Y-109920038D01*
X219613408Y-109872419D02*
X220184836Y-109872419D01*
X219899122Y-110872419D02*
X219899122Y-109872419D01*
X187458646Y-97622419D02*
X188077693Y-97622419D01*
X188077693Y-97622419D02*
X187744360Y-98003371D01*
X187744360Y-98003371D02*
X187887217Y-98003371D01*
X187887217Y-98003371D02*
X187982455Y-98050990D01*
X187982455Y-98050990D02*
X188030074Y-98098609D01*
X188030074Y-98098609D02*
X188077693Y-98193847D01*
X188077693Y-98193847D02*
X188077693Y-98431942D01*
X188077693Y-98431942D02*
X188030074Y-98527180D01*
X188030074Y-98527180D02*
X187982455Y-98574800D01*
X187982455Y-98574800D02*
X187887217Y-98622419D01*
X187887217Y-98622419D02*
X187601503Y-98622419D01*
X187601503Y-98622419D02*
X187506265Y-98574800D01*
X187506265Y-98574800D02*
X187458646Y-98527180D01*
X188363408Y-97622419D02*
X188696741Y-98622419D01*
X188696741Y-98622419D02*
X189030074Y-97622419D01*
X189268170Y-97622419D02*
X189887217Y-97622419D01*
X189887217Y-97622419D02*
X189553884Y-98003371D01*
X189553884Y-98003371D02*
X189696741Y-98003371D01*
X189696741Y-98003371D02*
X189791979Y-98050990D01*
X189791979Y-98050990D02*
X189839598Y-98098609D01*
X189839598Y-98098609D02*
X189887217Y-98193847D01*
X189887217Y-98193847D02*
X189887217Y-98431942D01*
X189887217Y-98431942D02*
X189839598Y-98527180D01*
X189839598Y-98527180D02*
X189791979Y-98574800D01*
X189791979Y-98574800D02*
X189696741Y-98622419D01*
X189696741Y-98622419D02*
X189411027Y-98622419D01*
X189411027Y-98622419D02*
X189315789Y-98574800D01*
X189315789Y-98574800D02*
X189268170Y-98527180D01*
D12*
X69305380Y-96307330D02*
X69305380Y-95640663D01*
X68257761Y-95640663D02*
X70257761Y-95640663D01*
X70257761Y-95640663D02*
X70257761Y-96593044D01*
X68257761Y-98212092D02*
X69305380Y-98212092D01*
X69305380Y-98212092D02*
X69495857Y-98116854D01*
X69495857Y-98116854D02*
X69591095Y-97926378D01*
X69591095Y-97926378D02*
X69591095Y-97545425D01*
X69591095Y-97545425D02*
X69495857Y-97354949D01*
X68353000Y-98212092D02*
X68257761Y-98021616D01*
X68257761Y-98021616D02*
X68257761Y-97545425D01*
X68257761Y-97545425D02*
X68353000Y-97354949D01*
X68353000Y-97354949D02*
X68543476Y-97259711D01*
X68543476Y-97259711D02*
X68733952Y-97259711D01*
X68733952Y-97259711D02*
X68924428Y-97354949D01*
X68924428Y-97354949D02*
X69019666Y-97545425D01*
X69019666Y-97545425D02*
X69019666Y-98021616D01*
X69019666Y-98021616D02*
X69114904Y-98212092D01*
X69591095Y-99164473D02*
X68257761Y-99164473D01*
X69400619Y-99164473D02*
X69495857Y-99259711D01*
X69495857Y-99259711D02*
X69591095Y-99450187D01*
X69591095Y-99450187D02*
X69591095Y-99735902D01*
X69591095Y-99735902D02*
X69495857Y-99926378D01*
X69495857Y-99926378D02*
X69305380Y-100021616D01*
X69305380Y-100021616D02*
X68257761Y-100021616D01*
D10*
X187553884Y-91122419D02*
X187553884Y-90122419D01*
X187553884Y-90122419D02*
X187791979Y-90122419D01*
X187791979Y-90122419D02*
X187934836Y-90170038D01*
X187934836Y-90170038D02*
X188030074Y-90265276D01*
X188030074Y-90265276D02*
X188077693Y-90360514D01*
X188077693Y-90360514D02*
X188125312Y-90550990D01*
X188125312Y-90550990D02*
X188125312Y-90693847D01*
X188125312Y-90693847D02*
X188077693Y-90884323D01*
X188077693Y-90884323D02*
X188030074Y-90979561D01*
X188030074Y-90979561D02*
X187934836Y-91074800D01*
X187934836Y-91074800D02*
X187791979Y-91122419D01*
X187791979Y-91122419D02*
X187553884Y-91122419D01*
X188411027Y-90122419D02*
X188982455Y-90122419D01*
X188696741Y-91122419D02*
X188696741Y-90122419D01*
X189887217Y-91122419D02*
X189553884Y-90646228D01*
X189315789Y-91122419D02*
X189315789Y-90122419D01*
X189315789Y-90122419D02*
X189696741Y-90122419D01*
X189696741Y-90122419D02*
X189791979Y-90170038D01*
X189791979Y-90170038D02*
X189839598Y-90217657D01*
X189839598Y-90217657D02*
X189887217Y-90312895D01*
X189887217Y-90312895D02*
X189887217Y-90455752D01*
X189887217Y-90455752D02*
X189839598Y-90550990D01*
X189839598Y-90550990D02*
X189791979Y-90598609D01*
X189791979Y-90598609D02*
X189696741Y-90646228D01*
X189696741Y-90646228D02*
X189315789Y-90646228D01*
X218327693Y-114920038D02*
X218232455Y-114872419D01*
X218232455Y-114872419D02*
X218089598Y-114872419D01*
X218089598Y-114872419D02*
X217946741Y-114920038D01*
X217946741Y-114920038D02*
X217851503Y-115015276D01*
X217851503Y-115015276D02*
X217803884Y-115110514D01*
X217803884Y-115110514D02*
X217756265Y-115300990D01*
X217756265Y-115300990D02*
X217756265Y-115443847D01*
X217756265Y-115443847D02*
X217803884Y-115634323D01*
X217803884Y-115634323D02*
X217851503Y-115729561D01*
X217851503Y-115729561D02*
X217946741Y-115824800D01*
X217946741Y-115824800D02*
X218089598Y-115872419D01*
X218089598Y-115872419D02*
X218184836Y-115872419D01*
X218184836Y-115872419D02*
X218327693Y-115824800D01*
X218327693Y-115824800D02*
X218375312Y-115777180D01*
X218375312Y-115777180D02*
X218375312Y-115443847D01*
X218375312Y-115443847D02*
X218184836Y-115443847D01*
X218803884Y-115872419D02*
X218803884Y-114872419D01*
X218803884Y-114872419D02*
X219375312Y-115872419D01*
X219375312Y-115872419D02*
X219375312Y-114872419D01*
X219851503Y-115872419D02*
X219851503Y-114872419D01*
X219851503Y-114872419D02*
X220089598Y-114872419D01*
X220089598Y-114872419D02*
X220232455Y-114920038D01*
X220232455Y-114920038D02*
X220327693Y-115015276D01*
X220327693Y-115015276D02*
X220375312Y-115110514D01*
X220375312Y-115110514D02*
X220422931Y-115300990D01*
X220422931Y-115300990D02*
X220422931Y-115443847D01*
X220422931Y-115443847D02*
X220375312Y-115634323D01*
X220375312Y-115634323D02*
X220327693Y-115729561D01*
X220327693Y-115729561D02*
X220232455Y-115824800D01*
X220232455Y-115824800D02*
X220089598Y-115872419D01*
X220089598Y-115872419D02*
X219851503Y-115872419D01*
X216161027Y-89372419D02*
X216732455Y-89372419D01*
X216446741Y-90372419D02*
X216446741Y-89372419D01*
X216827694Y-90467657D02*
X217589598Y-90467657D01*
X217827694Y-90372419D02*
X217827694Y-89372419D01*
X217827694Y-89372419D02*
X218065789Y-89372419D01*
X218065789Y-89372419D02*
X218208646Y-89420038D01*
X218208646Y-89420038D02*
X218303884Y-89515276D01*
X218303884Y-89515276D02*
X218351503Y-89610514D01*
X218351503Y-89610514D02*
X218399122Y-89800990D01*
X218399122Y-89800990D02*
X218399122Y-89943847D01*
X218399122Y-89943847D02*
X218351503Y-90134323D01*
X218351503Y-90134323D02*
X218303884Y-90229561D01*
X218303884Y-90229561D02*
X218208646Y-90324800D01*
X218208646Y-90324800D02*
X218065789Y-90372419D01*
X218065789Y-90372419D02*
X217827694Y-90372419D01*
X218827694Y-90372419D02*
X218827694Y-89372419D01*
X219303884Y-90372419D02*
X219303884Y-89372419D01*
X219303884Y-89372419D02*
X219875312Y-90372419D01*
X219875312Y-90372419D02*
X219875312Y-89372419D01*
X216661027Y-84372419D02*
X217232455Y-84372419D01*
X216946741Y-85372419D02*
X216946741Y-84372419D01*
X217327694Y-85467657D02*
X218089598Y-85467657D01*
X218327694Y-85372419D02*
X218327694Y-84372419D01*
X219375312Y-85372419D02*
X219041979Y-84896228D01*
X218803884Y-85372419D02*
X218803884Y-84372419D01*
X218803884Y-84372419D02*
X219184836Y-84372419D01*
X219184836Y-84372419D02*
X219280074Y-84420038D01*
X219280074Y-84420038D02*
X219327693Y-84467657D01*
X219327693Y-84467657D02*
X219375312Y-84562895D01*
X219375312Y-84562895D02*
X219375312Y-84705752D01*
X219375312Y-84705752D02*
X219327693Y-84800990D01*
X219327693Y-84800990D02*
X219280074Y-84848609D01*
X219280074Y-84848609D02*
X219184836Y-84896228D01*
X219184836Y-84896228D02*
X218803884Y-84896228D01*
X220470550Y-85467657D02*
X220375312Y-85420038D01*
X220375312Y-85420038D02*
X220280074Y-85324800D01*
X220280074Y-85324800D02*
X220137217Y-85181942D01*
X220137217Y-85181942D02*
X220041979Y-85134323D01*
X220041979Y-85134323D02*
X219946741Y-85134323D01*
X219994360Y-85372419D02*
X219899122Y-85324800D01*
X219899122Y-85324800D02*
X219803884Y-85229561D01*
X219803884Y-85229561D02*
X219756265Y-85039085D01*
X219756265Y-85039085D02*
X219756265Y-84705752D01*
X219756265Y-84705752D02*
X219803884Y-84515276D01*
X219803884Y-84515276D02*
X219899122Y-84420038D01*
X219899122Y-84420038D02*
X219994360Y-84372419D01*
X219994360Y-84372419D02*
X220184836Y-84372419D01*
X220184836Y-84372419D02*
X220280074Y-84420038D01*
X220280074Y-84420038D02*
X220375312Y-84515276D01*
X220375312Y-84515276D02*
X220422931Y-84705752D01*
X220422931Y-84705752D02*
X220422931Y-85039085D01*
X220422931Y-85039085D02*
X220375312Y-85229561D01*
X220375312Y-85229561D02*
X220280074Y-85324800D01*
X220280074Y-85324800D02*
X220184836Y-85372419D01*
X220184836Y-85372419D02*
X219994360Y-85372419D01*
X216661027Y-86872419D02*
X217232455Y-86872419D01*
X216946741Y-87872419D02*
X216946741Y-86872419D01*
X217327694Y-87967657D02*
X218089598Y-87967657D01*
X218327694Y-87872419D02*
X218327694Y-86872419D01*
X218327694Y-86872419D02*
X218565789Y-86872419D01*
X218565789Y-86872419D02*
X218708646Y-86920038D01*
X218708646Y-86920038D02*
X218803884Y-87015276D01*
X218803884Y-87015276D02*
X218851503Y-87110514D01*
X218851503Y-87110514D02*
X218899122Y-87300990D01*
X218899122Y-87300990D02*
X218899122Y-87443847D01*
X218899122Y-87443847D02*
X218851503Y-87634323D01*
X218851503Y-87634323D02*
X218803884Y-87729561D01*
X218803884Y-87729561D02*
X218708646Y-87824800D01*
X218708646Y-87824800D02*
X218565789Y-87872419D01*
X218565789Y-87872419D02*
X218327694Y-87872419D01*
X219518170Y-86872419D02*
X219708646Y-86872419D01*
X219708646Y-86872419D02*
X219803884Y-86920038D01*
X219803884Y-86920038D02*
X219899122Y-87015276D01*
X219899122Y-87015276D02*
X219946741Y-87205752D01*
X219946741Y-87205752D02*
X219946741Y-87539085D01*
X219946741Y-87539085D02*
X219899122Y-87729561D01*
X219899122Y-87729561D02*
X219803884Y-87824800D01*
X219803884Y-87824800D02*
X219708646Y-87872419D01*
X219708646Y-87872419D02*
X219518170Y-87872419D01*
X219518170Y-87872419D02*
X219422932Y-87824800D01*
X219422932Y-87824800D02*
X219327694Y-87729561D01*
X219327694Y-87729561D02*
X219280075Y-87539085D01*
X219280075Y-87539085D02*
X219280075Y-87205752D01*
X219280075Y-87205752D02*
X219327694Y-87015276D01*
X219327694Y-87015276D02*
X219422932Y-86920038D01*
X219422932Y-86920038D02*
X219518170Y-86872419D01*
D13*
X191932447Y-83507142D02*
X191741971Y-83640475D01*
X191932447Y-83735713D02*
X191532447Y-83735713D01*
X191532447Y-83735713D02*
X191532447Y-83583332D01*
X191532447Y-83583332D02*
X191551495Y-83545237D01*
X191551495Y-83545237D02*
X191570542Y-83526190D01*
X191570542Y-83526190D02*
X191608638Y-83507142D01*
X191608638Y-83507142D02*
X191665780Y-83507142D01*
X191665780Y-83507142D02*
X191703876Y-83526190D01*
X191703876Y-83526190D02*
X191722923Y-83545237D01*
X191722923Y-83545237D02*
X191741971Y-83583332D01*
X191741971Y-83583332D02*
X191741971Y-83735713D01*
X191932447Y-83126190D02*
X191932447Y-83354761D01*
X191932447Y-83240475D02*
X191532447Y-83240475D01*
X191532447Y-83240475D02*
X191589590Y-83278571D01*
X191589590Y-83278571D02*
X191627685Y-83316666D01*
X191627685Y-83316666D02*
X191646733Y-83354761D01*
X191932447Y-82745238D02*
X191932447Y-82973809D01*
X191932447Y-82859523D02*
X191532447Y-82859523D01*
X191532447Y-82859523D02*
X191589590Y-82897619D01*
X191589590Y-82897619D02*
X191627685Y-82935714D01*
X191627685Y-82935714D02*
X191646733Y-82973809D01*
D14*
X200374819Y-110426666D02*
X199898628Y-110759999D01*
X200374819Y-110998094D02*
X199374819Y-110998094D01*
X199374819Y-110998094D02*
X199374819Y-110617142D01*
X199374819Y-110617142D02*
X199422438Y-110521904D01*
X199422438Y-110521904D02*
X199470057Y-110474285D01*
X199470057Y-110474285D02*
X199565295Y-110426666D01*
X199565295Y-110426666D02*
X199708152Y-110426666D01*
X199708152Y-110426666D02*
X199803390Y-110474285D01*
X199803390Y-110474285D02*
X199851009Y-110521904D01*
X199851009Y-110521904D02*
X199898628Y-110617142D01*
X199898628Y-110617142D02*
X199898628Y-110998094D01*
X199803390Y-109855237D02*
X199755771Y-109950475D01*
X199755771Y-109950475D02*
X199708152Y-109998094D01*
X199708152Y-109998094D02*
X199612914Y-110045713D01*
X199612914Y-110045713D02*
X199565295Y-110045713D01*
X199565295Y-110045713D02*
X199470057Y-109998094D01*
X199470057Y-109998094D02*
X199422438Y-109950475D01*
X199422438Y-109950475D02*
X199374819Y-109855237D01*
X199374819Y-109855237D02*
X199374819Y-109664761D01*
X199374819Y-109664761D02*
X199422438Y-109569523D01*
X199422438Y-109569523D02*
X199470057Y-109521904D01*
X199470057Y-109521904D02*
X199565295Y-109474285D01*
X199565295Y-109474285D02*
X199612914Y-109474285D01*
X199612914Y-109474285D02*
X199708152Y-109521904D01*
X199708152Y-109521904D02*
X199755771Y-109569523D01*
X199755771Y-109569523D02*
X199803390Y-109664761D01*
X199803390Y-109664761D02*
X199803390Y-109855237D01*
X199803390Y-109855237D02*
X199851009Y-109950475D01*
X199851009Y-109950475D02*
X199898628Y-109998094D01*
X199898628Y-109998094D02*
X199993866Y-110045713D01*
X199993866Y-110045713D02*
X200184342Y-110045713D01*
X200184342Y-110045713D02*
X200279580Y-109998094D01*
X200279580Y-109998094D02*
X200327200Y-109950475D01*
X200327200Y-109950475D02*
X200374819Y-109855237D01*
X200374819Y-109855237D02*
X200374819Y-109664761D01*
X200374819Y-109664761D02*
X200327200Y-109569523D01*
X200327200Y-109569523D02*
X200279580Y-109521904D01*
X200279580Y-109521904D02*
X200184342Y-109474285D01*
X200184342Y-109474285D02*
X199993866Y-109474285D01*
X199993866Y-109474285D02*
X199898628Y-109521904D01*
X199898628Y-109521904D02*
X199851009Y-109569523D01*
X199851009Y-109569523D02*
X199803390Y-109664761D01*
X196914819Y-123833333D02*
X197629104Y-123833333D01*
X197629104Y-123833333D02*
X197771961Y-123880952D01*
X197771961Y-123880952D02*
X197867200Y-123976190D01*
X197867200Y-123976190D02*
X197914819Y-124119047D01*
X197914819Y-124119047D02*
X197914819Y-124214285D01*
X196914819Y-122880952D02*
X196914819Y-123357142D01*
X196914819Y-123357142D02*
X197391009Y-123404761D01*
X197391009Y-123404761D02*
X197343390Y-123357142D01*
X197343390Y-123357142D02*
X197295771Y-123261904D01*
X197295771Y-123261904D02*
X197295771Y-123023809D01*
X197295771Y-123023809D02*
X197343390Y-122928571D01*
X197343390Y-122928571D02*
X197391009Y-122880952D01*
X197391009Y-122880952D02*
X197486247Y-122833333D01*
X197486247Y-122833333D02*
X197724342Y-122833333D01*
X197724342Y-122833333D02*
X197819580Y-122880952D01*
X197819580Y-122880952D02*
X197867200Y-122928571D01*
X197867200Y-122928571D02*
X197914819Y-123023809D01*
X197914819Y-123023809D02*
X197914819Y-123261904D01*
X197914819Y-123261904D02*
X197867200Y-123357142D01*
X197867200Y-123357142D02*
X197819580Y-123404761D01*
D10*
X118833333Y-98707419D02*
X118357143Y-98707419D01*
X118357143Y-98707419D02*
X118357143Y-97707419D01*
X119690476Y-98707419D02*
X119119048Y-98707419D01*
X119404762Y-98707419D02*
X119404762Y-97707419D01*
X119404762Y-97707419D02*
X119309524Y-97850276D01*
X119309524Y-97850276D02*
X119214286Y-97945514D01*
X119214286Y-97945514D02*
X119119048Y-97993133D01*
D14*
X128404761Y-110400057D02*
X128309523Y-110352438D01*
X128309523Y-110352438D02*
X128214285Y-110257200D01*
X128214285Y-110257200D02*
X128071428Y-110114342D01*
X128071428Y-110114342D02*
X127976190Y-110066723D01*
X127976190Y-110066723D02*
X127880952Y-110066723D01*
X127928571Y-110304819D02*
X127833333Y-110257200D01*
X127833333Y-110257200D02*
X127738095Y-110161961D01*
X127738095Y-110161961D02*
X127690476Y-109971485D01*
X127690476Y-109971485D02*
X127690476Y-109638152D01*
X127690476Y-109638152D02*
X127738095Y-109447676D01*
X127738095Y-109447676D02*
X127833333Y-109352438D01*
X127833333Y-109352438D02*
X127928571Y-109304819D01*
X127928571Y-109304819D02*
X128119047Y-109304819D01*
X128119047Y-109304819D02*
X128214285Y-109352438D01*
X128214285Y-109352438D02*
X128309523Y-109447676D01*
X128309523Y-109447676D02*
X128357142Y-109638152D01*
X128357142Y-109638152D02*
X128357142Y-109971485D01*
X128357142Y-109971485D02*
X128309523Y-110161961D01*
X128309523Y-110161961D02*
X128214285Y-110257200D01*
X128214285Y-110257200D02*
X128119047Y-110304819D01*
X128119047Y-110304819D02*
X127928571Y-110304819D01*
X129214285Y-109638152D02*
X129214285Y-110304819D01*
X128976190Y-109257200D02*
X128738095Y-109971485D01*
X128738095Y-109971485D02*
X129357142Y-109971485D01*
X174583333Y-109834819D02*
X174250000Y-109358628D01*
X174011905Y-109834819D02*
X174011905Y-108834819D01*
X174011905Y-108834819D02*
X174392857Y-108834819D01*
X174392857Y-108834819D02*
X174488095Y-108882438D01*
X174488095Y-108882438D02*
X174535714Y-108930057D01*
X174535714Y-108930057D02*
X174583333Y-109025295D01*
X174583333Y-109025295D02*
X174583333Y-109168152D01*
X174583333Y-109168152D02*
X174535714Y-109263390D01*
X174535714Y-109263390D02*
X174488095Y-109311009D01*
X174488095Y-109311009D02*
X174392857Y-109358628D01*
X174392857Y-109358628D02*
X174011905Y-109358628D01*
X174916667Y-108834819D02*
X175583333Y-108834819D01*
X175583333Y-108834819D02*
X175154762Y-109834819D01*
X82704166Y-115181009D02*
X82370833Y-115181009D01*
X82370833Y-115704819D02*
X82370833Y-114704819D01*
X82370833Y-114704819D02*
X82847023Y-114704819D01*
X83132738Y-114704819D02*
X83751785Y-114704819D01*
X83751785Y-114704819D02*
X83418452Y-115085771D01*
X83418452Y-115085771D02*
X83561309Y-115085771D01*
X83561309Y-115085771D02*
X83656547Y-115133390D01*
X83656547Y-115133390D02*
X83704166Y-115181009D01*
X83704166Y-115181009D02*
X83751785Y-115276247D01*
X83751785Y-115276247D02*
X83751785Y-115514342D01*
X83751785Y-115514342D02*
X83704166Y-115609580D01*
X83704166Y-115609580D02*
X83656547Y-115657200D01*
X83656547Y-115657200D02*
X83561309Y-115704819D01*
X83561309Y-115704819D02*
X83275595Y-115704819D01*
X83275595Y-115704819D02*
X83180357Y-115657200D01*
X83180357Y-115657200D02*
X83132738Y-115609580D01*
X116111905Y-100804819D02*
X116111905Y-99804819D01*
X116683333Y-100804819D02*
X116254762Y-100233390D01*
X116683333Y-99804819D02*
X116111905Y-100376247D01*
X117635714Y-100804819D02*
X117064286Y-100804819D01*
X117350000Y-100804819D02*
X117350000Y-99804819D01*
X117350000Y-99804819D02*
X117254762Y-99947676D01*
X117254762Y-99947676D02*
X117159524Y-100042914D01*
X117159524Y-100042914D02*
X117064286Y-100090533D01*
X190993095Y-106334819D02*
X190993095Y-107144342D01*
X190993095Y-107144342D02*
X191040714Y-107239580D01*
X191040714Y-107239580D02*
X191088333Y-107287200D01*
X191088333Y-107287200D02*
X191183571Y-107334819D01*
X191183571Y-107334819D02*
X191374047Y-107334819D01*
X191374047Y-107334819D02*
X191469285Y-107287200D01*
X191469285Y-107287200D02*
X191516904Y-107239580D01*
X191516904Y-107239580D02*
X191564523Y-107144342D01*
X191564523Y-107144342D02*
X191564523Y-106334819D01*
X192564523Y-107334819D02*
X191993095Y-107334819D01*
X192278809Y-107334819D02*
X192278809Y-106334819D01*
X192278809Y-106334819D02*
X192183571Y-106477676D01*
X192183571Y-106477676D02*
X192088333Y-106572914D01*
X192088333Y-106572914D02*
X191993095Y-106620533D01*
X143404761Y-113454819D02*
X143071428Y-112978628D01*
X142833333Y-113454819D02*
X142833333Y-112454819D01*
X142833333Y-112454819D02*
X143214285Y-112454819D01*
X143214285Y-112454819D02*
X143309523Y-112502438D01*
X143309523Y-112502438D02*
X143357142Y-112550057D01*
X143357142Y-112550057D02*
X143404761Y-112645295D01*
X143404761Y-112645295D02*
X143404761Y-112788152D01*
X143404761Y-112788152D02*
X143357142Y-112883390D01*
X143357142Y-112883390D02*
X143309523Y-112931009D01*
X143309523Y-112931009D02*
X143214285Y-112978628D01*
X143214285Y-112978628D02*
X142833333Y-112978628D01*
X143690476Y-112454819D02*
X144023809Y-113454819D01*
X144023809Y-113454819D02*
X144357142Y-112454819D01*
X144642857Y-112550057D02*
X144690476Y-112502438D01*
X144690476Y-112502438D02*
X144785714Y-112454819D01*
X144785714Y-112454819D02*
X145023809Y-112454819D01*
X145023809Y-112454819D02*
X145119047Y-112502438D01*
X145119047Y-112502438D02*
X145166666Y-112550057D01*
X145166666Y-112550057D02*
X145214285Y-112645295D01*
X145214285Y-112645295D02*
X145214285Y-112740533D01*
X145214285Y-112740533D02*
X145166666Y-112883390D01*
X145166666Y-112883390D02*
X144595238Y-113454819D01*
X144595238Y-113454819D02*
X145214285Y-113454819D01*
X199488095Y-112804819D02*
X199488095Y-113614342D01*
X199488095Y-113614342D02*
X199535714Y-113709580D01*
X199535714Y-113709580D02*
X199583333Y-113757200D01*
X199583333Y-113757200D02*
X199678571Y-113804819D01*
X199678571Y-113804819D02*
X199869047Y-113804819D01*
X199869047Y-113804819D02*
X199964285Y-113757200D01*
X199964285Y-113757200D02*
X200011904Y-113709580D01*
X200011904Y-113709580D02*
X200059523Y-113614342D01*
X200059523Y-113614342D02*
X200059523Y-112804819D01*
X200964285Y-112804819D02*
X200773809Y-112804819D01*
X200773809Y-112804819D02*
X200678571Y-112852438D01*
X200678571Y-112852438D02*
X200630952Y-112900057D01*
X200630952Y-112900057D02*
X200535714Y-113042914D01*
X200535714Y-113042914D02*
X200488095Y-113233390D01*
X200488095Y-113233390D02*
X200488095Y-113614342D01*
X200488095Y-113614342D02*
X200535714Y-113709580D01*
X200535714Y-113709580D02*
X200583333Y-113757200D01*
X200583333Y-113757200D02*
X200678571Y-113804819D01*
X200678571Y-113804819D02*
X200869047Y-113804819D01*
X200869047Y-113804819D02*
X200964285Y-113757200D01*
X200964285Y-113757200D02*
X201011904Y-113709580D01*
X201011904Y-113709580D02*
X201059523Y-113614342D01*
X201059523Y-113614342D02*
X201059523Y-113376247D01*
X201059523Y-113376247D02*
X201011904Y-113281009D01*
X201011904Y-113281009D02*
X200964285Y-113233390D01*
X200964285Y-113233390D02*
X200869047Y-113185771D01*
X200869047Y-113185771D02*
X200678571Y-113185771D01*
X200678571Y-113185771D02*
X200583333Y-113233390D01*
X200583333Y-113233390D02*
X200535714Y-113281009D01*
X200535714Y-113281009D02*
X200488095Y-113376247D01*
X182011905Y-127674819D02*
X182011905Y-126674819D01*
X182011905Y-126674819D02*
X182250000Y-126674819D01*
X182250000Y-126674819D02*
X182392857Y-126722438D01*
X182392857Y-126722438D02*
X182488095Y-126817676D01*
X182488095Y-126817676D02*
X182535714Y-126912914D01*
X182535714Y-126912914D02*
X182583333Y-127103390D01*
X182583333Y-127103390D02*
X182583333Y-127246247D01*
X182583333Y-127246247D02*
X182535714Y-127436723D01*
X182535714Y-127436723D02*
X182488095Y-127531961D01*
X182488095Y-127531961D02*
X182392857Y-127627200D01*
X182392857Y-127627200D02*
X182250000Y-127674819D01*
X182250000Y-127674819D02*
X182011905Y-127674819D01*
X182916667Y-126674819D02*
X183535714Y-126674819D01*
X183535714Y-126674819D02*
X183202381Y-127055771D01*
X183202381Y-127055771D02*
X183345238Y-127055771D01*
X183345238Y-127055771D02*
X183440476Y-127103390D01*
X183440476Y-127103390D02*
X183488095Y-127151009D01*
X183488095Y-127151009D02*
X183535714Y-127246247D01*
X183535714Y-127246247D02*
X183535714Y-127484342D01*
X183535714Y-127484342D02*
X183488095Y-127579580D01*
X183488095Y-127579580D02*
X183440476Y-127627200D01*
X183440476Y-127627200D02*
X183345238Y-127674819D01*
X183345238Y-127674819D02*
X183059524Y-127674819D01*
X183059524Y-127674819D02*
X182964286Y-127627200D01*
X182964286Y-127627200D02*
X182916667Y-127579580D01*
X187568095Y-127304819D02*
X187568095Y-126304819D01*
X188139523Y-127304819D02*
X187710952Y-126733390D01*
X188139523Y-126304819D02*
X187568095Y-126876247D01*
X214867142Y-103624819D02*
X214533809Y-103148628D01*
X214295714Y-103624819D02*
X214295714Y-102624819D01*
X214295714Y-102624819D02*
X214676666Y-102624819D01*
X214676666Y-102624819D02*
X214771904Y-102672438D01*
X214771904Y-102672438D02*
X214819523Y-102720057D01*
X214819523Y-102720057D02*
X214867142Y-102815295D01*
X214867142Y-102815295D02*
X214867142Y-102958152D01*
X214867142Y-102958152D02*
X214819523Y-103053390D01*
X214819523Y-103053390D02*
X214771904Y-103101009D01*
X214771904Y-103101009D02*
X214676666Y-103148628D01*
X214676666Y-103148628D02*
X214295714Y-103148628D01*
X215819523Y-103624819D02*
X215248095Y-103624819D01*
X215533809Y-103624819D02*
X215533809Y-102624819D01*
X215533809Y-102624819D02*
X215438571Y-102767676D01*
X215438571Y-102767676D02*
X215343333Y-102862914D01*
X215343333Y-102862914D02*
X215248095Y-102910533D01*
X216200476Y-102720057D02*
X216248095Y-102672438D01*
X216248095Y-102672438D02*
X216343333Y-102624819D01*
X216343333Y-102624819D02*
X216581428Y-102624819D01*
X216581428Y-102624819D02*
X216676666Y-102672438D01*
X216676666Y-102672438D02*
X216724285Y-102720057D01*
X216724285Y-102720057D02*
X216771904Y-102815295D01*
X216771904Y-102815295D02*
X216771904Y-102910533D01*
X216771904Y-102910533D02*
X216724285Y-103053390D01*
X216724285Y-103053390D02*
X216152857Y-103624819D01*
X216152857Y-103624819D02*
X216771904Y-103624819D01*
X137261905Y-111954819D02*
X137261905Y-110954819D01*
X137261905Y-110954819D02*
X137500000Y-110954819D01*
X137500000Y-110954819D02*
X137642857Y-111002438D01*
X137642857Y-111002438D02*
X137738095Y-111097676D01*
X137738095Y-111097676D02*
X137785714Y-111192914D01*
X137785714Y-111192914D02*
X137833333Y-111383390D01*
X137833333Y-111383390D02*
X137833333Y-111526247D01*
X137833333Y-111526247D02*
X137785714Y-111716723D01*
X137785714Y-111716723D02*
X137738095Y-111811961D01*
X137738095Y-111811961D02*
X137642857Y-111907200D01*
X137642857Y-111907200D02*
X137500000Y-111954819D01*
X137500000Y-111954819D02*
X137261905Y-111954819D01*
X138738095Y-110954819D02*
X138261905Y-110954819D01*
X138261905Y-110954819D02*
X138214286Y-111431009D01*
X138214286Y-111431009D02*
X138261905Y-111383390D01*
X138261905Y-111383390D02*
X138357143Y-111335771D01*
X138357143Y-111335771D02*
X138595238Y-111335771D01*
X138595238Y-111335771D02*
X138690476Y-111383390D01*
X138690476Y-111383390D02*
X138738095Y-111431009D01*
X138738095Y-111431009D02*
X138785714Y-111526247D01*
X138785714Y-111526247D02*
X138785714Y-111764342D01*
X138785714Y-111764342D02*
X138738095Y-111859580D01*
X138738095Y-111859580D02*
X138690476Y-111907200D01*
X138690476Y-111907200D02*
X138595238Y-111954819D01*
X138595238Y-111954819D02*
X138357143Y-111954819D01*
X138357143Y-111954819D02*
X138261905Y-111907200D01*
X138261905Y-111907200D02*
X138214286Y-111859580D01*
X174583333Y-101834819D02*
X174250000Y-101358628D01*
X174011905Y-101834819D02*
X174011905Y-100834819D01*
X174011905Y-100834819D02*
X174392857Y-100834819D01*
X174392857Y-100834819D02*
X174488095Y-100882438D01*
X174488095Y-100882438D02*
X174535714Y-100930057D01*
X174535714Y-100930057D02*
X174583333Y-101025295D01*
X174583333Y-101025295D02*
X174583333Y-101168152D01*
X174583333Y-101168152D02*
X174535714Y-101263390D01*
X174535714Y-101263390D02*
X174488095Y-101311009D01*
X174488095Y-101311009D02*
X174392857Y-101358628D01*
X174392857Y-101358628D02*
X174011905Y-101358628D01*
X175440476Y-100834819D02*
X175250000Y-100834819D01*
X175250000Y-100834819D02*
X175154762Y-100882438D01*
X175154762Y-100882438D02*
X175107143Y-100930057D01*
X175107143Y-100930057D02*
X175011905Y-101072914D01*
X175011905Y-101072914D02*
X174964286Y-101263390D01*
X174964286Y-101263390D02*
X174964286Y-101644342D01*
X174964286Y-101644342D02*
X175011905Y-101739580D01*
X175011905Y-101739580D02*
X175059524Y-101787200D01*
X175059524Y-101787200D02*
X175154762Y-101834819D01*
X175154762Y-101834819D02*
X175345238Y-101834819D01*
X175345238Y-101834819D02*
X175440476Y-101787200D01*
X175440476Y-101787200D02*
X175488095Y-101739580D01*
X175488095Y-101739580D02*
X175535714Y-101644342D01*
X175535714Y-101644342D02*
X175535714Y-101406247D01*
X175535714Y-101406247D02*
X175488095Y-101311009D01*
X175488095Y-101311009D02*
X175440476Y-101263390D01*
X175440476Y-101263390D02*
X175345238Y-101215771D01*
X175345238Y-101215771D02*
X175154762Y-101215771D01*
X175154762Y-101215771D02*
X175059524Y-101263390D01*
X175059524Y-101263390D02*
X175011905Y-101311009D01*
X175011905Y-101311009D02*
X174964286Y-101406247D01*
X181511905Y-117454819D02*
X181511905Y-116454819D01*
X181511905Y-116454819D02*
X181750000Y-116454819D01*
X181750000Y-116454819D02*
X181892857Y-116502438D01*
X181892857Y-116502438D02*
X181988095Y-116597676D01*
X181988095Y-116597676D02*
X182035714Y-116692914D01*
X182035714Y-116692914D02*
X182083333Y-116883390D01*
X182083333Y-116883390D02*
X182083333Y-117026247D01*
X182083333Y-117026247D02*
X182035714Y-117216723D01*
X182035714Y-117216723D02*
X181988095Y-117311961D01*
X181988095Y-117311961D02*
X181892857Y-117407200D01*
X181892857Y-117407200D02*
X181750000Y-117454819D01*
X181750000Y-117454819D02*
X181511905Y-117454819D01*
X182464286Y-116550057D02*
X182511905Y-116502438D01*
X182511905Y-116502438D02*
X182607143Y-116454819D01*
X182607143Y-116454819D02*
X182845238Y-116454819D01*
X182845238Y-116454819D02*
X182940476Y-116502438D01*
X182940476Y-116502438D02*
X182988095Y-116550057D01*
X182988095Y-116550057D02*
X183035714Y-116645295D01*
X183035714Y-116645295D02*
X183035714Y-116740533D01*
X183035714Y-116740533D02*
X182988095Y-116883390D01*
X182988095Y-116883390D02*
X182416667Y-117454819D01*
X182416667Y-117454819D02*
X183035714Y-117454819D01*
X187568095Y-122304819D02*
X187568095Y-121304819D01*
X188139523Y-122304819D02*
X187710952Y-121733390D01*
X188139523Y-121304819D02*
X187568095Y-121876247D01*
X202583333Y-112449580D02*
X202535714Y-112497200D01*
X202535714Y-112497200D02*
X202392857Y-112544819D01*
X202392857Y-112544819D02*
X202297619Y-112544819D01*
X202297619Y-112544819D02*
X202154762Y-112497200D01*
X202154762Y-112497200D02*
X202059524Y-112401961D01*
X202059524Y-112401961D02*
X202011905Y-112306723D01*
X202011905Y-112306723D02*
X201964286Y-112116247D01*
X201964286Y-112116247D02*
X201964286Y-111973390D01*
X201964286Y-111973390D02*
X202011905Y-111782914D01*
X202011905Y-111782914D02*
X202059524Y-111687676D01*
X202059524Y-111687676D02*
X202154762Y-111592438D01*
X202154762Y-111592438D02*
X202297619Y-111544819D01*
X202297619Y-111544819D02*
X202392857Y-111544819D01*
X202392857Y-111544819D02*
X202535714Y-111592438D01*
X202535714Y-111592438D02*
X202583333Y-111640057D01*
X203488095Y-111544819D02*
X203011905Y-111544819D01*
X203011905Y-111544819D02*
X202964286Y-112021009D01*
X202964286Y-112021009D02*
X203011905Y-111973390D01*
X203011905Y-111973390D02*
X203107143Y-111925771D01*
X203107143Y-111925771D02*
X203345238Y-111925771D01*
X203345238Y-111925771D02*
X203440476Y-111973390D01*
X203440476Y-111973390D02*
X203488095Y-112021009D01*
X203488095Y-112021009D02*
X203535714Y-112116247D01*
X203535714Y-112116247D02*
X203535714Y-112354342D01*
X203535714Y-112354342D02*
X203488095Y-112449580D01*
X203488095Y-112449580D02*
X203440476Y-112497200D01*
X203440476Y-112497200D02*
X203345238Y-112544819D01*
X203345238Y-112544819D02*
X203107143Y-112544819D01*
X203107143Y-112544819D02*
X203011905Y-112497200D01*
X203011905Y-112497200D02*
X202964286Y-112449580D01*
X163083333Y-115204819D02*
X162750000Y-114728628D01*
X162511905Y-115204819D02*
X162511905Y-114204819D01*
X162511905Y-114204819D02*
X162892857Y-114204819D01*
X162892857Y-114204819D02*
X162988095Y-114252438D01*
X162988095Y-114252438D02*
X163035714Y-114300057D01*
X163035714Y-114300057D02*
X163083333Y-114395295D01*
X163083333Y-114395295D02*
X163083333Y-114538152D01*
X163083333Y-114538152D02*
X163035714Y-114633390D01*
X163035714Y-114633390D02*
X162988095Y-114681009D01*
X162988095Y-114681009D02*
X162892857Y-114728628D01*
X162892857Y-114728628D02*
X162511905Y-114728628D01*
X163464286Y-114300057D02*
X163511905Y-114252438D01*
X163511905Y-114252438D02*
X163607143Y-114204819D01*
X163607143Y-114204819D02*
X163845238Y-114204819D01*
X163845238Y-114204819D02*
X163940476Y-114252438D01*
X163940476Y-114252438D02*
X163988095Y-114300057D01*
X163988095Y-114300057D02*
X164035714Y-114395295D01*
X164035714Y-114395295D02*
X164035714Y-114490533D01*
X164035714Y-114490533D02*
X163988095Y-114633390D01*
X163988095Y-114633390D02*
X163416667Y-115204819D01*
X163416667Y-115204819D02*
X164035714Y-115204819D01*
X69604819Y-119433333D02*
X70319104Y-119433333D01*
X70319104Y-119433333D02*
X70461961Y-119480952D01*
X70461961Y-119480952D02*
X70557200Y-119576190D01*
X70557200Y-119576190D02*
X70604819Y-119719047D01*
X70604819Y-119719047D02*
X70604819Y-119814285D01*
X69604819Y-119052380D02*
X69604819Y-118433333D01*
X69604819Y-118433333D02*
X69985771Y-118766666D01*
X69985771Y-118766666D02*
X69985771Y-118623809D01*
X69985771Y-118623809D02*
X70033390Y-118528571D01*
X70033390Y-118528571D02*
X70081009Y-118480952D01*
X70081009Y-118480952D02*
X70176247Y-118433333D01*
X70176247Y-118433333D02*
X70414342Y-118433333D01*
X70414342Y-118433333D02*
X70509580Y-118480952D01*
X70509580Y-118480952D02*
X70557200Y-118528571D01*
X70557200Y-118528571D02*
X70604819Y-118623809D01*
X70604819Y-118623809D02*
X70604819Y-118909523D01*
X70604819Y-118909523D02*
X70557200Y-119004761D01*
X70557200Y-119004761D02*
X70509580Y-119052380D01*
X159573333Y-123874819D02*
X159240000Y-123398628D01*
X159001905Y-123874819D02*
X159001905Y-122874819D01*
X159001905Y-122874819D02*
X159382857Y-122874819D01*
X159382857Y-122874819D02*
X159478095Y-122922438D01*
X159478095Y-122922438D02*
X159525714Y-122970057D01*
X159525714Y-122970057D02*
X159573333Y-123065295D01*
X159573333Y-123065295D02*
X159573333Y-123208152D01*
X159573333Y-123208152D02*
X159525714Y-123303390D01*
X159525714Y-123303390D02*
X159478095Y-123351009D01*
X159478095Y-123351009D02*
X159382857Y-123398628D01*
X159382857Y-123398628D02*
X159001905Y-123398628D01*
X160430476Y-123208152D02*
X160430476Y-123874819D01*
X160192381Y-122827200D02*
X159954286Y-123541485D01*
X159954286Y-123541485D02*
X160573333Y-123541485D01*
D15*
X190992857Y-91930887D02*
X190859524Y-91740411D01*
X190764286Y-91930887D02*
X190764286Y-91530887D01*
X190764286Y-91530887D02*
X190916667Y-91530887D01*
X190916667Y-91530887D02*
X190954762Y-91549935D01*
X190954762Y-91549935D02*
X190973809Y-91568982D01*
X190973809Y-91568982D02*
X190992857Y-91607078D01*
X190992857Y-91607078D02*
X190992857Y-91664220D01*
X190992857Y-91664220D02*
X190973809Y-91702316D01*
X190973809Y-91702316D02*
X190954762Y-91721363D01*
X190954762Y-91721363D02*
X190916667Y-91740411D01*
X190916667Y-91740411D02*
X190764286Y-91740411D01*
X191373809Y-91930887D02*
X191145238Y-91930887D01*
X191259524Y-91930887D02*
X191259524Y-91530887D01*
X191259524Y-91530887D02*
X191221428Y-91588030D01*
X191221428Y-91588030D02*
X191183333Y-91626125D01*
X191183333Y-91626125D02*
X191145238Y-91645173D01*
X191621428Y-91530887D02*
X191659523Y-91530887D01*
X191659523Y-91530887D02*
X191697619Y-91549935D01*
X191697619Y-91549935D02*
X191716666Y-91568982D01*
X191716666Y-91568982D02*
X191735714Y-91607078D01*
X191735714Y-91607078D02*
X191754761Y-91683268D01*
X191754761Y-91683268D02*
X191754761Y-91778506D01*
X191754761Y-91778506D02*
X191735714Y-91854697D01*
X191735714Y-91854697D02*
X191716666Y-91892792D01*
X191716666Y-91892792D02*
X191697619Y-91911840D01*
X191697619Y-91911840D02*
X191659523Y-91930887D01*
X191659523Y-91930887D02*
X191621428Y-91930887D01*
X191621428Y-91930887D02*
X191583333Y-91911840D01*
X191583333Y-91911840D02*
X191564285Y-91892792D01*
X191564285Y-91892792D02*
X191545238Y-91854697D01*
X191545238Y-91854697D02*
X191526190Y-91778506D01*
X191526190Y-91778506D02*
X191526190Y-91683268D01*
X191526190Y-91683268D02*
X191545238Y-91607078D01*
X191545238Y-91607078D02*
X191564285Y-91568982D01*
X191564285Y-91568982D02*
X191583333Y-91549935D01*
X191583333Y-91549935D02*
X191621428Y-91530887D01*
D14*
X176534819Y-97402857D02*
X176058628Y-97736190D01*
X176534819Y-97974285D02*
X175534819Y-97974285D01*
X175534819Y-97974285D02*
X175534819Y-97593333D01*
X175534819Y-97593333D02*
X175582438Y-97498095D01*
X175582438Y-97498095D02*
X175630057Y-97450476D01*
X175630057Y-97450476D02*
X175725295Y-97402857D01*
X175725295Y-97402857D02*
X175868152Y-97402857D01*
X175868152Y-97402857D02*
X175963390Y-97450476D01*
X175963390Y-97450476D02*
X176011009Y-97498095D01*
X176011009Y-97498095D02*
X176058628Y-97593333D01*
X176058628Y-97593333D02*
X176058628Y-97974285D01*
X176534819Y-96450476D02*
X176534819Y-97021904D01*
X176534819Y-96736190D02*
X175534819Y-96736190D01*
X175534819Y-96736190D02*
X175677676Y-96831428D01*
X175677676Y-96831428D02*
X175772914Y-96926666D01*
X175772914Y-96926666D02*
X175820533Y-97021904D01*
X175868152Y-95593333D02*
X176534819Y-95593333D01*
X175487200Y-95831428D02*
X176201485Y-96069523D01*
X176201485Y-96069523D02*
X176201485Y-95450476D01*
X83154166Y-84181009D02*
X82820833Y-84181009D01*
X82820833Y-84704819D02*
X82820833Y-83704819D01*
X82820833Y-83704819D02*
X83297023Y-83704819D01*
X84201785Y-84704819D02*
X83630357Y-84704819D01*
X83916071Y-84704819D02*
X83916071Y-83704819D01*
X83916071Y-83704819D02*
X83820833Y-83847676D01*
X83820833Y-83847676D02*
X83725595Y-83942914D01*
X83725595Y-83942914D02*
X83630357Y-83990533D01*
X115654761Y-125800057D02*
X115559523Y-125752438D01*
X115559523Y-125752438D02*
X115464285Y-125657200D01*
X115464285Y-125657200D02*
X115321428Y-125514342D01*
X115321428Y-125514342D02*
X115226190Y-125466723D01*
X115226190Y-125466723D02*
X115130952Y-125466723D01*
X115178571Y-125704819D02*
X115083333Y-125657200D01*
X115083333Y-125657200D02*
X114988095Y-125561961D01*
X114988095Y-125561961D02*
X114940476Y-125371485D01*
X114940476Y-125371485D02*
X114940476Y-125038152D01*
X114940476Y-125038152D02*
X114988095Y-124847676D01*
X114988095Y-124847676D02*
X115083333Y-124752438D01*
X115083333Y-124752438D02*
X115178571Y-124704819D01*
X115178571Y-124704819D02*
X115369047Y-124704819D01*
X115369047Y-124704819D02*
X115464285Y-124752438D01*
X115464285Y-124752438D02*
X115559523Y-124847676D01*
X115559523Y-124847676D02*
X115607142Y-125038152D01*
X115607142Y-125038152D02*
X115607142Y-125371485D01*
X115607142Y-125371485D02*
X115559523Y-125561961D01*
X115559523Y-125561961D02*
X115464285Y-125657200D01*
X115464285Y-125657200D02*
X115369047Y-125704819D01*
X115369047Y-125704819D02*
X115178571Y-125704819D01*
X116559523Y-125704819D02*
X115988095Y-125704819D01*
X116273809Y-125704819D02*
X116273809Y-124704819D01*
X116273809Y-124704819D02*
X116178571Y-124847676D01*
X116178571Y-124847676D02*
X116083333Y-124942914D01*
X116083333Y-124942914D02*
X115988095Y-124990533D01*
X174704819Y-99892857D02*
X174228628Y-100226190D01*
X174704819Y-100464285D02*
X173704819Y-100464285D01*
X173704819Y-100464285D02*
X173704819Y-100083333D01*
X173704819Y-100083333D02*
X173752438Y-99988095D01*
X173752438Y-99988095D02*
X173800057Y-99940476D01*
X173800057Y-99940476D02*
X173895295Y-99892857D01*
X173895295Y-99892857D02*
X174038152Y-99892857D01*
X174038152Y-99892857D02*
X174133390Y-99940476D01*
X174133390Y-99940476D02*
X174181009Y-99988095D01*
X174181009Y-99988095D02*
X174228628Y-100083333D01*
X174228628Y-100083333D02*
X174228628Y-100464285D01*
X174704819Y-98940476D02*
X174704819Y-99511904D01*
X174704819Y-99226190D02*
X173704819Y-99226190D01*
X173704819Y-99226190D02*
X173847676Y-99321428D01*
X173847676Y-99321428D02*
X173942914Y-99416666D01*
X173942914Y-99416666D02*
X173990533Y-99511904D01*
X173704819Y-98607142D02*
X173704819Y-97988095D01*
X173704819Y-97988095D02*
X174085771Y-98321428D01*
X174085771Y-98321428D02*
X174085771Y-98178571D01*
X174085771Y-98178571D02*
X174133390Y-98083333D01*
X174133390Y-98083333D02*
X174181009Y-98035714D01*
X174181009Y-98035714D02*
X174276247Y-97988095D01*
X174276247Y-97988095D02*
X174514342Y-97988095D01*
X174514342Y-97988095D02*
X174609580Y-98035714D01*
X174609580Y-98035714D02*
X174657200Y-98083333D01*
X174657200Y-98083333D02*
X174704819Y-98178571D01*
X174704819Y-98178571D02*
X174704819Y-98464285D01*
X174704819Y-98464285D02*
X174657200Y-98559523D01*
X174657200Y-98559523D02*
X174609580Y-98607142D01*
X83154166Y-96181009D02*
X82820833Y-96181009D01*
X82820833Y-96704819D02*
X82820833Y-95704819D01*
X82820833Y-95704819D02*
X83297023Y-95704819D01*
X83630357Y-95800057D02*
X83677976Y-95752438D01*
X83677976Y-95752438D02*
X83773214Y-95704819D01*
X83773214Y-95704819D02*
X84011309Y-95704819D01*
X84011309Y-95704819D02*
X84106547Y-95752438D01*
X84106547Y-95752438D02*
X84154166Y-95800057D01*
X84154166Y-95800057D02*
X84201785Y-95895295D01*
X84201785Y-95895295D02*
X84201785Y-95990533D01*
X84201785Y-95990533D02*
X84154166Y-96133390D01*
X84154166Y-96133390D02*
X83582738Y-96704819D01*
X83582738Y-96704819D02*
X84201785Y-96704819D01*
X182416666Y-84204819D02*
X182416666Y-84919104D01*
X182416666Y-84919104D02*
X182369047Y-85061961D01*
X182369047Y-85061961D02*
X182273809Y-85157200D01*
X182273809Y-85157200D02*
X182130952Y-85204819D01*
X182130952Y-85204819D02*
X182035714Y-85204819D01*
X182845238Y-84300057D02*
X182892857Y-84252438D01*
X182892857Y-84252438D02*
X182988095Y-84204819D01*
X182988095Y-84204819D02*
X183226190Y-84204819D01*
X183226190Y-84204819D02*
X183321428Y-84252438D01*
X183321428Y-84252438D02*
X183369047Y-84300057D01*
X183369047Y-84300057D02*
X183416666Y-84395295D01*
X183416666Y-84395295D02*
X183416666Y-84490533D01*
X183416666Y-84490533D02*
X183369047Y-84633390D01*
X183369047Y-84633390D02*
X182797619Y-85204819D01*
X182797619Y-85204819D02*
X183416666Y-85204819D01*
X138857142Y-106454819D02*
X138523809Y-105978628D01*
X138285714Y-106454819D02*
X138285714Y-105454819D01*
X138285714Y-105454819D02*
X138666666Y-105454819D01*
X138666666Y-105454819D02*
X138761904Y-105502438D01*
X138761904Y-105502438D02*
X138809523Y-105550057D01*
X138809523Y-105550057D02*
X138857142Y-105645295D01*
X138857142Y-105645295D02*
X138857142Y-105788152D01*
X138857142Y-105788152D02*
X138809523Y-105883390D01*
X138809523Y-105883390D02*
X138761904Y-105931009D01*
X138761904Y-105931009D02*
X138666666Y-105978628D01*
X138666666Y-105978628D02*
X138285714Y-105978628D01*
X139809523Y-106454819D02*
X139238095Y-106454819D01*
X139523809Y-106454819D02*
X139523809Y-105454819D01*
X139523809Y-105454819D02*
X139428571Y-105597676D01*
X139428571Y-105597676D02*
X139333333Y-105692914D01*
X139333333Y-105692914D02*
X139238095Y-105740533D01*
X140714285Y-105454819D02*
X140238095Y-105454819D01*
X140238095Y-105454819D02*
X140190476Y-105931009D01*
X140190476Y-105931009D02*
X140238095Y-105883390D01*
X140238095Y-105883390D02*
X140333333Y-105835771D01*
X140333333Y-105835771D02*
X140571428Y-105835771D01*
X140571428Y-105835771D02*
X140666666Y-105883390D01*
X140666666Y-105883390D02*
X140714285Y-105931009D01*
X140714285Y-105931009D02*
X140761904Y-106026247D01*
X140761904Y-106026247D02*
X140761904Y-106264342D01*
X140761904Y-106264342D02*
X140714285Y-106359580D01*
X140714285Y-106359580D02*
X140666666Y-106407200D01*
X140666666Y-106407200D02*
X140571428Y-106454819D01*
X140571428Y-106454819D02*
X140333333Y-106454819D01*
X140333333Y-106454819D02*
X140238095Y-106407200D01*
X140238095Y-106407200D02*
X140190476Y-106359580D01*
X177154761Y-99800057D02*
X177059523Y-99752438D01*
X177059523Y-99752438D02*
X176964285Y-99657200D01*
X176964285Y-99657200D02*
X176821428Y-99514342D01*
X176821428Y-99514342D02*
X176726190Y-99466723D01*
X176726190Y-99466723D02*
X176630952Y-99466723D01*
X176678571Y-99704819D02*
X176583333Y-99657200D01*
X176583333Y-99657200D02*
X176488095Y-99561961D01*
X176488095Y-99561961D02*
X176440476Y-99371485D01*
X176440476Y-99371485D02*
X176440476Y-99038152D01*
X176440476Y-99038152D02*
X176488095Y-98847676D01*
X176488095Y-98847676D02*
X176583333Y-98752438D01*
X176583333Y-98752438D02*
X176678571Y-98704819D01*
X176678571Y-98704819D02*
X176869047Y-98704819D01*
X176869047Y-98704819D02*
X176964285Y-98752438D01*
X176964285Y-98752438D02*
X177059523Y-98847676D01*
X177059523Y-98847676D02*
X177107142Y-99038152D01*
X177107142Y-99038152D02*
X177107142Y-99371485D01*
X177107142Y-99371485D02*
X177059523Y-99561961D01*
X177059523Y-99561961D02*
X176964285Y-99657200D01*
X176964285Y-99657200D02*
X176869047Y-99704819D01*
X176869047Y-99704819D02*
X176678571Y-99704819D01*
X177440476Y-98704819D02*
X178059523Y-98704819D01*
X178059523Y-98704819D02*
X177726190Y-99085771D01*
X177726190Y-99085771D02*
X177869047Y-99085771D01*
X177869047Y-99085771D02*
X177964285Y-99133390D01*
X177964285Y-99133390D02*
X178011904Y-99181009D01*
X178011904Y-99181009D02*
X178059523Y-99276247D01*
X178059523Y-99276247D02*
X178059523Y-99514342D01*
X178059523Y-99514342D02*
X178011904Y-99609580D01*
X178011904Y-99609580D02*
X177964285Y-99657200D01*
X177964285Y-99657200D02*
X177869047Y-99704819D01*
X177869047Y-99704819D02*
X177583333Y-99704819D01*
X177583333Y-99704819D02*
X177488095Y-99657200D01*
X177488095Y-99657200D02*
X177440476Y-99609580D01*
X191469819Y-100963220D02*
X192279342Y-100963220D01*
X192279342Y-100963220D02*
X192374580Y-100915601D01*
X192374580Y-100915601D02*
X192422200Y-100867982D01*
X192422200Y-100867982D02*
X192469819Y-100772744D01*
X192469819Y-100772744D02*
X192469819Y-100582268D01*
X192469819Y-100582268D02*
X192422200Y-100487030D01*
X192422200Y-100487030D02*
X192374580Y-100439411D01*
X192374580Y-100439411D02*
X192279342Y-100391792D01*
X192279342Y-100391792D02*
X191469819Y-100391792D01*
X191469819Y-100010839D02*
X191469819Y-99391792D01*
X191469819Y-99391792D02*
X191850771Y-99725125D01*
X191850771Y-99725125D02*
X191850771Y-99582268D01*
X191850771Y-99582268D02*
X191898390Y-99487030D01*
X191898390Y-99487030D02*
X191946009Y-99439411D01*
X191946009Y-99439411D02*
X192041247Y-99391792D01*
X192041247Y-99391792D02*
X192279342Y-99391792D01*
X192279342Y-99391792D02*
X192374580Y-99439411D01*
X192374580Y-99439411D02*
X192422200Y-99487030D01*
X192422200Y-99487030D02*
X192469819Y-99582268D01*
X192469819Y-99582268D02*
X192469819Y-99867982D01*
X192469819Y-99867982D02*
X192422200Y-99963220D01*
X192422200Y-99963220D02*
X192374580Y-100010839D01*
X163083333Y-110204819D02*
X162750000Y-109728628D01*
X162511905Y-110204819D02*
X162511905Y-109204819D01*
X162511905Y-109204819D02*
X162892857Y-109204819D01*
X162892857Y-109204819D02*
X162988095Y-109252438D01*
X162988095Y-109252438D02*
X163035714Y-109300057D01*
X163035714Y-109300057D02*
X163083333Y-109395295D01*
X163083333Y-109395295D02*
X163083333Y-109538152D01*
X163083333Y-109538152D02*
X163035714Y-109633390D01*
X163035714Y-109633390D02*
X162988095Y-109681009D01*
X162988095Y-109681009D02*
X162892857Y-109728628D01*
X162892857Y-109728628D02*
X162511905Y-109728628D01*
X163416667Y-109204819D02*
X164035714Y-109204819D01*
X164035714Y-109204819D02*
X163702381Y-109585771D01*
X163702381Y-109585771D02*
X163845238Y-109585771D01*
X163845238Y-109585771D02*
X163940476Y-109633390D01*
X163940476Y-109633390D02*
X163988095Y-109681009D01*
X163988095Y-109681009D02*
X164035714Y-109776247D01*
X164035714Y-109776247D02*
X164035714Y-110014342D01*
X164035714Y-110014342D02*
X163988095Y-110109580D01*
X163988095Y-110109580D02*
X163940476Y-110157200D01*
X163940476Y-110157200D02*
X163845238Y-110204819D01*
X163845238Y-110204819D02*
X163559524Y-110204819D01*
X163559524Y-110204819D02*
X163464286Y-110157200D01*
X163464286Y-110157200D02*
X163416667Y-110109580D01*
X143833333Y-123309580D02*
X143785714Y-123357200D01*
X143785714Y-123357200D02*
X143642857Y-123404819D01*
X143642857Y-123404819D02*
X143547619Y-123404819D01*
X143547619Y-123404819D02*
X143404762Y-123357200D01*
X143404762Y-123357200D02*
X143309524Y-123261961D01*
X143309524Y-123261961D02*
X143261905Y-123166723D01*
X143261905Y-123166723D02*
X143214286Y-122976247D01*
X143214286Y-122976247D02*
X143214286Y-122833390D01*
X143214286Y-122833390D02*
X143261905Y-122642914D01*
X143261905Y-122642914D02*
X143309524Y-122547676D01*
X143309524Y-122547676D02*
X143404762Y-122452438D01*
X143404762Y-122452438D02*
X143547619Y-122404819D01*
X143547619Y-122404819D02*
X143642857Y-122404819D01*
X143642857Y-122404819D02*
X143785714Y-122452438D01*
X143785714Y-122452438D02*
X143833333Y-122500057D01*
X144690476Y-122738152D02*
X144690476Y-123404819D01*
X144452381Y-122357200D02*
X144214286Y-123071485D01*
X144214286Y-123071485D02*
X144833333Y-123071485D01*
X104383333Y-127354819D02*
X104050000Y-126878628D01*
X103811905Y-127354819D02*
X103811905Y-126354819D01*
X103811905Y-126354819D02*
X104192857Y-126354819D01*
X104192857Y-126354819D02*
X104288095Y-126402438D01*
X104288095Y-126402438D02*
X104335714Y-126450057D01*
X104335714Y-126450057D02*
X104383333Y-126545295D01*
X104383333Y-126545295D02*
X104383333Y-126688152D01*
X104383333Y-126688152D02*
X104335714Y-126783390D01*
X104335714Y-126783390D02*
X104288095Y-126831009D01*
X104288095Y-126831009D02*
X104192857Y-126878628D01*
X104192857Y-126878628D02*
X103811905Y-126878628D01*
X105335714Y-127354819D02*
X104764286Y-127354819D01*
X105050000Y-127354819D02*
X105050000Y-126354819D01*
X105050000Y-126354819D02*
X104954762Y-126497676D01*
X104954762Y-126497676D02*
X104859524Y-126592914D01*
X104859524Y-126592914D02*
X104764286Y-126640533D01*
X190583333Y-82609580D02*
X190535714Y-82657200D01*
X190535714Y-82657200D02*
X190392857Y-82704819D01*
X190392857Y-82704819D02*
X190297619Y-82704819D01*
X190297619Y-82704819D02*
X190154762Y-82657200D01*
X190154762Y-82657200D02*
X190059524Y-82561961D01*
X190059524Y-82561961D02*
X190011905Y-82466723D01*
X190011905Y-82466723D02*
X189964286Y-82276247D01*
X189964286Y-82276247D02*
X189964286Y-82133390D01*
X189964286Y-82133390D02*
X190011905Y-81942914D01*
X190011905Y-81942914D02*
X190059524Y-81847676D01*
X190059524Y-81847676D02*
X190154762Y-81752438D01*
X190154762Y-81752438D02*
X190297619Y-81704819D01*
X190297619Y-81704819D02*
X190392857Y-81704819D01*
X190392857Y-81704819D02*
X190535714Y-81752438D01*
X190535714Y-81752438D02*
X190583333Y-81800057D01*
X191154762Y-82133390D02*
X191059524Y-82085771D01*
X191059524Y-82085771D02*
X191011905Y-82038152D01*
X191011905Y-82038152D02*
X190964286Y-81942914D01*
X190964286Y-81942914D02*
X190964286Y-81895295D01*
X190964286Y-81895295D02*
X191011905Y-81800057D01*
X191011905Y-81800057D02*
X191059524Y-81752438D01*
X191059524Y-81752438D02*
X191154762Y-81704819D01*
X191154762Y-81704819D02*
X191345238Y-81704819D01*
X191345238Y-81704819D02*
X191440476Y-81752438D01*
X191440476Y-81752438D02*
X191488095Y-81800057D01*
X191488095Y-81800057D02*
X191535714Y-81895295D01*
X191535714Y-81895295D02*
X191535714Y-81942914D01*
X191535714Y-81942914D02*
X191488095Y-82038152D01*
X191488095Y-82038152D02*
X191440476Y-82085771D01*
X191440476Y-82085771D02*
X191345238Y-82133390D01*
X191345238Y-82133390D02*
X191154762Y-82133390D01*
X191154762Y-82133390D02*
X191059524Y-82181009D01*
X191059524Y-82181009D02*
X191011905Y-82228628D01*
X191011905Y-82228628D02*
X190964286Y-82323866D01*
X190964286Y-82323866D02*
X190964286Y-82514342D01*
X190964286Y-82514342D02*
X191011905Y-82609580D01*
X191011905Y-82609580D02*
X191059524Y-82657200D01*
X191059524Y-82657200D02*
X191154762Y-82704819D01*
X191154762Y-82704819D02*
X191345238Y-82704819D01*
X191345238Y-82704819D02*
X191440476Y-82657200D01*
X191440476Y-82657200D02*
X191488095Y-82609580D01*
X191488095Y-82609580D02*
X191535714Y-82514342D01*
X191535714Y-82514342D02*
X191535714Y-82323866D01*
X191535714Y-82323866D02*
X191488095Y-82228628D01*
X191488095Y-82228628D02*
X191440476Y-82181009D01*
X191440476Y-82181009D02*
X191345238Y-82133390D01*
X180154761Y-92400057D02*
X180059523Y-92352438D01*
X180059523Y-92352438D02*
X179964285Y-92257200D01*
X179964285Y-92257200D02*
X179821428Y-92114342D01*
X179821428Y-92114342D02*
X179726190Y-92066723D01*
X179726190Y-92066723D02*
X179630952Y-92066723D01*
X179678571Y-92304819D02*
X179583333Y-92257200D01*
X179583333Y-92257200D02*
X179488095Y-92161961D01*
X179488095Y-92161961D02*
X179440476Y-91971485D01*
X179440476Y-91971485D02*
X179440476Y-91638152D01*
X179440476Y-91638152D02*
X179488095Y-91447676D01*
X179488095Y-91447676D02*
X179583333Y-91352438D01*
X179583333Y-91352438D02*
X179678571Y-91304819D01*
X179678571Y-91304819D02*
X179869047Y-91304819D01*
X179869047Y-91304819D02*
X179964285Y-91352438D01*
X179964285Y-91352438D02*
X180059523Y-91447676D01*
X180059523Y-91447676D02*
X180107142Y-91638152D01*
X180107142Y-91638152D02*
X180107142Y-91971485D01*
X180107142Y-91971485D02*
X180059523Y-92161961D01*
X180059523Y-92161961D02*
X179964285Y-92257200D01*
X179964285Y-92257200D02*
X179869047Y-92304819D01*
X179869047Y-92304819D02*
X179678571Y-92304819D01*
X180488095Y-91400057D02*
X180535714Y-91352438D01*
X180535714Y-91352438D02*
X180630952Y-91304819D01*
X180630952Y-91304819D02*
X180869047Y-91304819D01*
X180869047Y-91304819D02*
X180964285Y-91352438D01*
X180964285Y-91352438D02*
X181011904Y-91400057D01*
X181011904Y-91400057D02*
X181059523Y-91495295D01*
X181059523Y-91495295D02*
X181059523Y-91590533D01*
X181059523Y-91590533D02*
X181011904Y-91733390D01*
X181011904Y-91733390D02*
X180440476Y-92304819D01*
X180440476Y-92304819D02*
X181059523Y-92304819D01*
X221916666Y-119824819D02*
X221916666Y-120539104D01*
X221916666Y-120539104D02*
X221869047Y-120681961D01*
X221869047Y-120681961D02*
X221773809Y-120777200D01*
X221773809Y-120777200D02*
X221630952Y-120824819D01*
X221630952Y-120824819D02*
X221535714Y-120824819D01*
X222916666Y-120824819D02*
X222345238Y-120824819D01*
X222630952Y-120824819D02*
X222630952Y-119824819D01*
X222630952Y-119824819D02*
X222535714Y-119967676D01*
X222535714Y-119967676D02*
X222440476Y-120062914D01*
X222440476Y-120062914D02*
X222345238Y-120110533D01*
X201083333Y-120134819D02*
X200750000Y-119658628D01*
X200511905Y-120134819D02*
X200511905Y-119134819D01*
X200511905Y-119134819D02*
X200892857Y-119134819D01*
X200892857Y-119134819D02*
X200988095Y-119182438D01*
X200988095Y-119182438D02*
X201035714Y-119230057D01*
X201035714Y-119230057D02*
X201083333Y-119325295D01*
X201083333Y-119325295D02*
X201083333Y-119468152D01*
X201083333Y-119468152D02*
X201035714Y-119563390D01*
X201035714Y-119563390D02*
X200988095Y-119611009D01*
X200988095Y-119611009D02*
X200892857Y-119658628D01*
X200892857Y-119658628D02*
X200511905Y-119658628D01*
X201559524Y-120134819D02*
X201750000Y-120134819D01*
X201750000Y-120134819D02*
X201845238Y-120087200D01*
X201845238Y-120087200D02*
X201892857Y-120039580D01*
X201892857Y-120039580D02*
X201988095Y-119896723D01*
X201988095Y-119896723D02*
X202035714Y-119706247D01*
X202035714Y-119706247D02*
X202035714Y-119325295D01*
X202035714Y-119325295D02*
X201988095Y-119230057D01*
X201988095Y-119230057D02*
X201940476Y-119182438D01*
X201940476Y-119182438D02*
X201845238Y-119134819D01*
X201845238Y-119134819D02*
X201654762Y-119134819D01*
X201654762Y-119134819D02*
X201559524Y-119182438D01*
X201559524Y-119182438D02*
X201511905Y-119230057D01*
X201511905Y-119230057D02*
X201464286Y-119325295D01*
X201464286Y-119325295D02*
X201464286Y-119563390D01*
X201464286Y-119563390D02*
X201511905Y-119658628D01*
X201511905Y-119658628D02*
X201559524Y-119706247D01*
X201559524Y-119706247D02*
X201654762Y-119753866D01*
X201654762Y-119753866D02*
X201845238Y-119753866D01*
X201845238Y-119753866D02*
X201940476Y-119706247D01*
X201940476Y-119706247D02*
X201988095Y-119658628D01*
X201988095Y-119658628D02*
X202035714Y-119563390D01*
X187609580Y-82916666D02*
X187657200Y-82964285D01*
X187657200Y-82964285D02*
X187704819Y-83107142D01*
X187704819Y-83107142D02*
X187704819Y-83202380D01*
X187704819Y-83202380D02*
X187657200Y-83345237D01*
X187657200Y-83345237D02*
X187561961Y-83440475D01*
X187561961Y-83440475D02*
X187466723Y-83488094D01*
X187466723Y-83488094D02*
X187276247Y-83535713D01*
X187276247Y-83535713D02*
X187133390Y-83535713D01*
X187133390Y-83535713D02*
X186942914Y-83488094D01*
X186942914Y-83488094D02*
X186847676Y-83440475D01*
X186847676Y-83440475D02*
X186752438Y-83345237D01*
X186752438Y-83345237D02*
X186704819Y-83202380D01*
X186704819Y-83202380D02*
X186704819Y-83107142D01*
X186704819Y-83107142D02*
X186752438Y-82964285D01*
X186752438Y-82964285D02*
X186800057Y-82916666D01*
X186704819Y-82583332D02*
X186704819Y-81916666D01*
X186704819Y-81916666D02*
X187704819Y-82345237D01*
X174359580Y-87416666D02*
X174407200Y-87464285D01*
X174407200Y-87464285D02*
X174454819Y-87607142D01*
X174454819Y-87607142D02*
X174454819Y-87702380D01*
X174454819Y-87702380D02*
X174407200Y-87845237D01*
X174407200Y-87845237D02*
X174311961Y-87940475D01*
X174311961Y-87940475D02*
X174216723Y-87988094D01*
X174216723Y-87988094D02*
X174026247Y-88035713D01*
X174026247Y-88035713D02*
X173883390Y-88035713D01*
X173883390Y-88035713D02*
X173692914Y-87988094D01*
X173692914Y-87988094D02*
X173597676Y-87940475D01*
X173597676Y-87940475D02*
X173502438Y-87845237D01*
X173502438Y-87845237D02*
X173454819Y-87702380D01*
X173454819Y-87702380D02*
X173454819Y-87607142D01*
X173454819Y-87607142D02*
X173502438Y-87464285D01*
X173502438Y-87464285D02*
X173550057Y-87416666D01*
X173454819Y-87083332D02*
X173454819Y-86464285D01*
X173454819Y-86464285D02*
X173835771Y-86797618D01*
X173835771Y-86797618D02*
X173835771Y-86654761D01*
X173835771Y-86654761D02*
X173883390Y-86559523D01*
X173883390Y-86559523D02*
X173931009Y-86511904D01*
X173931009Y-86511904D02*
X174026247Y-86464285D01*
X174026247Y-86464285D02*
X174264342Y-86464285D01*
X174264342Y-86464285D02*
X174359580Y-86511904D01*
X174359580Y-86511904D02*
X174407200Y-86559523D01*
X174407200Y-86559523D02*
X174454819Y-86654761D01*
X174454819Y-86654761D02*
X174454819Y-86940475D01*
X174454819Y-86940475D02*
X174407200Y-87035713D01*
X174407200Y-87035713D02*
X174359580Y-87083332D01*
X168511905Y-127674819D02*
X168511905Y-126674819D01*
X168511905Y-126674819D02*
X168750000Y-126674819D01*
X168750000Y-126674819D02*
X168892857Y-126722438D01*
X168892857Y-126722438D02*
X168988095Y-126817676D01*
X168988095Y-126817676D02*
X169035714Y-126912914D01*
X169035714Y-126912914D02*
X169083333Y-127103390D01*
X169083333Y-127103390D02*
X169083333Y-127246247D01*
X169083333Y-127246247D02*
X169035714Y-127436723D01*
X169035714Y-127436723D02*
X168988095Y-127531961D01*
X168988095Y-127531961D02*
X168892857Y-127627200D01*
X168892857Y-127627200D02*
X168750000Y-127674819D01*
X168750000Y-127674819D02*
X168511905Y-127674819D01*
X169940476Y-127008152D02*
X169940476Y-127674819D01*
X169702381Y-126627200D02*
X169464286Y-127341485D01*
X169464286Y-127341485D02*
X170083333Y-127341485D01*
X174068095Y-127304819D02*
X174068095Y-126304819D01*
X174639523Y-127304819D02*
X174210952Y-126733390D01*
X174639523Y-126304819D02*
X174068095Y-126876247D01*
X111859580Y-91166666D02*
X111907200Y-91214285D01*
X111907200Y-91214285D02*
X111954819Y-91357142D01*
X111954819Y-91357142D02*
X111954819Y-91452380D01*
X111954819Y-91452380D02*
X111907200Y-91595237D01*
X111907200Y-91595237D02*
X111811961Y-91690475D01*
X111811961Y-91690475D02*
X111716723Y-91738094D01*
X111716723Y-91738094D02*
X111526247Y-91785713D01*
X111526247Y-91785713D02*
X111383390Y-91785713D01*
X111383390Y-91785713D02*
X111192914Y-91738094D01*
X111192914Y-91738094D02*
X111097676Y-91690475D01*
X111097676Y-91690475D02*
X111002438Y-91595237D01*
X111002438Y-91595237D02*
X110954819Y-91452380D01*
X110954819Y-91452380D02*
X110954819Y-91357142D01*
X110954819Y-91357142D02*
X111002438Y-91214285D01*
X111002438Y-91214285D02*
X111050057Y-91166666D01*
X111954819Y-90214285D02*
X111954819Y-90785713D01*
X111954819Y-90499999D02*
X110954819Y-90499999D01*
X110954819Y-90499999D02*
X111097676Y-90595237D01*
X111097676Y-90595237D02*
X111192914Y-90690475D01*
X111192914Y-90690475D02*
X111240533Y-90785713D01*
X144575714Y-82004819D02*
X144575714Y-81004819D01*
X144575714Y-81004819D02*
X144956666Y-81004819D01*
X144956666Y-81004819D02*
X145051904Y-81052438D01*
X145051904Y-81052438D02*
X145099523Y-81100057D01*
X145099523Y-81100057D02*
X145147142Y-81195295D01*
X145147142Y-81195295D02*
X145147142Y-81338152D01*
X145147142Y-81338152D02*
X145099523Y-81433390D01*
X145099523Y-81433390D02*
X145051904Y-81481009D01*
X145051904Y-81481009D02*
X144956666Y-81528628D01*
X144956666Y-81528628D02*
X144575714Y-81528628D01*
X145528095Y-81957200D02*
X145670952Y-82004819D01*
X145670952Y-82004819D02*
X145909047Y-82004819D01*
X145909047Y-82004819D02*
X146004285Y-81957200D01*
X146004285Y-81957200D02*
X146051904Y-81909580D01*
X146051904Y-81909580D02*
X146099523Y-81814342D01*
X146099523Y-81814342D02*
X146099523Y-81719104D01*
X146099523Y-81719104D02*
X146051904Y-81623866D01*
X146051904Y-81623866D02*
X146004285Y-81576247D01*
X146004285Y-81576247D02*
X145909047Y-81528628D01*
X145909047Y-81528628D02*
X145718571Y-81481009D01*
X145718571Y-81481009D02*
X145623333Y-81433390D01*
X145623333Y-81433390D02*
X145575714Y-81385771D01*
X145575714Y-81385771D02*
X145528095Y-81290533D01*
X145528095Y-81290533D02*
X145528095Y-81195295D01*
X145528095Y-81195295D02*
X145575714Y-81100057D01*
X145575714Y-81100057D02*
X145623333Y-81052438D01*
X145623333Y-81052438D02*
X145718571Y-81004819D01*
X145718571Y-81004819D02*
X145956666Y-81004819D01*
X145956666Y-81004819D02*
X146099523Y-81052438D01*
X147051904Y-82004819D02*
X146480476Y-82004819D01*
X146766190Y-82004819D02*
X146766190Y-81004819D01*
X146766190Y-81004819D02*
X146670952Y-81147676D01*
X146670952Y-81147676D02*
X146575714Y-81242914D01*
X146575714Y-81242914D02*
X146480476Y-81290533D01*
X142463333Y-115904819D02*
X142130000Y-115428628D01*
X141891905Y-115904819D02*
X141891905Y-114904819D01*
X141891905Y-114904819D02*
X142272857Y-114904819D01*
X142272857Y-114904819D02*
X142368095Y-114952438D01*
X142368095Y-114952438D02*
X142415714Y-115000057D01*
X142415714Y-115000057D02*
X142463333Y-115095295D01*
X142463333Y-115095295D02*
X142463333Y-115238152D01*
X142463333Y-115238152D02*
X142415714Y-115333390D01*
X142415714Y-115333390D02*
X142368095Y-115381009D01*
X142368095Y-115381009D02*
X142272857Y-115428628D01*
X142272857Y-115428628D02*
X141891905Y-115428628D01*
X143368095Y-114904819D02*
X142891905Y-114904819D01*
X142891905Y-114904819D02*
X142844286Y-115381009D01*
X142844286Y-115381009D02*
X142891905Y-115333390D01*
X142891905Y-115333390D02*
X142987143Y-115285771D01*
X142987143Y-115285771D02*
X143225238Y-115285771D01*
X143225238Y-115285771D02*
X143320476Y-115333390D01*
X143320476Y-115333390D02*
X143368095Y-115381009D01*
X143368095Y-115381009D02*
X143415714Y-115476247D01*
X143415714Y-115476247D02*
X143415714Y-115714342D01*
X143415714Y-115714342D02*
X143368095Y-115809580D01*
X143368095Y-115809580D02*
X143320476Y-115857200D01*
X143320476Y-115857200D02*
X143225238Y-115904819D01*
X143225238Y-115904819D02*
X142987143Y-115904819D01*
X142987143Y-115904819D02*
X142891905Y-115857200D01*
X142891905Y-115857200D02*
X142844286Y-115809580D01*
X131857142Y-107284819D02*
X131523809Y-106808628D01*
X131285714Y-107284819D02*
X131285714Y-106284819D01*
X131285714Y-106284819D02*
X131666666Y-106284819D01*
X131666666Y-106284819D02*
X131761904Y-106332438D01*
X131761904Y-106332438D02*
X131809523Y-106380057D01*
X131809523Y-106380057D02*
X131857142Y-106475295D01*
X131857142Y-106475295D02*
X131857142Y-106618152D01*
X131857142Y-106618152D02*
X131809523Y-106713390D01*
X131809523Y-106713390D02*
X131761904Y-106761009D01*
X131761904Y-106761009D02*
X131666666Y-106808628D01*
X131666666Y-106808628D02*
X131285714Y-106808628D01*
X132809523Y-107284819D02*
X132238095Y-107284819D01*
X132523809Y-107284819D02*
X132523809Y-106284819D01*
X132523809Y-106284819D02*
X132428571Y-106427676D01*
X132428571Y-106427676D02*
X132333333Y-106522914D01*
X132333333Y-106522914D02*
X132238095Y-106570533D01*
X133666666Y-106284819D02*
X133476190Y-106284819D01*
X133476190Y-106284819D02*
X133380952Y-106332438D01*
X133380952Y-106332438D02*
X133333333Y-106380057D01*
X133333333Y-106380057D02*
X133238095Y-106522914D01*
X133238095Y-106522914D02*
X133190476Y-106713390D01*
X133190476Y-106713390D02*
X133190476Y-107094342D01*
X133190476Y-107094342D02*
X133238095Y-107189580D01*
X133238095Y-107189580D02*
X133285714Y-107237200D01*
X133285714Y-107237200D02*
X133380952Y-107284819D01*
X133380952Y-107284819D02*
X133571428Y-107284819D01*
X133571428Y-107284819D02*
X133666666Y-107237200D01*
X133666666Y-107237200D02*
X133714285Y-107189580D01*
X133714285Y-107189580D02*
X133761904Y-107094342D01*
X133761904Y-107094342D02*
X133761904Y-106856247D01*
X133761904Y-106856247D02*
X133714285Y-106761009D01*
X133714285Y-106761009D02*
X133666666Y-106713390D01*
X133666666Y-106713390D02*
X133571428Y-106665771D01*
X133571428Y-106665771D02*
X133380952Y-106665771D01*
X133380952Y-106665771D02*
X133285714Y-106713390D01*
X133285714Y-106713390D02*
X133238095Y-106761009D01*
X133238095Y-106761009D02*
X133190476Y-106856247D01*
X167359580Y-83666666D02*
X167407200Y-83714285D01*
X167407200Y-83714285D02*
X167454819Y-83857142D01*
X167454819Y-83857142D02*
X167454819Y-83952380D01*
X167454819Y-83952380D02*
X167407200Y-84095237D01*
X167407200Y-84095237D02*
X167311961Y-84190475D01*
X167311961Y-84190475D02*
X167216723Y-84238094D01*
X167216723Y-84238094D02*
X167026247Y-84285713D01*
X167026247Y-84285713D02*
X166883390Y-84285713D01*
X166883390Y-84285713D02*
X166692914Y-84238094D01*
X166692914Y-84238094D02*
X166597676Y-84190475D01*
X166597676Y-84190475D02*
X166502438Y-84095237D01*
X166502438Y-84095237D02*
X166454819Y-83952380D01*
X166454819Y-83952380D02*
X166454819Y-83857142D01*
X166454819Y-83857142D02*
X166502438Y-83714285D01*
X166502438Y-83714285D02*
X166550057Y-83666666D01*
X166550057Y-83285713D02*
X166502438Y-83238094D01*
X166502438Y-83238094D02*
X166454819Y-83142856D01*
X166454819Y-83142856D02*
X166454819Y-82904761D01*
X166454819Y-82904761D02*
X166502438Y-82809523D01*
X166502438Y-82809523D02*
X166550057Y-82761904D01*
X166550057Y-82761904D02*
X166645295Y-82714285D01*
X166645295Y-82714285D02*
X166740533Y-82714285D01*
X166740533Y-82714285D02*
X166883390Y-82761904D01*
X166883390Y-82761904D02*
X167454819Y-83333332D01*
X167454819Y-83333332D02*
X167454819Y-82714285D01*
X168011905Y-117704819D02*
X168011905Y-116704819D01*
X168011905Y-116704819D02*
X168250000Y-116704819D01*
X168250000Y-116704819D02*
X168392857Y-116752438D01*
X168392857Y-116752438D02*
X168488095Y-116847676D01*
X168488095Y-116847676D02*
X168535714Y-116942914D01*
X168535714Y-116942914D02*
X168583333Y-117133390D01*
X168583333Y-117133390D02*
X168583333Y-117276247D01*
X168583333Y-117276247D02*
X168535714Y-117466723D01*
X168535714Y-117466723D02*
X168488095Y-117561961D01*
X168488095Y-117561961D02*
X168392857Y-117657200D01*
X168392857Y-117657200D02*
X168250000Y-117704819D01*
X168250000Y-117704819D02*
X168011905Y-117704819D01*
X169535714Y-117704819D02*
X168964286Y-117704819D01*
X169250000Y-117704819D02*
X169250000Y-116704819D01*
X169250000Y-116704819D02*
X169154762Y-116847676D01*
X169154762Y-116847676D02*
X169059524Y-116942914D01*
X169059524Y-116942914D02*
X168964286Y-116990533D01*
X174068095Y-122304819D02*
X174068095Y-121304819D01*
X174639523Y-122304819D02*
X174210952Y-121733390D01*
X174639523Y-121304819D02*
X174068095Y-121876247D01*
X83154166Y-120181009D02*
X82820833Y-120181009D01*
X82820833Y-120704819D02*
X82820833Y-119704819D01*
X82820833Y-119704819D02*
X83297023Y-119704819D01*
X84106547Y-120038152D02*
X84106547Y-120704819D01*
X83868452Y-119657200D02*
X83630357Y-120371485D01*
X83630357Y-120371485D02*
X84249404Y-120371485D01*
X166204819Y-100511904D02*
X167014342Y-100511904D01*
X167014342Y-100511904D02*
X167109580Y-100464285D01*
X167109580Y-100464285D02*
X167157200Y-100416666D01*
X167157200Y-100416666D02*
X167204819Y-100321428D01*
X167204819Y-100321428D02*
X167204819Y-100130952D01*
X167204819Y-100130952D02*
X167157200Y-100035714D01*
X167157200Y-100035714D02*
X167109580Y-99988095D01*
X167109580Y-99988095D02*
X167014342Y-99940476D01*
X167014342Y-99940476D02*
X166204819Y-99940476D01*
X166300057Y-99511904D02*
X166252438Y-99464285D01*
X166252438Y-99464285D02*
X166204819Y-99369047D01*
X166204819Y-99369047D02*
X166204819Y-99130952D01*
X166204819Y-99130952D02*
X166252438Y-99035714D01*
X166252438Y-99035714D02*
X166300057Y-98988095D01*
X166300057Y-98988095D02*
X166395295Y-98940476D01*
X166395295Y-98940476D02*
X166490533Y-98940476D01*
X166490533Y-98940476D02*
X166633390Y-98988095D01*
X166633390Y-98988095D02*
X167204819Y-99559523D01*
X167204819Y-99559523D02*
X167204819Y-98940476D01*
X192109580Y-88936666D02*
X192157200Y-88984285D01*
X192157200Y-88984285D02*
X192204819Y-89127142D01*
X192204819Y-89127142D02*
X192204819Y-89222380D01*
X192204819Y-89222380D02*
X192157200Y-89365237D01*
X192157200Y-89365237D02*
X192061961Y-89460475D01*
X192061961Y-89460475D02*
X191966723Y-89508094D01*
X191966723Y-89508094D02*
X191776247Y-89555713D01*
X191776247Y-89555713D02*
X191633390Y-89555713D01*
X191633390Y-89555713D02*
X191442914Y-89508094D01*
X191442914Y-89508094D02*
X191347676Y-89460475D01*
X191347676Y-89460475D02*
X191252438Y-89365237D01*
X191252438Y-89365237D02*
X191204819Y-89222380D01*
X191204819Y-89222380D02*
X191204819Y-89127142D01*
X191204819Y-89127142D02*
X191252438Y-88984285D01*
X191252438Y-88984285D02*
X191300057Y-88936666D01*
X191204819Y-88079523D02*
X191204819Y-88269999D01*
X191204819Y-88269999D02*
X191252438Y-88365237D01*
X191252438Y-88365237D02*
X191300057Y-88412856D01*
X191300057Y-88412856D02*
X191442914Y-88508094D01*
X191442914Y-88508094D02*
X191633390Y-88555713D01*
X191633390Y-88555713D02*
X192014342Y-88555713D01*
X192014342Y-88555713D02*
X192109580Y-88508094D01*
X192109580Y-88508094D02*
X192157200Y-88460475D01*
X192157200Y-88460475D02*
X192204819Y-88365237D01*
X192204819Y-88365237D02*
X192204819Y-88174761D01*
X192204819Y-88174761D02*
X192157200Y-88079523D01*
X192157200Y-88079523D02*
X192109580Y-88031904D01*
X192109580Y-88031904D02*
X192014342Y-87984285D01*
X192014342Y-87984285D02*
X191776247Y-87984285D01*
X191776247Y-87984285D02*
X191681009Y-88031904D01*
X191681009Y-88031904D02*
X191633390Y-88079523D01*
X191633390Y-88079523D02*
X191585771Y-88174761D01*
X191585771Y-88174761D02*
X191585771Y-88365237D01*
X191585771Y-88365237D02*
X191633390Y-88460475D01*
X191633390Y-88460475D02*
X191681009Y-88508094D01*
X191681009Y-88508094D02*
X191776247Y-88555713D01*
X146334819Y-123506904D02*
X147144342Y-123506904D01*
X147144342Y-123506904D02*
X147239580Y-123459285D01*
X147239580Y-123459285D02*
X147287200Y-123411666D01*
X147287200Y-123411666D02*
X147334819Y-123316428D01*
X147334819Y-123316428D02*
X147334819Y-123125952D01*
X147334819Y-123125952D02*
X147287200Y-123030714D01*
X147287200Y-123030714D02*
X147239580Y-122983095D01*
X147239580Y-122983095D02*
X147144342Y-122935476D01*
X147144342Y-122935476D02*
X146334819Y-122935476D01*
X146334819Y-121983095D02*
X146334819Y-122459285D01*
X146334819Y-122459285D02*
X146811009Y-122506904D01*
X146811009Y-122506904D02*
X146763390Y-122459285D01*
X146763390Y-122459285D02*
X146715771Y-122364047D01*
X146715771Y-122364047D02*
X146715771Y-122125952D01*
X146715771Y-122125952D02*
X146763390Y-122030714D01*
X146763390Y-122030714D02*
X146811009Y-121983095D01*
X146811009Y-121983095D02*
X146906247Y-121935476D01*
X146906247Y-121935476D02*
X147144342Y-121935476D01*
X147144342Y-121935476D02*
X147239580Y-121983095D01*
X147239580Y-121983095D02*
X147287200Y-122030714D01*
X147287200Y-122030714D02*
X147334819Y-122125952D01*
X147334819Y-122125952D02*
X147334819Y-122364047D01*
X147334819Y-122364047D02*
X147287200Y-122459285D01*
X147287200Y-122459285D02*
X147239580Y-122506904D01*
X97042319Y-89595238D02*
X96566128Y-89928571D01*
X97042319Y-90166666D02*
X96042319Y-90166666D01*
X96042319Y-90166666D02*
X96042319Y-89785714D01*
X96042319Y-89785714D02*
X96089938Y-89690476D01*
X96089938Y-89690476D02*
X96137557Y-89642857D01*
X96137557Y-89642857D02*
X96232795Y-89595238D01*
X96232795Y-89595238D02*
X96375652Y-89595238D01*
X96375652Y-89595238D02*
X96470890Y-89642857D01*
X96470890Y-89642857D02*
X96518509Y-89690476D01*
X96518509Y-89690476D02*
X96566128Y-89785714D01*
X96566128Y-89785714D02*
X96566128Y-90166666D01*
X96042319Y-89309523D02*
X97042319Y-88976190D01*
X97042319Y-88976190D02*
X96042319Y-88642857D01*
X97042319Y-87785714D02*
X97042319Y-88357142D01*
X97042319Y-88071428D02*
X96042319Y-88071428D01*
X96042319Y-88071428D02*
X96185176Y-88166666D01*
X96185176Y-88166666D02*
X96280414Y-88261904D01*
X96280414Y-88261904D02*
X96328033Y-88357142D01*
D16*
%TO.C,R11*%
X192130000Y-84596359D02*
X192130000Y-84903641D01*
X191370000Y-84596359D02*
X191370000Y-84903641D01*
%TO.C,R8*%
X199130000Y-110106359D02*
X199130000Y-110413641D01*
X198370000Y-110106359D02*
X198370000Y-110413641D01*
%TO.C,J5*%
X211380000Y-124880000D02*
X211380000Y-122120000D01*
X201110000Y-124880000D02*
X211380000Y-124880000D01*
X201110000Y-124880000D02*
X201110000Y-122120000D01*
X201110000Y-122120000D02*
X211380000Y-122120000D01*
X199840000Y-124880000D02*
X198460000Y-124880000D01*
X198460000Y-124880000D02*
X198460000Y-123500000D01*
D10*
%TO.C,L1*%
X125750000Y-99500000D02*
X112250000Y-99500000D01*
X125750000Y-82500000D02*
X125750000Y-99500000D01*
X112250000Y-99500000D02*
X112250000Y-82500000D01*
X112250000Y-82500000D02*
X125750000Y-82500000D01*
D16*
%TO.C,Q4*%
X130362500Y-107830000D02*
X130122500Y-107500000D01*
X130602500Y-107500000D01*
X130362500Y-107830000D01*
G36*
X130362500Y-107830000D02*
G01*
X130122500Y-107500000D01*
X130602500Y-107500000D01*
X130362500Y-107830000D01*
G37*
X129822500Y-109010000D02*
X128302500Y-109010000D01*
X129822500Y-108960000D02*
X129822500Y-109010000D01*
X129822500Y-107060000D02*
X129822500Y-107840000D01*
X129822500Y-105890000D02*
X129822500Y-105940000D01*
X128302500Y-109010000D02*
X128302500Y-108010000D01*
X128302500Y-106890000D02*
X128302500Y-105890000D01*
X128302500Y-105890000D02*
X129822500Y-105890000D01*
%TO.C,R7*%
X168680000Y-110380000D02*
X180820000Y-110380000D01*
X180820000Y-115120000D01*
X168680000Y-115120000D01*
X168680000Y-110380000D01*
X180930000Y-112750000D02*
X180820000Y-112750000D01*
X168570000Y-112750000D02*
X168680000Y-112750000D01*
%TO.C,F3*%
X92687500Y-114350000D02*
X92687500Y-113350000D01*
X92687500Y-109150000D02*
X92687500Y-110150000D01*
X88687500Y-114350000D02*
X92687500Y-114350000D01*
X88687500Y-114350000D02*
X88687500Y-113350000D01*
X88687500Y-109150000D02*
X92687500Y-109150000D01*
X88687500Y-109150000D02*
X88687500Y-110150000D01*
X77387500Y-114350000D02*
X77387500Y-112950000D01*
X77387500Y-114250000D02*
X88687500Y-114250000D01*
X77387500Y-109250000D02*
X88687500Y-109250000D01*
X77387500Y-109150000D02*
X77387500Y-110550000D01*
X77387500Y-109150000D02*
X73387500Y-109150000D01*
X73387500Y-114350000D02*
X77387500Y-114350000D01*
X73387500Y-112950000D02*
X73387500Y-114350000D01*
X73387500Y-110550000D02*
X73387500Y-109150000D01*
%TO.C,K1*%
X126350000Y-117350000D02*
X126350000Y-110750000D01*
X126350000Y-117350000D02*
X106550000Y-117350000D01*
X126350000Y-108350000D02*
X126350000Y-101750000D01*
X122300000Y-109500000D02*
X123100000Y-109500000D01*
X122300000Y-109500000D02*
X122300000Y-105900000D01*
X121400000Y-103500000D02*
X118900000Y-103500000D01*
X120900000Y-111300000D02*
X116900000Y-111300000D01*
X120900000Y-107700000D02*
X120900000Y-111300000D01*
X118900000Y-115500000D02*
X121400000Y-115500000D01*
X118900000Y-115500000D02*
X118900000Y-111300000D01*
X118900000Y-107700000D02*
X118900000Y-103500000D01*
X116900000Y-111300000D02*
X116900000Y-107700000D01*
X116900000Y-107700000D02*
X120900000Y-111300000D01*
X116900000Y-107700000D02*
X120900000Y-107700000D01*
X115500000Y-109500000D02*
X115500000Y-105900000D01*
X115500000Y-109500000D02*
X114000000Y-109500000D01*
X115500000Y-105900000D02*
X122300000Y-105900000D01*
X114000000Y-109500000D02*
X109400000Y-112000000D01*
X110800000Y-113750000D02*
X110800000Y-111250000D01*
X110800000Y-105350000D02*
X110800000Y-107800000D01*
X106550000Y-117350000D02*
X106550000Y-101750000D01*
X106550000Y-101750000D02*
X126350000Y-101750000D01*
%TO.C,U1*%
X192755000Y-107880000D02*
G75*
G02*
X190755000Y-107880000I-1000000J0D01*
G01*
X194405000Y-115620000D02*
X194405000Y-107880000D01*
X194405000Y-107880000D02*
X192755000Y-107880000D01*
X190755000Y-107880000D02*
X189105000Y-107880000D01*
X189105000Y-115620000D02*
X194405000Y-115620000D01*
X189105000Y-107880000D02*
X189105000Y-115620000D01*
D14*
%TO.C,RV2*%
X142500000Y-111550000D02*
X142500000Y-115450000D01*
X130500000Y-115450000D02*
X142500000Y-115450000D01*
X130500000Y-111550000D02*
X142500000Y-111550000D01*
X130500000Y-111550000D02*
X130500000Y-115450000D01*
D16*
%TO.C,U6*%
X198800000Y-114240000D02*
X198560000Y-113910000D01*
X199040000Y-113910000D01*
X198800000Y-114240000D01*
G36*
X198800000Y-114240000D02*
G01*
X198560000Y-113910000D01*
X199040000Y-113910000D01*
X198800000Y-114240000D01*
G37*
X201160000Y-117310000D02*
X199340000Y-117310000D01*
X201160000Y-117260000D02*
X201160000Y-117310000D01*
X201160000Y-115360000D02*
X201160000Y-116140000D01*
X201160000Y-114190000D02*
X201160000Y-114240000D01*
X199340000Y-117310000D02*
X199340000Y-117260000D01*
X199340000Y-114240000D02*
X199340000Y-114190000D01*
X199340000Y-114190000D02*
X201160000Y-114190000D01*
%TO.C,D3*%
X185470000Y-126220000D02*
X180030000Y-126220000D01*
X180030000Y-123280000D01*
X185470000Y-123280000D01*
X185470000Y-126220000D01*
X186490000Y-124750000D02*
X185470000Y-124750000D01*
X184690000Y-126220000D02*
X184690000Y-123280000D01*
X184570000Y-126220000D02*
X184570000Y-123280000D01*
X184450000Y-126220000D02*
X184450000Y-123280000D01*
X179010000Y-124750000D02*
X180030000Y-124750000D01*
%TO.C,R12*%
X215663641Y-102380000D02*
X215356359Y-102380000D01*
X215663641Y-101620000D02*
X215356359Y-101620000D01*
%TO.C,D5*%
X140360000Y-110500000D02*
X140360000Y-108500000D01*
X140360000Y-110500000D02*
X136350000Y-110500000D01*
X140360000Y-108500000D02*
X136350000Y-108500000D01*
%TO.C,R6*%
X168680000Y-102380000D02*
X180820000Y-102380000D01*
X180820000Y-107120000D01*
X168680000Y-107120000D01*
X168680000Y-102380000D01*
X180930000Y-104750000D02*
X180820000Y-104750000D01*
X168570000Y-104750000D02*
X168680000Y-104750000D01*
%TO.C,D2*%
X185470000Y-121220000D02*
X180030000Y-121220000D01*
X180030000Y-118280000D01*
X185470000Y-118280000D01*
X185470000Y-121220000D01*
X186490000Y-119750000D02*
X185470000Y-119750000D01*
X184690000Y-121220000D02*
X184690000Y-118280000D01*
X184570000Y-121220000D02*
X184570000Y-118280000D01*
X184450000Y-121220000D02*
X184450000Y-118280000D01*
X179010000Y-119750000D02*
X180030000Y-119750000D01*
%TO.C,C5*%
X202642164Y-113610000D02*
X202857836Y-113610000D01*
X202642164Y-112890000D02*
X202857836Y-112890000D01*
%TO.C,R2*%
X149630000Y-113030000D02*
X158870000Y-113030000D01*
X158870000Y-116470000D01*
X149630000Y-116470000D01*
X149630000Y-113030000D01*
X159560000Y-114750000D02*
X158870000Y-114750000D01*
X148940000Y-114750000D02*
X149630000Y-114750000D01*
%TO.C,R4*%
X159893641Y-122630000D02*
X159586359Y-122630000D01*
X159893641Y-121870000D02*
X159586359Y-121870000D01*
%TO.C,R10*%
X191403641Y-91130000D02*
X191096359Y-91130000D01*
X191403641Y-90370000D02*
X191096359Y-90370000D01*
%TO.C,R14*%
X177630000Y-96913641D02*
X177630000Y-96606359D01*
X176870000Y-96913641D02*
X176870000Y-96606359D01*
%TO.C,F1*%
X93137500Y-88950000D02*
X93137500Y-90350000D01*
X93137500Y-86550000D02*
X93137500Y-85150000D01*
X93137500Y-85150000D02*
X89137500Y-85150000D01*
X89137500Y-90350000D02*
X93137500Y-90350000D01*
X89137500Y-90350000D02*
X89137500Y-88950000D01*
X89137500Y-90250000D02*
X77837500Y-90250000D01*
X89137500Y-85250000D02*
X77837500Y-85250000D01*
X89137500Y-85150000D02*
X89137500Y-86550000D01*
X77837500Y-90350000D02*
X77837500Y-89350000D01*
X77837500Y-90350000D02*
X73837500Y-90350000D01*
X77837500Y-85150000D02*
X77837500Y-86150000D01*
X77837500Y-85150000D02*
X73837500Y-85150000D01*
X73837500Y-90350000D02*
X73837500Y-89350000D01*
X73837500Y-85150000D02*
X73837500Y-86150000D01*
%TO.C,Q1*%
X127570000Y-128210000D02*
X117350000Y-128210000D01*
X127570000Y-126830000D02*
X117350000Y-126830000D01*
X127570000Y-123590000D02*
X127570000Y-128210000D01*
X124310000Y-128210000D02*
X124310000Y-126830000D01*
X120610000Y-128210000D02*
X120610000Y-126830000D01*
X117350000Y-128210000D02*
X117350000Y-123590000D01*
X117350000Y-123590000D02*
X127570000Y-123590000D01*
%TO.C,R13*%
X175630000Y-99086359D02*
X175630000Y-99393641D01*
X174870000Y-99086359D02*
X174870000Y-99393641D01*
%TO.C,F2*%
X93137500Y-100950000D02*
X93137500Y-102350000D01*
X93137500Y-98550000D02*
X93137500Y-97150000D01*
X93137500Y-97150000D02*
X89137500Y-97150000D01*
X89137500Y-102350000D02*
X93137500Y-102350000D01*
X89137500Y-102350000D02*
X89137500Y-100950000D01*
X89137500Y-102250000D02*
X77837500Y-102250000D01*
X89137500Y-97250000D02*
X77837500Y-97250000D01*
X89137500Y-97150000D02*
X89137500Y-98550000D01*
X77837500Y-102350000D02*
X77837500Y-101350000D01*
X77837500Y-102350000D02*
X73837500Y-102350000D01*
X77837500Y-97150000D02*
X77837500Y-98150000D01*
X77837500Y-97150000D02*
X73837500Y-97150000D01*
X73837500Y-102350000D02*
X73837500Y-101350000D01*
X73837500Y-97150000D02*
X73837500Y-98150000D01*
%TO.C,J2*%
X186630000Y-86820000D02*
X186630000Y-99630000D01*
X183870000Y-99630000D02*
X186630000Y-99630000D01*
X183870000Y-86820000D02*
X186630000Y-86820000D01*
X183870000Y-86820000D02*
X183870000Y-99630000D01*
X183870000Y-85550000D02*
X183870000Y-84170000D01*
X183870000Y-84170000D02*
X185250000Y-84170000D01*
%TO.C,R15*%
X136846359Y-106380000D02*
X137153641Y-106380000D01*
X136846359Y-105620000D02*
X137153641Y-105620000D01*
%TO.C,Q3*%
X179040000Y-99200000D02*
X178560000Y-99200000D01*
X178800000Y-98870000D01*
X179040000Y-99200000D01*
G36*
X179040000Y-99200000D02*
G01*
X178560000Y-99200000D01*
X178800000Y-98870000D01*
X179040000Y-99200000D01*
G37*
X181160000Y-100810000D02*
X179340000Y-100810000D01*
X181160000Y-99810000D02*
X181160000Y-100810000D01*
X181160000Y-97690000D02*
X181160000Y-98690000D01*
X179340000Y-100810000D02*
X179340000Y-100760000D01*
X179340000Y-99640000D02*
X179340000Y-98860000D01*
X179340000Y-97740000D02*
X179340000Y-97690000D01*
X179340000Y-97690000D02*
X181160000Y-97690000D01*
%TO.C,U3*%
X193315000Y-81800000D02*
X192815000Y-81800000D01*
X193315000Y-81300000D01*
X193315000Y-81800000D01*
G36*
X193315000Y-81800000D02*
G01*
X192815000Y-81800000D01*
X193315000Y-81300000D01*
X193315000Y-81800000D01*
G37*
X211715000Y-100750000D02*
X211715000Y-99800000D01*
X210315000Y-100750000D02*
X211715000Y-100750000D01*
X194715000Y-100750000D02*
X193315000Y-100750000D01*
X193315000Y-100750000D02*
X193315000Y-99800000D01*
%TO.C,R3*%
X158870000Y-111470000D02*
X149630000Y-111470000D01*
X149630000Y-108030000D01*
X158870000Y-108030000D01*
X158870000Y-111470000D01*
X159560000Y-109750000D02*
X158870000Y-109750000D01*
X148940000Y-109750000D02*
X149630000Y-109750000D01*
%TO.C,C4*%
X142620000Y-126570000D02*
X129380000Y-126570000D01*
X142620000Y-122330000D02*
X142620000Y-126570000D01*
X129380000Y-126570000D02*
X129380000Y-122330000D01*
X129380000Y-122330000D02*
X142620000Y-122330000D01*
%TO.C,C8*%
X190315000Y-83502164D02*
X190315000Y-83717836D01*
X189595000Y-83502164D02*
X189595000Y-83717836D01*
%TO.C,Q2*%
X179040000Y-94200000D02*
X178560000Y-94200000D01*
X178800000Y-93870000D01*
X179040000Y-94200000D01*
G36*
X179040000Y-94200000D02*
G01*
X178560000Y-94200000D01*
X178800000Y-93870000D01*
X179040000Y-94200000D01*
G37*
X181160000Y-95810000D02*
X179340000Y-95810000D01*
X181160000Y-94810000D02*
X181160000Y-95810000D01*
X181160000Y-92690000D02*
X181160000Y-93690000D01*
X179340000Y-95810000D02*
X179340000Y-95760000D01*
X179340000Y-94640000D02*
X179340000Y-93860000D01*
X179340000Y-92740000D02*
X179340000Y-92690000D01*
X179340000Y-92690000D02*
X181160000Y-92690000D01*
%TO.C,J1*%
X223630000Y-119370000D02*
X222250000Y-119370000D01*
X223630000Y-117990000D02*
X223630000Y-119370000D01*
X223630000Y-116720000D02*
X223630000Y-83590000D01*
X223630000Y-116720000D02*
X220870000Y-116720000D01*
X223630000Y-83590000D02*
X220870000Y-83590000D01*
X220870000Y-116720000D02*
X220870000Y-83590000D01*
%TO.C,R9*%
X201487258Y-118772500D02*
X201012742Y-118772500D01*
X201487258Y-117727500D02*
X201012742Y-117727500D01*
%TO.C,C7*%
X189260000Y-83615580D02*
X189260000Y-83334420D01*
X188240000Y-83615580D02*
X188240000Y-83334420D01*
%TO.C,C3*%
X178810000Y-84854003D02*
G75*
G02*
X178810000Y-89645997I-1060001J-2395997D01*
G01*
X176690000Y-89645997D02*
G75*
G02*
X176690000Y-84854003I1060001J2395997D01*
G01*
X176275000Y-90054775D02*
X176275000Y-89554775D01*
X176025000Y-89804775D02*
X176525000Y-89804775D01*
%TO.C,D4*%
X171970000Y-126220000D02*
X166530000Y-126220000D01*
X166530000Y-123280000D01*
X171970000Y-123280000D01*
X171970000Y-126220000D01*
X172990000Y-124750000D02*
X171970000Y-124750000D01*
X171190000Y-126220000D02*
X171190000Y-123280000D01*
X171070000Y-126220000D02*
X171070000Y-123280000D01*
X170950000Y-126220000D02*
X170950000Y-123280000D01*
X165510000Y-124750000D02*
X166530000Y-124750000D01*
%TO.C,C1*%
X110620000Y-100120000D02*
X105380000Y-100120000D01*
X110620000Y-81880000D02*
X110620000Y-100120000D01*
X105380000Y-100120000D02*
X105380000Y-81880000D01*
X105380000Y-81880000D02*
X110620000Y-81880000D01*
%TO.C,PS1*%
X127280000Y-91250000D02*
X126670000Y-91690000D01*
X126670000Y-90810000D01*
X127280000Y-91250000D01*
G36*
X127280000Y-91250000D02*
G01*
X126670000Y-91690000D01*
X126670000Y-90810000D01*
X127280000Y-91250000D01*
G37*
X164300000Y-105110000D02*
X127280000Y-105110000D01*
X164300000Y-82390000D02*
X164300000Y-105110000D01*
X127280000Y-105110000D02*
X127280000Y-91546000D01*
X127280000Y-90954000D02*
X127280000Y-82390000D01*
X127280000Y-82390000D02*
X164300000Y-82390000D01*
%TO.C,R5*%
X142820000Y-121320000D02*
X130680000Y-121320000D01*
X130680000Y-116580000D01*
X142820000Y-116580000D01*
X142820000Y-121320000D01*
X142930000Y-118950000D02*
X142820000Y-118950000D01*
X130570000Y-118950000D02*
X130680000Y-118950000D01*
%TO.C,R16*%
X132346359Y-108380000D02*
X132653641Y-108380000D01*
X132346359Y-107620000D02*
X132653641Y-107620000D01*
%TO.C,C2*%
X172807500Y-87250000D02*
G75*
G02*
X166267500Y-87250000I-3270000J0D01*
G01*
X166267500Y-87250000D02*
G75*
G02*
X172807500Y-87250000I3270000J0D01*
G01*
%TO.C,D1*%
X171970000Y-121220000D02*
X166530000Y-121220000D01*
X166530000Y-118280000D01*
X171970000Y-118280000D01*
X171970000Y-121220000D01*
X172990000Y-119750000D02*
X171970000Y-119750000D01*
X171190000Y-121220000D02*
X171190000Y-118280000D01*
X171070000Y-121220000D02*
X171070000Y-118280000D01*
X170950000Y-121220000D02*
X170950000Y-118280000D01*
X165510000Y-119750000D02*
X166530000Y-119750000D01*
%TO.C,F4*%
X93137500Y-124950000D02*
X93137500Y-126350000D01*
X93137500Y-122550000D02*
X93137500Y-121150000D01*
X93137500Y-121150000D02*
X89137500Y-121150000D01*
X89137500Y-126350000D02*
X93137500Y-126350000D01*
X89137500Y-126350000D02*
X89137500Y-124950000D01*
X89137500Y-126250000D02*
X77837500Y-126250000D01*
X89137500Y-121250000D02*
X77837500Y-121250000D01*
X89137500Y-121150000D02*
X89137500Y-122550000D01*
X77837500Y-126350000D02*
X77837500Y-125350000D01*
X77837500Y-126350000D02*
X73837500Y-126350000D01*
X77837500Y-121150000D02*
X77837500Y-122150000D01*
X77837500Y-121150000D02*
X73837500Y-121150000D01*
X73837500Y-126350000D02*
X73837500Y-125350000D01*
X73837500Y-121150000D02*
X73837500Y-122150000D01*
%TO.C,U2*%
X173677500Y-93360000D02*
X173347500Y-93120000D01*
X173677500Y-92880000D01*
X173677500Y-93360000D01*
G36*
X173677500Y-93360000D02*
G01*
X173347500Y-93120000D01*
X173677500Y-92880000D01*
X173677500Y-93360000D01*
G37*
X173447500Y-98160000D02*
X172187500Y-98160000D01*
X173447500Y-94400000D02*
X173447500Y-98160000D01*
X166627500Y-98160000D02*
X167887500Y-98160000D01*
X166627500Y-94400000D02*
X166627500Y-98160000D01*
%TO.C,C6*%
X192110000Y-86857836D02*
X192110000Y-86642164D01*
X191390000Y-86857836D02*
X191390000Y-86642164D01*
%TO.C,U5*%
X147880000Y-121745000D02*
G75*
G02*
X147880000Y-123745000I0J-1000000D01*
G01*
X155620000Y-125395000D02*
X155620000Y-120095000D01*
X155620000Y-120095000D02*
X147880000Y-120095000D01*
X147880000Y-125395000D02*
X155620000Y-125395000D01*
X147880000Y-123745000D02*
X147880000Y-125395000D01*
X147880000Y-120095000D02*
X147880000Y-121745000D01*
D14*
%TO.C,RV1*%
X101487500Y-95000000D02*
X97587500Y-95000000D01*
X101487500Y-83000000D02*
X101487500Y-95000000D01*
X101487500Y-83000000D02*
X97587500Y-83000000D01*
X97587500Y-83000000D02*
X97587500Y-95000000D01*
%TD*%
%LPC*%
D17*
%TO.C,R11*%
X191750000Y-85260000D03*
X191750000Y-84240000D03*
%TD*%
%TO.C,R8*%
X198750000Y-110770000D03*
X198750000Y-109750000D03*
%TD*%
D18*
%TO.C,J5*%
X210000000Y-123500000D03*
X207460000Y-123500000D03*
X204920000Y-123500000D03*
X202380000Y-123500000D03*
D19*
X199840000Y-123500000D03*
%TD*%
D20*
%TO.C,L1*%
X115500000Y-87000000D03*
X122500000Y-87000000D03*
X122500000Y-95000000D03*
X115500000Y-95000000D03*
%TD*%
D21*
%TO.C,Q4*%
X128125000Y-107450000D03*
X130000000Y-106500000D03*
X130000000Y-108400000D03*
%TD*%
D22*
%TO.C,R7*%
X182370000Y-112750000D03*
X167130000Y-112750000D03*
%TD*%
D23*
%TO.C,F3*%
X72787500Y-111750000D03*
X77987500Y-111750000D03*
D24*
X88087500Y-111750000D03*
X93287500Y-111750000D03*
%TD*%
D25*
%TO.C,K1*%
X123000000Y-115500000D03*
D26*
X110750000Y-115550000D03*
X110800000Y-103500000D03*
D25*
X123000000Y-103500000D03*
D26*
X124950000Y-109550000D03*
%TD*%
D27*
%TO.C,U1*%
X195565000Y-109210000D03*
X195565000Y-111750000D03*
X195565000Y-114290000D03*
X187945000Y-114290000D03*
X187945000Y-111750000D03*
D28*
X187945000Y-109210000D03*
%TD*%
D29*
%TO.C,RV2*%
X140250000Y-114200000D03*
X132750000Y-112800000D03*
%TD*%
D30*
%TO.C,U6*%
X201387500Y-114800000D03*
X201387500Y-116700000D03*
X199112500Y-116700000D03*
X199112500Y-115750000D03*
X199112500Y-114800000D03*
%TD*%
D31*
%TO.C,D3*%
X177670000Y-124750000D03*
D32*
X187830000Y-124750000D03*
%TD*%
D33*
%TO.C,R12*%
X215000000Y-102000000D03*
X216020000Y-102000000D03*
%TD*%
D34*
%TO.C,D5*%
X136350000Y-109500000D03*
X139650000Y-109500000D03*
%TD*%
D22*
%TO.C,R6*%
X182370000Y-104750000D03*
X167130000Y-104750000D03*
%TD*%
D31*
%TO.C,D2*%
X177670000Y-119750000D03*
D32*
X187830000Y-119750000D03*
%TD*%
D35*
%TO.C,C5*%
X203230000Y-113250000D03*
X202270000Y-113250000D03*
%TD*%
D27*
%TO.C,R2*%
X160600000Y-114750000D03*
X147900000Y-114750000D03*
%TD*%
D36*
%TO.C,J3*%
X67000000Y-123000000D03*
D37*
X67000000Y-115200000D03*
%TD*%
D33*
%TO.C,R4*%
X159230000Y-122250000D03*
X160250000Y-122250000D03*
%TD*%
%TO.C,R10*%
X190740000Y-90750000D03*
X191760000Y-90750000D03*
%TD*%
D38*
%TO.C,R14*%
X177250000Y-96250000D03*
X177250000Y-97270000D03*
%TD*%
D23*
%TO.C,F1*%
X93737500Y-87750000D03*
X88537500Y-87750000D03*
D39*
X78437500Y-87750000D03*
X73237500Y-87750000D03*
%TD*%
D40*
%TO.C,Q1*%
X119920000Y-124950000D03*
X122460000Y-124950000D03*
D41*
X125000000Y-124950000D03*
%TD*%
D17*
%TO.C,R13*%
X175250000Y-99750000D03*
X175250000Y-98730000D03*
%TD*%
D23*
%TO.C,F2*%
X93737500Y-99750000D03*
X88537500Y-99750000D03*
D39*
X78437500Y-99750000D03*
X73237500Y-99750000D03*
%TD*%
D18*
%TO.C,J2*%
X185250000Y-98250000D03*
X185250000Y-95710000D03*
X185250000Y-93170000D03*
X185250000Y-90630000D03*
X185250000Y-88090000D03*
D19*
X185250000Y-85550000D03*
%TD*%
D42*
%TO.C,R15*%
X137510000Y-106000000D03*
X136490000Y-106000000D03*
%TD*%
D30*
%TO.C,Q3*%
X181387500Y-99250000D03*
X179112500Y-100200000D03*
X179112500Y-98300000D03*
%TD*%
D43*
%TO.C,U3*%
X202415000Y-91660000D03*
D44*
X202415000Y-90960000D03*
D43*
X202415000Y-90260000D03*
D44*
X202415000Y-89560000D03*
D43*
X202415000Y-88860000D03*
D44*
X201715000Y-91660000D03*
X201715000Y-90260000D03*
X201715000Y-88860000D03*
D43*
X201015000Y-91660000D03*
D44*
X201015000Y-90960000D03*
D43*
X201015000Y-90260000D03*
D44*
X201015000Y-89560000D03*
D43*
X201015000Y-88860000D03*
D44*
X200315000Y-91660000D03*
X200315000Y-90260000D03*
X200315000Y-88860000D03*
D43*
X199615000Y-91660000D03*
D44*
X199615000Y-90960000D03*
D43*
X199615000Y-90260000D03*
D44*
X199615000Y-89560000D03*
D43*
X199615000Y-88860000D03*
D45*
X211265000Y-82540000D03*
X211265000Y-83810000D03*
X211265000Y-85080000D03*
X211265000Y-86350000D03*
X211265000Y-87620000D03*
X211265000Y-88890000D03*
X211265000Y-90160000D03*
X211265000Y-91430000D03*
X211265000Y-92700000D03*
X211265000Y-93970000D03*
X211265000Y-95240000D03*
X211265000Y-96510000D03*
X211265000Y-97780000D03*
X211265000Y-99050000D03*
D46*
X208230000Y-100300000D03*
X206960000Y-100300000D03*
X205690000Y-100300000D03*
X204420000Y-100300000D03*
X203150000Y-100300000D03*
X201880000Y-100300000D03*
X200610000Y-100300000D03*
X199340000Y-100300000D03*
X198070000Y-100300000D03*
X196800000Y-100300000D03*
D45*
X193765000Y-99050000D03*
X193765000Y-97780000D03*
X193765000Y-96510000D03*
X193765000Y-95240000D03*
X193765000Y-93970000D03*
X193765000Y-92700000D03*
X193765000Y-91430000D03*
X193765000Y-90160000D03*
X193765000Y-88890000D03*
X193765000Y-87620000D03*
X193765000Y-86350000D03*
X193765000Y-85080000D03*
X193765000Y-83810000D03*
X193765000Y-82540000D03*
%TD*%
D27*
%TO.C,R3*%
X147900000Y-109750000D03*
X160600000Y-109750000D03*
%TD*%
D47*
%TO.C,C4*%
X131000000Y-124450000D03*
X141000000Y-124450000D03*
%TD*%
D36*
%TO.C,R1*%
X100650000Y-123750000D03*
D48*
X108450000Y-123750000D03*
%TD*%
D49*
%TO.C,C8*%
X189955000Y-84090000D03*
X189955000Y-83130000D03*
%TD*%
D30*
%TO.C,Q2*%
X181387500Y-94250000D03*
X179112500Y-95200000D03*
X179112500Y-93300000D03*
%TD*%
D18*
%TO.C,J1*%
X222250000Y-84970000D03*
X222250000Y-87510000D03*
X222250000Y-90050000D03*
X222250000Y-92590000D03*
X222250000Y-95130000D03*
X222250000Y-97670000D03*
X222250000Y-100210000D03*
X222250000Y-102750000D03*
X222250000Y-105290000D03*
X222250000Y-107830000D03*
X222250000Y-110370000D03*
X222250000Y-112910000D03*
X222250000Y-115450000D03*
D19*
X222250000Y-117990000D03*
%TD*%
D50*
%TO.C,R9*%
X200425000Y-118250000D03*
X202075000Y-118250000D03*
%TD*%
D51*
%TO.C,C7*%
X188750000Y-82700000D03*
X188750000Y-84250000D03*
%TD*%
D27*
%TO.C,C3*%
X177750000Y-84750000D03*
D52*
X177750000Y-89750000D03*
%TD*%
D31*
%TO.C,D4*%
X164170000Y-124750000D03*
D32*
X174330000Y-124750000D03*
%TD*%
D22*
%TO.C,C1*%
X108000000Y-98500000D03*
X108000000Y-83500000D03*
%TD*%
D53*
%TO.C,PS1*%
X160330000Y-101250000D03*
X160330000Y-86250000D03*
X131250000Y-96250000D03*
D54*
X131250000Y-91250000D03*
%TD*%
D22*
%TO.C,R5*%
X129130000Y-118950000D03*
X144370000Y-118950000D03*
%TD*%
D42*
%TO.C,R16*%
X133010000Y-108000000D03*
X131990000Y-108000000D03*
%TD*%
D27*
%TO.C,C2*%
X169537500Y-86000000D03*
X169537500Y-88500000D03*
%TD*%
D31*
%TO.C,D1*%
X164170000Y-119750000D03*
D32*
X174330000Y-119750000D03*
%TD*%
D23*
%TO.C,F4*%
X93737500Y-123750000D03*
X88537500Y-123750000D03*
D39*
X78437500Y-123750000D03*
X73237500Y-123750000D03*
%TD*%
D55*
%TO.C,U2*%
X167737500Y-93100000D03*
D56*
X170037500Y-99400000D03*
D55*
X170037500Y-93100000D03*
X172337500Y-93100000D03*
%TD*%
D57*
%TO.C,C6*%
X191750000Y-86270000D03*
X191750000Y-87230000D03*
%TD*%
D27*
%TO.C,U5*%
X149210000Y-118935000D03*
X151750000Y-118935000D03*
X154290000Y-118935000D03*
X154290000Y-126555000D03*
X151750000Y-126555000D03*
D52*
X149210000Y-126555000D03*
%TD*%
D29*
%TO.C,RV1*%
X98837500Y-92750000D03*
X100237500Y-85250000D03*
%TD*%
D58*
%TO.C,J4*%
X65500000Y-101500000D03*
D59*
X65500000Y-94500000D03*
%TD*%
%LPD*%
M02*
