M48
; DRILL file {KiCad 9.0.7} date 2026-04-13T08:58:08+0300
; FORMAT={-:-/ absolute / inch / decimal}
; #@! TF.CreationDate,2026-04-13T08:58:08+03:00
; #@! TF.GenerationSoftware,Kicad,Pcbnew,9.0.7
; #@! TF.FileFunction,Plated,1,2,PTH
FMAT,2
INCH
; #@! TA.AperFunction,Plated,PTH,ComponentDrill
T1C0.0079
; #@! TA.AperFunction,Plated,PTH,ViaDrill
T2C0.0118
; #@! TA.AperFunction,Plated,PTH,ComponentDrill
T3C0.0315
; #@! TA.AperFunction,Plated,PTH,ComponentDrill
T4C0.0394
; #@! TA.AperFunction,Plated,PTH,ComponentDrill
T5C0.0433
; #@! TA.AperFunction,Plated,PTH,ComponentDrill
T6C0.0472
; #@! TA.AperFunction,Plated,PTH,ComponentDrill
T7C0.0512
; #@! TA.AperFunction,Plated,PTH,ComponentDrill
T8C0.0630
; #@! TA.AperFunction,Plated,PTH,ComponentDrill
T9C0.0846
%
G90
G05
T1
X7.8589Y-3.526
X7.8589Y-3.5811
X7.8864Y-3.4984
X7.8864Y-3.5535
X7.8864Y-3.6087
X7.914Y-3.526
X7.914Y-3.5811
X7.9415Y-3.4984
X7.9415Y-3.5535
X7.9415Y-3.6087
X7.9691Y-3.526
X7.9691Y-3.5811
T2
X5.2953Y-4.252
X5.5906Y-4.1732
X5.6299Y-4.1732
X5.9449Y-4.1732
X5.9843Y-4.1732
X5.9843Y-4.3307
X5.9843Y-4.4488
X6.0039Y-3.3465
X6.0039Y-3.4449
X6.0039Y-3.5433
X6.0039Y-3.6417
X6.0039Y-3.7402
X6.0039Y-3.8386
X6.0039Y-3.937
X6.1024Y-3.3465
X6.1024Y-3.4449
X6.1024Y-3.5433
X6.1024Y-3.6417
X6.1024Y-3.7402
X6.1024Y-3.8386
X6.1024Y-3.937
X6.1024Y-4.3307
X6.122Y-4.5276
X6.2008Y-3.3465
X6.2008Y-3.4449
X6.2008Y-3.5433
X6.2008Y-3.6417
X6.2008Y-3.7402
X6.2008Y-3.8386
X6.2008Y-3.937
X6.2008Y-4.7244
X6.2598Y-4.4291
X6.2795Y-4.6457
X6.2992Y-3.5433
X6.2992Y-3.6417
X6.2992Y-3.7402
X6.2992Y-3.8386
X6.2992Y-4.9213
X6.3091Y-4.813
X6.3976Y-3.3465
X6.3976Y-3.4449
X6.3976Y-3.5433
X6.3976Y-3.6417
X6.3976Y-3.7402
X6.3976Y-4.4291
X6.4961Y-3.3465
X6.4961Y-3.4449
X6.4961Y-3.5433
X6.4961Y-3.6417
X6.6339Y-4.7244
X6.6339Y-4.8228
X6.6339Y-4.9213
X6.6944Y-3.6654
X6.6944Y-3.9134
X6.7126Y-4.5079
X6.752Y-4.2717
X6.7913Y-4.4291
X6.8504Y-4.5669
X6.8701Y-4.1535
X6.8701Y-4.3504
X6.8898Y-4.8228
X6.9291Y-4.4882
X6.9488Y-4.0748
X6.9488Y-4.2717
X7.0079Y-4.2126
X7.0079Y-4.4094
X7.0276Y-4.8228
X7.0669Y-4.1535
X7.1555Y-3.7106
X7.1654Y-4.7244
X7.1654Y-4.8228
X7.2835Y-4.1732
X7.3031Y-4.3504
X7.3425Y-4.0157
X7.4606Y-4.1535
X7.5Y-4.0157
X7.5591Y-4.685
X7.5591Y-4.7835
X7.5591Y-4.8819
X7.5591Y-4.9803
X7.628Y-3.5016
X7.628Y-3.6516
X7.6772Y-4.685
X7.6772Y-4.7835
X7.6772Y-4.8819
X7.6772Y-4.9803
X7.6969Y-4.1732
X7.7362Y-3.5039
X7.7559Y-3.248
X7.7559Y-3.7795
X7.7953Y-4.685
X7.798Y-3.9488
X7.815Y-4.1732
X7.8248Y-4.2815
X7.8346Y-4.0551
X7.8907Y-4.6555
X7.8937Y-3.248
X7.9286Y-4.5197
X7.9724Y-4.0551
X7.9724Y-4.1732
X7.9724Y-4.311
X7.9921Y-3.7795
X8.0315Y-3.248
X8.0512Y-4.0354
X8.0677Y-4.2748
X8.1102Y-4.5079
X8.1102Y-4.626
X8.1299Y-3.5039
X8.1299Y-3.6417
X8.1299Y-3.7795
X8.1299Y-4.1535
X8.1299Y-4.2717
X8.1693Y-3.248
X8.2087Y-4.1339
X8.2677Y-4.3307
X8.3169Y-3.4016
X8.3169Y-3.4516
X8.3169Y-3.9016
X8.3175Y-3.5996
X8.3175Y-3.7996
X8.3465Y-4.0945
X8.3661Y-4.5079
X8.3661Y-4.626
X8.3661Y-4.7441
X8.3858Y-4.252
X8.4055Y-3.7205
X8.4055Y-3.8976
X8.4252Y-4.8622
X8.4252Y-4.9803
X8.4646Y-3.248
X8.4646Y-3.4055
X8.4646Y-3.5433
X8.4646Y-3.7795
X8.4646Y-4.1929
X8.4843Y-3.9173
X8.4843Y-4.1142
X8.4843Y-4.3504
X8.4843Y-4.626
X8.4843Y-4.7441
X8.5039Y-3.6614
X8.5047Y-4.0157
X8.5433Y-4.2717
X8.5433Y-4.3453
X8.563Y-3.7205
X8.563Y-4.2126
X8.563Y-4.4291
X8.5728Y-3.7894
X8.5827Y-3.8976
X8.6024Y-3.248
X8.622Y-3.7795
X8.6417Y-3.6811
X8.6614Y-3.8976
X8.6614Y-3.9961
X8.7008Y-4.9803
X8.7992Y-4.8819
X8.7992Y-4.9803
T3
X3.8912Y-3.6516
X3.9464Y-3.3563
X4.5472Y-3.4252
X4.5472Y-3.7402
X4.8228Y-3.4252
X4.8228Y-3.7402
X5.2264Y-4.4409
X5.5217Y-4.4961
X5.8228Y-4.3209
X5.8228Y-4.5177
X5.8744Y-4.6825
X5.8744Y-4.9825
X5.9744Y-4.6825
X5.9744Y-4.9825
X6.0744Y-4.6825
X6.0744Y-4.9825
X6.3228Y-4.3209
X6.3228Y-4.5177
X6.6747Y-3.3858
X6.6747Y-3.4843
X6.998Y-3.3366
X6.998Y-3.5335
X7.3994Y-4.2996
X7.3994Y-4.3996
X7.3994Y-4.4996
X7.6994Y-4.2996
X7.6994Y-4.3996
X7.6994Y-4.4996
T4
X4.8425Y-4.0748
X4.8425Y-4.5472
X5.1575Y-4.8996
X5.1673Y-3.5925
X5.1673Y-3.7894
X5.5512Y-4.8996
X6.3122Y-3.3957
X6.3122Y-3.9862
X7.2933Y-3.3681
X7.2933Y-3.4681
X7.2933Y-3.5681
X7.2933Y-3.6681
X7.2933Y-3.7681
X7.2933Y-3.8681
X7.8677Y-4.8622
X7.9677Y-4.8622
X8.0677Y-4.8622
X8.1677Y-4.8622
X8.2677Y-4.8622
X8.75Y-3.3453
X8.75Y-3.4453
X8.75Y-3.5453
X8.75Y-3.6453
X8.75Y-3.7453
X8.75Y-3.8453
X8.75Y-3.9453
X8.75Y-4.0453
X8.75Y-4.1453
X8.75Y-4.2453
X8.75Y-4.3453
X8.75Y-4.4453
X8.75Y-4.5453
X8.75Y-4.6453
T5
X4.7213Y-4.9193
X4.8213Y-4.9193
X4.9213Y-4.9193
X6.4634Y-4.7146
X6.4634Y-4.9114
X6.8634Y-4.7146
X6.8634Y-4.9114
X6.9949Y-4.7146
X6.9949Y-4.9114
X7.3949Y-4.7146
X7.3949Y-4.9114
T6
X4.252Y-3.2874
X4.252Y-3.878
X5.0839Y-4.6831
X5.6839Y-4.6831
X6.5799Y-4.124
X6.5799Y-4.439
X7.1799Y-4.124
X7.1799Y-4.439
T7
X2.8656Y-4.3996
X2.8834Y-3.4547
X2.8834Y-3.9272
X2.8834Y-4.872
X3.0704Y-4.3996
X3.0881Y-3.4547
X3.0881Y-3.9272
X3.0881Y-4.872
X3.468Y-4.3996
X3.4857Y-3.4547
X3.4857Y-3.9272
X3.4857Y-4.872
X3.6727Y-4.3996
X3.6905Y-3.4547
X3.6905Y-3.9272
X3.6905Y-4.872
X4.3602Y-4.5492
X4.3622Y-4.0748
X4.9193Y-4.313
T8
X2.5787Y-3.7205
X2.5787Y-3.9961
T9
X2.6378Y-4.5354
X2.6378Y-4.8425
X3.9626Y-4.872
X4.2697Y-4.872
M30
