%TF.GenerationSoftware,KiCad,Pcbnew,10.0.1*%
%TF.CreationDate,2026-05-15T14:45:40+03:00*%
%TF.ProjectId,3dFilamentDryer,33644669-6c61-46d6-956e-744472796572,rev?*%
%TF.SameCoordinates,Original*%
%TF.FileFunction,Soldermask,Bot*%
%TF.FilePolarity,Negative*%
%FSLAX46Y46*%
G04 Gerber Fmt 4.6, Leading zero omitted, Abs format (unit mm)*
G04 Created by KiCad (PCBNEW 10.0.1) date 2026-05-15 14:45:40*
%MOMM*%
%LPD*%
G01*
G04 APERTURE LIST*
G04 Aperture macros list*
%AMRoundRect*
0 Rectangle with rounded corners*
0 $1 Rounding radius*
0 $2 $3 $4 $5 $6 $7 $8 $9 X,Y pos of 4 corners*
0 Add a 4 corners polygon primitive as box body*
4,1,4,$2,$3,$4,$5,$6,$7,$8,$9,$2,$3,0*
0 Add four circle primitives for the rounded corners*
1,1,$1+$1,$2,$3*
1,1,$1+$1,$4,$5*
1,1,$1+$1,$6,$7*
1,1,$1+$1,$8,$9*
0 Add four rect primitives between the rounded corners*
20,1,$1+$1,$2,$3,$4,$5,0*
20,1,$1+$1,$4,$5,$6,$7,0*
20,1,$1+$1,$6,$7,$8,$9,0*
20,1,$1+$1,$8,$9,$2,$3,0*%
G04 Aperture macros list end*
%ADD10R,1.700000X1.700000*%
%ADD11C,1.700000*%
%ADD12C,2.540000*%
%ADD13C,2.400000*%
%ADD14RoundRect,0.575000X0.575000X0.575000X-0.575000X0.575000X-0.575000X-0.575000X0.575000X-0.575000X0*%
%ADD15C,2.300000*%
%ADD16C,3.000000*%
%ADD17C,2.500000*%
%ADD18RoundRect,0.250000X-0.550000X-0.550000X0.550000X-0.550000X0.550000X0.550000X-0.550000X0.550000X0*%
%ADD19C,1.600000*%
%ADD20C,1.800000*%
%ADD21RoundRect,0.249999X0.850001X0.850001X-0.850001X0.850001X-0.850001X-0.850001X0.850001X-0.850001X0*%
%ADD22C,2.200000*%
%ADD23RoundRect,0.250002X-1.699998X1.699998X-1.699998X-1.699998X1.699998X-1.699998X1.699998X1.699998X0*%
%ADD24C,3.900000*%
%ADD25RoundRect,0.575000X-0.575000X-0.575000X0.575000X-0.575000X0.575000X0.575000X-0.575000X0.575000X0*%
%ADD26R,1.905000X2.000000*%
%ADD27O,1.905000X2.000000*%
%ADD28C,0.600000*%
%ADD29C,2.000000*%
%ADD30RoundRect,0.250002X1.699998X1.699998X-1.699998X1.699998X-1.699998X-1.699998X1.699998X-1.699998X0*%
%ADD31RoundRect,0.250000X0.550000X-0.550000X0.550000X0.550000X-0.550000X0.550000X-0.550000X-0.550000X0*%
%ADD32RoundRect,0.250000X-0.600000X-0.750000X0.600000X-0.750000X0.600000X0.750000X-0.600000X0.750000X0*%
%ADD33O,1.700000X2.000000*%
%ADD34RoundRect,0.250002X-1.499998X1.499998X-1.499998X-1.499998X1.499998X-1.499998X1.499998X1.499998X0*%
%ADD35C,3.500000*%
G04 APERTURE END LIST*
D10*
%TO.C,J5*%
X199840000Y-123500000D03*
D11*
X202380000Y-123500000D03*
X204920000Y-123500000D03*
X207460000Y-123500000D03*
X210000000Y-123500000D03*
%TD*%
D12*
%TO.C,L1*%
X115500000Y-95000000D03*
X122500000Y-95000000D03*
X122500000Y-87000000D03*
X115500000Y-87000000D03*
%TD*%
D13*
%TO.C,R7*%
X167130000Y-112750000D03*
X182370000Y-112750000D03*
%TD*%
D14*
%TO.C,F3*%
X93287500Y-111750000D03*
X88087500Y-111750000D03*
D15*
X77987500Y-111750000D03*
X72787500Y-111750000D03*
%TD*%
D16*
%TO.C,K1*%
X124950000Y-109550000D03*
D17*
X123000000Y-103500000D03*
D16*
X110800000Y-103500000D03*
X110750000Y-115550000D03*
D17*
X123000000Y-115500000D03*
%TD*%
D18*
%TO.C,U1*%
X187945000Y-109210000D03*
D19*
X187945000Y-111750000D03*
X187945000Y-114290000D03*
X195565000Y-114290000D03*
X195565000Y-111750000D03*
X195565000Y-109210000D03*
%TD*%
D20*
%TO.C,RV2*%
X132750000Y-112800000D03*
X140250000Y-114200000D03*
%TD*%
D21*
%TO.C,D3*%
X187830000Y-124750000D03*
D22*
X177670000Y-124750000D03*
%TD*%
D13*
%TO.C,R6*%
X167130000Y-104750000D03*
X182370000Y-104750000D03*
%TD*%
D21*
%TO.C,D2*%
X187830000Y-119750000D03*
D22*
X177670000Y-119750000D03*
%TD*%
D19*
%TO.C,R2*%
X147900000Y-114750000D03*
X160600000Y-114750000D03*
%TD*%
D23*
%TO.C,J3*%
X67000000Y-115200000D03*
D24*
X67000000Y-123000000D03*
%TD*%
D25*
%TO.C,F1*%
X73237500Y-87750000D03*
X78437500Y-87750000D03*
D15*
X88537500Y-87750000D03*
X93737500Y-87750000D03*
%TD*%
D26*
%TO.C,Q1*%
X125000000Y-124950000D03*
D27*
X122460000Y-124950000D03*
X119920000Y-124950000D03*
%TD*%
D10*
%TO.C,J2*%
X185250000Y-85550000D03*
D11*
X185250000Y-88090000D03*
X185250000Y-90630000D03*
X185250000Y-93170000D03*
X185250000Y-95710000D03*
X185250000Y-98250000D03*
%TD*%
D28*
%TO.C,U3*%
X199615000Y-89560000D03*
X199615000Y-90960000D03*
X200315000Y-88860000D03*
X200315000Y-90260000D03*
X200315000Y-91660000D03*
X201015000Y-89560000D03*
X201015000Y-90960000D03*
X201715000Y-88860000D03*
X201715000Y-90260000D03*
X201715000Y-91660000D03*
X202415000Y-89560000D03*
X202415000Y-90960000D03*
%TD*%
D19*
%TO.C,R3*%
X160600000Y-109750000D03*
X147900000Y-109750000D03*
%TD*%
D29*
%TO.C,C4*%
X141000000Y-124450000D03*
X131000000Y-124450000D03*
%TD*%
D30*
%TO.C,R1*%
X108450000Y-123750000D03*
D24*
X100650000Y-123750000D03*
%TD*%
D10*
%TO.C,J1*%
X222250000Y-117990000D03*
D11*
X222250000Y-115450000D03*
X222250000Y-112910000D03*
X222250000Y-110370000D03*
X222250000Y-107830000D03*
X222250000Y-105290000D03*
X222250000Y-102750000D03*
X222250000Y-100210000D03*
X222250000Y-97670000D03*
X222250000Y-95130000D03*
X222250000Y-92590000D03*
X222250000Y-90050000D03*
X222250000Y-87510000D03*
X222250000Y-84970000D03*
%TD*%
D31*
%TO.C,C3*%
X177750000Y-89750000D03*
D19*
X177750000Y-84750000D03*
%TD*%
D21*
%TO.C,D4*%
X174330000Y-124750000D03*
D22*
X164170000Y-124750000D03*
%TD*%
D13*
%TO.C,C1*%
X108000000Y-83500000D03*
X108000000Y-98500000D03*
%TD*%
D32*
%TO.C,PS1*%
X131250000Y-91250000D03*
D33*
X131250000Y-96250000D03*
X160330000Y-86250000D03*
X160330000Y-101250000D03*
%TD*%
D13*
%TO.C,R5*%
X144370000Y-118950000D03*
X129130000Y-118950000D03*
%TD*%
D19*
%TO.C,C2*%
X169537500Y-88500000D03*
X169537500Y-86000000D03*
%TD*%
D21*
%TO.C,D1*%
X174330000Y-119750000D03*
D22*
X164170000Y-119750000D03*
%TD*%
D31*
%TO.C,U5*%
X149210000Y-126555000D03*
D19*
X151750000Y-126555000D03*
X154290000Y-126555000D03*
X154290000Y-118935000D03*
X151750000Y-118935000D03*
X149210000Y-118935000D03*
%TD*%
D20*
%TO.C,RV1*%
X100237500Y-85250000D03*
X98837500Y-92750000D03*
%TD*%
D34*
%TO.C,J4*%
X65500000Y-94500000D03*
D35*
X65500000Y-101500000D03*
%TD*%
M02*
