M48
; DRILL file KiCad 10.0.1 date 2026-05-15T14:45:42
; FORMAT={-:-/ absolute / metric / decimal}
; #@! TF.CreationDate,2026-05-15T14:45:42+03:00
; #@! TF.GenerationSoftware,Kicad,Pcbnew,10.0.1
; #@! TF.FileFunction,Plated,1,2,PTH
FMAT,2
METRIC
; #@! TA.AperFunction,Plated,PTH,ComponentDrill
T1C0.200
; #@! TA.AperFunction,Plated,PTH,ViaDrill
T2C0.300
; #@! TA.AperFunction,Plated,PTH,ComponentDrill
T3C0.800
; #@! TA.AperFunction,Plated,PTH,ComponentDrill
T4C1.000
; #@! TA.AperFunction,Plated,PTH,ComponentDrill
T5C1.100
; #@! TA.AperFunction,Plated,PTH,ComponentDrill
T6C1.200
; #@! TA.AperFunction,Plated,PTH,ComponentDrill
T7C1.300
; #@! TA.AperFunction,Plated,PTH,ComponentDrill
T8C1.600
; #@! TA.AperFunction,Plated,PTH,ComponentDrill
T9C2.150
%
G90
G05
T1
X199.615Y-89.56
X199.615Y-90.96
X200.315Y-88.86
X200.315Y-90.26
X200.315Y-91.66
X201.015Y-89.56
X201.015Y-90.96
X201.715Y-88.86
X201.715Y-90.26
X201.715Y-91.66
X202.415Y-89.56
X202.415Y-90.96
T2
X74.0Y-99.75
X75.0Y-99.75
X76.0Y-99.75
X77.0Y-99.75
X78.0Y-99.75
X134.5Y-108.0
X142.0Y-106.0
X143.0Y-106.0
X151.0Y-106.0
X152.0Y-106.0
X152.0Y-110.0
X152.0Y-113.0
X152.5Y-85.0
X152.5Y-87.5
X152.5Y-90.0
X152.5Y-92.5
X152.5Y-95.0
X152.5Y-97.5
X152.5Y-100.0
X154.5Y-124.0
X155.0Y-85.0
X155.0Y-87.5
X155.0Y-90.0
X155.0Y-92.5
X155.0Y-95.0
X155.0Y-97.5
X155.0Y-100.0
X155.0Y-110.0
X155.5Y-115.0
X157.0Y-124.0
X157.0Y-126.5
X157.5Y-85.0
X157.5Y-87.5
X157.5Y-90.0
X157.5Y-92.5
X157.5Y-95.0
X157.5Y-97.5
X157.5Y-100.0
X157.5Y-120.0
X159.0Y-112.5
X159.5Y-118.0
X160.0Y-90.0
X160.0Y-92.5
X160.0Y-95.0
X160.0Y-97.5
X160.0Y-125.0
X160.25Y-122.25
X161.0Y-126.5
X162.0Y-121.5
X162.5Y-85.0
X162.5Y-87.5
X162.5Y-90.0
X162.5Y-92.5
X162.5Y-95.0
X162.5Y-112.5
X165.0Y-85.0
X165.0Y-87.5
X165.0Y-90.0
X165.0Y-92.5
X165.0Y-115.0
X166.0Y-99.5
X167.0Y-97.5
X167.0Y-110.0
X168.5Y-96.0
X168.5Y-120.0
X168.5Y-122.5
X168.5Y-125.0
X169.0Y-82.5
X169.5Y-111.0
X170.037Y-93.1
X170.037Y-99.4
X170.5Y-114.5
X171.0Y-105.5
X171.5Y-95.5
X171.5Y-108.5
X172.0Y-82.5
X172.5Y-112.5
X173.0Y-103.5
X173.5Y-84.5
X173.5Y-89.5
X174.0Y-116.0
X174.5Y-105.5
X174.5Y-110.5
X175.0Y-82.5
X175.0Y-91.5
X175.0Y-122.5
X176.0Y-114.0
X176.5Y-103.5
X176.5Y-108.5
X177.0Y-116.0
X178.0Y-107.0
X178.0Y-112.0
X178.5Y-122.5
X179.0Y-114.0
X179.5Y-105.5
X180.5Y-82.5
X181.0Y-89.5
X181.75Y-94.25
X182.0Y-120.0
X182.0Y-122.5
X182.5Y-88.0
X185.0Y-106.0
X185.0Y-126.5
X185.5Y-110.5
X186.5Y-102.0
X187.5Y-117.0
X189.5Y-105.5
X190.5Y-102.0
X192.0Y-119.0
X192.0Y-121.5
X192.0Y-124.0
X192.0Y-126.5
X193.0Y-110.0
X193.0Y-112.0
X193.0Y-114.0
X193.0Y-116.0
X193.75Y-88.94
X193.75Y-92.75
X195.0Y-119.0
X195.0Y-121.5
X195.0Y-124.0
X195.0Y-126.5
X195.5Y-106.0
X196.0Y-93.5
X196.5Y-89.0
X197.0Y-82.5
X197.0Y-96.0
X198.0Y-119.0
X198.0Y-126.5
X198.07Y-100.3
X198.5Y-106.0
X198.75Y-108.75
X199.0Y-103.0
X200.425Y-118.25
X200.5Y-82.5
X201.0Y-93.5
X201.0Y-126.5
X201.387Y-114.8
X202.5Y-103.0
X202.5Y-106.0
X202.5Y-109.5
X203.0Y-96.0
X204.0Y-82.5
X204.0Y-93.5
X204.0Y-126.5
X204.5Y-102.5
X204.92Y-108.58
X206.0Y-114.5
X206.0Y-117.5
X206.5Y-89.0
X206.5Y-92.5
X206.5Y-96.0
X206.5Y-105.5
X206.5Y-108.5
X207.0Y-126.5
X207.5Y-82.5
X208.5Y-105.0
X209.0Y-111.5
X210.0Y-110.0
X210.5Y-126.5
X211.25Y-86.4
X211.25Y-87.67
X211.25Y-99.1
X211.265Y-91.43
X211.265Y-96.51
X212.0Y-104.0
X212.5Y-114.5
X212.5Y-117.5
X212.5Y-120.5
X213.0Y-108.0
X213.0Y-112.5
X213.5Y-94.5
X213.5Y-99.0
X214.0Y-123.5
X214.0Y-126.5
X215.0Y-82.5
X215.0Y-86.5
X215.0Y-90.0
X215.0Y-96.0
X215.0Y-106.5
X215.5Y-104.5
X215.5Y-110.5
X215.5Y-114.5
X215.5Y-117.5
X215.5Y-120.5
X215.673Y-99.6
X216.0Y-93.0
X216.02Y-102.0
X217.0Y-108.5
X217.0Y-110.37
X217.5Y-94.5
X217.5Y-107.0
X217.5Y-112.5
X217.75Y-96.25
X218.0Y-99.0
X218.5Y-82.5
X219.0Y-96.0
X219.5Y-93.5
X220.0Y-99.0
X220.0Y-101.5
X221.0Y-126.5
X223.5Y-121.5
X223.5Y-124.0
X223.5Y-126.5
T3
X98.837Y-92.75
X100.237Y-85.25
X115.5Y-87.0
X115.5Y-95.0
X122.5Y-87.0
X122.5Y-95.0
X132.75Y-112.8
X140.25Y-114.2
X147.9Y-109.75
X147.9Y-114.75
X149.21Y-118.935
X149.21Y-126.555
X151.75Y-118.935
X151.75Y-126.555
X154.29Y-118.935
X154.29Y-126.555
X160.6Y-109.75
X160.6Y-114.75
X169.537Y-86.0
X169.537Y-88.5
X177.75Y-84.75
X177.75Y-89.75
X187.945Y-109.21
X187.945Y-111.75
X187.945Y-114.29
X195.565Y-109.21
X195.565Y-111.75
X195.565Y-114.29
T4
X123.0Y-103.5
X123.0Y-115.5
X131.0Y-124.45
X131.25Y-91.25
X131.25Y-96.25
X141.0Y-124.45
X160.33Y-86.25
X160.33Y-101.25
X185.25Y-85.55
X185.25Y-88.09
X185.25Y-90.63
X185.25Y-93.17
X185.25Y-95.71
X185.25Y-98.25
X199.84Y-123.5
X202.38Y-123.5
X204.92Y-123.5
X207.46Y-123.5
X210.0Y-123.5
X222.25Y-84.97
X222.25Y-87.51
X222.25Y-90.05
X222.25Y-92.59
X222.25Y-95.13
X222.25Y-97.67
X222.25Y-100.21
X222.25Y-102.75
X222.25Y-105.29
X222.25Y-107.83
X222.25Y-110.37
X222.25Y-112.91
X222.25Y-115.45
X222.25Y-117.99
T5
X119.92Y-124.95
X122.46Y-124.95
X125.0Y-124.95
X164.17Y-119.75
X164.17Y-124.75
X174.33Y-119.75
X174.33Y-124.75
X177.67Y-119.75
X177.67Y-124.75
X187.83Y-119.75
X187.83Y-124.75
T6
X108.0Y-83.5
X108.0Y-98.5
X129.13Y-118.95
X144.37Y-118.95
X167.13Y-104.75
X167.13Y-112.75
X182.37Y-104.75
X182.37Y-112.75
T7
X72.787Y-111.75
X73.237Y-87.75
X77.987Y-111.75
X78.438Y-87.75
X88.087Y-111.75
X88.537Y-87.75
X93.287Y-111.75
X93.737Y-87.75
X110.75Y-115.55
X110.8Y-103.5
X124.95Y-109.55
T8
X65.5Y-94.5
X65.5Y-101.5
T9
X67.0Y-115.2
X67.0Y-123.0
X100.65Y-123.75
X108.45Y-123.75
M30
