M48
; DRILL file {KiCad 9.0.7} date 2026-03-04T12:52:54+0300
; FORMAT={-:-/ absolute / metric / decimal}
; #@! TF.CreationDate,2026-03-04T12:52:54+03:00
; #@! TF.GenerationSoftware,Kicad,Pcbnew,9.0.7
; #@! TF.FileFunction,Plated,1,2,PTH
FMAT,2
METRIC
; #@! TA.AperFunction,Plated,PTH,ComponentDrill
T1C0.200
; #@! TA.AperFunction,Plated,PTH,ViaDrill
T2C0.300
; #@! TA.AperFunction,Plated,PTH,ComponentDrill
T3C0.800
; #@! TA.AperFunction,Plated,PTH,ComponentDrill
T4C1.000
; #@! TA.AperFunction,Plated,PTH,ComponentDrill
T5C1.100
; #@! TA.AperFunction,Plated,PTH,ComponentDrill
T6C1.200
; #@! TA.AperFunction,Plated,PTH,ComponentDrill
T7C1.300
; #@! TA.AperFunction,Plated,PTH,ComponentDrill
T8C1.600
; #@! TA.AperFunction,Plated,PTH,ComponentDrill
T9C2.150
%
G90
G05
T1
X199.615Y-89.56
X199.615Y-90.96
X200.315Y-88.86
X200.315Y-90.26
X200.315Y-91.66
X201.015Y-89.56
X201.015Y-90.96
X201.715Y-88.86
X201.715Y-90.26
X201.715Y-91.66
X202.415Y-89.56
X202.415Y-90.96
T2
X134.5Y-108.0
X142.0Y-106.0
X143.0Y-106.0
X151.0Y-106.0
X152.0Y-106.0
X160.25Y-122.25
X170.037Y-93.1
X170.037Y-99.4
X171.5Y-108.5
X176.5Y-108.5
X181.75Y-94.25
X193.75Y-88.94
X193.75Y-92.75
X193.765Y-99.05
X195.5Y-106.0
X198.75Y-108.75
X200.425Y-118.25
X201.387Y-114.8
X203.14Y-100.35
X204.41Y-100.35
X204.92Y-108.58
X205.68Y-100.35
X206.0Y-106.0
X206.5Y-108.5
X211.25Y-86.4
X211.25Y-87.67
X211.25Y-99.1
X216.02Y-102.0
X219.5Y-97.0
T3
X98.837Y-92.75
X100.237Y-85.25
X115.5Y-87.0
X115.5Y-95.0
X122.5Y-87.0
X122.5Y-95.0
X132.75Y-112.8
X140.25Y-114.2
X147.9Y-109.75
X147.9Y-114.75
X149.21Y-118.935
X149.21Y-126.555
X151.75Y-118.935
X151.75Y-126.555
X154.29Y-118.935
X154.29Y-126.555
X160.6Y-109.75
X160.6Y-114.75
X169.537Y-86.0
X169.537Y-88.5
X177.75Y-84.75
X177.75Y-89.75
X187.945Y-109.21
X187.945Y-111.75
X187.945Y-114.29
X195.565Y-109.21
X195.565Y-111.75
X195.565Y-114.29
T4
X123.0Y-103.5
X123.0Y-115.5
X131.0Y-124.45
X131.25Y-91.25
X131.25Y-96.25
X141.0Y-124.45
X160.33Y-86.25
X160.33Y-101.25
X185.25Y-85.55
X185.25Y-88.09
X185.25Y-90.63
X185.25Y-93.17
X185.25Y-95.71
X185.25Y-98.25
X199.84Y-123.5
X202.38Y-123.5
X204.92Y-123.5
X207.46Y-123.5
X210.0Y-123.5
X222.25Y-84.97
X222.25Y-87.51
X222.25Y-90.05
X222.25Y-92.59
X222.25Y-95.13
X222.25Y-97.67
X222.25Y-100.21
X222.25Y-102.75
X222.25Y-105.29
X222.25Y-107.83
X222.25Y-110.37
X222.25Y-112.91
X222.25Y-115.45
X222.25Y-117.99
T5
X119.92Y-124.95
X122.46Y-124.95
X125.0Y-124.95
X164.17Y-119.75
X164.17Y-124.75
X174.33Y-119.75
X174.33Y-124.75
X177.67Y-119.75
X177.67Y-124.75
X187.83Y-119.75
X187.83Y-124.75
T6
X108.0Y-83.5
X108.0Y-98.5
X129.13Y-118.95
X144.37Y-118.95
X167.13Y-104.75
X167.13Y-112.75
X182.37Y-104.75
X182.37Y-112.75
T7
X72.787Y-111.75
X73.237Y-87.75
X73.237Y-99.75
X73.237Y-123.75
X77.987Y-111.75
X78.438Y-87.75
X78.438Y-99.75
X78.438Y-123.75
X88.087Y-111.75
X88.537Y-87.75
X88.537Y-99.75
X88.537Y-123.75
X93.287Y-111.75
X93.737Y-87.75
X93.737Y-99.75
X93.737Y-123.75
X110.75Y-115.55
X110.8Y-103.5
X124.95Y-109.55
T8
X65.5Y-94.5
X65.5Y-101.5
T9
X67.0Y-115.2
X67.0Y-123.0
X100.65Y-123.75
X108.45Y-123.75
M30
