%TF.GenerationSoftware,KiCad,Pcbnew,9.0.7*%
%TF.CreationDate,2026-03-04T12:55:22+03:00*%
%TF.ProjectId,3dFilamentDryer,33644669-6c61-46d6-956e-744472796572,rev?*%
%TF.SameCoordinates,Original*%
%TF.FileFunction,Component,L1,Top*%
%TF.FilePolarity,Positive*%
%FSLAX46Y46*%
G04 Gerber Fmt 4.6, Leading zero omitted, Abs format (unit mm)*
G04 Created by KiCad (PCBNEW 9.0.7) date 2026-03-04 12:55:22*
%MOMM*%
%LPD*%
G01*
G04 APERTURE LIST*
%TA.AperFunction,ComponentMain*%
%ADD10C,0.300000*%
%TD*%
%TA.AperFunction,ComponentOutline,Courtyard*%
%ADD11C,0.100000*%
%TD*%
%TA.AperFunction,ComponentPin*%
%ADD12P,0.360000X4X0.000000*%
%TD*%
%TA.AperFunction,ComponentPin*%
%ADD13C,0.100000*%
%TD*%
%TA.AperFunction,ComponentOutline,Footprint*%
%ADD14C,0.100000*%
%TD*%
G04 APERTURE END LIST*
D10*
%TO.C,D5*%
%TO.CFtp,D_SOD-123*%
%TO.CVal,MMSD4148T1G*%
%TO.CLbN,Diode_SMD*%
%TO.CMnt,SMD*%
%TO.CRot,180*%
X138000000Y-109500000D03*
D11*
X140345000Y-108355000D02*
X140345000Y-110645000D01*
X135655000Y-110645000D01*
X135655000Y-108355000D01*
X140345000Y-108355000D01*
D12*
%TO.P,D5,1,K*%
X139650000Y-109500000D03*
D13*
%TO.P,D5,2,A*%
X136350000Y-109500000D03*
%TD*%
D10*
%TO.C,RV2*%
%TO.CFtp,RV_Disc_D12mm_W3.9mm_P7.5mm*%
%TO.CVal,10561K*%
%TO.CLbN,Varistor*%
%TO.CMnt,TH*%
%TO.CRot,0*%
X132750000Y-112800000D03*
D11*
X142745000Y-111305000D02*
X142745000Y-115695000D01*
X130255000Y-115695000D01*
X130255000Y-111305000D01*
X142745000Y-111305000D01*
D12*
%TO.P,RV2,1*%
X132750000Y-112800000D03*
D13*
%TO.P,RV2,2*%
X140250000Y-114200000D03*
%TD*%
D10*
%TO.C,RV1*%
%TO.CFtp,RV_Disc_D12mm_W3.9mm_P7.5mm*%
%TO.CVal,10561K*%
%TO.CLbN,Varistor*%
%TO.CMnt,TH*%
%TO.CRot,-90*%
X100237500Y-85250000D03*
D11*
X101732500Y-82755000D02*
X101732500Y-95245000D01*
X97342500Y-95245000D01*
X97342500Y-82755000D01*
X101732500Y-82755000D01*
D12*
%TO.P,RV1,1*%
X100237500Y-85250000D03*
D13*
%TO.P,RV1,2*%
X98837500Y-92750000D03*
%TD*%
D10*
%TO.C,U3*%
%TO.CFtp,ESP32-WROOM-32E*%
%TO.CVal,ESP32-WROOM-32E-N4*%
%TO.CLbN,RF_Module*%
%TO.CMnt,SMD*%
%TO.CRot,0*%
X202515000Y-87800000D03*
D11*
X226760000Y-59805000D02*
X226760000Y-81485000D01*
X212260000Y-81485000D01*
X212260000Y-101335000D01*
X192770000Y-101335000D01*
X192770000Y-81485000D01*
X178270000Y-81485000D01*
X178270000Y-59805000D01*
X226760000Y-59805000D01*
D12*
%TO.P,U3,1,GND*%
X193765000Y-82540000D03*
D13*
%TO.P,U3,2,VDD*%
X193765000Y-83810000D03*
%TO.P,U3,3,EN*%
X193765000Y-85080000D03*
%TO.P,U3,4,SENSOR_VP*%
X193765000Y-86350000D03*
%TO.P,U3,5,SENSOR_VN*%
X193765000Y-87620000D03*
%TO.P,U3,6,IO34*%
X193765000Y-88890000D03*
%TO.P,U3,7,IO35*%
X193765000Y-90160000D03*
%TO.P,U3,8,IO32*%
X193765000Y-91430000D03*
%TO.P,U3,9,IO33*%
X193765000Y-92700000D03*
%TO.P,U3,10,IO25*%
X193765000Y-93970000D03*
%TO.P,U3,11,IO26*%
X193765000Y-95240000D03*
%TO.P,U3,12,IO27*%
X193765000Y-96510000D03*
%TO.P,U3,13,IO14*%
X193765000Y-97780000D03*
%TO.P,U3,14,IO12*%
X193765000Y-99050000D03*
%TO.P,U3,15,GND*%
X196800000Y-100300000D03*
%TO.P,U3,16,IO13*%
X198070000Y-100300000D03*
%TO.P,U3,17,SHD/SD2*%
X199340000Y-100300000D03*
%TO.P,U3,18,SWP/SD3*%
X200610000Y-100300000D03*
%TO.P,U3,19,SCS/CMD*%
X201880000Y-100300000D03*
%TO.P,U3,20,SCK/CLK*%
X203150000Y-100300000D03*
%TO.P,U3,21,SDO/SD0*%
X204420000Y-100300000D03*
%TO.P,U3,22,SDI/SD1*%
X205690000Y-100300000D03*
%TO.P,U3,23,IO15*%
X206960000Y-100300000D03*
%TO.P,U3,24,IO2*%
X208230000Y-100300000D03*
%TO.P,U3,25,IO0*%
X211265000Y-99050000D03*
%TO.P,U3,26,IO4*%
X211265000Y-97780000D03*
%TO.P,U3,27,IO16*%
X211265000Y-96510000D03*
%TO.P,U3,28,IO17*%
X211265000Y-95240000D03*
%TO.P,U3,29,IO5*%
X211265000Y-93970000D03*
%TO.P,U3,30,IO18*%
X211265000Y-92700000D03*
%TO.P,U3,31,IO19*%
X211265000Y-91430000D03*
%TO.P,U3,32,NC*%
X211265000Y-90160000D03*
%TO.P,U3,33,IO21*%
X211265000Y-88890000D03*
%TO.P,U3,34,RXD0/IO3*%
X211265000Y-87620000D03*
%TO.P,U3,35,TXD0/IO1*%
X211265000Y-86350000D03*
%TO.P,U3,36,IO22*%
X211265000Y-85080000D03*
%TO.P,U3,37,IO23*%
X211265000Y-83810000D03*
%TO.P,U3,38,GND*%
X211265000Y-82540000D03*
%TO.P,U3,39,GND*%
X199615000Y-88860000D03*
X199615000Y-89560000D03*
X199615000Y-90260000D03*
X199615000Y-90960000D03*
X199615000Y-91660000D03*
X200315000Y-88860000D03*
X200315000Y-90260000D03*
X200315000Y-91660000D03*
X201015000Y-88860000D03*
X201015000Y-89560000D03*
X201015000Y-90260000D03*
X201015000Y-90960000D03*
X201015000Y-91660000D03*
X201715000Y-88860000D03*
X201715000Y-90260000D03*
X201715000Y-91660000D03*
X202415000Y-88860000D03*
X202415000Y-89560000D03*
X202415000Y-90260000D03*
X202415000Y-90960000D03*
X202415000Y-91660000D03*
%TD*%
D10*
%TO.C,R16*%
%TO.CFtp,R_0402_1005Metric*%
%TO.CVal,1k*%
%TO.CLbN,Resistor_SMD*%
%TO.CMnt,SMD*%
%TO.CRot,0*%
X132500000Y-108000000D03*
D11*
X133425000Y-107535000D02*
X133425000Y-108465000D01*
X131575000Y-108465000D01*
X131575000Y-107535000D01*
X133425000Y-107535000D01*
D12*
%TO.P,R16,1*%
X131990000Y-108000000D03*
D13*
%TO.P,R16,2*%
X133010000Y-108000000D03*
%TD*%
D10*
%TO.C,R15*%
%TO.CFtp,R_0402_1005Metric*%
%TO.CVal,10k*%
%TO.CLbN,Resistor_SMD*%
%TO.CMnt,SMD*%
%TO.CRot,0*%
X137000000Y-106000000D03*
D11*
X137925000Y-105535000D02*
X137925000Y-106465000D01*
X136075000Y-106465000D01*
X136075000Y-105535000D01*
X137925000Y-105535000D01*
D12*
%TO.P,R15,1*%
X136490000Y-106000000D03*
D13*
%TO.P,R15,2*%
X137510000Y-106000000D03*
%TD*%
D10*
%TO.C,Q4*%
%TO.CFtp,SOT-23*%
%TO.CVal,BC817-25-HT*%
%TO.CLbN,Package_TO_SOT_SMD*%
%TO.CMnt,SMD*%
%TO.CRot,180*%
X129062500Y-107450000D03*
D11*
X129957500Y-105755000D02*
X129957500Y-105955000D01*
X130987500Y-105955000D01*
X130987500Y-107055000D01*
X129957500Y-107055000D01*
X129957500Y-107845000D01*
X130987500Y-107845000D01*
X130987500Y-108945000D01*
X129957500Y-108945000D01*
X129957500Y-109145000D01*
X128167500Y-109145000D01*
X128167500Y-107995000D01*
X127137500Y-107995000D01*
X127137500Y-106905000D01*
X128167500Y-106905000D01*
X128167500Y-105755000D01*
X129957500Y-105755000D01*
D12*
%TO.P,Q4,1,B*%
X130000000Y-108400000D03*
D13*
%TO.P,Q4,2,E*%
X130000000Y-106500000D03*
%TO.P,Q4,3,C*%
X128125000Y-107450000D03*
%TD*%
D10*
%TO.C,K1*%
%TO.CFtp,Relay_SPDT_SANYOU_SRD_Series_Form_C*%
%TO.CVal,SRD-05VDC-SL-C*%
%TO.CLbN,Relay_THT*%
%TO.CMnt,TH*%
%TO.CRot,180*%
X124950000Y-109550000D03*
D11*
X126495000Y-101605000D02*
X126495000Y-117495000D01*
X106405000Y-117495000D01*
X106405000Y-101605000D01*
X126495000Y-101605000D01*
D12*
%TO.P,K1,1*%
X124950000Y-109550000D03*
D13*
%TO.P,K1,2*%
X123000000Y-103500000D03*
%TO.P,K1,3*%
X110800000Y-103500000D03*
%TO.P,K1,4*%
X110750000Y-115550000D03*
%TO.P,K1,5*%
X123000000Y-115500000D03*
%TD*%
D10*
%TO.C,R11*%
%TO.CFtp,R_0402_1005Metric*%
%TO.CVal,10k*%
%TO.CLbN,Resistor_SMD*%
%TO.CMnt,SMD*%
%TO.CRot,-90*%
X191750000Y-84750000D03*
D11*
X192215000Y-83825000D02*
X192215000Y-85675000D01*
X191285000Y-85675000D01*
X191285000Y-83825000D01*
X192215000Y-83825000D01*
D12*
%TO.P,R11,1*%
X191750000Y-84240000D03*
D13*
%TO.P,R11,2*%
X191750000Y-85260000D03*
%TD*%
D10*
%TO.C,R8*%
%TO.CFtp,R_0402_1005Metric*%
%TO.CVal,10k*%
%TO.CLbN,Resistor_SMD*%
%TO.CMnt,SMD*%
%TO.CRot,-90*%
X198750000Y-110260000D03*
D11*
X199215000Y-109335000D02*
X199215000Y-111185000D01*
X198285000Y-111185000D01*
X198285000Y-109335000D01*
X199215000Y-109335000D01*
D12*
%TO.P,R8,1*%
X198750000Y-109750000D03*
D13*
%TO.P,R8,2*%
X198750000Y-110770000D03*
%TD*%
D10*
%TO.C,J5*%
%TO.CFtp,PinHeader_1x05_P2.54mm_Vertical*%
%TO.CVal,MAX6675*%
%TO.CLbN,Connector_PinHeader_2.54mm*%
%TO.CMnt,TH*%
%TO.CRot,90*%
X199840000Y-123500000D03*
D11*
X211765000Y-121735000D02*
X211765000Y-125265000D01*
X198075000Y-125265000D01*
X198075000Y-121735000D01*
X211765000Y-121735000D01*
D12*
%TO.P,J5,1,Pin_1*%
X199840000Y-123500000D03*
D13*
%TO.P,J5,2,Pin_2*%
X202380000Y-123500000D03*
%TO.P,J5,3,Pin_3*%
X204920000Y-123500000D03*
%TO.P,J5,4,Pin_4*%
X207460000Y-123500000D03*
%TO.P,J5,5,Pin_5*%
X210000000Y-123500000D03*
%TD*%
D10*
%TO.C,L1*%
%TO.CFtp,LFU09V-103*%
%TO.CVal,LFU09V-103*%
%TO.CLbN,Inductor_THT*%
%TO.CMnt,TH*%
%TO.CRot,0*%
X119000000Y-91000000D03*
D14*
X114230000Y-85730000D02*
X114230000Y-96270000D01*
X123770000Y-96270000D01*
X123770000Y-85730000D01*
X114230000Y-85730000D01*
D12*
%TO.P,L1,1*%
X115500000Y-95000000D03*
D13*
%TO.P,L1,2*%
X122500000Y-95000000D03*
%TO.P,L1,3*%
X122500000Y-87000000D03*
%TO.P,L1,4*%
X115500000Y-87000000D03*
%TD*%
D10*
%TO.C,R7*%
%TO.CFtp,R_Axial_DIN0414_L11.9mm_D4.5mm_P15.24mm_Horizontal*%
%TO.CVal,33k 1W 500V*%
%TO.CLbN,Resistor_THT*%
%TO.CMnt,TH*%
%TO.CRot,0*%
X167130000Y-112750000D03*
D11*
X183815000Y-110255000D02*
X183815000Y-115245000D01*
X165685000Y-115245000D01*
X165685000Y-110255000D01*
X183815000Y-110255000D01*
D12*
%TO.P,R7,1*%
X167130000Y-112750000D03*
D13*
%TO.P,R7,2*%
X182370000Y-112750000D03*
%TD*%
D10*
%TO.C,F3*%
%TO.CFtp,Fuseholder_Clip-5x20mm_Littelfuse_445-030_Inline_P20.50x5.20mm_D1.30mm_Horizontal*%
%TO.CVal,250VAC 2.5A Normal*%
%TO.CLbN,Fuse*%
%TO.CMnt,TH*%
%TO.CRot,180*%
X93287500Y-111750000D03*
D11*
X94682500Y-108905000D02*
X94682500Y-114595000D01*
X71392500Y-114595000D01*
X71392500Y-108905000D01*
X94682500Y-108905000D01*
D12*
%TO.P,F3,1*%
X93287500Y-111750000D03*
X88087500Y-111750000D03*
D13*
%TO.P,F3,2*%
X77987500Y-111750000D03*
X72787500Y-111750000D03*
%TD*%
D10*
%TO.C,U1*%
%TO.CFtp,DIP-6_W7.62mm*%
%TO.CVal,4N28*%
%TO.CLbN,Package_DIP*%
%TO.CMnt,TH*%
%TO.CRot,0*%
X187945000Y-109210000D03*
D11*
X196610000Y-107695000D02*
X196610000Y-115805000D01*
X186890000Y-115805000D01*
X186890000Y-107695000D01*
X196610000Y-107695000D01*
D12*
%TO.P,U1,1*%
X187945000Y-109210000D03*
D13*
%TO.P,U1,2*%
X187945000Y-111750000D03*
%TO.P,U1,3,NC*%
X187945000Y-114290000D03*
%TO.P,U1,4*%
X195565000Y-114290000D03*
%TO.P,U1,5*%
X195565000Y-111750000D03*
%TO.P,U1,6*%
X195565000Y-109210000D03*
%TD*%
D10*
%TO.C,U6*%
%TO.CFtp,SOT-23-5*%
%TO.CVal,SN74LVC1G14DBVR*%
%TO.CLbN,Package_TO_SOT_SMD*%
%TO.CMnt,SMD*%
%TO.CRot,0*%
X200250000Y-115750000D03*
D11*
X201295000Y-114055000D02*
X201295000Y-114255000D01*
X202295000Y-114255000D01*
X202295000Y-115355000D01*
X201295000Y-115355000D01*
X201295000Y-116145000D01*
X202295000Y-116145000D01*
X202295000Y-117245000D01*
X201295000Y-117245000D01*
X201295000Y-117445000D01*
X199205000Y-117445000D01*
X199205000Y-117245000D01*
X198205000Y-117245000D01*
X198205000Y-114255000D01*
X199205000Y-114255000D01*
X199205000Y-114055000D01*
X201295000Y-114055000D01*
D12*
%TO.P,U6,1,NC*%
X199112500Y-114800000D03*
D13*
%TO.P,U6,2*%
X199112500Y-115750000D03*
%TO.P,U6,3,GND*%
X199112500Y-116700000D03*
%TO.P,U6,4*%
X201387500Y-116700000D03*
%TO.P,U6,5,VCC*%
X201387500Y-114800000D03*
%TD*%
D10*
%TO.C,D3*%
%TO.CFtp,D_DO-41_SOD81_P10.16mm_Horizontal*%
%TO.CVal,1N4007-HT*%
%TO.CLbN,Diode_THT*%
%TO.CMnt,TH*%
%TO.CRot,180*%
X187830000Y-124750000D03*
D11*
X189175000Y-123155000D02*
X189175000Y-126345000D01*
X176325000Y-126345000D01*
X176325000Y-123155000D01*
X189175000Y-123155000D01*
D12*
%TO.P,D3,1,K*%
X187830000Y-124750000D03*
D13*
%TO.P,D3,2,A*%
X177670000Y-124750000D03*
%TD*%
D10*
%TO.C,R12*%
%TO.CFtp,R_0402_1005Metric*%
%TO.CVal,10k*%
%TO.CLbN,Resistor_SMD*%
%TO.CMnt,SMD*%
%TO.CRot,180*%
X215510000Y-102000000D03*
D11*
X216435000Y-101535000D02*
X216435000Y-102465000D01*
X214585000Y-102465000D01*
X214585000Y-101535000D01*
X216435000Y-101535000D01*
D12*
%TO.P,R12,1*%
X216020000Y-102000000D03*
D13*
%TO.P,R12,2*%
X215000000Y-102000000D03*
%TD*%
D10*
%TO.C,R6*%
%TO.CFtp,R_Axial_DIN0414_L11.9mm_D4.5mm_P15.24mm_Horizontal*%
%TO.CVal,33k 1W 500V*%
%TO.CLbN,Resistor_THT*%
%TO.CMnt,TH*%
%TO.CRot,0*%
X167130000Y-104750000D03*
D11*
X183815000Y-102255000D02*
X183815000Y-107245000D01*
X165685000Y-107245000D01*
X165685000Y-102255000D01*
X183815000Y-102255000D01*
D12*
%TO.P,R6,1*%
X167130000Y-104750000D03*
D13*
%TO.P,R6,2*%
X182370000Y-104750000D03*
%TD*%
D10*
%TO.C,D2*%
%TO.CFtp,D_DO-41_SOD81_P10.16mm_Horizontal*%
%TO.CVal,1N4007-HT*%
%TO.CLbN,Diode_THT*%
%TO.CMnt,TH*%
%TO.CRot,180*%
X187830000Y-119750000D03*
D11*
X189175000Y-118155000D02*
X189175000Y-121345000D01*
X176325000Y-121345000D01*
X176325000Y-118155000D01*
X189175000Y-118155000D01*
D12*
%TO.P,D2,1,K*%
X187830000Y-119750000D03*
D13*
%TO.P,D2,2,A*%
X177670000Y-119750000D03*
%TD*%
D10*
%TO.C,C5*%
%TO.CFtp,C_0402_1005Metric*%
%TO.CVal,100n*%
%TO.CLbN,Capacitor_SMD*%
%TO.CMnt,SMD*%
%TO.CRot,0*%
X202750000Y-113250000D03*
D11*
X203655000Y-112795000D02*
X203655000Y-113705000D01*
X201845000Y-113705000D01*
X201845000Y-112795000D01*
X203655000Y-112795000D01*
D12*
%TO.P,C5,1*%
X202270000Y-113250000D03*
D13*
%TO.P,C5,2*%
X203230000Y-113250000D03*
%TD*%
D10*
%TO.C,R2*%
%TO.CFtp,R_Axial_DIN0309_L9.0mm_D3.2mm_P12.70mm_Horizontal*%
%TO.CVal,360 1/2W 350V*%
%TO.CLbN,Resistor_THT*%
%TO.CMnt,TH*%
%TO.CRot,0*%
X147900000Y-114750000D03*
D11*
X161645000Y-112905000D02*
X161645000Y-116595000D01*
X146855000Y-116595000D01*
X146855000Y-112905000D01*
X161645000Y-112905000D01*
D12*
%TO.P,R2,1*%
X147900000Y-114750000D03*
D13*
%TO.P,R2,2*%
X160600000Y-114750000D03*
%TD*%
D10*
%TO.C,R4*%
%TO.CFtp,R_0402_1005Metric*%
%TO.CVal,200*%
%TO.CLbN,Resistor_SMD*%
%TO.CMnt,SMD*%
%TO.CRot,180*%
X159740000Y-122250000D03*
D11*
X160665000Y-121785000D02*
X160665000Y-122715000D01*
X158815000Y-122715000D01*
X158815000Y-121785000D01*
X160665000Y-121785000D01*
D12*
%TO.P,R4,1*%
X160250000Y-122250000D03*
D13*
%TO.P,R4,2*%
X159230000Y-122250000D03*
%TD*%
D10*
%TO.C,R10*%
%TO.CFtp,R_0402_1005Metric*%
%TO.CVal,10k*%
%TO.CLbN,Resistor_SMD*%
%TO.CMnt,SMD*%
%TO.CRot,180*%
X191250000Y-90750000D03*
D11*
X192175000Y-90285000D02*
X192175000Y-91215000D01*
X190325000Y-91215000D01*
X190325000Y-90285000D01*
X192175000Y-90285000D01*
D12*
%TO.P,R10,1*%
X191760000Y-90750000D03*
D13*
%TO.P,R10,2*%
X190740000Y-90750000D03*
%TD*%
D10*
%TO.C,R14*%
%TO.CFtp,R_0402_1005Metric*%
%TO.CVal,10k*%
%TO.CLbN,Resistor_SMD*%
%TO.CMnt,SMD*%
%TO.CRot,90*%
X177250000Y-96760000D03*
D11*
X177715000Y-95835000D02*
X177715000Y-97685000D01*
X176785000Y-97685000D01*
X176785000Y-95835000D01*
X177715000Y-95835000D01*
D12*
%TO.P,R14,1*%
X177250000Y-97270000D03*
D13*
%TO.P,R14,2*%
X177250000Y-96250000D03*
%TD*%
D10*
%TO.C,F1*%
%TO.CFtp,Fuseholder_Clip-5x20mm_Littelfuse_445-030_Inline_P20.50x5.20mm_D1.30mm_Horizontal*%
%TO.CVal,250VAC 1A Slow Blow*%
%TO.CLbN,Fuse*%
%TO.CMnt,TH*%
%TO.CRot,0*%
X73237500Y-87750000D03*
D11*
X95132500Y-84905000D02*
X95132500Y-90595000D01*
X71842500Y-90595000D01*
X71842500Y-84905000D01*
X95132500Y-84905000D01*
D12*
%TO.P,F1,1*%
X73237500Y-87750000D03*
X78437500Y-87750000D03*
D13*
%TO.P,F1,2*%
X88537500Y-87750000D03*
X93737500Y-87750000D03*
%TD*%
D10*
%TO.C,Q1*%
%TO.CFtp,TO-220-3_Vertical*%
%TO.CVal,BTA12-600BW*%
%TO.CLbN,Package_TO_SOT_THT*%
%TO.CMnt,TH*%
%TO.CRot,180*%
X125000000Y-124950000D03*
D11*
X127705000Y-123455000D02*
X127705000Y-128345000D01*
X117215000Y-128345000D01*
X117215000Y-123455000D01*
X127705000Y-123455000D01*
D12*
%TO.P,Q1,1,A1*%
X125000000Y-124950000D03*
D13*
%TO.P,Q1,2,A2*%
X122460000Y-124950000D03*
%TO.P,Q1,3,G*%
X119920000Y-124950000D03*
%TD*%
D10*
%TO.C,R13*%
%TO.CFtp,R_0402_1005Metric*%
%TO.CVal,10k*%
%TO.CLbN,Resistor_SMD*%
%TO.CMnt,SMD*%
%TO.CRot,-90*%
X175250000Y-99240000D03*
D11*
X175715000Y-98315000D02*
X175715000Y-100165000D01*
X174785000Y-100165000D01*
X174785000Y-98315000D01*
X175715000Y-98315000D01*
D12*
%TO.P,R13,1*%
X175250000Y-98730000D03*
D13*
%TO.P,R13,2*%
X175250000Y-99750000D03*
%TD*%
D10*
%TO.C,F2*%
%TO.CFtp,Fuseholder_Clip-5x20mm_Littelfuse_445-030_Inline_P20.50x5.20mm_D1.30mm_Horizontal*%
%TO.CVal,250VAC 1A Slow Blow*%
%TO.CLbN,Fuse*%
%TO.CMnt,TH*%
%TO.CRot,0*%
X73237500Y-99750000D03*
D11*
X95132500Y-96905000D02*
X95132500Y-102595000D01*
X71842500Y-102595000D01*
X71842500Y-96905000D01*
X95132500Y-96905000D01*
D12*
%TO.P,F2,1*%
X73237500Y-99750000D03*
X78437500Y-99750000D03*
D13*
%TO.P,F2,2*%
X88537500Y-99750000D03*
X93737500Y-99750000D03*
%TD*%
D10*
%TO.C,Q3*%
%TO.CFtp,SOT-23-3*%
%TO.CVal,S8050-J3Y*%
%TO.CLbN,Package_TO_SOT_SMD*%
%TO.CMnt,SMD*%
%TO.CRot,0*%
X180250000Y-99250000D03*
D11*
X181295000Y-97555000D02*
X181295000Y-98705000D01*
X182295000Y-98705000D01*
X182295000Y-99795000D01*
X181295000Y-99795000D01*
X181295000Y-100945000D01*
X179205000Y-100945000D01*
X179205000Y-100745000D01*
X178205000Y-100745000D01*
X178205000Y-99645000D01*
X179205000Y-99645000D01*
X179205000Y-98855000D01*
X178205000Y-98855000D01*
X178205000Y-97755000D01*
X179205000Y-97755000D01*
X179205000Y-97555000D01*
X181295000Y-97555000D01*
D12*
%TO.P,Q3,1,B*%
X179112500Y-98300000D03*
D13*
%TO.P,Q3,2,E*%
X179112500Y-100200000D03*
%TO.P,Q3,3,C*%
X181387500Y-99250000D03*
%TD*%
D10*
%TO.C,R3*%
%TO.CFtp,R_Axial_DIN0309_L9.0mm_D3.2mm_P12.70mm_Horizontal*%
%TO.CVal,360 1/2W 350V*%
%TO.CLbN,Resistor_THT*%
%TO.CMnt,TH*%
%TO.CRot,180*%
X160600000Y-109750000D03*
D11*
X161645000Y-107905000D02*
X161645000Y-111595000D01*
X146855000Y-111595000D01*
X146855000Y-107905000D01*
X161645000Y-107905000D01*
D12*
%TO.P,R3,1*%
X160600000Y-109750000D03*
D13*
%TO.P,R3,2*%
X147900000Y-109750000D03*
%TD*%
D10*
%TO.C,C4*%
%TO.CFtp,C_Rect_L13.0mm_W4.0mm_P10.00mm_FKS3_FKP3_MKS4*%
%TO.CVal,10n 305VAC X2*%
%TO.CLbN,Capacitor_THT*%
%TO.CMnt,TH*%
%TO.CRot,180*%
X141000000Y-124450000D03*
D11*
X142745000Y-122205000D02*
X142745000Y-126695000D01*
X129255000Y-126695000D01*
X129255000Y-122205000D01*
X142745000Y-122205000D01*
D12*
%TO.P,C4,1*%
X141000000Y-124450000D03*
D13*
%TO.P,C4,2*%
X131000000Y-124450000D03*
%TD*%
D10*
%TO.C,C8*%
%TO.CFtp,C_0402_1005Metric*%
%TO.CVal,100n*%
%TO.CLbN,Capacitor_SMD*%
%TO.CMnt,SMD*%
%TO.CRot,-90*%
X189955000Y-83610000D03*
D11*
X190410000Y-82705000D02*
X190410000Y-84515000D01*
X189500000Y-84515000D01*
X189500000Y-82705000D01*
X190410000Y-82705000D01*
D12*
%TO.P,C8,1*%
X189955000Y-83130000D03*
D13*
%TO.P,C8,2*%
X189955000Y-84090000D03*
%TD*%
D10*
%TO.C,Q2*%
%TO.CFtp,SOT-23-3*%
%TO.CVal,S8050-J3Y*%
%TO.CLbN,Package_TO_SOT_SMD*%
%TO.CMnt,SMD*%
%TO.CRot,0*%
X180250000Y-94250000D03*
D11*
X181295000Y-92555000D02*
X181295000Y-93705000D01*
X182295000Y-93705000D01*
X182295000Y-94795000D01*
X181295000Y-94795000D01*
X181295000Y-95945000D01*
X179205000Y-95945000D01*
X179205000Y-95745000D01*
X178205000Y-95745000D01*
X178205000Y-94645000D01*
X179205000Y-94645000D01*
X179205000Y-93855000D01*
X178205000Y-93855000D01*
X178205000Y-92755000D01*
X179205000Y-92755000D01*
X179205000Y-92555000D01*
X181295000Y-92555000D01*
D12*
%TO.P,Q2,1,B*%
X179112500Y-93300000D03*
D13*
%TO.P,Q2,2,E*%
X179112500Y-95200000D03*
%TO.P,Q2,3,C*%
X181387500Y-94250000D03*
%TD*%
D10*
%TO.C,R9*%
%TO.CFtp,R_0603_1608Metric*%
%TO.CVal,180 1/10W*%
%TO.CLbN,Resistor_SMD*%
%TO.CMnt,SMD*%
%TO.CRot,180*%
X201250000Y-118250000D03*
D11*
X202725000Y-117525000D02*
X202725000Y-118975000D01*
X199775000Y-118975000D01*
X199775000Y-117525000D01*
X202725000Y-117525000D01*
D12*
%TO.P,R9,1*%
X202075000Y-118250000D03*
D13*
%TO.P,R9,2*%
X200425000Y-118250000D03*
%TD*%
D10*
%TO.C,C7*%
%TO.CFtp,C_0603_1608Metric*%
%TO.CVal,10uF*%
%TO.CLbN,Capacitor_SMD*%
%TO.CMnt,SMD*%
%TO.CRot,90*%
X188750000Y-83475000D03*
D11*
X189475000Y-82000000D02*
X189475000Y-84950000D01*
X188025000Y-84950000D01*
X188025000Y-82000000D01*
X189475000Y-82000000D01*
D12*
%TO.P,C7,1*%
X188750000Y-84250000D03*
D13*
%TO.P,C7,2*%
X188750000Y-82700000D03*
%TD*%
D10*
%TO.C,C3*%
%TO.CFtp,CP_Radial_Tantal_D5.0mm_P5.00mm*%
%TO.CVal,100uF 16V*%
%TO.CLbN,Capacitor_THT*%
%TO.CMnt,TH*%
%TO.CRot,90*%
X177750000Y-89750000D03*
D11*
X178036889Y-83543624D02*
X178416477Y-83592768D01*
X178788977Y-83680677D01*
X179150463Y-83806421D01*
X179497122Y-83968675D01*
X179825254Y-84165710D01*
X180131384Y-84395434D01*
X180412262Y-84655411D01*
X180664939Y-84942911D01*
X180886705Y-85254852D01*
X181075220Y-85587940D01*
X181228493Y-85938659D01*
X181344890Y-86303271D01*
X181423180Y-86677920D01*
X181462536Y-87058651D01*
X181464999Y-87250000D01*
X181462536Y-87441348D01*
X181423180Y-87822079D01*
X181344890Y-88196728D01*
X181228493Y-88561340D01*
X181075220Y-88912059D01*
X180886705Y-89245147D01*
X180664939Y-89557088D01*
X180412262Y-89844588D01*
X180131384Y-90104565D01*
X179825254Y-90334289D01*
X179497122Y-90531324D01*
X179150463Y-90693578D01*
X178788977Y-90819322D01*
X178416477Y-90907231D01*
X178036889Y-90956375D01*
X177654285Y-90966230D01*
X177272683Y-90936691D01*
X176896145Y-90868074D01*
X176528659Y-90761104D01*
X176174107Y-90616911D01*
X175836274Y-90437035D01*
X175518727Y-90223373D01*
X175224831Y-89978195D01*
X174957694Y-89704090D01*
X174720160Y-89403972D01*
X174514744Y-89081025D01*
X174343629Y-88738681D01*
X174208611Y-88380528D01*
X174111139Y-88010412D01*
X174052239Y-87632234D01*
X174032537Y-87250000D01*
X174052239Y-86867765D01*
X174111139Y-86489587D01*
X174208611Y-86119471D01*
X174343629Y-85761318D01*
X174514744Y-85418974D01*
X174720160Y-85096027D01*
X174957694Y-84795909D01*
X175224831Y-84521804D01*
X175518727Y-84276626D01*
X175836274Y-84062964D01*
X176174107Y-83883088D01*
X176528659Y-83738895D01*
X176896145Y-83631925D01*
X177272683Y-83563308D01*
X177654285Y-83533769D01*
X178036889Y-83543624D01*
D12*
%TO.P,C3,1*%
X177750000Y-89750000D03*
D13*
%TO.P,C3,2*%
X177750000Y-84750000D03*
%TD*%
D10*
%TO.C,D4*%
%TO.CFtp,D_DO-41_SOD81_P10.16mm_Horizontal*%
%TO.CVal,1N4007-HT*%
%TO.CLbN,Diode_THT*%
%TO.CMnt,TH*%
%TO.CRot,180*%
X174330000Y-124750000D03*
D11*
X175675000Y-123155000D02*
X175675000Y-126345000D01*
X162825000Y-126345000D01*
X162825000Y-123155000D01*
X175675000Y-123155000D01*
D12*
%TO.P,D4,1,K*%
X174330000Y-124750000D03*
D13*
%TO.P,D4,2,A*%
X164170000Y-124750000D03*
%TD*%
D10*
%TO.C,C1*%
%TO.CFtp,C_Rect_L18.0mm_W5.0mm_P15.00mm_FKS3_FKP3*%
%TO.CVal,100n 275VAC X2*%
%TO.CLbN,Capacitor_THT*%
%TO.CMnt,TH*%
%TO.CRot,-90*%
X108000000Y-83500000D03*
D11*
X110745000Y-81755000D02*
X110745000Y-100245000D01*
X105255000Y-100245000D01*
X105255000Y-81755000D01*
X110745000Y-81755000D01*
D12*
%TO.P,C1,1*%
X108000000Y-83500000D03*
D13*
%TO.P,C1,2*%
X108000000Y-98500000D03*
%TD*%
D10*
%TO.C,PS1*%
%TO.CFtp,Converter_ACDC_Hi-Link_HLK-PMxx*%
%TO.CVal,HLK-PM01*%
%TO.CLbN,Converter_ACDC*%
%TO.CMnt,TH*%
%TO.CRot,0*%
X131250000Y-91250000D03*
D11*
X164435000Y-82255000D02*
X164435000Y-105245000D01*
X127145000Y-105245000D01*
X127145000Y-82255000D01*
X164435000Y-82255000D01*
D12*
%TO.P,PS1,1,AC/L*%
X131250000Y-91250000D03*
D13*
%TO.P,PS1,2,AC/N*%
X131250000Y-96250000D03*
%TO.P,PS1,3,-Vout*%
X160330000Y-86250000D03*
%TO.P,PS1,4,+Vout*%
X160330000Y-101250000D03*
%TD*%
D10*
%TO.C,R5*%
%TO.CFtp,R_Axial_DIN0414_L11.9mm_D4.5mm_P15.24mm_Horizontal*%
%TO.CVal,47 2W 500V*%
%TO.CLbN,Resistor_THT*%
%TO.CMnt,TH*%
%TO.CRot,180*%
X144370000Y-118950000D03*
D11*
X145815000Y-116455000D02*
X145815000Y-121445000D01*
X127685000Y-121445000D01*
X127685000Y-116455000D01*
X145815000Y-116455000D01*
D12*
%TO.P,R5,1*%
X144370000Y-118950000D03*
D13*
%TO.P,R5,2*%
X129130000Y-118950000D03*
%TD*%
D10*
%TO.C,C2*%
%TO.CFtp,C_Radial_D6.3mm_H11.0mm_P2.50mm*%
%TO.CVal,220uF 16V*%
%TO.CLbN,Capacitor_THT*%
%TO.CMnt,TH*%
%TO.CRot,90*%
X169537500Y-88500000D03*
D11*
X169904837Y-83872427D02*
X170267855Y-83931940D01*
X170622324Y-84030358D01*
X170964067Y-84166521D01*
X171289093Y-84338839D01*
X171593568Y-84545279D01*
X171873950Y-84783437D01*
X172126941Y-85050516D01*
X172349563Y-85343371D01*
X172539222Y-85658587D01*
X172693689Y-85992459D01*
X172811151Y-86341075D01*
X172890231Y-86700343D01*
X172930010Y-87066096D01*
X172932499Y-87250000D01*
X172930010Y-87433903D01*
X172890231Y-87799656D01*
X172811151Y-88158924D01*
X172693689Y-88507540D01*
X172539222Y-88841412D01*
X172349563Y-89156628D01*
X172126941Y-89449483D01*
X171873950Y-89716562D01*
X171593568Y-89954720D01*
X171289093Y-90161160D01*
X170964067Y-90333478D01*
X170622324Y-90469641D01*
X170267855Y-90568059D01*
X169904837Y-90627572D01*
X169537500Y-90647489D01*
X169170162Y-90627572D01*
X168807144Y-90568059D01*
X168452675Y-90469641D01*
X168110932Y-90333478D01*
X167785906Y-90161160D01*
X167481431Y-89954720D01*
X167201049Y-89716562D01*
X166948058Y-89449483D01*
X166725436Y-89156628D01*
X166535777Y-88841412D01*
X166381310Y-88507540D01*
X166263848Y-88158924D01*
X166184768Y-87799656D01*
X166144993Y-87433932D01*
X166144993Y-87066067D01*
X166184768Y-86700343D01*
X166263848Y-86341075D01*
X166381310Y-85992459D01*
X166535777Y-85658587D01*
X166725436Y-85343371D01*
X166948058Y-85050516D01*
X167201049Y-84783437D01*
X167481431Y-84545279D01*
X167785906Y-84338839D01*
X168110932Y-84166521D01*
X168452675Y-84030358D01*
X168807144Y-83931940D01*
X169170162Y-83872427D01*
X169537500Y-83852510D01*
X169904837Y-83872427D01*
D12*
%TO.P,C2,1*%
X169537500Y-88500000D03*
D13*
%TO.P,C2,2*%
X169537500Y-86000000D03*
%TD*%
D10*
%TO.C,D1*%
%TO.CFtp,D_DO-41_SOD81_P10.16mm_Horizontal*%
%TO.CVal,1N4007-HT*%
%TO.CLbN,Diode_THT*%
%TO.CMnt,TH*%
%TO.CRot,180*%
X174330000Y-119750000D03*
D11*
X175675000Y-118155000D02*
X175675000Y-121345000D01*
X162825000Y-121345000D01*
X162825000Y-118155000D01*
X175675000Y-118155000D01*
D12*
%TO.P,D1,1,K*%
X174330000Y-119750000D03*
D13*
%TO.P,D1,2,A*%
X164170000Y-119750000D03*
%TD*%
D10*
%TO.C,F4*%
%TO.CFtp,Fuseholder_Clip-5x20mm_Littelfuse_445-030_Inline_P20.50x5.20mm_D1.30mm_Horizontal*%
%TO.CVal,250VAC 2.5A Normal*%
%TO.CLbN,Fuse*%
%TO.CMnt,TH*%
%TO.CRot,0*%
X73237500Y-123750000D03*
D11*
X95132500Y-120905000D02*
X95132500Y-126595000D01*
X71842500Y-126595000D01*
X71842500Y-120905000D01*
X95132500Y-120905000D01*
D12*
%TO.P,F4,1*%
X73237500Y-123750000D03*
X78437500Y-123750000D03*
D13*
%TO.P,F4,2*%
X88537500Y-123750000D03*
X93737500Y-123750000D03*
%TD*%
D10*
%TO.C,U2*%
%TO.CFtp,SOT-223-3_TabPin2*%
%TO.CVal,TLV1117-33*%
%TO.CLbN,Package_TO_SOT_SMD*%
%TO.CMnt,SMD*%
%TO.CRot,-90*%
X170037500Y-96250000D03*
D11*
X173632500Y-91855000D02*
X173632500Y-100645000D01*
X166442500Y-100645000D01*
X166442500Y-91855000D01*
X173632500Y-91855000D01*
D12*
%TO.P,U2,1,GND*%
X172337500Y-93100000D03*
D13*
%TO.P,U2,2,VO*%
X170037500Y-93100000D03*
X170037500Y-99400000D03*
%TO.P,U2,3,VI*%
X167737500Y-93100000D03*
%TD*%
D10*
%TO.C,C6*%
%TO.CFtp,C_0402_1005Metric*%
%TO.CVal,100n*%
%TO.CLbN,Capacitor_SMD*%
%TO.CMnt,SMD*%
%TO.CRot,90*%
X191750000Y-86750000D03*
D11*
X192205000Y-85845000D02*
X192205000Y-87655000D01*
X191295000Y-87655000D01*
X191295000Y-85845000D01*
X192205000Y-85845000D01*
D12*
%TO.P,C6,1*%
X191750000Y-87230000D03*
D13*
%TO.P,C6,2*%
X191750000Y-86270000D03*
%TD*%
D10*
%TO.C,U5*%
%TO.CFtp,DIP-6_W7.62mm*%
%TO.CVal,MOC3053M*%
%TO.CLbN,Package_DIP*%
%TO.CMnt,TH*%
%TO.CRot,90*%
X149210000Y-126555000D03*
D11*
X155805000Y-117890000D02*
X155805000Y-127610000D01*
X147695000Y-127610000D01*
X147695000Y-117890000D01*
X155805000Y-117890000D01*
D12*
%TO.P,U5,1*%
X149210000Y-126555000D03*
D13*
%TO.P,U5,2*%
X151750000Y-126555000D03*
%TO.P,U5,3,NC*%
X154290000Y-126555000D03*
%TO.P,U5,4*%
X154290000Y-118935000D03*
%TO.P,U5,5,NC*%
X151750000Y-118935000D03*
%TO.P,U5,6*%
X149210000Y-118935000D03*
%TD*%
M02*
