%TF.GenerationSoftware,KiCad,Pcbnew,9.0.7*%
%TF.CreationDate,2026-02-27T15:48:28+03:00*%
%TF.ProjectId,3dFilamentDryer,33644669-6c61-46d6-956e-744472796572,rev?*%
%TF.SameCoordinates,Original*%
%TF.FileFunction,Copper,L2,Bot*%
%TF.FilePolarity,Positive*%
%FSLAX46Y46*%
G04 Gerber Fmt 4.6, Leading zero omitted, Abs format (unit mm)*
G04 Created by KiCad (PCBNEW 9.0.7) date 2026-02-27 15:48:28*
%MOMM*%
%LPD*%
G01*
G04 APERTURE LIST*
G04 Aperture macros list*
%AMRoundRect*
0 Rectangle with rounded corners*
0 $1 Rounding radius*
0 $2 $3 $4 $5 $6 $7 $8 $9 X,Y pos of 4 corners*
0 Add a 4 corners polygon primitive as box body*
4,1,4,$2,$3,$4,$5,$6,$7,$8,$9,$2,$3,0*
0 Add four circle primitives for the rounded corners*
1,1,$1+$1,$2,$3*
1,1,$1+$1,$4,$5*
1,1,$1+$1,$6,$7*
1,1,$1+$1,$8,$9*
0 Add four rect primitives between the rounded corners*
20,1,$1+$1,$2,$3,$4,$5,0*
20,1,$1+$1,$4,$5,$6,$7,0*
20,1,$1+$1,$6,$7,$8,$9,0*
20,1,$1+$1,$8,$9,$2,$3,0*%
G04 Aperture macros list end*
%TA.AperFunction,ComponentPad*%
%ADD10R,1.700000X1.700000*%
%TD*%
%TA.AperFunction,ComponentPad*%
%ADD11C,1.700000*%
%TD*%
%TA.AperFunction,ComponentPad*%
%ADD12RoundRect,0.250002X-1.499998X1.499998X-1.499998X-1.499998X1.499998X-1.499998X1.499998X1.499998X0*%
%TD*%
%TA.AperFunction,ComponentPad*%
%ADD13C,3.500000*%
%TD*%
%TA.AperFunction,ComponentPad*%
%ADD14C,2.540000*%
%TD*%
%TA.AperFunction,ComponentPad*%
%ADD15C,2.400000*%
%TD*%
%TA.AperFunction,ComponentPad*%
%ADD16RoundRect,0.575000X0.575000X0.575000X-0.575000X0.575000X-0.575000X-0.575000X0.575000X-0.575000X0*%
%TD*%
%TA.AperFunction,ComponentPad*%
%ADD17C,2.300000*%
%TD*%
%TA.AperFunction,ComponentPad*%
%ADD18RoundRect,0.250000X-0.550000X-0.550000X0.550000X-0.550000X0.550000X0.550000X-0.550000X0.550000X0*%
%TD*%
%TA.AperFunction,ComponentPad*%
%ADD19C,1.600000*%
%TD*%
%TA.AperFunction,ComponentPad*%
%ADD20C,1.800000*%
%TD*%
%TA.AperFunction,ComponentPad*%
%ADD21RoundRect,0.249999X0.850001X0.850001X-0.850001X0.850001X-0.850001X-0.850001X0.850001X-0.850001X0*%
%TD*%
%TA.AperFunction,ComponentPad*%
%ADD22C,2.200000*%
%TD*%
%TA.AperFunction,ComponentPad*%
%ADD23RoundRect,0.250002X-1.699998X1.699998X-1.699998X-1.699998X1.699998X-1.699998X1.699998X1.699998X0*%
%TD*%
%TA.AperFunction,ComponentPad*%
%ADD24C,3.900000*%
%TD*%
%TA.AperFunction,ComponentPad*%
%ADD25RoundRect,0.575000X-0.575000X-0.575000X0.575000X-0.575000X0.575000X0.575000X-0.575000X0.575000X0*%
%TD*%
%TA.AperFunction,ComponentPad*%
%ADD26R,1.905000X2.000000*%
%TD*%
%TA.AperFunction,ComponentPad*%
%ADD27O,1.905000X2.000000*%
%TD*%
%TA.AperFunction,HeatsinkPad*%
%ADD28C,0.600000*%
%TD*%
%TA.AperFunction,ComponentPad*%
%ADD29C,2.000000*%
%TD*%
%TA.AperFunction,ComponentPad*%
%ADD30RoundRect,0.250002X1.699998X1.699998X-1.699998X1.699998X-1.699998X-1.699998X1.699998X-1.699998X0*%
%TD*%
%TA.AperFunction,ComponentPad*%
%ADD31RoundRect,0.250000X0.550000X-0.550000X0.550000X0.550000X-0.550000X0.550000X-0.550000X-0.550000X0*%
%TD*%
%TA.AperFunction,ComponentPad*%
%ADD32RoundRect,0.250000X-0.600000X-0.750000X0.600000X-0.750000X0.600000X0.750000X-0.600000X0.750000X0*%
%TD*%
%TA.AperFunction,ComponentPad*%
%ADD33O,1.700000X2.000000*%
%TD*%
%TA.AperFunction,ViaPad*%
%ADD34C,0.600000*%
%TD*%
%TA.AperFunction,Conductor*%
%ADD35C,0.400000*%
%TD*%
%TA.AperFunction,Conductor*%
%ADD36C,0.800000*%
%TD*%
%TA.AperFunction,Conductor*%
%ADD37C,4.000000*%
%TD*%
G04 APERTURE END LIST*
D10*
%TO.P,J5,1,Pin_1*%
%TO.N,GND*%
X199840000Y-123500000D03*
D11*
%TO.P,J5,2,Pin_2*%
%TO.N,+3V3*%
X202380000Y-123500000D03*
%TO.P,J5,3,Pin_3*%
%TO.N,Net-(J1-SCK)*%
X204920000Y-123500000D03*
%TO.P,J5,4,Pin_4*%
%TO.N,Net-(J5-Pin_4)*%
X207460000Y-123500000D03*
%TO.P,J5,5,Pin_5*%
%TO.N,Net-(J1-SDO(MISO))*%
X210000000Y-123500000D03*
%TD*%
D12*
%TO.P,J4,1,Pin_1*%
%TO.N,LINE*%
X65500000Y-94500000D03*
D13*
%TO.P,J4,2,Pin_2*%
%TO.N,NEUT*%
X65500000Y-101500000D03*
%TD*%
D14*
%TO.P,L1,1*%
%TO.N,Net-(C1-Pad2)*%
X115537500Y-97750000D03*
%TO.P,L1,2*%
%TO.N,Net-(PS1-AC{slash}N)*%
X122537500Y-97750000D03*
%TO.P,L1,3*%
%TO.N,Net-(PS1-AC{slash}L)*%
X122537500Y-89750000D03*
%TO.P,L1,4*%
%TO.N,Net-(C1-Pad1)*%
X115537500Y-89750000D03*
%TD*%
D15*
%TO.P,R7,1*%
%TO.N,Net-(PS1-AC{slash}N)*%
X167130000Y-112750000D03*
%TO.P,R7,2*%
%TO.N,Net-(D1-K)*%
X182370000Y-112750000D03*
%TD*%
D16*
%TO.P,F3,1*%
%TO.N,Net-(Q1-A2)*%
X93287500Y-111750000D03*
X88087500Y-111750000D03*
D17*
%TO.P,F3,2*%
%TO.N,LINE*%
X77987500Y-111750000D03*
X72787500Y-111750000D03*
%TD*%
D18*
%TO.P,U1,1*%
%TO.N,Net-(D2-K)*%
X187945000Y-109210000D03*
D19*
%TO.P,U1,2*%
%TO.N,Net-(D1-A)*%
X187945000Y-111750000D03*
%TO.P,U1,3,NC*%
%TO.N,unconnected-(U1-NC-Pad3)*%
X187945000Y-114290000D03*
%TO.P,U1,4*%
%TO.N,GND*%
X195565000Y-114290000D03*
%TO.P,U1,5*%
%TO.N,Net-(R8-Pad2)*%
X195565000Y-111750000D03*
%TO.P,U1,6*%
%TO.N,unconnected-(U1-Pad6)*%
X195565000Y-109210000D03*
%TD*%
D20*
%TO.P,RV2,1*%
%TO.N,Net-(Q1-A2)*%
X132500000Y-110550000D03*
%TO.P,RV2,2*%
%TO.N,Net-(Q1-A1)*%
X140000000Y-111950000D03*
%TD*%
D21*
%TO.P,D3,1,K*%
%TO.N,Net-(D2-K)*%
X187830000Y-124750000D03*
D22*
%TO.P,D3,2,A*%
%TO.N,Net-(D3-A)*%
X177670000Y-124750000D03*
%TD*%
D15*
%TO.P,R6,1*%
%TO.N,Net-(PS1-AC{slash}L)*%
X167130000Y-104750000D03*
%TO.P,R6,2*%
%TO.N,Net-(D3-A)*%
X182370000Y-104750000D03*
%TD*%
D21*
%TO.P,D2,1,K*%
%TO.N,Net-(D2-K)*%
X187830000Y-119750000D03*
D22*
%TO.P,D2,2,A*%
%TO.N,Net-(D1-K)*%
X177670000Y-119750000D03*
%TD*%
D19*
%TO.P,R2,1*%
%TO.N,Net-(Q1-A1)*%
X147900000Y-114750000D03*
%TO.P,R2,2*%
%TO.N,Net-(Q1-G)*%
X160600000Y-114750000D03*
%TD*%
D23*
%TO.P,J3,1,Pin_1*%
%TO.N,LINE*%
X67000000Y-115200000D03*
D24*
%TO.P,J3,2,Pin_2*%
%TO.N,NEUT*%
X67000000Y-123000000D03*
%TD*%
D25*
%TO.P,F1,1*%
%TO.N,LINE*%
X73237500Y-87750000D03*
X78437500Y-87750000D03*
D17*
%TO.P,F1,2*%
%TO.N,Net-(C1-Pad1)*%
X88537500Y-87750000D03*
X93737500Y-87750000D03*
%TD*%
D26*
%TO.P,Q1,1,A1*%
%TO.N,Net-(Q1-A1)*%
X125000000Y-124950000D03*
D27*
%TO.P,Q1,2,A2*%
%TO.N,Net-(Q1-A2)*%
X122460000Y-124950000D03*
%TO.P,Q1,3,G*%
%TO.N,Net-(Q1-G)*%
X119920000Y-124950000D03*
%TD*%
D25*
%TO.P,F2,1*%
%TO.N,NEUT*%
X73237500Y-99750000D03*
X78437500Y-99750000D03*
D17*
%TO.P,F2,2*%
%TO.N,Net-(C1-Pad2)*%
X88537500Y-99750000D03*
X93737500Y-99750000D03*
%TD*%
D10*
%TO.P,J2,1,Pin_1*%
%TO.N,GND*%
X185250000Y-85550000D03*
D11*
%TO.P,J2,2,Pin_2*%
%TO.N,Net-(J2-Pin_2)*%
X185250000Y-88090000D03*
%TO.P,J2,3,Pin_3*%
%TO.N,Net-(J2-Pin_3)*%
X185250000Y-90630000D03*
%TO.P,J2,4,Pin_4*%
%TO.N,Net-(J2-Pin_4)*%
X185250000Y-93170000D03*
%TO.P,J2,5,Pin_5*%
%TO.N,Net-(J2-Pin_5)*%
X185250000Y-95710000D03*
%TO.P,J2,6,Pin_6*%
%TO.N,+3V3*%
X185250000Y-98250000D03*
%TD*%
D28*
%TO.P,U3,39,GND*%
%TO.N,GND*%
X200295000Y-89167500D03*
X200295000Y-90692500D03*
X201057500Y-88405000D03*
X201057500Y-89930000D03*
X201057500Y-91455000D03*
X201820000Y-89167500D03*
X201820000Y-90692500D03*
X202582500Y-88405000D03*
X202582500Y-89930000D03*
X202582500Y-91455000D03*
X203345000Y-89167500D03*
X203345000Y-90692500D03*
%TD*%
D19*
%TO.P,R3,1*%
%TO.N,Net-(R3-Pad1)*%
X160600000Y-109750000D03*
%TO.P,R3,2*%
%TO.N,Net-(Q1-A2)*%
X147900000Y-109750000D03*
%TD*%
D29*
%TO.P,C4,1*%
%TO.N,Net-(C4-Pad1)*%
X141000000Y-124450000D03*
%TO.P,C4,2*%
%TO.N,Net-(Q1-A1)*%
X131000000Y-124450000D03*
%TD*%
D30*
%TO.P,R1,1*%
%TO.N,Net-(Q1-A1)*%
X108450000Y-123750000D03*
D24*
%TO.P,R1,2*%
%TO.N,Net-(F4-Pad2)*%
X100650000Y-123750000D03*
%TD*%
D10*
%TO.P,J1,1,VCC*%
%TO.N,+5V*%
X222250000Y-117990000D03*
D11*
%TO.P,J1,2,GND*%
%TO.N,GND*%
X222250000Y-115450000D03*
%TO.P,J1,3,CS*%
%TO.N,Net-(J1-CS)*%
X222250000Y-112910000D03*
%TO.P,J1,4,RESET*%
%TO.N,Net-(J1-RESET)*%
X222250000Y-110370000D03*
%TO.P,J1,5,DC*%
%TO.N,Net-(J1-DC)*%
X222250000Y-107830000D03*
%TO.P,J1,6,SDI(MOSI)*%
%TO.N,Net-(J1-SDI(MOSI))*%
X222250000Y-105290000D03*
%TO.P,J1,7,SCK*%
%TO.N,Net-(J1-SCK)*%
X222250000Y-102750000D03*
%TO.P,J1,8,LED*%
%TO.N,+3V3*%
X222250000Y-100210000D03*
%TO.P,J1,9,SDO(MISO)*%
%TO.N,Net-(J1-SDO(MISO))*%
X222250000Y-97670000D03*
%TO.P,J1,10,T_CLK*%
%TO.N,Net-(J1-SCK)*%
X222250000Y-95130000D03*
%TO.P,J1,11,T_CS*%
%TO.N,Net-(J1-T_CS)*%
X222250000Y-92590000D03*
%TO.P,J1,12,T_DIN*%
%TO.N,Net-(J1-SDI(MOSI))*%
X222250000Y-90050000D03*
%TO.P,J1,13,T_DO*%
%TO.N,Net-(J1-SDO(MISO))*%
X222250000Y-87510000D03*
%TO.P,J1,14,T_IRQ*%
%TO.N,unconnected-(J1-T_IRQ-Pad14)*%
X222250000Y-84970000D03*
%TD*%
D31*
%TO.P,C3,1*%
%TO.N,+3V3*%
X177750000Y-89750000D03*
D19*
%TO.P,C3,2*%
%TO.N,GND*%
X177750000Y-84750000D03*
%TD*%
D21*
%TO.P,D4,1,K*%
%TO.N,Net-(D3-A)*%
X174330000Y-124750000D03*
D22*
%TO.P,D4,2,A*%
%TO.N,Net-(D1-A)*%
X164170000Y-124750000D03*
%TD*%
D15*
%TO.P,C1,1*%
%TO.N,Net-(C1-Pad1)*%
X108037500Y-86250000D03*
%TO.P,C1,2*%
%TO.N,Net-(C1-Pad2)*%
X108037500Y-101250000D03*
%TD*%
D32*
%TO.P,PS1,1,AC/L*%
%TO.N,Net-(PS1-AC{slash}L)*%
X131250000Y-91250000D03*
D33*
%TO.P,PS1,2,AC/N*%
%TO.N,Net-(PS1-AC{slash}N)*%
X131250000Y-96250000D03*
%TO.P,PS1,3,-Vout*%
%TO.N,GND*%
X160330000Y-86250000D03*
%TO.P,PS1,4,+Vout*%
%TO.N,+5V*%
X160330000Y-101250000D03*
%TD*%
D15*
%TO.P,R5,1*%
%TO.N,Net-(C4-Pad1)*%
X144370000Y-118950000D03*
%TO.P,R5,2*%
%TO.N,Net-(Q1-A2)*%
X129130000Y-118950000D03*
%TD*%
D19*
%TO.P,C2,1*%
%TO.N,+5V*%
X169537500Y-88500000D03*
%TO.P,C2,2*%
%TO.N,GND*%
X169537500Y-86000000D03*
%TD*%
D21*
%TO.P,D1,1,K*%
%TO.N,Net-(D1-K)*%
X174330000Y-119750000D03*
D22*
%TO.P,D1,2,A*%
%TO.N,Net-(D1-A)*%
X164170000Y-119750000D03*
%TD*%
D25*
%TO.P,F4,1*%
%TO.N,NEUT*%
X73237500Y-123750000D03*
X78437500Y-123750000D03*
D17*
%TO.P,F4,2*%
%TO.N,Net-(F4-Pad2)*%
X88537500Y-123750000D03*
X93737500Y-123750000D03*
%TD*%
D31*
%TO.P,U5,1*%
%TO.N,Net-(R4-Pad2)*%
X149210000Y-126555000D03*
D19*
%TO.P,U5,2*%
%TO.N,GND*%
X151750000Y-126555000D03*
%TO.P,U5,3,NC*%
%TO.N,unconnected-(U5-NC-Pad3)*%
X154290000Y-126555000D03*
%TO.P,U5,4*%
%TO.N,Net-(Q1-G)*%
X154290000Y-118935000D03*
%TO.P,U5,5,NC*%
%TO.N,unconnected-(U5-NC-Pad5)*%
X151750000Y-118935000D03*
%TO.P,U5,6*%
%TO.N,Net-(R3-Pad1)*%
X149210000Y-118935000D03*
%TD*%
D20*
%TO.P,RV1,1*%
%TO.N,Net-(C1-Pad1)*%
X100237500Y-89750000D03*
%TO.P,RV1,2*%
%TO.N,Net-(C1-Pad2)*%
X98837500Y-97250000D03*
%TD*%
D34*
%TO.N,Net-(J5-Pin_4)*%
X206000000Y-106000000D03*
X206500000Y-108500000D03*
%TO.N,Net-(J1-SCK)*%
X204920000Y-108580000D03*
X219500000Y-97000000D03*
%TO.N,Net-(J1-SDO(MISO))*%
X205680000Y-100350000D03*
%TO.N,Net-(J1-SDI(MOSI))*%
X204410000Y-100350000D03*
%TO.N,Net-(J1-SCK)*%
X203140000Y-100350000D03*
%TO.N,+3V3*%
X198750000Y-108750000D03*
X216020000Y-102000000D03*
X170037500Y-99400000D03*
X170037500Y-93100000D03*
X195500000Y-106000000D03*
X201387500Y-114800000D03*
%TO.N,Net-(J2-Pin_5)*%
X211250000Y-86400000D03*
%TO.N,Net-(J2-Pin_4)*%
X211250000Y-87670000D03*
%TO.N,Net-(Q2-C)*%
X181750000Y-94250000D03*
X211250000Y-99100000D03*
%TO.N,/TRIG*%
X160250000Y-122250000D03*
X193750000Y-92750000D03*
%TO.N,/ZCD*%
X200425000Y-118250000D03*
X193750000Y-88940000D03*
%TD*%
D35*
%TO.N,Net-(J1-SDO(MISO))*%
X223501000Y-98921000D02*
X222250000Y-97670000D01*
X223501000Y-100728182D02*
X223501000Y-98921000D01*
X222768182Y-101461000D02*
X223501000Y-100728182D01*
X221731818Y-101461000D02*
X222768182Y-101461000D01*
X210000000Y-113192818D02*
X221731818Y-101461000D01*
X210000000Y-123500000D02*
X210000000Y-113192818D01*
%TO.N,Net-(J5-Pin_4)*%
X206500000Y-108500000D02*
X206500000Y-106500000D01*
X206500000Y-106500000D02*
X206000000Y-106000000D01*
%TO.N,Net-(J1-SCK)*%
X204920000Y-102130000D02*
X204089000Y-101299000D01*
X204920000Y-108580000D02*
X204920000Y-102130000D01*
X212701000Y-101299000D02*
X217000000Y-97000000D01*
X217000000Y-97000000D02*
X219500000Y-97000000D01*
X204089000Y-101299000D02*
X212701000Y-101299000D01*
X203140000Y-100350000D02*
X204089000Y-101299000D01*
%TO.N,Net-(J1-SDO(MISO))*%
X211630000Y-100350000D02*
X218280000Y-93700000D01*
X205680000Y-100350000D02*
X211630000Y-100350000D01*
%TO.N,+3V3*%
X210687500Y-105500000D02*
X201387500Y-114800000D01*
X212520000Y-105500000D02*
X210687500Y-105500000D01*
X216020000Y-102000000D02*
X212520000Y-105500000D01*
X218770000Y-99250000D02*
X221290000Y-99250000D01*
X216020000Y-102000000D02*
X218770000Y-99250000D01*
X221290000Y-99250000D02*
X222250000Y-100210000D01*
D36*
%TO.N,NEUT*%
X71487500Y-101500000D02*
X73237500Y-99750000D01*
X65500000Y-101500000D02*
X71487500Y-101500000D01*
%TO.N,LINE*%
X72250000Y-87750000D02*
X73237500Y-87750000D01*
X65500000Y-94500000D02*
X72250000Y-87750000D01*
D35*
%TO.N,+3V3*%
X196000000Y-106000000D02*
X198750000Y-108750000D01*
X170037500Y-93100000D02*
X170037500Y-99400000D01*
X184047919Y-98250000D02*
X177750000Y-91952081D01*
X177750000Y-91952081D02*
X177750000Y-89750000D01*
X195500000Y-106000000D02*
X196000000Y-106000000D01*
X185250000Y-98250000D02*
X184047919Y-98250000D01*
D37*
%TO.N,Net-(Q1-A1)*%
X108450000Y-123750000D02*
X111950000Y-120250000D01*
X124250000Y-120250000D02*
X126250000Y-122250000D01*
X111950000Y-120250000D02*
X124250000Y-120250000D01*
X126250000Y-122250000D02*
X126250000Y-124250000D01*
D35*
%TO.N,Net-(J1-SDO(MISO))*%
X218280000Y-91480000D02*
X222250000Y-87510000D01*
X218280000Y-93700000D02*
X218280000Y-91480000D01*
X222250000Y-97670000D02*
X218280000Y-93700000D01*
%TO.N,Net-(J2-Pin_5)*%
X211250000Y-86400000D02*
X194560000Y-86400000D01*
X194560000Y-86400000D02*
X185250000Y-95710000D01*
%TO.N,Net-(J2-Pin_4)*%
X211951000Y-86109636D02*
X211192364Y-85351000D01*
X193069000Y-85351000D02*
X185250000Y-93170000D01*
X211250000Y-87670000D02*
X211951000Y-86969000D01*
X211951000Y-86969000D02*
X211951000Y-86109636D01*
X211192364Y-85351000D02*
X193069000Y-85351000D01*
%TO.N,Net-(Q2-C)*%
X184659000Y-89341000D02*
X181750000Y-92250000D01*
X211250000Y-99100000D02*
X210100000Y-97950000D01*
X210100000Y-90026000D02*
X212552000Y-87574000D01*
X212552000Y-87574000D02*
X212552000Y-85860694D01*
X181750000Y-92250000D02*
X181750000Y-94250000D01*
X185768182Y-89341000D02*
X184659000Y-89341000D01*
X210100000Y-97950000D02*
X210100000Y-90026000D01*
X212552000Y-85860694D02*
X210941306Y-84250000D01*
X210941306Y-84250000D02*
X190859182Y-84250000D01*
X190859182Y-84250000D02*
X185768182Y-89341000D01*
%TO.N,/TRIG*%
X186250000Y-100250000D02*
X182750000Y-100250000D01*
X160250000Y-120250000D02*
X160250000Y-122250000D01*
X193750000Y-92750000D02*
X186250000Y-100250000D01*
X163250000Y-117250000D02*
X160250000Y-120250000D01*
X182750000Y-100250000D02*
X165750000Y-117250000D01*
X165750000Y-117250000D02*
X163250000Y-117250000D01*
%TO.N,/ZCD*%
X200425000Y-95615000D02*
X200425000Y-118250000D01*
X193750000Y-88940000D02*
X200425000Y-95615000D01*
%TD*%
%TA.AperFunction,Conductor*%
%TO.N,GND*%
G36*
X210502825Y-87120185D02*
G01*
X210548580Y-87172989D01*
X210558524Y-87242147D01*
X210542195Y-87284760D01*
X210543479Y-87285446D01*
X210540602Y-87290827D01*
X210480264Y-87436498D01*
X210480261Y-87436510D01*
X210449500Y-87591153D01*
X210449500Y-87748846D01*
X210480261Y-87903489D01*
X210480264Y-87903501D01*
X210540602Y-88049172D01*
X210540609Y-88049185D01*
X210628210Y-88180288D01*
X210628213Y-88180292D01*
X210703950Y-88256029D01*
X210737435Y-88317352D01*
X210732451Y-88387044D01*
X210703950Y-88431391D01*
X209555887Y-89579454D01*
X209479222Y-89694192D01*
X209426421Y-89821667D01*
X209426418Y-89821679D01*
X209400605Y-89951450D01*
X209400604Y-89951456D01*
X209399501Y-89956998D01*
X209399500Y-89957004D01*
X209399500Y-89957007D01*
X209399500Y-97881006D01*
X209399500Y-98018994D01*
X209399500Y-98018996D01*
X209399499Y-98018996D01*
X209426418Y-98154322D01*
X209426421Y-98154332D01*
X209479222Y-98281807D01*
X209555887Y-98396545D01*
X209555888Y-98396546D01*
X210453928Y-99294585D01*
X210458559Y-99301516D01*
X210462799Y-99304460D01*
X210480808Y-99334814D01*
X210540137Y-99478048D01*
X210547606Y-99547517D01*
X210516331Y-99609996D01*
X210456242Y-99645648D01*
X210425576Y-99649500D01*
X206105316Y-99649500D01*
X206057864Y-99640061D01*
X205913501Y-99580264D01*
X205913489Y-99580261D01*
X205758845Y-99549500D01*
X205758842Y-99549500D01*
X205601158Y-99549500D01*
X205601155Y-99549500D01*
X205446510Y-99580261D01*
X205446498Y-99580264D01*
X205300827Y-99640602D01*
X205300814Y-99640609D01*
X205169711Y-99728210D01*
X205169707Y-99728213D01*
X205132681Y-99765240D01*
X205071358Y-99798725D01*
X205001666Y-99793741D01*
X204957319Y-99765240D01*
X204920292Y-99728213D01*
X204920288Y-99728210D01*
X204789185Y-99640609D01*
X204789172Y-99640602D01*
X204643501Y-99580264D01*
X204643489Y-99580261D01*
X204488845Y-99549500D01*
X204488842Y-99549500D01*
X204331158Y-99549500D01*
X204331155Y-99549500D01*
X204176510Y-99580261D01*
X204176498Y-99580264D01*
X204030827Y-99640602D01*
X204030814Y-99640609D01*
X203899711Y-99728210D01*
X203899707Y-99728213D01*
X203862681Y-99765240D01*
X203801358Y-99798725D01*
X203731666Y-99793741D01*
X203687319Y-99765240D01*
X203650292Y-99728213D01*
X203650288Y-99728210D01*
X203519185Y-99640609D01*
X203519172Y-99640602D01*
X203373501Y-99580264D01*
X203373489Y-99580261D01*
X203218845Y-99549500D01*
X203218842Y-99549500D01*
X203061158Y-99549500D01*
X203061155Y-99549500D01*
X202906510Y-99580261D01*
X202906498Y-99580264D01*
X202760827Y-99640602D01*
X202760814Y-99640609D01*
X202629711Y-99728210D01*
X202629707Y-99728213D01*
X202518213Y-99839707D01*
X202518210Y-99839711D01*
X202430609Y-99970814D01*
X202430602Y-99970827D01*
X202370264Y-100116498D01*
X202370261Y-100116510D01*
X202339500Y-100271153D01*
X202339500Y-100428846D01*
X202370261Y-100583489D01*
X202370264Y-100583501D01*
X202430602Y-100729172D01*
X202430609Y-100729185D01*
X202518210Y-100860288D01*
X202518213Y-100860292D01*
X202629707Y-100971786D01*
X202629711Y-100971789D01*
X202760814Y-101059390D01*
X202760827Y-101059397D01*
X202905185Y-101119191D01*
X202945414Y-101146071D01*
X203544886Y-101745543D01*
X204183181Y-102383837D01*
X204216666Y-102445160D01*
X204219500Y-102471518D01*
X204219500Y-108154684D01*
X204210061Y-108202136D01*
X204150264Y-108346498D01*
X204150261Y-108346510D01*
X204119500Y-108501153D01*
X204119500Y-108658846D01*
X204150261Y-108813489D01*
X204150264Y-108813501D01*
X204210602Y-108959172D01*
X204210609Y-108959185D01*
X204298210Y-109090288D01*
X204298213Y-109090292D01*
X204409707Y-109201786D01*
X204409711Y-109201789D01*
X204540814Y-109289390D01*
X204540827Y-109289397D01*
X204686498Y-109349735D01*
X204686503Y-109349737D01*
X204841153Y-109380499D01*
X204841156Y-109380500D01*
X204841158Y-109380500D01*
X204998844Y-109380500D01*
X204998845Y-109380499D01*
X205153497Y-109349737D01*
X205299179Y-109289394D01*
X205430289Y-109201789D01*
X205541789Y-109090289D01*
X205587175Y-109022363D01*
X205632779Y-108954114D01*
X205634818Y-108955476D01*
X205649711Y-108940304D01*
X205671037Y-108916368D01*
X205674027Y-108915534D01*
X205676202Y-108913319D01*
X205707470Y-108906213D01*
X205738341Y-108897609D01*
X205741305Y-108898524D01*
X205744334Y-108897836D01*
X205774475Y-108908761D01*
X205805103Y-108918215D01*
X205807706Y-108920807D01*
X205810022Y-108921647D01*
X205831456Y-108941693D01*
X205835901Y-108946968D01*
X205878211Y-109010289D01*
X205948435Y-109080513D01*
X205951842Y-109084556D01*
X205963874Y-109111894D01*
X205978185Y-109138102D01*
X205977797Y-109143527D01*
X205979988Y-109148505D01*
X205975331Y-109178001D01*
X205973201Y-109207794D01*
X205969790Y-109213100D01*
X205969093Y-109217520D01*
X205961402Y-109226151D01*
X205944700Y-109252141D01*
X201337181Y-113859661D01*
X201275858Y-113893146D01*
X201206166Y-113888162D01*
X201150233Y-113846290D01*
X201125816Y-113780826D01*
X201125500Y-113771980D01*
X201125500Y-95546004D01*
X201098581Y-95410677D01*
X201098580Y-95410676D01*
X201098580Y-95410672D01*
X201085019Y-95377933D01*
X201045777Y-95283192D01*
X200969112Y-95168454D01*
X200969111Y-95168453D01*
X194546071Y-88745414D01*
X194519191Y-88705185D01*
X194459397Y-88560827D01*
X194459390Y-88560814D01*
X194371789Y-88429711D01*
X194371786Y-88429707D01*
X194260292Y-88318213D01*
X194260288Y-88318210D01*
X194129185Y-88230609D01*
X194129172Y-88230602D01*
X194011334Y-88181793D01*
X193956930Y-88137952D01*
X193934865Y-88071658D01*
X193952144Y-88003959D01*
X193971101Y-87979555D01*
X194813838Y-87136819D01*
X194875161Y-87103334D01*
X194901519Y-87100500D01*
X210435786Y-87100500D01*
X210502825Y-87120185D01*
G37*
%TD.AperFunction*%
%TA.AperFunction,Conductor*%
G36*
X224692539Y-81520185D02*
G01*
X224738294Y-81572989D01*
X224749500Y-81624500D01*
X224749500Y-127375500D01*
X224729815Y-127442539D01*
X224677011Y-127488294D01*
X224625500Y-127499500D01*
X155454651Y-127499500D01*
X155387612Y-127479815D01*
X155341857Y-127427011D01*
X155331913Y-127357853D01*
X155354332Y-127302615D01*
X155357325Y-127298495D01*
X155402287Y-127236610D01*
X155495220Y-127054219D01*
X155558477Y-126859534D01*
X155590500Y-126657352D01*
X155590500Y-126452648D01*
X155568079Y-126311089D01*
X155558477Y-126250465D01*
X155509750Y-126100499D01*
X155495220Y-126055781D01*
X155495218Y-126055778D01*
X155495218Y-126055776D01*
X155425697Y-125919335D01*
X155402287Y-125873390D01*
X155370092Y-125829077D01*
X155281971Y-125707786D01*
X155137213Y-125563028D01*
X154971613Y-125442715D01*
X154971612Y-125442714D01*
X154971610Y-125442713D01*
X154911898Y-125412288D01*
X154789223Y-125349781D01*
X154594534Y-125286522D01*
X154419995Y-125258878D01*
X154392352Y-125254500D01*
X154187648Y-125254500D01*
X154163329Y-125258351D01*
X153985465Y-125286522D01*
X153790776Y-125349781D01*
X153608386Y-125442715D01*
X153442786Y-125563028D01*
X153298028Y-125707786D01*
X153177713Y-125873388D01*
X153130203Y-125966630D01*
X153082228Y-126017426D01*
X153014407Y-126034220D01*
X152948272Y-126011682D01*
X152909234Y-125966628D01*
X152861861Y-125873652D01*
X152829474Y-125829077D01*
X152829474Y-125829076D01*
X152150000Y-126508551D01*
X152150000Y-126502339D01*
X152122741Y-126400606D01*
X152070080Y-126309394D01*
X151995606Y-126234920D01*
X151904394Y-126182259D01*
X151802661Y-126155000D01*
X151796446Y-126155000D01*
X152475922Y-125475524D01*
X152475921Y-125475523D01*
X152431359Y-125443147D01*
X152431350Y-125443141D01*
X152249031Y-125350244D01*
X152054417Y-125287009D01*
X151852317Y-125255000D01*
X151647683Y-125255000D01*
X151445582Y-125287009D01*
X151250968Y-125350244D01*
X151068644Y-125443143D01*
X151024077Y-125475523D01*
X151024077Y-125475524D01*
X151703554Y-126155000D01*
X151697339Y-126155000D01*
X151595606Y-126182259D01*
X151504394Y-126234920D01*
X151429920Y-126309394D01*
X151377259Y-126400606D01*
X151350000Y-126502339D01*
X151350000Y-126508553D01*
X150670524Y-125829077D01*
X150633729Y-125831973D01*
X150620118Y-125829113D01*
X150606353Y-125831093D01*
X150586601Y-125822072D01*
X150565352Y-125817609D01*
X150555447Y-125807845D01*
X150542797Y-125802068D01*
X150531057Y-125783801D01*
X150515595Y-125768558D01*
X150511768Y-125753786D01*
X150505023Y-125743290D01*
X150500000Y-125708355D01*
X150500000Y-124624038D01*
X162569500Y-124624038D01*
X162569500Y-124875961D01*
X162608910Y-125124785D01*
X162686760Y-125364383D01*
X162743390Y-125475524D01*
X162774379Y-125536344D01*
X162801132Y-125588848D01*
X162949201Y-125792649D01*
X162949205Y-125792654D01*
X163127345Y-125970794D01*
X163127350Y-125970798D01*
X163305117Y-126099952D01*
X163331155Y-126118870D01*
X163455563Y-126182259D01*
X163555616Y-126233239D01*
X163555618Y-126233239D01*
X163555621Y-126233241D01*
X163795215Y-126311090D01*
X164044038Y-126350500D01*
X164044039Y-126350500D01*
X164295961Y-126350500D01*
X164295962Y-126350500D01*
X164544785Y-126311090D01*
X164784379Y-126233241D01*
X165008845Y-126118870D01*
X165212656Y-125970793D01*
X165390793Y-125792656D01*
X165538870Y-125588845D01*
X165653241Y-125364379D01*
X165731090Y-125124785D01*
X165770500Y-124875962D01*
X165770500Y-124624038D01*
X165731090Y-124375215D01*
X165653241Y-124135621D01*
X165653239Y-124135618D01*
X165653239Y-124135616D01*
X165584139Y-124000000D01*
X165538870Y-123911155D01*
X165494431Y-123849990D01*
X165494425Y-123849982D01*
X172729500Y-123849982D01*
X172729500Y-125650017D01*
X172740000Y-125752796D01*
X172779960Y-125873386D01*
X172795186Y-125919335D01*
X172887288Y-126068656D01*
X173011344Y-126192712D01*
X173160665Y-126284814D01*
X173327202Y-126339999D01*
X173429990Y-126350500D01*
X173429995Y-126350500D01*
X175230005Y-126350500D01*
X175230010Y-126350500D01*
X175332798Y-126339999D01*
X175499335Y-126284814D01*
X175648656Y-126192712D01*
X175772712Y-126068656D01*
X175864814Y-125919335D01*
X175919999Y-125752798D01*
X175930500Y-125650010D01*
X175930500Y-125358599D01*
X175950185Y-125291560D01*
X176002989Y-125245805D01*
X176072147Y-125235861D01*
X176135703Y-125264886D01*
X176172430Y-125320279D01*
X176186759Y-125364379D01*
X176274379Y-125536344D01*
X176301132Y-125588848D01*
X176449201Y-125792649D01*
X176449205Y-125792654D01*
X176627345Y-125970794D01*
X176627350Y-125970798D01*
X176805117Y-126099952D01*
X176831155Y-126118870D01*
X176955563Y-126182259D01*
X177055616Y-126233239D01*
X177055618Y-126233239D01*
X177055621Y-126233241D01*
X177295215Y-126311090D01*
X177544038Y-126350500D01*
X177544039Y-126350500D01*
X177795961Y-126350500D01*
X177795962Y-126350500D01*
X178044785Y-126311090D01*
X178284379Y-126233241D01*
X178508845Y-126118870D01*
X178712656Y-125970793D01*
X178890793Y-125792656D01*
X179038870Y-125588845D01*
X179153241Y-125364379D01*
X179231090Y-125124785D01*
X179270500Y-124875962D01*
X179270500Y-124624038D01*
X179231090Y-124375215D01*
X179153241Y-124135621D01*
X179153239Y-124135618D01*
X179153239Y-124135616D01*
X179084139Y-124000000D01*
X179038870Y-123911155D01*
X178994431Y-123849990D01*
X178994425Y-123849982D01*
X186229500Y-123849982D01*
X186229500Y-125650017D01*
X186240000Y-125752796D01*
X186279960Y-125873386D01*
X186295186Y-125919335D01*
X186387288Y-126068656D01*
X186511344Y-126192712D01*
X186660665Y-126284814D01*
X186827202Y-126339999D01*
X186929990Y-126350500D01*
X186929995Y-126350500D01*
X188730005Y-126350500D01*
X188730010Y-126350500D01*
X188832798Y-126339999D01*
X188999335Y-126284814D01*
X189148656Y-126192712D01*
X189272712Y-126068656D01*
X189364814Y-125919335D01*
X189419999Y-125752798D01*
X189430500Y-125650010D01*
X189430500Y-123849990D01*
X189419999Y-123747202D01*
X189419932Y-123747000D01*
X189416835Y-123737652D01*
X189416831Y-123737642D01*
X189406793Y-123707350D01*
X189364814Y-123580665D01*
X189272712Y-123431344D01*
X189148656Y-123307288D01*
X188999335Y-123215186D01*
X188832798Y-123160001D01*
X188832796Y-123160000D01*
X188730017Y-123149500D01*
X188730010Y-123149500D01*
X186929990Y-123149500D01*
X186929982Y-123149500D01*
X186827203Y-123160000D01*
X186827202Y-123160001D01*
X186755511Y-123183757D01*
X186660667Y-123215185D01*
X186660662Y-123215187D01*
X186511342Y-123307289D01*
X186387289Y-123431342D01*
X186295187Y-123580662D01*
X186295185Y-123580667D01*
X186267349Y-123664669D01*
X186240001Y-123747202D01*
X186240001Y-123747203D01*
X186240000Y-123747203D01*
X186229500Y-123849982D01*
X178994425Y-123849982D01*
X178890798Y-123707350D01*
X178890794Y-123707345D01*
X178712654Y-123529205D01*
X178712649Y-123529201D01*
X178508848Y-123381132D01*
X178508847Y-123381131D01*
X178508845Y-123381130D01*
X178438747Y-123345413D01*
X178284383Y-123266760D01*
X178044785Y-123188910D01*
X178012250Y-123183757D01*
X177795962Y-123149500D01*
X177544038Y-123149500D01*
X177477738Y-123160001D01*
X177295214Y-123188910D01*
X177055616Y-123266760D01*
X176831151Y-123381132D01*
X176627350Y-123529201D01*
X176627345Y-123529205D01*
X176449205Y-123707345D01*
X176449201Y-123707350D01*
X176301132Y-123911151D01*
X176186760Y-124135616D01*
X176172431Y-124179719D01*
X176132993Y-124237394D01*
X176068634Y-124264592D01*
X175999788Y-124252677D01*
X175948312Y-124205433D01*
X175930500Y-124141400D01*
X175930500Y-123849995D01*
X175930499Y-123849982D01*
X175919999Y-123747203D01*
X175906793Y-123707350D01*
X175864814Y-123580665D01*
X175772712Y-123431344D01*
X175648656Y-123307288D01*
X175499335Y-123215186D01*
X175332798Y-123160001D01*
X175332796Y-123160000D01*
X175230017Y-123149500D01*
X175230010Y-123149500D01*
X173429990Y-123149500D01*
X173429982Y-123149500D01*
X173327203Y-123160000D01*
X173327202Y-123160001D01*
X173255511Y-123183757D01*
X173160667Y-123215185D01*
X173160662Y-123215187D01*
X173011342Y-123307289D01*
X172887289Y-123431342D01*
X172795187Y-123580662D01*
X172795185Y-123580667D01*
X172767349Y-123664669D01*
X172740001Y-123747202D01*
X172740001Y-123747203D01*
X172740000Y-123747203D01*
X172729500Y-123849982D01*
X165494425Y-123849982D01*
X165390798Y-123707350D01*
X165390794Y-123707345D01*
X165212654Y-123529205D01*
X165212649Y-123529201D01*
X165008848Y-123381132D01*
X165008847Y-123381131D01*
X165008845Y-123381130D01*
X164938747Y-123345413D01*
X164784383Y-123266760D01*
X164544785Y-123188910D01*
X164512250Y-123183757D01*
X164295962Y-123149500D01*
X164044038Y-123149500D01*
X163977738Y-123160001D01*
X163795214Y-123188910D01*
X163555616Y-123266760D01*
X163331151Y-123381132D01*
X163127350Y-123529201D01*
X163127345Y-123529205D01*
X162949205Y-123707345D01*
X162949201Y-123707350D01*
X162801132Y-123911151D01*
X162686760Y-124135616D01*
X162608910Y-124375214D01*
X162569500Y-124624038D01*
X150500000Y-124624038D01*
X150500000Y-122171153D01*
X159449500Y-122171153D01*
X159449500Y-122328846D01*
X159480261Y-122483489D01*
X159480264Y-122483501D01*
X159540602Y-122629172D01*
X159540609Y-122629185D01*
X159628210Y-122760288D01*
X159628213Y-122760292D01*
X159739707Y-122871786D01*
X159739711Y-122871789D01*
X159870814Y-122959390D01*
X159870827Y-122959397D01*
X159924402Y-122981588D01*
X160016503Y-123019737D01*
X160171153Y-123050499D01*
X160171156Y-123050500D01*
X160171158Y-123050500D01*
X160328844Y-123050500D01*
X160328845Y-123050499D01*
X160483497Y-123019737D01*
X160629179Y-122959394D01*
X160760289Y-122871789D01*
X160871789Y-122760289D01*
X160959394Y-122629179D01*
X160978183Y-122583819D01*
X160991612Y-122551398D01*
X160991612Y-122551397D01*
X161019737Y-122483497D01*
X161050500Y-122328842D01*
X161050500Y-122171158D01*
X161050500Y-122171155D01*
X161050499Y-122171153D01*
X161019738Y-122016510D01*
X161019737Y-122016503D01*
X161009917Y-121992795D01*
X160959939Y-121872136D01*
X160950500Y-121824684D01*
X160950500Y-120591519D01*
X160970185Y-120524480D01*
X160986819Y-120503838D01*
X161708444Y-119782213D01*
X162481203Y-119009453D01*
X162542524Y-118975970D01*
X162612216Y-118980954D01*
X162668149Y-119022826D01*
X162692566Y-119088290D01*
X162686813Y-119135454D01*
X162608910Y-119375210D01*
X162608910Y-119375213D01*
X162569500Y-119624038D01*
X162569500Y-119875961D01*
X162608910Y-120124785D01*
X162686760Y-120364383D01*
X162801132Y-120588848D01*
X162949201Y-120792649D01*
X162949205Y-120792654D01*
X163127345Y-120970794D01*
X163127350Y-120970798D01*
X163296463Y-121093665D01*
X163331155Y-121118870D01*
X163474184Y-121191747D01*
X163555616Y-121233239D01*
X163555618Y-121233239D01*
X163555621Y-121233241D01*
X163795215Y-121311090D01*
X164044038Y-121350500D01*
X164044039Y-121350500D01*
X164295961Y-121350500D01*
X164295962Y-121350500D01*
X164544785Y-121311090D01*
X164784379Y-121233241D01*
X165008845Y-121118870D01*
X165212656Y-120970793D01*
X165390793Y-120792656D01*
X165538870Y-120588845D01*
X165653241Y-120364379D01*
X165731090Y-120124785D01*
X165770500Y-119875962D01*
X165770500Y-119624038D01*
X165731090Y-119375215D01*
X165653241Y-119135621D01*
X165653239Y-119135618D01*
X165653239Y-119135616D01*
X165557380Y-118947483D01*
X165538870Y-118911155D01*
X165521954Y-118887872D01*
X165494425Y-118849982D01*
X172729500Y-118849982D01*
X172729500Y-120650017D01*
X172740000Y-120752796D01*
X172795185Y-120919332D01*
X172795187Y-120919337D01*
X172803122Y-120932202D01*
X172887288Y-121068656D01*
X173011344Y-121192712D01*
X173160665Y-121284814D01*
X173327202Y-121339999D01*
X173429990Y-121350500D01*
X173429995Y-121350500D01*
X175230005Y-121350500D01*
X175230010Y-121350500D01*
X175332798Y-121339999D01*
X175499335Y-121284814D01*
X175648656Y-121192712D01*
X175772712Y-121068656D01*
X175864814Y-120919335D01*
X175919999Y-120752798D01*
X175930500Y-120650010D01*
X175930500Y-120358599D01*
X175950185Y-120291560D01*
X176002989Y-120245805D01*
X176072147Y-120235861D01*
X176135703Y-120264886D01*
X176172430Y-120320279D01*
X176186759Y-120364379D01*
X176276322Y-120540157D01*
X176301132Y-120588848D01*
X176449201Y-120792649D01*
X176449205Y-120792654D01*
X176627345Y-120970794D01*
X176627350Y-120970798D01*
X176796463Y-121093665D01*
X176831155Y-121118870D01*
X176974184Y-121191747D01*
X177055616Y-121233239D01*
X177055618Y-121233239D01*
X177055621Y-121233241D01*
X177295215Y-121311090D01*
X177544038Y-121350500D01*
X177544039Y-121350500D01*
X177795961Y-121350500D01*
X177795962Y-121350500D01*
X178044785Y-121311090D01*
X178284379Y-121233241D01*
X178508845Y-121118870D01*
X178712656Y-120970793D01*
X178890793Y-120792656D01*
X179038870Y-120588845D01*
X179153241Y-120364379D01*
X179231090Y-120124785D01*
X179270500Y-119875962D01*
X179270500Y-119624038D01*
X179231090Y-119375215D01*
X179153241Y-119135621D01*
X179153239Y-119135618D01*
X179153239Y-119135616D01*
X179057380Y-118947483D01*
X179038870Y-118911155D01*
X179021954Y-118887872D01*
X178994425Y-118849982D01*
X186229500Y-118849982D01*
X186229500Y-120650017D01*
X186240000Y-120752796D01*
X186295185Y-120919332D01*
X186295187Y-120919337D01*
X186303122Y-120932202D01*
X186387288Y-121068656D01*
X186511344Y-121192712D01*
X186660665Y-121284814D01*
X186827202Y-121339999D01*
X186929990Y-121350500D01*
X186929995Y-121350500D01*
X188730005Y-121350500D01*
X188730010Y-121350500D01*
X188832798Y-121339999D01*
X188999335Y-121284814D01*
X189148656Y-121192712D01*
X189272712Y-121068656D01*
X189364814Y-120919335D01*
X189419999Y-120752798D01*
X189430500Y-120650010D01*
X189430500Y-118849990D01*
X189419999Y-118747202D01*
X189364814Y-118580665D01*
X189272712Y-118431344D01*
X189148656Y-118307288D01*
X188999335Y-118215186D01*
X188832798Y-118160001D01*
X188832796Y-118160000D01*
X188730017Y-118149500D01*
X188730010Y-118149500D01*
X186929990Y-118149500D01*
X186929982Y-118149500D01*
X186827203Y-118160000D01*
X186827202Y-118160001D01*
X186758306Y-118182831D01*
X186660667Y-118215185D01*
X186660662Y-118215187D01*
X186511342Y-118307289D01*
X186387289Y-118431342D01*
X186295187Y-118580662D01*
X186295185Y-118580667D01*
X186275497Y-118640081D01*
X186240001Y-118747202D01*
X186240001Y-118747203D01*
X186240000Y-118747203D01*
X186229500Y-118849982D01*
X178994425Y-118849982D01*
X178890798Y-118707350D01*
X178890794Y-118707345D01*
X178712654Y-118529205D01*
X178712649Y-118529201D01*
X178508848Y-118381132D01*
X178508847Y-118381131D01*
X178508845Y-118381130D01*
X178406224Y-118328842D01*
X178284383Y-118266760D01*
X178044785Y-118188910D01*
X177932685Y-118171155D01*
X177795962Y-118149500D01*
X177544038Y-118149500D01*
X177477738Y-118160001D01*
X177295214Y-118188910D01*
X177055616Y-118266760D01*
X176831151Y-118381132D01*
X176627350Y-118529201D01*
X176627345Y-118529205D01*
X176449205Y-118707345D01*
X176449201Y-118707350D01*
X176301132Y-118911151D01*
X176186760Y-119135616D01*
X176172431Y-119179719D01*
X176132993Y-119237394D01*
X176068634Y-119264592D01*
X175999788Y-119252677D01*
X175948312Y-119205433D01*
X175930500Y-119141400D01*
X175930500Y-118849995D01*
X175930499Y-118849982D01*
X175919999Y-118747203D01*
X175906793Y-118707350D01*
X175864814Y-118580665D01*
X175772712Y-118431344D01*
X175648656Y-118307288D01*
X175499335Y-118215186D01*
X175332798Y-118160001D01*
X175332796Y-118160000D01*
X175230017Y-118149500D01*
X175230010Y-118149500D01*
X173429990Y-118149500D01*
X173429982Y-118149500D01*
X173327203Y-118160000D01*
X173327202Y-118160001D01*
X173258306Y-118182831D01*
X173160667Y-118215185D01*
X173160662Y-118215187D01*
X173011342Y-118307289D01*
X172887289Y-118431342D01*
X172795187Y-118580662D01*
X172795185Y-118580667D01*
X172775497Y-118640081D01*
X172740001Y-118747202D01*
X172740001Y-118747203D01*
X172740000Y-118747203D01*
X172729500Y-118849982D01*
X165494425Y-118849982D01*
X165390798Y-118707350D01*
X165390794Y-118707345D01*
X165212654Y-118529205D01*
X165212649Y-118529201D01*
X165008848Y-118381132D01*
X165008847Y-118381131D01*
X165008845Y-118381130D01*
X164906224Y-118328842D01*
X164784383Y-118266760D01*
X164555622Y-118192431D01*
X164497947Y-118152993D01*
X164470749Y-118088634D01*
X164482664Y-118019788D01*
X164529908Y-117968312D01*
X164593941Y-117950500D01*
X165818996Y-117950500D01*
X165910040Y-117932389D01*
X165954328Y-117923580D01*
X166018069Y-117897177D01*
X166081807Y-117870777D01*
X166081808Y-117870776D01*
X166081811Y-117870775D01*
X166196543Y-117794114D01*
X168811484Y-115179173D01*
X171352109Y-112638549D01*
X180669500Y-112638549D01*
X180669500Y-112861450D01*
X180669501Y-112861466D01*
X180698594Y-113082452D01*
X180698595Y-113082457D01*
X180698596Y-113082463D01*
X180737122Y-113226243D01*
X180756290Y-113297780D01*
X180756293Y-113297790D01*
X180841593Y-113503722D01*
X180841595Y-113503726D01*
X180953052Y-113696774D01*
X180953057Y-113696780D01*
X180953058Y-113696782D01*
X181088751Y-113873622D01*
X181088757Y-113873629D01*
X181246370Y-114031242D01*
X181246377Y-114031248D01*
X181290428Y-114065049D01*
X181423226Y-114166948D01*
X181616274Y-114278405D01*
X181822219Y-114363710D01*
X182037537Y-114421404D01*
X182258543Y-114450500D01*
X182258550Y-114450500D01*
X182481450Y-114450500D01*
X182481457Y-114450500D01*
X182702463Y-114421404D01*
X182917781Y-114363710D01*
X183123726Y-114278405D01*
X183316774Y-114166948D01*
X183493624Y-114031247D01*
X183651247Y-113873624D01*
X183786948Y-113696774D01*
X183898405Y-113503726D01*
X183983710Y-113297781D01*
X184041404Y-113082463D01*
X184070500Y-112861457D01*
X184070500Y-112638543D01*
X184041404Y-112417537D01*
X183983710Y-112202219D01*
X183983693Y-112202179D01*
X183898406Y-111996277D01*
X183898405Y-111996274D01*
X183786948Y-111803226D01*
X183675853Y-111658443D01*
X183651248Y-111626377D01*
X183651242Y-111626370D01*
X183493629Y-111468757D01*
X183493622Y-111468751D01*
X183316782Y-111333058D01*
X183316780Y-111333057D01*
X183316774Y-111333052D01*
X183123726Y-111221595D01*
X183123722Y-111221593D01*
X182917790Y-111136293D01*
X182917783Y-111136291D01*
X182917781Y-111136290D01*
X182702463Y-111078596D01*
X182702457Y-111078595D01*
X182702452Y-111078594D01*
X182481466Y-111049501D01*
X182481463Y-111049500D01*
X182481457Y-111049500D01*
X182258543Y-111049500D01*
X182258537Y-111049500D01*
X182258533Y-111049501D01*
X182037547Y-111078594D01*
X182037540Y-111078595D01*
X182037537Y-111078596D01*
X181822219Y-111136290D01*
X181822209Y-111136293D01*
X181616277Y-111221593D01*
X181616273Y-111221595D01*
X181423226Y-111333052D01*
X181423217Y-111333058D01*
X181246377Y-111468751D01*
X181246370Y-111468757D01*
X181088757Y-111626370D01*
X181088751Y-111626377D01*
X180953058Y-111803217D01*
X180953052Y-111803226D01*
X180841595Y-111996273D01*
X180841593Y-111996277D01*
X180756293Y-112202209D01*
X180756290Y-112202219D01*
X180698597Y-112417534D01*
X180698594Y-112417547D01*
X180669501Y-112638533D01*
X180669500Y-112638549D01*
X171352109Y-112638549D01*
X171443855Y-112546803D01*
X175380674Y-108609983D01*
X186644500Y-108609983D01*
X186644500Y-109810001D01*
X186644501Y-109810018D01*
X186655000Y-109912796D01*
X186655001Y-109912799D01*
X186701968Y-110054534D01*
X186710186Y-110079334D01*
X186802288Y-110228656D01*
X186926344Y-110352712D01*
X187075666Y-110444814D01*
X187157570Y-110471954D01*
X187215015Y-110511727D01*
X187241838Y-110576243D01*
X187229523Y-110645018D01*
X187191451Y-110689978D01*
X187097787Y-110758028D01*
X187097782Y-110758032D01*
X186953028Y-110902786D01*
X186832715Y-111068386D01*
X186739781Y-111250776D01*
X186676522Y-111445465D01*
X186644500Y-111647648D01*
X186644500Y-111852351D01*
X186676522Y-112054534D01*
X186739781Y-112249223D01*
X186803691Y-112374653D01*
X186825542Y-112417537D01*
X186832715Y-112431613D01*
X186953028Y-112597213D01*
X187097786Y-112741971D01*
X187252749Y-112854556D01*
X187263390Y-112862287D01*
X187354840Y-112908883D01*
X187356080Y-112909515D01*
X187406876Y-112957490D01*
X187423671Y-113025311D01*
X187401134Y-113091446D01*
X187356080Y-113130485D01*
X187263386Y-113177715D01*
X187097786Y-113298028D01*
X186953028Y-113442786D01*
X186832715Y-113608386D01*
X186739781Y-113790776D01*
X186676522Y-113985465D01*
X186644500Y-114187648D01*
X186644500Y-114392351D01*
X186676522Y-114594534D01*
X186739781Y-114789223D01*
X186803691Y-114914653D01*
X186832585Y-114971359D01*
X186832715Y-114971613D01*
X186953028Y-115137213D01*
X187097786Y-115281971D01*
X187218226Y-115369474D01*
X187263390Y-115402287D01*
X187357030Y-115449999D01*
X187445776Y-115495218D01*
X187445778Y-115495218D01*
X187445781Y-115495220D01*
X187509200Y-115515826D01*
X187640465Y-115558477D01*
X187711564Y-115569738D01*
X187842648Y-115590500D01*
X187842649Y-115590500D01*
X188047351Y-115590500D01*
X188047352Y-115590500D01*
X188249534Y-115558477D01*
X188444219Y-115495220D01*
X188626610Y-115402287D01*
X188719590Y-115334732D01*
X188792213Y-115281971D01*
X188792215Y-115281968D01*
X188792219Y-115281966D01*
X188936966Y-115137219D01*
X188936968Y-115137215D01*
X188936971Y-115137213D01*
X189023730Y-115017797D01*
X189057287Y-114971610D01*
X189150220Y-114789219D01*
X189213477Y-114594534D01*
X189245500Y-114392352D01*
X189245500Y-114187648D01*
X189226611Y-114068390D01*
X189213477Y-113985465D01*
X189168256Y-113846290D01*
X189150220Y-113790781D01*
X189150218Y-113790778D01*
X189150218Y-113790776D01*
X189102320Y-113696773D01*
X189057287Y-113608390D01*
X189025092Y-113564077D01*
X188936971Y-113442786D01*
X188792213Y-113298028D01*
X188626614Y-113177715D01*
X188620006Y-113174348D01*
X188533917Y-113130483D01*
X188483123Y-113082511D01*
X188466328Y-113014690D01*
X188488865Y-112948555D01*
X188533917Y-112909516D01*
X188626610Y-112862287D01*
X188707231Y-112803713D01*
X188792213Y-112741971D01*
X188792215Y-112741968D01*
X188792219Y-112741966D01*
X188936966Y-112597219D01*
X188936968Y-112597215D01*
X188936971Y-112597213D01*
X188989732Y-112524590D01*
X189057287Y-112431610D01*
X189150220Y-112249219D01*
X189213477Y-112054534D01*
X189245500Y-111852352D01*
X189245500Y-111647648D01*
X189232973Y-111568556D01*
X189213477Y-111445465D01*
X189150218Y-111250776D01*
X189091885Y-111136293D01*
X189057287Y-111068390D01*
X189044289Y-111050500D01*
X188936971Y-110902786D01*
X188792219Y-110758034D01*
X188770103Y-110741966D01*
X188698547Y-110689978D01*
X188655882Y-110634649D01*
X188649903Y-110565036D01*
X188682508Y-110503240D01*
X188732426Y-110471955D01*
X188814334Y-110444814D01*
X188963656Y-110352712D01*
X189087712Y-110228656D01*
X189179814Y-110079334D01*
X189234999Y-109912797D01*
X189245500Y-109810009D01*
X189245499Y-109107648D01*
X194264500Y-109107648D01*
X194264500Y-109312351D01*
X194296522Y-109514534D01*
X194359781Y-109709223D01*
X194452715Y-109891613D01*
X194573028Y-110057213D01*
X194717786Y-110201971D01*
X194872749Y-110314556D01*
X194883390Y-110322287D01*
X194974840Y-110368883D01*
X194976080Y-110369515D01*
X195026876Y-110417490D01*
X195043671Y-110485311D01*
X195021134Y-110551446D01*
X194976080Y-110590485D01*
X194883386Y-110637715D01*
X194717786Y-110758028D01*
X194573028Y-110902786D01*
X194452715Y-111068386D01*
X194359781Y-111250776D01*
X194296522Y-111445465D01*
X194264500Y-111647648D01*
X194264500Y-111852351D01*
X194296522Y-112054534D01*
X194359781Y-112249223D01*
X194423691Y-112374653D01*
X194445542Y-112417537D01*
X194452715Y-112431613D01*
X194573028Y-112597213D01*
X194717786Y-112741971D01*
X194883385Y-112862284D01*
X194883387Y-112862285D01*
X194883390Y-112862287D01*
X194976080Y-112909515D01*
X194976630Y-112909795D01*
X195027426Y-112957770D01*
X195044221Y-113025591D01*
X195021684Y-113091725D01*
X194976630Y-113130765D01*
X194883644Y-113178143D01*
X194839077Y-113210523D01*
X194839077Y-113210524D01*
X195518554Y-113890000D01*
X195512339Y-113890000D01*
X195410606Y-113917259D01*
X195319394Y-113969920D01*
X195244920Y-114044394D01*
X195192259Y-114135606D01*
X195165000Y-114237339D01*
X195165000Y-114243553D01*
X194485524Y-113564077D01*
X194485523Y-113564077D01*
X194453143Y-113608644D01*
X194360244Y-113790968D01*
X194297009Y-113985582D01*
X194265000Y-114187682D01*
X194265000Y-114392317D01*
X194297009Y-114594417D01*
X194360244Y-114789031D01*
X194453141Y-114971350D01*
X194453147Y-114971359D01*
X194485523Y-115015921D01*
X194485524Y-115015922D01*
X195165000Y-114336446D01*
X195165000Y-114342661D01*
X195192259Y-114444394D01*
X195244920Y-114535606D01*
X195319394Y-114610080D01*
X195410606Y-114662741D01*
X195512339Y-114690000D01*
X195518553Y-114690000D01*
X194839076Y-115369474D01*
X194883650Y-115401859D01*
X195065968Y-115494755D01*
X195260582Y-115557990D01*
X195462683Y-115590000D01*
X195667317Y-115590000D01*
X195869417Y-115557990D01*
X196064031Y-115494755D01*
X196246349Y-115401859D01*
X196290921Y-115369474D01*
X195611447Y-114690000D01*
X195617661Y-114690000D01*
X195719394Y-114662741D01*
X195810606Y-114610080D01*
X195885080Y-114535606D01*
X195937741Y-114444394D01*
X195965000Y-114342661D01*
X195965000Y-114336448D01*
X196644474Y-115015922D01*
X196644474Y-115015921D01*
X196676859Y-114971349D01*
X196769755Y-114789031D01*
X196832990Y-114594417D01*
X196865000Y-114392317D01*
X196865000Y-114187682D01*
X196832990Y-113985582D01*
X196769755Y-113790968D01*
X196676859Y-113608650D01*
X196644474Y-113564077D01*
X196644474Y-113564076D01*
X195965000Y-114243551D01*
X195965000Y-114237339D01*
X195937741Y-114135606D01*
X195885080Y-114044394D01*
X195810606Y-113969920D01*
X195719394Y-113917259D01*
X195617661Y-113890000D01*
X195611446Y-113890000D01*
X196290922Y-113210524D01*
X196290921Y-113210523D01*
X196246359Y-113178147D01*
X196246350Y-113178141D01*
X196153369Y-113130765D01*
X196102573Y-113082790D01*
X196085778Y-113014969D01*
X196108315Y-112948835D01*
X196153370Y-112909795D01*
X196153920Y-112909515D01*
X196246610Y-112862287D01*
X196327231Y-112803713D01*
X196412213Y-112741971D01*
X196412215Y-112741968D01*
X196412219Y-112741966D01*
X196556966Y-112597219D01*
X196556968Y-112597215D01*
X196556971Y-112597213D01*
X196609732Y-112524590D01*
X196677287Y-112431610D01*
X196770220Y-112249219D01*
X196833477Y-112054534D01*
X196865500Y-111852352D01*
X196865500Y-111647648D01*
X196852973Y-111568556D01*
X196833477Y-111445465D01*
X196770218Y-111250776D01*
X196711885Y-111136293D01*
X196677287Y-111068390D01*
X196664289Y-111050500D01*
X196556971Y-110902786D01*
X196412213Y-110758028D01*
X196246614Y-110637715D01*
X196240006Y-110634348D01*
X196153917Y-110590483D01*
X196103123Y-110542511D01*
X196086328Y-110474690D01*
X196108865Y-110408555D01*
X196153917Y-110369516D01*
X196246610Y-110322287D01*
X196347175Y-110249223D01*
X196412213Y-110201971D01*
X196412215Y-110201968D01*
X196412219Y-110201966D01*
X196556966Y-110057219D01*
X196556968Y-110057215D01*
X196556971Y-110057213D01*
X196661892Y-109912799D01*
X196677287Y-109891610D01*
X196770220Y-109709219D01*
X196833477Y-109514534D01*
X196865500Y-109312352D01*
X196865500Y-109107648D01*
X196849385Y-109005904D01*
X196833477Y-108905465D01*
X196770218Y-108710776D01*
X196718865Y-108609991D01*
X196677287Y-108528390D01*
X196656840Y-108500247D01*
X196556971Y-108362786D01*
X196412213Y-108218028D01*
X196246613Y-108097715D01*
X196246612Y-108097714D01*
X196246610Y-108097713D01*
X196186898Y-108067288D01*
X196064223Y-108004781D01*
X195869534Y-107941522D01*
X195694995Y-107913878D01*
X195667352Y-107909500D01*
X195462648Y-107909500D01*
X195438329Y-107913351D01*
X195260465Y-107941522D01*
X195065776Y-108004781D01*
X194883386Y-108097715D01*
X194717786Y-108218028D01*
X194573028Y-108362786D01*
X194452715Y-108528386D01*
X194359781Y-108710776D01*
X194296522Y-108905465D01*
X194264500Y-109107648D01*
X189245499Y-109107648D01*
X189245499Y-108609992D01*
X189234999Y-108507203D01*
X189179814Y-108340666D01*
X189087712Y-108191344D01*
X188963656Y-108067288D01*
X188814334Y-107975186D01*
X188647797Y-107920001D01*
X188647795Y-107920000D01*
X188545010Y-107909500D01*
X187344998Y-107909500D01*
X187344981Y-107909501D01*
X187242203Y-107920000D01*
X187242200Y-107920001D01*
X187075668Y-107975185D01*
X187075663Y-107975187D01*
X186926342Y-108067289D01*
X186802289Y-108191342D01*
X186710187Y-108340663D01*
X186710185Y-108340668D01*
X186700193Y-108370823D01*
X186655001Y-108507203D01*
X186655001Y-108507204D01*
X186655000Y-108507204D01*
X186644500Y-108609983D01*
X175380674Y-108609983D01*
X175471504Y-108519153D01*
X179352108Y-104638549D01*
X180669500Y-104638549D01*
X180669500Y-104861450D01*
X180669501Y-104861466D01*
X180698594Y-105082452D01*
X180698595Y-105082457D01*
X180698596Y-105082463D01*
X180754425Y-105290820D01*
X180756290Y-105297780D01*
X180756293Y-105297790D01*
X180841593Y-105503722D01*
X180841595Y-105503726D01*
X180953052Y-105696774D01*
X180953057Y-105696780D01*
X180953058Y-105696782D01*
X181088751Y-105873622D01*
X181088757Y-105873629D01*
X181246370Y-106031242D01*
X181246377Y-106031248D01*
X181363052Y-106120775D01*
X181423226Y-106166948D01*
X181616274Y-106278405D01*
X181822219Y-106363710D01*
X182037537Y-106421404D01*
X182258543Y-106450500D01*
X182258550Y-106450500D01*
X182481450Y-106450500D01*
X182481457Y-106450500D01*
X182702463Y-106421404D01*
X182917781Y-106363710D01*
X183123726Y-106278405D01*
X183316774Y-106166948D01*
X183493624Y-106031247D01*
X183651247Y-105873624D01*
X183786948Y-105696774D01*
X183898405Y-105503726D01*
X183983710Y-105297781D01*
X184041404Y-105082463D01*
X184070500Y-104861457D01*
X184070500Y-104638543D01*
X184041404Y-104417537D01*
X183983710Y-104202219D01*
X183898405Y-103996274D01*
X183786948Y-103803226D01*
X183651247Y-103626376D01*
X183651242Y-103626370D01*
X183493629Y-103468757D01*
X183493622Y-103468751D01*
X183316782Y-103333058D01*
X183316780Y-103333057D01*
X183316774Y-103333052D01*
X183123726Y-103221595D01*
X183123722Y-103221593D01*
X182917790Y-103136293D01*
X182917783Y-103136291D01*
X182917781Y-103136290D01*
X182702463Y-103078596D01*
X182702457Y-103078595D01*
X182702452Y-103078594D01*
X182481466Y-103049501D01*
X182481463Y-103049500D01*
X182481457Y-103049500D01*
X182258543Y-103049500D01*
X182258537Y-103049500D01*
X182258533Y-103049501D01*
X182037547Y-103078594D01*
X182037540Y-103078595D01*
X182037537Y-103078596D01*
X181822219Y-103136290D01*
X181822209Y-103136293D01*
X181616277Y-103221593D01*
X181616273Y-103221595D01*
X181423226Y-103333052D01*
X181423217Y-103333058D01*
X181246377Y-103468751D01*
X181246370Y-103468757D01*
X181088757Y-103626370D01*
X181088751Y-103626377D01*
X180953058Y-103803217D01*
X180953052Y-103803226D01*
X180841595Y-103996273D01*
X180841593Y-103996277D01*
X180756293Y-104202209D01*
X180756290Y-104202219D01*
X180700559Y-104410213D01*
X180698597Y-104417534D01*
X180698594Y-104417547D01*
X180669501Y-104638533D01*
X180669500Y-104638549D01*
X179352108Y-104638549D01*
X183003838Y-100986819D01*
X183065161Y-100953334D01*
X183091519Y-100950500D01*
X186318996Y-100950500D01*
X186410040Y-100932389D01*
X186454328Y-100923580D01*
X186518069Y-100897177D01*
X186581807Y-100870777D01*
X186581808Y-100870776D01*
X186581811Y-100870775D01*
X186696543Y-100794114D01*
X193944586Y-93546069D01*
X193984810Y-93519192D01*
X194049280Y-93492489D01*
X194129173Y-93459397D01*
X194129176Y-93459395D01*
X194129179Y-93459394D01*
X194260289Y-93371789D01*
X194371789Y-93260289D01*
X194459394Y-93129179D01*
X194519737Y-92983497D01*
X194550500Y-92828842D01*
X194550500Y-92671158D01*
X194550500Y-92671155D01*
X194550499Y-92671153D01*
X194546607Y-92651585D01*
X194519737Y-92516503D01*
X194497238Y-92462184D01*
X194459397Y-92370827D01*
X194459390Y-92370814D01*
X194371789Y-92239711D01*
X194371786Y-92239707D01*
X194260292Y-92128213D01*
X194260288Y-92128210D01*
X194129185Y-92040609D01*
X194129172Y-92040602D01*
X193983501Y-91980264D01*
X193983489Y-91980261D01*
X193828845Y-91949500D01*
X193828842Y-91949500D01*
X193671158Y-91949500D01*
X193671155Y-91949500D01*
X193516510Y-91980261D01*
X193516498Y-91980264D01*
X193370827Y-92040602D01*
X193370814Y-92040609D01*
X193239711Y-92128210D01*
X193239707Y-92128213D01*
X193128213Y-92239707D01*
X193128210Y-92239711D01*
X193040609Y-92370814D01*
X193040604Y-92370823D01*
X192980809Y-92515184D01*
X192953929Y-92555412D01*
X186751563Y-98757779D01*
X186690240Y-98791264D01*
X186620548Y-98786280D01*
X186564615Y-98744408D01*
X186540198Y-98678944D01*
X186545950Y-98631783D01*
X186567246Y-98566243D01*
X186600500Y-98356287D01*
X186600500Y-98143713D01*
X186567246Y-97933757D01*
X186501557Y-97731588D01*
X186405051Y-97542184D01*
X186405049Y-97542181D01*
X186405048Y-97542179D01*
X186280109Y-97370213D01*
X186129786Y-97219890D01*
X185957820Y-97094951D01*
X185957115Y-97094591D01*
X185949054Y-97090485D01*
X185898259Y-97042512D01*
X185881463Y-96974692D01*
X185903999Y-96908556D01*
X185949054Y-96869515D01*
X185957816Y-96865051D01*
X185979789Y-96849086D01*
X186129786Y-96740109D01*
X186129788Y-96740106D01*
X186129792Y-96740104D01*
X186280104Y-96589792D01*
X186280106Y-96589788D01*
X186280109Y-96589786D01*
X186405048Y-96417820D01*
X186405047Y-96417820D01*
X186405051Y-96417816D01*
X186501557Y-96228412D01*
X186567246Y-96026243D01*
X186600500Y-95816287D01*
X186600500Y-95603713D01*
X186575715Y-95447227D01*
X186584670Y-95377933D01*
X186610504Y-95340151D01*
X192789553Y-89161103D01*
X192850874Y-89127620D01*
X192920566Y-89132604D01*
X192976499Y-89174476D01*
X192991793Y-89201334D01*
X193040602Y-89319172D01*
X193040609Y-89319185D01*
X193128210Y-89450288D01*
X193128213Y-89450292D01*
X193239707Y-89561786D01*
X193239711Y-89561789D01*
X193370814Y-89649390D01*
X193370827Y-89649397D01*
X193515185Y-89709191D01*
X193555414Y-89736071D01*
X199688181Y-95868838D01*
X199721666Y-95930161D01*
X199724500Y-95956519D01*
X199724500Y-108387453D01*
X199704815Y-108454492D01*
X199652011Y-108500247D01*
X199582853Y-108510191D01*
X199519297Y-108481166D01*
X199485939Y-108434906D01*
X199459395Y-108370823D01*
X199459390Y-108370814D01*
X199371789Y-108239711D01*
X199371786Y-108239707D01*
X199260292Y-108128213D01*
X199260288Y-108128210D01*
X199129185Y-108040609D01*
X199129172Y-108040602D01*
X198984814Y-107980808D01*
X198944585Y-107953928D01*
X196446546Y-105455888D01*
X196446545Y-105455887D01*
X196331807Y-105379222D01*
X196204332Y-105326421D01*
X196204322Y-105326418D01*
X196068996Y-105299500D01*
X196068994Y-105299500D01*
X196068993Y-105299500D01*
X195925316Y-105299500D01*
X195877864Y-105290061D01*
X195733501Y-105230264D01*
X195733489Y-105230261D01*
X195578845Y-105199500D01*
X195578842Y-105199500D01*
X195421158Y-105199500D01*
X195421155Y-105199500D01*
X195266510Y-105230261D01*
X195266498Y-105230264D01*
X195120827Y-105290602D01*
X195120814Y-105290609D01*
X194989711Y-105378210D01*
X194989707Y-105378213D01*
X194878213Y-105489707D01*
X194878210Y-105489711D01*
X194790609Y-105620814D01*
X194790602Y-105620827D01*
X194730264Y-105766498D01*
X194730261Y-105766510D01*
X194699500Y-105921153D01*
X194699500Y-106078846D01*
X194730261Y-106233489D01*
X194730264Y-106233501D01*
X194790602Y-106379172D01*
X194790609Y-106379185D01*
X194878210Y-106510288D01*
X194878213Y-106510292D01*
X194989707Y-106621786D01*
X194989711Y-106621789D01*
X195120814Y-106709390D01*
X195120827Y-106709397D01*
X195266498Y-106769735D01*
X195266503Y-106769737D01*
X195369161Y-106790157D01*
X195421153Y-106800499D01*
X195421156Y-106800500D01*
X195421158Y-106800500D01*
X195578844Y-106800500D01*
X195706511Y-106775105D01*
X195776103Y-106781332D01*
X195818384Y-106809041D01*
X197953928Y-108944585D01*
X197980808Y-108984814D01*
X198040602Y-109129172D01*
X198040609Y-109129185D01*
X198128210Y-109260288D01*
X198128213Y-109260292D01*
X198239707Y-109371786D01*
X198239711Y-109371789D01*
X198370814Y-109459390D01*
X198370827Y-109459397D01*
X198516498Y-109519735D01*
X198516503Y-109519737D01*
X198671153Y-109550499D01*
X198671156Y-109550500D01*
X198671158Y-109550500D01*
X198828844Y-109550500D01*
X198828845Y-109550499D01*
X198983497Y-109519737D01*
X199129179Y-109459394D01*
X199260289Y-109371789D01*
X199371789Y-109260289D01*
X199459394Y-109129179D01*
X199466554Y-109111894D01*
X199485939Y-109065094D01*
X199529779Y-109010690D01*
X199596073Y-108988625D01*
X199663773Y-109005904D01*
X199711384Y-109057041D01*
X199724500Y-109112546D01*
X199724500Y-117824684D01*
X199715061Y-117872136D01*
X199655264Y-118016498D01*
X199655261Y-118016510D01*
X199624500Y-118171153D01*
X199624500Y-118328846D01*
X199655261Y-118483489D01*
X199655264Y-118483501D01*
X199715602Y-118629172D01*
X199715609Y-118629185D01*
X199803210Y-118760288D01*
X199803213Y-118760292D01*
X199914707Y-118871786D01*
X199914711Y-118871789D01*
X200045814Y-118959390D01*
X200045827Y-118959397D01*
X200166680Y-119009455D01*
X200191503Y-119019737D01*
X200346153Y-119050499D01*
X200346156Y-119050500D01*
X200346158Y-119050500D01*
X200503844Y-119050500D01*
X200503845Y-119050499D01*
X200658497Y-119019737D01*
X200804179Y-118959394D01*
X200935289Y-118871789D01*
X201046789Y-118760289D01*
X201134394Y-118629179D01*
X201194737Y-118483497D01*
X201225500Y-118328842D01*
X201225500Y-118171158D01*
X201225500Y-118171155D01*
X201225499Y-118171153D01*
X201223281Y-118160001D01*
X201194737Y-118016503D01*
X201167398Y-117950500D01*
X201134939Y-117872136D01*
X201125500Y-117824684D01*
X201125500Y-115715162D01*
X201145185Y-115648123D01*
X201197989Y-115602368D01*
X201267147Y-115592424D01*
X201273692Y-115593545D01*
X201308655Y-115600500D01*
X201308658Y-115600500D01*
X201466344Y-115600500D01*
X201466345Y-115600499D01*
X201620997Y-115569737D01*
X201766679Y-115509394D01*
X201897789Y-115421789D01*
X202009289Y-115310289D01*
X202096894Y-115179179D01*
X202096895Y-115179176D01*
X202096897Y-115179173D01*
X202156692Y-115034812D01*
X202183569Y-114994586D01*
X210941338Y-106236819D01*
X211002661Y-106203334D01*
X211029019Y-106200500D01*
X212588996Y-106200500D01*
X212680040Y-106182389D01*
X212724328Y-106173580D01*
X212788069Y-106147177D01*
X212851807Y-106120777D01*
X212851808Y-106120776D01*
X212851811Y-106120775D01*
X212966543Y-106044114D01*
X216214584Y-102796070D01*
X216254810Y-102769193D01*
X216299940Y-102750500D01*
X216339269Y-102734208D01*
X216399172Y-102709397D01*
X216399172Y-102709396D01*
X216399179Y-102709394D01*
X216530289Y-102621789D01*
X216641789Y-102510289D01*
X216729394Y-102379179D01*
X216729395Y-102379176D01*
X216729397Y-102379173D01*
X216789192Y-102234812D01*
X216816069Y-102194586D01*
X219023838Y-99986819D01*
X219085161Y-99953334D01*
X219111519Y-99950500D01*
X220778582Y-99950500D01*
X220845621Y-99970185D01*
X220891376Y-100022989D01*
X220901320Y-100092147D01*
X220901070Y-100093796D01*
X220899500Y-100103713D01*
X220899500Y-100316287D01*
X220932754Y-100526243D01*
X220998443Y-100728412D01*
X221094949Y-100917816D01*
X221105625Y-100932511D01*
X221112400Y-100941836D01*
X221135877Y-101007643D01*
X221120050Y-101075696D01*
X221099760Y-101102399D01*
X209455887Y-112746272D01*
X209379222Y-112861010D01*
X209326421Y-112988485D01*
X209326418Y-112988497D01*
X209307267Y-113084778D01*
X209307267Y-113084780D01*
X209303383Y-113104302D01*
X209299500Y-113123824D01*
X209299500Y-122276452D01*
X209279815Y-122343491D01*
X209248385Y-122376770D01*
X209120213Y-122469890D01*
X208969890Y-122620213D01*
X208844949Y-122792182D01*
X208840484Y-122800946D01*
X208792509Y-122851742D01*
X208724688Y-122868536D01*
X208658553Y-122845998D01*
X208619516Y-122800946D01*
X208615050Y-122792182D01*
X208490109Y-122620213D01*
X208339786Y-122469890D01*
X208167820Y-122344951D01*
X207978414Y-122248444D01*
X207978413Y-122248443D01*
X207978412Y-122248443D01*
X207776243Y-122182754D01*
X207776241Y-122182753D01*
X207776240Y-122182753D01*
X207614957Y-122157208D01*
X207566287Y-122149500D01*
X207353713Y-122149500D01*
X207305042Y-122157208D01*
X207143760Y-122182753D01*
X207143757Y-122182754D01*
X206967244Y-122240107D01*
X206941585Y-122248444D01*
X206752179Y-122344951D01*
X206580213Y-122469890D01*
X206429890Y-122620213D01*
X206304949Y-122792182D01*
X206300484Y-122800946D01*
X206252509Y-122851742D01*
X206184688Y-122868536D01*
X206118553Y-122845998D01*
X206079516Y-122800946D01*
X206075050Y-122792182D01*
X205950109Y-122620213D01*
X205799786Y-122469890D01*
X205627820Y-122344951D01*
X205438414Y-122248444D01*
X205438413Y-122248443D01*
X205438412Y-122248443D01*
X205236243Y-122182754D01*
X205236241Y-122182753D01*
X205236240Y-122182753D01*
X205074957Y-122157208D01*
X205026287Y-122149500D01*
X204813713Y-122149500D01*
X204765042Y-122157208D01*
X204603760Y-122182753D01*
X204603757Y-122182754D01*
X204427244Y-122240107D01*
X204401585Y-122248444D01*
X204212179Y-122344951D01*
X204040213Y-122469890D01*
X203889890Y-122620213D01*
X203764949Y-122792182D01*
X203760484Y-122800946D01*
X203712509Y-122851742D01*
X203644688Y-122868536D01*
X203578553Y-122845998D01*
X203539516Y-122800946D01*
X203535050Y-122792182D01*
X203410109Y-122620213D01*
X203259786Y-122469890D01*
X203087820Y-122344951D01*
X202898414Y-122248444D01*
X202898413Y-122248443D01*
X202898412Y-122248443D01*
X202696243Y-122182754D01*
X202696241Y-122182753D01*
X202696240Y-122182753D01*
X202534957Y-122157208D01*
X202486287Y-122149500D01*
X202273713Y-122149500D01*
X202225042Y-122157208D01*
X202063760Y-122182753D01*
X202063757Y-122182754D01*
X201887244Y-122240107D01*
X201861585Y-122248444D01*
X201672179Y-122344951D01*
X201500215Y-122469889D01*
X201386285Y-122583819D01*
X201324962Y-122617303D01*
X201255270Y-122612319D01*
X201199337Y-122570447D01*
X201182422Y-122539470D01*
X201133354Y-122407913D01*
X201133350Y-122407906D01*
X201047190Y-122292812D01*
X201047187Y-122292809D01*
X200932093Y-122206649D01*
X200932086Y-122206645D01*
X200797379Y-122156403D01*
X200797372Y-122156401D01*
X200737844Y-122150000D01*
X200090000Y-122150000D01*
X200090000Y-123066988D01*
X200032993Y-123034075D01*
X199905826Y-123000000D01*
X199774174Y-123000000D01*
X199647007Y-123034075D01*
X199590000Y-123066988D01*
X199590000Y-122150000D01*
X198942155Y-122150000D01*
X198882627Y-122156401D01*
X198882620Y-122156403D01*
X198747913Y-122206645D01*
X198747906Y-122206649D01*
X198632812Y-122292809D01*
X198632809Y-122292812D01*
X198546649Y-122407906D01*
X198546645Y-122407913D01*
X198496403Y-122542620D01*
X198496401Y-122542627D01*
X198490000Y-122602155D01*
X198490000Y-123250000D01*
X199406988Y-123250000D01*
X199374075Y-123307007D01*
X199340000Y-123434174D01*
X199340000Y-123565826D01*
X199374075Y-123692993D01*
X199406988Y-123750000D01*
X198490000Y-123750000D01*
X198490000Y-124397844D01*
X198496401Y-124457372D01*
X198496403Y-124457379D01*
X198546645Y-124592086D01*
X198546649Y-124592093D01*
X198632809Y-124707187D01*
X198632812Y-124707190D01*
X198747906Y-124793350D01*
X198747913Y-124793354D01*
X198882620Y-124843596D01*
X198882627Y-124843598D01*
X198942155Y-124849999D01*
X198942172Y-124850000D01*
X199590000Y-124850000D01*
X199590000Y-123933012D01*
X199647007Y-123965925D01*
X199774174Y-124000000D01*
X199905826Y-124000000D01*
X200032993Y-123965925D01*
X200090000Y-123933012D01*
X200090000Y-124850000D01*
X200737828Y-124850000D01*
X200737844Y-124849999D01*
X200797372Y-124843598D01*
X200797379Y-124843596D01*
X200932086Y-124793354D01*
X200932093Y-124793350D01*
X201047187Y-124707190D01*
X201047190Y-124707187D01*
X201133350Y-124592093D01*
X201133354Y-124592086D01*
X201182422Y-124460529D01*
X201224293Y-124404595D01*
X201289757Y-124380178D01*
X201358030Y-124395030D01*
X201386285Y-124416181D01*
X201500213Y-124530109D01*
X201672179Y-124655048D01*
X201672181Y-124655049D01*
X201672184Y-124655051D01*
X201861588Y-124751557D01*
X202063757Y-124817246D01*
X202273713Y-124850500D01*
X202273714Y-124850500D01*
X202486286Y-124850500D01*
X202486287Y-124850500D01*
X202696243Y-124817246D01*
X202898412Y-124751557D01*
X203087816Y-124655051D01*
X203174471Y-124592093D01*
X203259786Y-124530109D01*
X203259788Y-124530106D01*
X203259792Y-124530104D01*
X203410104Y-124379792D01*
X203410106Y-124379788D01*
X203410109Y-124379786D01*
X203535048Y-124207820D01*
X203535047Y-124207820D01*
X203535051Y-124207816D01*
X203539514Y-124199054D01*
X203587488Y-124148259D01*
X203655308Y-124131463D01*
X203721444Y-124153999D01*
X203760486Y-124199056D01*
X203764951Y-124207820D01*
X203889890Y-124379786D01*
X204040213Y-124530109D01*
X204212179Y-124655048D01*
X204212181Y-124655049D01*
X204212184Y-124655051D01*
X204401588Y-124751557D01*
X204603757Y-124817246D01*
X204813713Y-124850500D01*
X204813714Y-124850500D01*
X205026286Y-124850500D01*
X205026287Y-124850500D01*
X205236243Y-124817246D01*
X205438412Y-124751557D01*
X205627816Y-124655051D01*
X205714471Y-124592093D01*
X205799786Y-124530109D01*
X205799788Y-124530106D01*
X205799792Y-124530104D01*
X205950104Y-124379792D01*
X205950106Y-124379788D01*
X205950109Y-124379786D01*
X206075048Y-124207820D01*
X206075047Y-124207820D01*
X206075051Y-124207816D01*
X206079514Y-124199054D01*
X206127488Y-124148259D01*
X206195308Y-124131463D01*
X206261444Y-124153999D01*
X206300486Y-124199056D01*
X206304951Y-124207820D01*
X206429890Y-124379786D01*
X206580213Y-124530109D01*
X206752179Y-124655048D01*
X206752181Y-124655049D01*
X206752184Y-124655051D01*
X206941588Y-124751557D01*
X207143757Y-124817246D01*
X207353713Y-124850500D01*
X207353714Y-124850500D01*
X207566286Y-124850500D01*
X207566287Y-124850500D01*
X207776243Y-124817246D01*
X207978412Y-124751557D01*
X208167816Y-124655051D01*
X208254471Y-124592093D01*
X208339786Y-124530109D01*
X208339788Y-124530106D01*
X208339792Y-124530104D01*
X208490104Y-124379792D01*
X208490106Y-124379788D01*
X208490109Y-124379786D01*
X208615048Y-124207820D01*
X208615047Y-124207820D01*
X208615051Y-124207816D01*
X208619514Y-124199054D01*
X208667488Y-124148259D01*
X208735308Y-124131463D01*
X208801444Y-124153999D01*
X208840486Y-124199056D01*
X208844951Y-124207820D01*
X208969890Y-124379786D01*
X209120213Y-124530109D01*
X209292179Y-124655048D01*
X209292181Y-124655049D01*
X209292184Y-124655051D01*
X209481588Y-124751557D01*
X209683757Y-124817246D01*
X209893713Y-124850500D01*
X209893714Y-124850500D01*
X210106286Y-124850500D01*
X210106287Y-124850500D01*
X210316243Y-124817246D01*
X210518412Y-124751557D01*
X210707816Y-124655051D01*
X210794471Y-124592093D01*
X210879786Y-124530109D01*
X210879788Y-124530106D01*
X210879792Y-124530104D01*
X211030104Y-124379792D01*
X211030106Y-124379788D01*
X211030109Y-124379786D01*
X211155048Y-124207820D01*
X211155047Y-124207820D01*
X211155051Y-124207816D01*
X211251557Y-124018412D01*
X211317246Y-123816243D01*
X211350500Y-123606287D01*
X211350500Y-123393713D01*
X211344202Y-123353952D01*
X215399500Y-123353952D01*
X215399500Y-123646047D01*
X215432199Y-123936271D01*
X215432202Y-123936285D01*
X215497196Y-124221044D01*
X215497197Y-124221046D01*
X215593665Y-124496738D01*
X215720393Y-124759890D01*
X215720395Y-124759893D01*
X215875792Y-125007206D01*
X216057902Y-125235565D01*
X216264435Y-125442098D01*
X216492794Y-125624208D01*
X216722526Y-125768558D01*
X216740109Y-125779606D01*
X216786752Y-125802068D01*
X217003263Y-125906335D01*
X217278955Y-126002803D01*
X217563714Y-126067798D01*
X217563723Y-126067799D01*
X217563728Y-126067800D01*
X217757210Y-126089599D01*
X217853953Y-126100499D01*
X217853956Y-126100500D01*
X217853959Y-126100500D01*
X218146044Y-126100500D01*
X218146045Y-126100499D01*
X218294371Y-126083787D01*
X218436271Y-126067800D01*
X218436274Y-126067799D01*
X218436286Y-126067798D01*
X218721045Y-126002803D01*
X218996737Y-125906335D01*
X219259893Y-125779605D01*
X219507206Y-125624208D01*
X219735565Y-125442098D01*
X219942098Y-125235565D01*
X220124208Y-125007206D01*
X220279605Y-124759893D01*
X220406335Y-124496737D01*
X220502803Y-124221045D01*
X220567798Y-123936286D01*
X220570631Y-123911148D01*
X220600499Y-123646047D01*
X220600500Y-123646043D01*
X220600500Y-123353956D01*
X220600499Y-123353952D01*
X220595241Y-123307288D01*
X220574884Y-123126604D01*
X220567800Y-123063728D01*
X220567799Y-123063723D01*
X220567798Y-123063714D01*
X220502803Y-122778955D01*
X220406335Y-122503263D01*
X220279605Y-122240107D01*
X220124208Y-121992794D01*
X219942098Y-121764435D01*
X219735565Y-121557902D01*
X219507206Y-121375792D01*
X219259893Y-121220395D01*
X219259890Y-121220393D01*
X218996738Y-121093665D01*
X218721046Y-120997197D01*
X218721044Y-120997196D01*
X218501280Y-120947036D01*
X218436286Y-120932202D01*
X218436283Y-120932201D01*
X218436271Y-120932199D01*
X218146047Y-120899500D01*
X218146041Y-120899500D01*
X217853959Y-120899500D01*
X217853952Y-120899500D01*
X217563728Y-120932199D01*
X217563714Y-120932202D01*
X217278955Y-120997196D01*
X217278953Y-120997197D01*
X217003261Y-121093665D01*
X216740109Y-121220393D01*
X216492795Y-121375791D01*
X216264435Y-121557901D01*
X216057901Y-121764435D01*
X215875791Y-121992795D01*
X215720393Y-122240109D01*
X215593665Y-122503261D01*
X215497197Y-122778953D01*
X215497196Y-122778955D01*
X215432202Y-123063714D01*
X215432199Y-123063728D01*
X215399500Y-123353952D01*
X211344202Y-123353952D01*
X211317246Y-123183757D01*
X211251557Y-122981588D01*
X211155051Y-122792184D01*
X211155049Y-122792181D01*
X211155048Y-122792179D01*
X211030109Y-122620213D01*
X210879786Y-122469890D01*
X210751615Y-122376770D01*
X210708949Y-122321441D01*
X210700500Y-122276452D01*
X210700500Y-113534336D01*
X210720185Y-113467297D01*
X210736814Y-113446660D01*
X220849617Y-103333856D01*
X220910938Y-103300373D01*
X220980630Y-103305357D01*
X221036563Y-103347229D01*
X221047781Y-103365244D01*
X221094951Y-103457819D01*
X221219890Y-103629786D01*
X221370213Y-103780109D01*
X221542182Y-103905050D01*
X221550946Y-103909516D01*
X221601742Y-103957491D01*
X221618536Y-104025312D01*
X221595998Y-104091447D01*
X221550946Y-104130484D01*
X221542182Y-104134949D01*
X221370213Y-104259890D01*
X221219890Y-104410213D01*
X221094951Y-104582179D01*
X220998444Y-104771585D01*
X220932753Y-104973760D01*
X220910407Y-105114847D01*
X220899500Y-105183713D01*
X220899500Y-105396287D01*
X220932754Y-105606243D01*
X220984824Y-105766498D01*
X220998444Y-105808414D01*
X221094951Y-105997820D01*
X221219890Y-106169786D01*
X221370213Y-106320109D01*
X221542182Y-106445050D01*
X221550946Y-106449516D01*
X221601742Y-106497491D01*
X221618536Y-106565312D01*
X221595998Y-106631447D01*
X221550946Y-106670484D01*
X221542182Y-106674949D01*
X221370213Y-106799890D01*
X221219890Y-106950213D01*
X221094951Y-107122179D01*
X220998444Y-107311585D01*
X220932753Y-107513760D01*
X220903734Y-107696980D01*
X220899500Y-107723713D01*
X220899500Y-107936287D01*
X220909012Y-107996343D01*
X220928727Y-108120821D01*
X220932754Y-108146243D01*
X220995926Y-108340666D01*
X220998444Y-108348414D01*
X221094951Y-108537820D01*
X221219890Y-108709786D01*
X221370213Y-108860109D01*
X221542182Y-108985050D01*
X221550946Y-108989516D01*
X221601742Y-109037491D01*
X221618536Y-109105312D01*
X221595998Y-109171447D01*
X221550946Y-109210484D01*
X221542182Y-109214949D01*
X221370213Y-109339890D01*
X221219890Y-109490213D01*
X221094951Y-109662179D01*
X220998444Y-109851585D01*
X220932753Y-110053760D01*
X220899500Y-110263713D01*
X220899500Y-110476286D01*
X220926224Y-110645018D01*
X220932754Y-110686243D01*
X220989954Y-110862287D01*
X220998444Y-110888414D01*
X221094951Y-111077820D01*
X221219890Y-111249786D01*
X221370213Y-111400109D01*
X221542182Y-111525050D01*
X221550946Y-111529516D01*
X221601742Y-111577491D01*
X221618536Y-111645312D01*
X221595998Y-111711447D01*
X221550946Y-111750484D01*
X221542182Y-111754949D01*
X221370213Y-111879890D01*
X221219890Y-112030213D01*
X221094951Y-112202179D01*
X220998444Y-112391585D01*
X220932753Y-112593760D01*
X220899500Y-112803713D01*
X220899500Y-113016286D01*
X220925135Y-113178143D01*
X220932754Y-113226243D01*
X220956080Y-113298034D01*
X220998444Y-113428414D01*
X221094951Y-113617820D01*
X221219890Y-113789786D01*
X221370213Y-113940109D01*
X221542179Y-114065048D01*
X221542181Y-114065049D01*
X221542184Y-114065051D01*
X221551493Y-114069794D01*
X221602290Y-114117766D01*
X221619087Y-114185587D01*
X221596552Y-114251722D01*
X221551505Y-114290760D01*
X221542446Y-114295376D01*
X221542440Y-114295380D01*
X221488282Y-114334727D01*
X221488282Y-114334728D01*
X222120591Y-114967037D01*
X222057007Y-114984075D01*
X221942993Y-115049901D01*
X221849901Y-115142993D01*
X221784075Y-115257007D01*
X221767037Y-115320591D01*
X221134728Y-114688282D01*
X221134727Y-114688282D01*
X221095380Y-114742439D01*
X220998904Y-114931782D01*
X220933242Y-115133869D01*
X220933242Y-115133872D01*
X220900000Y-115343753D01*
X220900000Y-115556246D01*
X220933242Y-115766127D01*
X220933242Y-115766130D01*
X220998904Y-115968217D01*
X221095375Y-116157550D01*
X221134728Y-116211716D01*
X221767037Y-115579408D01*
X221784075Y-115642993D01*
X221849901Y-115757007D01*
X221942993Y-115850099D01*
X222057007Y-115915925D01*
X222120590Y-115932962D01*
X221450370Y-116603181D01*
X221389047Y-116636666D01*
X221362698Y-116639500D01*
X221352134Y-116639500D01*
X221352123Y-116639501D01*
X221292516Y-116645908D01*
X221157671Y-116696202D01*
X221157664Y-116696206D01*
X221042455Y-116782452D01*
X221042452Y-116782455D01*
X220956206Y-116897664D01*
X220956202Y-116897671D01*
X220905908Y-117032517D01*
X220899501Y-117092116D01*
X220899501Y-117092123D01*
X220899500Y-117092135D01*
X220899500Y-118887870D01*
X220899501Y-118887876D01*
X220905908Y-118947483D01*
X220956202Y-119082328D01*
X220956206Y-119082335D01*
X221042452Y-119197544D01*
X221042455Y-119197547D01*
X221157664Y-119283793D01*
X221157671Y-119283797D01*
X221292517Y-119334091D01*
X221292516Y-119334091D01*
X221299444Y-119334835D01*
X221352127Y-119340500D01*
X223147872Y-119340499D01*
X223207483Y-119334091D01*
X223342331Y-119283796D01*
X223457546Y-119197546D01*
X223543796Y-119082331D01*
X223594091Y-118947483D01*
X223600500Y-118887873D01*
X223600499Y-117092128D01*
X223594091Y-117032517D01*
X223543796Y-116897669D01*
X223543795Y-116897668D01*
X223543793Y-116897664D01*
X223457547Y-116782455D01*
X223457544Y-116782452D01*
X223342335Y-116696206D01*
X223342328Y-116696202D01*
X223207482Y-116645908D01*
X223207483Y-116645908D01*
X223147883Y-116639501D01*
X223147881Y-116639500D01*
X223147873Y-116639500D01*
X223147865Y-116639500D01*
X223137309Y-116639500D01*
X223070270Y-116619815D01*
X223049628Y-116603181D01*
X222379408Y-115932962D01*
X222442993Y-115915925D01*
X222557007Y-115850099D01*
X222650099Y-115757007D01*
X222715925Y-115642993D01*
X222732962Y-115579408D01*
X223365270Y-116211717D01*
X223365270Y-116211716D01*
X223404622Y-116157554D01*
X223501095Y-115968217D01*
X223566757Y-115766130D01*
X223566757Y-115766127D01*
X223600000Y-115556246D01*
X223600000Y-115343753D01*
X223566757Y-115133872D01*
X223566757Y-115133869D01*
X223501095Y-114931782D01*
X223404624Y-114742449D01*
X223365270Y-114688282D01*
X223365269Y-114688282D01*
X222732962Y-115320590D01*
X222715925Y-115257007D01*
X222650099Y-115142993D01*
X222557007Y-115049901D01*
X222442993Y-114984075D01*
X222379409Y-114967037D01*
X223011716Y-114334728D01*
X222957547Y-114295373D01*
X222957547Y-114295372D01*
X222948500Y-114290763D01*
X222897706Y-114242788D01*
X222880912Y-114174966D01*
X222903451Y-114108832D01*
X222948508Y-114069793D01*
X222957816Y-114065051D01*
X223037007Y-114007515D01*
X223129786Y-113940109D01*
X223129788Y-113940106D01*
X223129792Y-113940104D01*
X223280104Y-113789792D01*
X223280106Y-113789788D01*
X223280109Y-113789786D01*
X223405048Y-113617820D01*
X223405047Y-113617820D01*
X223405051Y-113617816D01*
X223501557Y-113428412D01*
X223567246Y-113226243D01*
X223600500Y-113016287D01*
X223600500Y-112803713D01*
X223567246Y-112593757D01*
X223501557Y-112391588D01*
X223405051Y-112202184D01*
X223405049Y-112202181D01*
X223405048Y-112202179D01*
X223280109Y-112030213D01*
X223129786Y-111879890D01*
X222957820Y-111754951D01*
X222957115Y-111754591D01*
X222949054Y-111750485D01*
X222898259Y-111702512D01*
X222881463Y-111634692D01*
X222903999Y-111568556D01*
X222949054Y-111529515D01*
X222957816Y-111525051D01*
X223035307Y-111468751D01*
X223129786Y-111400109D01*
X223129788Y-111400106D01*
X223129792Y-111400104D01*
X223280104Y-111249792D01*
X223280106Y-111249788D01*
X223280109Y-111249786D01*
X223389086Y-111099789D01*
X223405051Y-111077816D01*
X223501557Y-110888412D01*
X223567246Y-110686243D01*
X223600500Y-110476287D01*
X223600500Y-110263713D01*
X223567246Y-110053757D01*
X223501557Y-109851588D01*
X223405051Y-109662184D01*
X223405049Y-109662181D01*
X223405048Y-109662179D01*
X223280109Y-109490213D01*
X223129786Y-109339890D01*
X222957820Y-109214951D01*
X222954187Y-109213100D01*
X222949054Y-109210485D01*
X222898259Y-109162512D01*
X222881463Y-109094692D01*
X222903999Y-109028556D01*
X222949054Y-108989515D01*
X222957816Y-108985051D01*
X222998523Y-108955476D01*
X223129786Y-108860109D01*
X223129788Y-108860106D01*
X223129792Y-108860104D01*
X223280104Y-108709792D01*
X223280106Y-108709788D01*
X223280109Y-108709786D01*
X223405048Y-108537820D01*
X223405047Y-108537820D01*
X223405051Y-108537816D01*
X223501557Y-108348412D01*
X223567246Y-108146243D01*
X223600500Y-107936287D01*
X223600500Y-107723713D01*
X223567246Y-107513757D01*
X223501557Y-107311588D01*
X223405051Y-107122184D01*
X223405049Y-107122181D01*
X223405048Y-107122179D01*
X223280109Y-106950213D01*
X223129786Y-106799890D01*
X222957820Y-106674951D01*
X222957115Y-106674591D01*
X222949054Y-106670485D01*
X222898259Y-106622512D01*
X222881463Y-106554692D01*
X222903999Y-106488556D01*
X222949054Y-106449515D01*
X222957816Y-106445051D01*
X222990366Y-106421402D01*
X223129786Y-106320109D01*
X223129788Y-106320106D01*
X223129792Y-106320104D01*
X223280104Y-106169792D01*
X223280106Y-106169788D01*
X223280109Y-106169786D01*
X223405048Y-105997820D01*
X223405047Y-105997820D01*
X223405051Y-105997816D01*
X223501557Y-105808412D01*
X223567246Y-105606243D01*
X223600500Y-105396287D01*
X223600500Y-105183713D01*
X223567246Y-104973757D01*
X223501557Y-104771588D01*
X223405051Y-104582184D01*
X223405049Y-104582181D01*
X223405048Y-104582179D01*
X223280109Y-104410213D01*
X223129786Y-104259890D01*
X222957820Y-104134951D01*
X222957115Y-104134591D01*
X222949054Y-104130485D01*
X222898259Y-104082512D01*
X222881463Y-104014692D01*
X222903999Y-103948556D01*
X222949054Y-103909515D01*
X222957816Y-103905051D01*
X222979789Y-103889086D01*
X223129786Y-103780109D01*
X223129788Y-103780106D01*
X223129792Y-103780104D01*
X223280104Y-103629792D01*
X223280106Y-103629788D01*
X223280109Y-103629786D01*
X223405048Y-103457820D01*
X223405049Y-103457819D01*
X223405051Y-103457816D01*
X223501557Y-103268412D01*
X223567246Y-103066243D01*
X223600500Y-102856287D01*
X223600500Y-102643713D01*
X223567246Y-102433757D01*
X223501557Y-102231588D01*
X223405051Y-102042184D01*
X223371609Y-101996155D01*
X223348130Y-101930351D01*
X223363955Y-101862297D01*
X223384243Y-101835594D01*
X224045114Y-101174725D01*
X224121775Y-101059993D01*
X224174580Y-100932511D01*
X224186860Y-100870775D01*
X224201500Y-100797175D01*
X224201500Y-98852007D01*
X224201500Y-98852004D01*
X224201499Y-98852002D01*
X224174581Y-98716677D01*
X224174578Y-98716666D01*
X224170114Y-98705890D01*
X224170111Y-98705883D01*
X224121778Y-98589196D01*
X224121777Y-98589195D01*
X224121775Y-98589189D01*
X224045114Y-98474457D01*
X224045112Y-98474454D01*
X224045111Y-98474453D01*
X223610507Y-98039850D01*
X223577022Y-97978527D01*
X223575715Y-97932771D01*
X223600500Y-97776286D01*
X223600500Y-97563713D01*
X223575715Y-97407227D01*
X223567246Y-97353757D01*
X223501557Y-97151588D01*
X223405051Y-96962184D01*
X223405049Y-96962181D01*
X223405048Y-96962179D01*
X223280109Y-96790213D01*
X223129786Y-96639890D01*
X222957820Y-96514951D01*
X222957115Y-96514591D01*
X222949054Y-96510485D01*
X222898259Y-96462512D01*
X222881463Y-96394692D01*
X222903999Y-96328556D01*
X222949054Y-96289515D01*
X222957816Y-96285051D01*
X222979789Y-96269086D01*
X223129786Y-96160109D01*
X223129788Y-96160106D01*
X223129792Y-96160104D01*
X223280104Y-96009792D01*
X223280106Y-96009788D01*
X223280109Y-96009786D01*
X223405048Y-95837820D01*
X223405047Y-95837820D01*
X223405051Y-95837816D01*
X223501557Y-95648412D01*
X223567246Y-95446243D01*
X223600500Y-95236287D01*
X223600500Y-95023713D01*
X223567246Y-94813757D01*
X223501557Y-94611588D01*
X223405051Y-94422184D01*
X223405049Y-94422181D01*
X223405048Y-94422179D01*
X223280109Y-94250213D01*
X223129786Y-94099890D01*
X222957820Y-93974951D01*
X222957115Y-93974591D01*
X222949054Y-93970485D01*
X222898259Y-93922512D01*
X222881463Y-93854692D01*
X222903999Y-93788556D01*
X222949054Y-93749515D01*
X222957816Y-93745051D01*
X223035771Y-93688414D01*
X223129786Y-93620109D01*
X223129788Y-93620106D01*
X223129792Y-93620104D01*
X223280104Y-93469792D01*
X223280106Y-93469788D01*
X223280109Y-93469786D01*
X223405048Y-93297820D01*
X223405047Y-93297820D01*
X223405051Y-93297816D01*
X223501557Y-93108412D01*
X223567246Y-92906243D01*
X223600500Y-92696287D01*
X223600500Y-92483713D01*
X223567246Y-92273757D01*
X223501557Y-92071588D01*
X223405051Y-91882184D01*
X223405049Y-91882181D01*
X223405048Y-91882179D01*
X223280109Y-91710213D01*
X223129786Y-91559890D01*
X222957820Y-91434951D01*
X222957115Y-91434591D01*
X222949054Y-91430485D01*
X222898259Y-91382512D01*
X222881463Y-91314692D01*
X222903999Y-91248556D01*
X222949054Y-91209515D01*
X222957816Y-91205051D01*
X223012090Y-91165619D01*
X223129786Y-91080109D01*
X223129788Y-91080106D01*
X223129792Y-91080104D01*
X223280104Y-90929792D01*
X223280106Y-90929788D01*
X223280109Y-90929786D01*
X223405048Y-90757820D01*
X223405047Y-90757820D01*
X223405051Y-90757816D01*
X223501557Y-90568412D01*
X223567246Y-90366243D01*
X223600500Y-90156287D01*
X223600500Y-89943713D01*
X223567246Y-89733757D01*
X223501557Y-89531588D01*
X223405051Y-89342184D01*
X223405049Y-89342181D01*
X223405048Y-89342179D01*
X223280109Y-89170213D01*
X223129786Y-89019890D01*
X222957820Y-88894951D01*
X222957115Y-88894591D01*
X222949054Y-88890485D01*
X222898259Y-88842512D01*
X222881463Y-88774692D01*
X222903999Y-88708556D01*
X222949054Y-88669515D01*
X222957816Y-88665051D01*
X223035771Y-88608414D01*
X223129786Y-88540109D01*
X223129788Y-88540106D01*
X223129792Y-88540104D01*
X223280104Y-88389792D01*
X223280106Y-88389788D01*
X223280109Y-88389786D01*
X223405048Y-88217820D01*
X223405047Y-88217820D01*
X223405051Y-88217816D01*
X223501557Y-88028412D01*
X223567246Y-87826243D01*
X223600500Y-87616287D01*
X223600500Y-87403713D01*
X223567246Y-87193757D01*
X223501557Y-86991588D01*
X223405051Y-86802184D01*
X223405049Y-86802181D01*
X223405048Y-86802179D01*
X223280109Y-86630213D01*
X223129786Y-86479890D01*
X222957820Y-86354951D01*
X222955076Y-86353553D01*
X222949054Y-86350485D01*
X222898259Y-86302512D01*
X222881463Y-86234692D01*
X222903999Y-86168556D01*
X222949054Y-86129515D01*
X222957816Y-86125051D01*
X223009062Y-86087819D01*
X223129786Y-86000109D01*
X223129788Y-86000106D01*
X223129792Y-86000104D01*
X223280104Y-85849792D01*
X223280106Y-85849788D01*
X223280109Y-85849786D01*
X223405048Y-85677820D01*
X223405047Y-85677820D01*
X223405051Y-85677816D01*
X223501557Y-85488412D01*
X223567246Y-85286243D01*
X223600500Y-85076287D01*
X223600500Y-84863713D01*
X223567246Y-84653757D01*
X223501557Y-84451588D01*
X223405051Y-84262184D01*
X223405049Y-84262181D01*
X223405048Y-84262179D01*
X223280109Y-84090213D01*
X223129786Y-83939890D01*
X222957820Y-83814951D01*
X222768414Y-83718444D01*
X222768413Y-83718443D01*
X222768412Y-83718443D01*
X222566243Y-83652754D01*
X222566241Y-83652753D01*
X222566240Y-83652753D01*
X222404957Y-83627208D01*
X222356287Y-83619500D01*
X222143713Y-83619500D01*
X222095042Y-83627208D01*
X221933760Y-83652753D01*
X221731585Y-83718444D01*
X221542179Y-83814951D01*
X221370213Y-83939890D01*
X221219890Y-84090213D01*
X221094951Y-84262179D01*
X220998444Y-84451585D01*
X220932753Y-84653760D01*
X220899500Y-84863713D01*
X220899500Y-85076286D01*
X220922347Y-85220540D01*
X220932754Y-85286243D01*
X220994384Y-85475921D01*
X220998444Y-85488414D01*
X221094951Y-85677820D01*
X221219890Y-85849786D01*
X221370213Y-86000109D01*
X221542182Y-86125050D01*
X221550946Y-86129516D01*
X221601742Y-86177491D01*
X221618536Y-86245312D01*
X221595998Y-86311447D01*
X221550946Y-86350484D01*
X221542182Y-86354949D01*
X221370213Y-86479890D01*
X221219890Y-86630213D01*
X221094951Y-86802179D01*
X220998444Y-86991585D01*
X220932753Y-87193760D01*
X220899500Y-87403713D01*
X220899500Y-87616287D01*
X220899499Y-87616287D01*
X220924284Y-87772771D01*
X220915329Y-87842064D01*
X220889492Y-87879849D01*
X217735887Y-91033454D01*
X217659222Y-91148192D01*
X217606421Y-91275667D01*
X217606418Y-91275677D01*
X217579500Y-91411004D01*
X217579500Y-93358480D01*
X217559815Y-93425519D01*
X217543181Y-93446161D01*
X212181159Y-98808182D01*
X212119836Y-98841667D01*
X212050144Y-98836683D01*
X211994211Y-98794811D01*
X211978917Y-98767953D01*
X211959397Y-98720827D01*
X211959390Y-98720814D01*
X211871789Y-98589711D01*
X211871786Y-98589707D01*
X211760292Y-98478213D01*
X211760288Y-98478210D01*
X211629185Y-98390609D01*
X211629172Y-98390602D01*
X211484814Y-98330808D01*
X211444585Y-98303928D01*
X210836819Y-97696162D01*
X210803334Y-97634839D01*
X210800500Y-97608481D01*
X210800500Y-90367519D01*
X210820185Y-90300480D01*
X210836819Y-90279838D01*
X213096112Y-88020545D01*
X213096114Y-88020543D01*
X213172775Y-87905811D01*
X213173734Y-87903497D01*
X213225578Y-87778332D01*
X213225580Y-87778328D01*
X213237827Y-87716757D01*
X213252500Y-87642996D01*
X213252500Y-85791698D01*
X213225581Y-85656371D01*
X213225580Y-85656370D01*
X213225580Y-85656366D01*
X213202233Y-85600000D01*
X213172777Y-85528887D01*
X213172776Y-85528886D01*
X213172775Y-85528883D01*
X213126819Y-85460106D01*
X213107605Y-85431349D01*
X213096116Y-85414153D01*
X213096114Y-85414151D01*
X211387852Y-83705888D01*
X211387851Y-83705887D01*
X211273113Y-83629222D01*
X211145638Y-83576421D01*
X211145628Y-83576418D01*
X211010302Y-83549500D01*
X211010300Y-83549500D01*
X211010299Y-83549500D01*
X190790189Y-83549500D01*
X190790185Y-83549500D01*
X190681772Y-83571065D01*
X190681771Y-83571065D01*
X190654863Y-83576418D01*
X190654853Y-83576420D01*
X190527372Y-83629224D01*
X190412636Y-83705887D01*
X186637557Y-87480966D01*
X186576234Y-87514451D01*
X186506542Y-87509467D01*
X186450609Y-87467595D01*
X186439391Y-87449580D01*
X186429273Y-87429723D01*
X186405051Y-87382184D01*
X186360718Y-87321164D01*
X186280109Y-87210213D01*
X186166181Y-87096285D01*
X186132696Y-87034962D01*
X186137680Y-86965270D01*
X186179552Y-86909337D01*
X186210529Y-86892422D01*
X186342086Y-86843354D01*
X186342093Y-86843350D01*
X186457187Y-86757190D01*
X186457190Y-86757187D01*
X186543350Y-86642093D01*
X186543354Y-86642086D01*
X186593596Y-86507379D01*
X186593598Y-86507372D01*
X186599999Y-86447844D01*
X186600000Y-86447827D01*
X186600000Y-85800000D01*
X185683012Y-85800000D01*
X185715925Y-85742993D01*
X185750000Y-85615826D01*
X185750000Y-85484174D01*
X185715925Y-85357007D01*
X185683012Y-85300000D01*
X186600000Y-85300000D01*
X186600000Y-84652172D01*
X186599999Y-84652155D01*
X186593598Y-84592627D01*
X186593596Y-84592620D01*
X186543354Y-84457913D01*
X186543350Y-84457906D01*
X186457190Y-84342812D01*
X186457187Y-84342809D01*
X186342093Y-84256649D01*
X186342086Y-84256645D01*
X186207379Y-84206403D01*
X186207372Y-84206401D01*
X186147844Y-84200000D01*
X185500000Y-84200000D01*
X185500000Y-85116988D01*
X185442993Y-85084075D01*
X185315826Y-85050000D01*
X185184174Y-85050000D01*
X185057007Y-85084075D01*
X185000000Y-85116988D01*
X185000000Y-84200000D01*
X184352155Y-84200000D01*
X184292627Y-84206401D01*
X184292620Y-84206403D01*
X184157913Y-84256645D01*
X184157906Y-84256649D01*
X184042812Y-84342809D01*
X184042809Y-84342812D01*
X183956649Y-84457906D01*
X183956645Y-84457913D01*
X183906403Y-84592620D01*
X183906401Y-84592627D01*
X183900000Y-84652155D01*
X183900000Y-85300000D01*
X184816988Y-85300000D01*
X184784075Y-85357007D01*
X184750000Y-85484174D01*
X184750000Y-85615826D01*
X184784075Y-85742993D01*
X184816988Y-85800000D01*
X183900000Y-85800000D01*
X183900000Y-86447844D01*
X183906401Y-86507372D01*
X183906403Y-86507379D01*
X183956645Y-86642086D01*
X183956649Y-86642093D01*
X184042809Y-86757187D01*
X184042812Y-86757190D01*
X184157906Y-86843350D01*
X184157913Y-86843354D01*
X184289470Y-86892422D01*
X184345404Y-86934293D01*
X184369821Y-86999758D01*
X184354969Y-87068031D01*
X184333819Y-87096285D01*
X184219889Y-87210215D01*
X184094951Y-87382179D01*
X183998444Y-87571585D01*
X183932753Y-87773760D01*
X183899500Y-87983713D01*
X183899500Y-88196286D01*
X183931392Y-88397648D01*
X183932754Y-88406243D01*
X183998443Y-88608412D01*
X184093398Y-88794772D01*
X184106294Y-88863440D01*
X184080018Y-88928181D01*
X184070594Y-88938747D01*
X181205887Y-91803454D01*
X181129222Y-91918192D01*
X181076421Y-92045667D01*
X181076418Y-92045679D01*
X181054956Y-92153578D01*
X181054956Y-92153580D01*
X181052228Y-92167293D01*
X181049500Y-92181006D01*
X181049500Y-93824684D01*
X181047873Y-93832860D01*
X181048790Y-93837939D01*
X181040061Y-93872137D01*
X180999970Y-93968925D01*
X180956129Y-94023328D01*
X180889835Y-94045393D01*
X180822135Y-94028114D01*
X180797728Y-94009153D01*
X179695802Y-92907227D01*
X178486819Y-91698243D01*
X178453334Y-91636920D01*
X178450500Y-91610562D01*
X178450500Y-91130300D01*
X178470185Y-91063261D01*
X178522989Y-91017506D01*
X178535482Y-91012599D01*
X178619334Y-90984814D01*
X178768656Y-90892712D01*
X178892712Y-90768656D01*
X178984814Y-90619334D01*
X179039999Y-90452797D01*
X179050500Y-90350009D01*
X179050499Y-89149992D01*
X179039999Y-89047203D01*
X178984814Y-88880666D01*
X178892712Y-88731344D01*
X178768656Y-88607288D01*
X178619334Y-88515186D01*
X178452797Y-88460001D01*
X178452795Y-88460000D01*
X178350010Y-88449500D01*
X177149998Y-88449500D01*
X177149981Y-88449501D01*
X177047203Y-88460000D01*
X177047200Y-88460001D01*
X176880668Y-88515185D01*
X176880663Y-88515187D01*
X176731342Y-88607289D01*
X176607289Y-88731342D01*
X176515187Y-88880663D01*
X176515186Y-88880666D01*
X176460001Y-89047203D01*
X176460001Y-89047204D01*
X176460000Y-89047204D01*
X176449500Y-89149983D01*
X176449500Y-90350001D01*
X176449501Y-90350018D01*
X176460000Y-90452796D01*
X176460001Y-90452799D01*
X176498312Y-90568412D01*
X176515186Y-90619334D01*
X176607288Y-90768656D01*
X176731344Y-90892712D01*
X176880666Y-90984814D01*
X176964505Y-91012595D01*
X177021948Y-91052366D01*
X177048772Y-91116882D01*
X177049500Y-91130300D01*
X177049500Y-91883087D01*
X177049500Y-92021075D01*
X177049500Y-92021077D01*
X177049499Y-92021077D01*
X177076418Y-92156403D01*
X177076421Y-92156413D01*
X177129222Y-92283888D01*
X177205887Y-92398626D01*
X177205888Y-92398627D01*
X183503805Y-98696542D01*
X183565042Y-98757779D01*
X183601378Y-98794115D01*
X183716101Y-98870771D01*
X183716114Y-98870778D01*
X183752040Y-98885658D01*
X183776215Y-98895672D01*
X183843590Y-98923580D01*
X183870510Y-98928934D01*
X183961853Y-98947103D01*
X183978925Y-98950500D01*
X183978926Y-98950500D01*
X184026453Y-98950500D01*
X184093492Y-98970185D01*
X184126769Y-99001614D01*
X184141680Y-99022136D01*
X184219892Y-99129788D01*
X184219896Y-99129792D01*
X184370208Y-99280104D01*
X184426714Y-99321158D01*
X184432252Y-99325181D01*
X184474918Y-99380511D01*
X184480897Y-99450124D01*
X184448292Y-99511920D01*
X184387453Y-99546277D01*
X184359367Y-99549500D01*
X182681004Y-99549500D01*
X182545677Y-99576418D01*
X182545667Y-99576421D01*
X182418192Y-99629222D01*
X182303454Y-99705887D01*
X169040680Y-112968661D01*
X168979357Y-113002146D01*
X168909665Y-112997162D01*
X168853732Y-112955290D01*
X168829315Y-112889826D01*
X168830062Y-112864782D01*
X168830499Y-112861464D01*
X168830500Y-112861457D01*
X168830500Y-112638543D01*
X168801404Y-112417537D01*
X168743710Y-112202219D01*
X168743693Y-112202179D01*
X168658406Y-111996277D01*
X168658405Y-111996274D01*
X168546948Y-111803226D01*
X168435853Y-111658443D01*
X168411248Y-111626377D01*
X168411242Y-111626370D01*
X168253629Y-111468757D01*
X168253622Y-111468751D01*
X168076782Y-111333058D01*
X168076780Y-111333057D01*
X168076774Y-111333052D01*
X167883726Y-111221595D01*
X167883722Y-111221593D01*
X167677790Y-111136293D01*
X167677783Y-111136291D01*
X167677781Y-111136290D01*
X167462463Y-111078596D01*
X167462457Y-111078595D01*
X167462452Y-111078594D01*
X167241466Y-111049501D01*
X167241463Y-111049500D01*
X167241457Y-111049500D01*
X167018543Y-111049500D01*
X167018537Y-111049500D01*
X167018533Y-111049501D01*
X166797547Y-111078594D01*
X166797540Y-111078595D01*
X166797537Y-111078596D01*
X166582219Y-111136290D01*
X166582209Y-111136293D01*
X166376277Y-111221593D01*
X166376273Y-111221595D01*
X166183226Y-111333052D01*
X166183217Y-111333058D01*
X166006377Y-111468751D01*
X166006370Y-111468757D01*
X165848757Y-111626370D01*
X165848751Y-111626377D01*
X165713058Y-111803217D01*
X165713052Y-111803226D01*
X165601595Y-111996273D01*
X165601593Y-111996277D01*
X165516293Y-112202209D01*
X165516290Y-112202219D01*
X165458597Y-112417534D01*
X165458594Y-112417547D01*
X165429501Y-112638533D01*
X165429500Y-112638549D01*
X165429500Y-112861450D01*
X165429501Y-112861466D01*
X165458594Y-113082452D01*
X165458595Y-113082457D01*
X165458596Y-113082463D01*
X165497122Y-113226243D01*
X165516290Y-113297780D01*
X165516293Y-113297790D01*
X165601593Y-113503722D01*
X165601595Y-113503726D01*
X165713052Y-113696774D01*
X165713057Y-113696780D01*
X165713058Y-113696782D01*
X165848751Y-113873622D01*
X165848757Y-113873629D01*
X166006370Y-114031242D01*
X166006377Y-114031248D01*
X166050428Y-114065049D01*
X166183226Y-114166948D01*
X166376274Y-114278405D01*
X166582219Y-114363710D01*
X166797537Y-114421404D01*
X167018543Y-114450500D01*
X167018550Y-114450500D01*
X167241450Y-114450500D01*
X167241457Y-114450500D01*
X167244782Y-114450062D01*
X167313818Y-114460820D01*
X167366079Y-114507195D01*
X167384971Y-114574462D01*
X167364497Y-114641264D01*
X167348661Y-114660680D01*
X165496162Y-116513181D01*
X165434839Y-116546666D01*
X165408481Y-116549500D01*
X163181004Y-116549500D01*
X163045677Y-116576418D01*
X163045667Y-116576421D01*
X162918192Y-116629222D01*
X162803454Y-116705887D01*
X159705887Y-119803454D01*
X159684476Y-119835500D01*
X159629228Y-119918183D01*
X159629221Y-119918195D01*
X159576421Y-120045667D01*
X159576418Y-120045677D01*
X159549500Y-120181004D01*
X159549500Y-121824684D01*
X159540061Y-121872136D01*
X159480264Y-122016498D01*
X159480261Y-122016510D01*
X159449500Y-122171153D01*
X150500000Y-122171153D01*
X150500000Y-119808698D01*
X150519685Y-119741659D01*
X150572489Y-119695904D01*
X150641647Y-119685960D01*
X150705203Y-119714985D01*
X150724319Y-119735814D01*
X150758030Y-119782215D01*
X150902786Y-119926971D01*
X151057749Y-120039556D01*
X151068390Y-120047287D01*
X151184607Y-120106503D01*
X151250776Y-120140218D01*
X151250778Y-120140218D01*
X151250781Y-120140220D01*
X151355137Y-120174127D01*
X151445465Y-120203477D01*
X151546557Y-120219488D01*
X151647648Y-120235500D01*
X151647649Y-120235500D01*
X151852351Y-120235500D01*
X151852352Y-120235500D01*
X152054534Y-120203477D01*
X152249219Y-120140220D01*
X152431610Y-120047287D01*
X152524590Y-119979732D01*
X152597213Y-119926971D01*
X152597215Y-119926968D01*
X152597219Y-119926966D01*
X152741966Y-119782219D01*
X152741968Y-119782215D01*
X152741971Y-119782213D01*
X152862284Y-119616614D01*
X152862285Y-119616613D01*
X152862287Y-119616610D01*
X152909516Y-119523917D01*
X152957489Y-119473123D01*
X153025310Y-119456328D01*
X153091445Y-119478865D01*
X153130485Y-119523919D01*
X153177715Y-119616614D01*
X153298028Y-119782213D01*
X153442786Y-119926971D01*
X153597749Y-120039556D01*
X153608390Y-120047287D01*
X153724607Y-120106503D01*
X153790776Y-120140218D01*
X153790778Y-120140218D01*
X153790781Y-120140220D01*
X153895137Y-120174127D01*
X153985465Y-120203477D01*
X154086557Y-120219488D01*
X154187648Y-120235500D01*
X154187649Y-120235500D01*
X154392351Y-120235500D01*
X154392352Y-120235500D01*
X154594534Y-120203477D01*
X154789219Y-120140220D01*
X154971610Y-120047287D01*
X155064590Y-119979732D01*
X155137213Y-119926971D01*
X155137215Y-119926968D01*
X155137219Y-119926966D01*
X155281966Y-119782219D01*
X155281968Y-119782215D01*
X155281971Y-119782213D01*
X155344677Y-119695904D01*
X155402287Y-119616610D01*
X155495220Y-119434219D01*
X155558477Y-119239534D01*
X155590500Y-119037352D01*
X155590500Y-118832648D01*
X155576967Y-118747203D01*
X155558477Y-118630465D01*
X155495218Y-118435776D01*
X155449515Y-118346080D01*
X155402287Y-118253390D01*
X155374531Y-118215187D01*
X155281971Y-118087786D01*
X155137213Y-117943028D01*
X154971613Y-117822715D01*
X154971612Y-117822714D01*
X154971610Y-117822713D01*
X154914653Y-117793691D01*
X154789223Y-117729781D01*
X154594534Y-117666522D01*
X154419995Y-117638878D01*
X154392352Y-117634500D01*
X154187648Y-117634500D01*
X154163329Y-117638351D01*
X153985465Y-117666522D01*
X153790776Y-117729781D01*
X153608386Y-117822715D01*
X153442786Y-117943028D01*
X153298028Y-118087786D01*
X153177715Y-118253386D01*
X153130485Y-118346080D01*
X153082510Y-118396876D01*
X153014689Y-118413671D01*
X152948554Y-118391134D01*
X152909515Y-118346080D01*
X152869099Y-118266760D01*
X152862287Y-118253390D01*
X152834531Y-118215187D01*
X152741971Y-118087786D01*
X152597213Y-117943028D01*
X152431613Y-117822715D01*
X152431612Y-117822714D01*
X152431610Y-117822713D01*
X152374653Y-117793691D01*
X152249223Y-117729781D01*
X152054534Y-117666522D01*
X151879995Y-117638878D01*
X151852352Y-117634500D01*
X151647648Y-117634500D01*
X151623329Y-117638351D01*
X151445465Y-117666522D01*
X151250776Y-117729781D01*
X151068386Y-117822715D01*
X150902786Y-117943028D01*
X150758032Y-118087782D01*
X150758028Y-118087787D01*
X150724318Y-118134186D01*
X150668989Y-118176852D01*
X150599375Y-118182831D01*
X150537580Y-118150226D01*
X150503223Y-118089387D01*
X150500000Y-118061301D01*
X150500000Y-114647648D01*
X159299500Y-114647648D01*
X159299500Y-114852351D01*
X159331522Y-115054534D01*
X159394781Y-115249223D01*
X159456053Y-115369474D01*
X159482707Y-115421786D01*
X159487715Y-115431613D01*
X159608028Y-115597213D01*
X159752786Y-115741971D01*
X159907749Y-115854556D01*
X159918390Y-115862287D01*
X160034607Y-115921503D01*
X160100776Y-115955218D01*
X160100778Y-115955218D01*
X160100781Y-115955220D01*
X160140782Y-115968217D01*
X160295465Y-116018477D01*
X160396557Y-116034488D01*
X160497648Y-116050500D01*
X160497649Y-116050500D01*
X160702351Y-116050500D01*
X160702352Y-116050500D01*
X160904534Y-116018477D01*
X161099219Y-115955220D01*
X161281610Y-115862287D01*
X161426517Y-115757007D01*
X161447213Y-115741971D01*
X161447215Y-115741968D01*
X161447219Y-115741966D01*
X161591966Y-115597219D01*
X161591968Y-115597215D01*
X161591971Y-115597213D01*
X161666410Y-115494755D01*
X161712287Y-115431610D01*
X161805220Y-115249219D01*
X161868477Y-115054534D01*
X161900500Y-114852352D01*
X161900500Y-114647648D01*
X161868477Y-114445466D01*
X161805220Y-114250781D01*
X161805218Y-114250778D01*
X161805218Y-114250776D01*
X161732893Y-114108832D01*
X161712287Y-114068390D01*
X161685298Y-114031242D01*
X161591971Y-113902786D01*
X161447213Y-113758028D01*
X161281613Y-113637715D01*
X161281612Y-113637714D01*
X161281610Y-113637713D01*
X161224053Y-113608386D01*
X161099223Y-113544781D01*
X160904534Y-113481522D01*
X160729995Y-113453878D01*
X160702352Y-113449500D01*
X160497648Y-113449500D01*
X160473329Y-113453351D01*
X160295465Y-113481522D01*
X160100776Y-113544781D01*
X159918386Y-113637715D01*
X159752786Y-113758028D01*
X159608028Y-113902786D01*
X159487715Y-114068386D01*
X159394781Y-114250776D01*
X159331522Y-114445465D01*
X159299500Y-114647648D01*
X150500000Y-114647648D01*
X150500000Y-109647648D01*
X159299500Y-109647648D01*
X159299500Y-109852351D01*
X159331522Y-110054534D01*
X159394781Y-110249223D01*
X159432010Y-110322287D01*
X159480518Y-110417490D01*
X159487715Y-110431613D01*
X159608028Y-110597213D01*
X159752786Y-110741971D01*
X159907749Y-110854556D01*
X159918390Y-110862287D01*
X159997864Y-110902781D01*
X160100776Y-110955218D01*
X160100778Y-110955218D01*
X160100781Y-110955220D01*
X160205137Y-110989127D01*
X160295465Y-111018477D01*
X160396557Y-111034488D01*
X160497648Y-111050500D01*
X160497649Y-111050500D01*
X160702351Y-111050500D01*
X160702352Y-111050500D01*
X160904534Y-111018477D01*
X161099219Y-110955220D01*
X161281610Y-110862287D01*
X161374590Y-110794732D01*
X161447213Y-110741971D01*
X161447215Y-110741968D01*
X161447219Y-110741966D01*
X161591966Y-110597219D01*
X161591968Y-110597215D01*
X161591971Y-110597213D01*
X161654079Y-110511727D01*
X161712287Y-110431610D01*
X161805220Y-110249219D01*
X161868477Y-110054534D01*
X161900500Y-109852352D01*
X161900500Y-109647648D01*
X161880240Y-109519735D01*
X161868477Y-109445465D01*
X161834173Y-109339890D01*
X161805220Y-109250781D01*
X161805218Y-109250778D01*
X161805218Y-109250776D01*
X161764797Y-109171447D01*
X161712287Y-109068390D01*
X161670366Y-109010690D01*
X161591971Y-108902786D01*
X161447213Y-108758028D01*
X161281613Y-108637715D01*
X161281612Y-108637714D01*
X161281610Y-108637713D01*
X161224653Y-108608691D01*
X161099223Y-108544781D01*
X160904534Y-108481522D01*
X160729995Y-108453878D01*
X160702352Y-108449500D01*
X160497648Y-108449500D01*
X160473329Y-108453351D01*
X160295465Y-108481522D01*
X160100776Y-108544781D01*
X159918386Y-108637715D01*
X159752786Y-108758028D01*
X159608028Y-108902786D01*
X159487715Y-109068386D01*
X159394781Y-109250776D01*
X159331522Y-109445465D01*
X159299500Y-109647648D01*
X150500000Y-109647648D01*
X150500000Y-104638549D01*
X165429500Y-104638549D01*
X165429500Y-104861450D01*
X165429501Y-104861466D01*
X165458594Y-105082452D01*
X165458595Y-105082457D01*
X165458596Y-105082463D01*
X165514425Y-105290820D01*
X165516290Y-105297780D01*
X165516293Y-105297790D01*
X165601593Y-105503722D01*
X165601595Y-105503726D01*
X165713052Y-105696774D01*
X165713057Y-105696780D01*
X165713058Y-105696782D01*
X165848751Y-105873622D01*
X165848757Y-105873629D01*
X166006370Y-106031242D01*
X166006377Y-106031248D01*
X166123052Y-106120775D01*
X166183226Y-106166948D01*
X166376274Y-106278405D01*
X166582219Y-106363710D01*
X166797537Y-106421404D01*
X167018543Y-106450500D01*
X167018550Y-106450500D01*
X167241450Y-106450500D01*
X167241457Y-106450500D01*
X167462463Y-106421404D01*
X167677781Y-106363710D01*
X167883726Y-106278405D01*
X168076774Y-106166948D01*
X168253624Y-106031247D01*
X168411247Y-105873624D01*
X168546948Y-105696774D01*
X168658405Y-105503726D01*
X168743710Y-105297781D01*
X168801404Y-105082463D01*
X168830500Y-104861457D01*
X168830500Y-104638543D01*
X168801404Y-104417537D01*
X168743710Y-104202219D01*
X168658405Y-103996274D01*
X168546948Y-103803226D01*
X168411247Y-103626376D01*
X168411242Y-103626370D01*
X168253629Y-103468757D01*
X168253622Y-103468751D01*
X168076782Y-103333058D01*
X168076780Y-103333057D01*
X168076774Y-103333052D01*
X167883726Y-103221595D01*
X167883722Y-103221593D01*
X167677790Y-103136293D01*
X167677783Y-103136291D01*
X167677781Y-103136290D01*
X167462463Y-103078596D01*
X167462457Y-103078595D01*
X167462452Y-103078594D01*
X167241466Y-103049501D01*
X167241463Y-103049500D01*
X167241457Y-103049500D01*
X167018543Y-103049500D01*
X167018537Y-103049500D01*
X167018533Y-103049501D01*
X166797547Y-103078594D01*
X166797540Y-103078595D01*
X166797537Y-103078596D01*
X166582219Y-103136290D01*
X166582209Y-103136293D01*
X166376277Y-103221593D01*
X166376273Y-103221595D01*
X166183226Y-103333052D01*
X166183217Y-103333058D01*
X166006377Y-103468751D01*
X166006370Y-103468757D01*
X165848757Y-103626370D01*
X165848751Y-103626377D01*
X165713058Y-103803217D01*
X165713052Y-103803226D01*
X165601595Y-103996273D01*
X165601593Y-103996277D01*
X165516293Y-104202209D01*
X165516290Y-104202219D01*
X165460559Y-104410213D01*
X165458597Y-104417534D01*
X165458594Y-104417547D01*
X165429501Y-104638533D01*
X165429500Y-104638549D01*
X150500000Y-104638549D01*
X150500000Y-100993713D01*
X158979500Y-100993713D01*
X158979500Y-101506286D01*
X158997640Y-101620821D01*
X159012754Y-101716243D01*
X159053976Y-101843112D01*
X159078444Y-101918414D01*
X159174951Y-102107820D01*
X159299890Y-102279786D01*
X159450213Y-102430109D01*
X159622179Y-102555048D01*
X159622181Y-102555049D01*
X159622184Y-102555051D01*
X159811588Y-102651557D01*
X160013757Y-102717246D01*
X160223713Y-102750500D01*
X160223714Y-102750500D01*
X160436286Y-102750500D01*
X160436287Y-102750500D01*
X160646243Y-102717246D01*
X160848412Y-102651557D01*
X161037816Y-102555051D01*
X161099426Y-102510289D01*
X161209786Y-102430109D01*
X161209788Y-102430106D01*
X161209792Y-102430104D01*
X161360104Y-102279792D01*
X161360106Y-102279788D01*
X161360109Y-102279786D01*
X161485048Y-102107820D01*
X161485047Y-102107820D01*
X161485051Y-102107816D01*
X161581557Y-101918412D01*
X161647246Y-101716243D01*
X161680500Y-101506287D01*
X161680500Y-100993713D01*
X161647246Y-100783757D01*
X161581557Y-100581588D01*
X161485051Y-100392184D01*
X161485049Y-100392181D01*
X161485048Y-100392179D01*
X161360109Y-100220213D01*
X161209786Y-100069890D01*
X161037820Y-99944951D01*
X160848414Y-99848444D01*
X160848413Y-99848443D01*
X160848412Y-99848443D01*
X160646243Y-99782754D01*
X160646241Y-99782753D01*
X160646240Y-99782753D01*
X160484957Y-99757208D01*
X160436287Y-99749500D01*
X160223713Y-99749500D01*
X160175042Y-99757208D01*
X160013760Y-99782753D01*
X159811585Y-99848444D01*
X159622179Y-99944951D01*
X159450213Y-100069890D01*
X159299890Y-100220213D01*
X159174951Y-100392179D01*
X159078444Y-100581585D01*
X159012753Y-100783760D01*
X158979500Y-100993713D01*
X150500000Y-100993713D01*
X150500000Y-93021153D01*
X169237000Y-93021153D01*
X169237000Y-93178846D01*
X169267761Y-93333489D01*
X169267764Y-93333501D01*
X169327561Y-93477864D01*
X169337000Y-93525316D01*
X169337000Y-98974684D01*
X169327561Y-99022136D01*
X169267764Y-99166498D01*
X169267761Y-99166510D01*
X169237000Y-99321153D01*
X169237000Y-99478846D01*
X169267761Y-99633489D01*
X169267764Y-99633501D01*
X169328102Y-99779172D01*
X169328109Y-99779185D01*
X169415710Y-99910288D01*
X169415713Y-99910292D01*
X169527207Y-100021786D01*
X169527211Y-100021789D01*
X169658314Y-100109390D01*
X169658327Y-100109397D01*
X169803998Y-100169735D01*
X169804003Y-100169737D01*
X169958653Y-100200499D01*
X169958656Y-100200500D01*
X169958658Y-100200500D01*
X170116344Y-100200500D01*
X170116345Y-100200499D01*
X170270997Y-100169737D01*
X170416679Y-100109394D01*
X170547789Y-100021789D01*
X170659289Y-99910289D01*
X170746894Y-99779179D01*
X170807237Y-99633497D01*
X170838000Y-99478842D01*
X170838000Y-99321158D01*
X170838000Y-99321155D01*
X170837999Y-99321153D01*
X170837331Y-99317797D01*
X170807237Y-99166503D01*
X170747439Y-99022136D01*
X170738000Y-98974684D01*
X170738000Y-93525316D01*
X170747439Y-93477864D01*
X170775978Y-93408963D01*
X170807237Y-93333497D01*
X170838000Y-93178842D01*
X170838000Y-93021158D01*
X170838000Y-93021155D01*
X170837999Y-93021153D01*
X170807237Y-92866503D01*
X170801959Y-92853760D01*
X170746897Y-92720827D01*
X170746890Y-92720814D01*
X170659289Y-92589711D01*
X170659286Y-92589707D01*
X170547792Y-92478213D01*
X170547788Y-92478210D01*
X170416685Y-92390609D01*
X170416672Y-92390602D01*
X170271001Y-92330264D01*
X170270989Y-92330261D01*
X170116345Y-92299500D01*
X170116342Y-92299500D01*
X169958658Y-92299500D01*
X169958655Y-92299500D01*
X169804010Y-92330261D01*
X169803998Y-92330264D01*
X169658327Y-92390602D01*
X169658314Y-92390609D01*
X169527211Y-92478210D01*
X169527207Y-92478213D01*
X169415713Y-92589707D01*
X169415710Y-92589711D01*
X169328109Y-92720814D01*
X169328102Y-92720827D01*
X169267764Y-92866498D01*
X169267761Y-92866510D01*
X169237000Y-93021153D01*
X150500000Y-93021153D01*
X150500000Y-88397648D01*
X168237000Y-88397648D01*
X168237000Y-88602351D01*
X168269022Y-88804534D01*
X168332281Y-88999223D01*
X168396191Y-89124653D01*
X168421079Y-89173497D01*
X168425215Y-89181613D01*
X168545528Y-89347213D01*
X168690286Y-89491971D01*
X168810703Y-89579457D01*
X168855890Y-89612287D01*
X168972107Y-89671503D01*
X169038276Y-89705218D01*
X169038278Y-89705218D01*
X169038281Y-89705220D01*
X169070197Y-89715590D01*
X169232965Y-89768477D01*
X169334057Y-89784488D01*
X169435148Y-89800500D01*
X169435149Y-89800500D01*
X169639851Y-89800500D01*
X169639852Y-89800500D01*
X169842034Y-89768477D01*
X170036719Y-89705220D01*
X170219110Y-89612287D01*
X170330188Y-89531585D01*
X170384713Y-89491971D01*
X170384715Y-89491968D01*
X170384719Y-89491966D01*
X170529466Y-89347219D01*
X170529468Y-89347215D01*
X170529471Y-89347213D01*
X170582232Y-89274590D01*
X170649787Y-89181610D01*
X170742720Y-88999219D01*
X170805977Y-88804534D01*
X170838000Y-88602352D01*
X170838000Y-88397648D01*
X170821233Y-88291789D01*
X170805977Y-88195465D01*
X170758443Y-88049172D01*
X170742720Y-88000781D01*
X170742718Y-88000778D01*
X170742718Y-88000776D01*
X170681102Y-87879849D01*
X170649787Y-87818390D01*
X170642056Y-87807749D01*
X170529471Y-87652786D01*
X170384713Y-87508028D01*
X170219111Y-87387713D01*
X170165121Y-87360203D01*
X170114325Y-87312228D01*
X170097531Y-87244407D01*
X170120069Y-87178272D01*
X170165124Y-87139233D01*
X170218849Y-87111859D01*
X170263421Y-87079474D01*
X169583947Y-86400000D01*
X169590161Y-86400000D01*
X169691894Y-86372741D01*
X169783106Y-86320080D01*
X169857580Y-86245606D01*
X169910241Y-86154394D01*
X169937500Y-86052661D01*
X169937500Y-86046447D01*
X170616974Y-86725921D01*
X170649359Y-86681349D01*
X170742255Y-86499031D01*
X170805490Y-86304417D01*
X170837500Y-86102317D01*
X170837500Y-85897682D01*
X170822284Y-85801613D01*
X170805490Y-85695582D01*
X170742255Y-85500968D01*
X170649359Y-85318650D01*
X170616974Y-85274077D01*
X170616974Y-85274076D01*
X169937500Y-85953551D01*
X169937500Y-85947339D01*
X169910241Y-85845606D01*
X169857580Y-85754394D01*
X169783106Y-85679920D01*
X169691894Y-85627259D01*
X169590161Y-85600000D01*
X169583946Y-85600000D01*
X170263422Y-84920524D01*
X170263421Y-84920523D01*
X170218859Y-84888147D01*
X170218850Y-84888141D01*
X170036531Y-84795244D01*
X169930359Y-84760747D01*
X169841917Y-84732009D01*
X169639817Y-84700000D01*
X169435183Y-84700000D01*
X169233082Y-84732009D01*
X169038468Y-84795244D01*
X168856144Y-84888143D01*
X168811577Y-84920523D01*
X168811577Y-84920524D01*
X169491054Y-85600000D01*
X169484839Y-85600000D01*
X169383106Y-85627259D01*
X169291894Y-85679920D01*
X169217420Y-85754394D01*
X169164759Y-85845606D01*
X169137500Y-85947339D01*
X169137500Y-85953553D01*
X168458024Y-85274077D01*
X168458023Y-85274077D01*
X168425643Y-85318644D01*
X168332744Y-85500968D01*
X168269509Y-85695582D01*
X168237500Y-85897682D01*
X168237500Y-86102317D01*
X168269509Y-86304417D01*
X168332744Y-86499031D01*
X168425641Y-86681350D01*
X168425647Y-86681359D01*
X168458023Y-86725921D01*
X168458024Y-86725922D01*
X169137500Y-86046446D01*
X169137500Y-86052661D01*
X169164759Y-86154394D01*
X169217420Y-86245606D01*
X169291894Y-86320080D01*
X169383106Y-86372741D01*
X169484839Y-86400000D01*
X169491053Y-86400000D01*
X168811576Y-87079474D01*
X168856152Y-87111861D01*
X168909876Y-87139234D01*
X168960672Y-87187208D01*
X168977468Y-87255028D01*
X168954931Y-87321164D01*
X168909879Y-87360203D01*
X168855886Y-87387714D01*
X168690286Y-87508028D01*
X168545528Y-87652786D01*
X168425215Y-87818386D01*
X168332281Y-88000776D01*
X168269022Y-88195465D01*
X168237000Y-88397648D01*
X150500000Y-88397648D01*
X150500000Y-85993753D01*
X158980000Y-85993753D01*
X158980000Y-86000000D01*
X159896988Y-86000000D01*
X159864075Y-86057007D01*
X159830000Y-86184174D01*
X159830000Y-86315826D01*
X159864075Y-86442993D01*
X159896988Y-86500000D01*
X158980000Y-86500000D01*
X158980000Y-86506246D01*
X159013242Y-86716127D01*
X159013242Y-86716130D01*
X159078904Y-86918217D01*
X159175379Y-87107557D01*
X159300272Y-87279459D01*
X159300276Y-87279464D01*
X159450535Y-87429723D01*
X159450540Y-87429727D01*
X159622442Y-87554620D01*
X159811782Y-87651095D01*
X160013871Y-87716757D01*
X160080000Y-87727231D01*
X160080000Y-86683012D01*
X160137007Y-86715925D01*
X160264174Y-86750000D01*
X160395826Y-86750000D01*
X160522993Y-86715925D01*
X160580000Y-86683012D01*
X160580000Y-87727230D01*
X160646126Y-87716757D01*
X160646129Y-87716757D01*
X160848217Y-87651095D01*
X161037557Y-87554620D01*
X161209459Y-87429727D01*
X161209464Y-87429723D01*
X161359723Y-87279464D01*
X161359727Y-87279459D01*
X161484620Y-87107557D01*
X161581095Y-86918217D01*
X161646757Y-86716130D01*
X161646757Y-86716127D01*
X161680000Y-86506246D01*
X161680000Y-86500000D01*
X160763012Y-86500000D01*
X160795925Y-86442993D01*
X160830000Y-86315826D01*
X160830000Y-86184174D01*
X160795925Y-86057007D01*
X160763012Y-86000000D01*
X161680000Y-86000000D01*
X161680000Y-85993754D01*
X161667085Y-85912214D01*
X161646757Y-85783872D01*
X161646757Y-85783869D01*
X161581095Y-85581782D01*
X161484620Y-85392442D01*
X161359727Y-85220540D01*
X161359723Y-85220535D01*
X161209464Y-85070276D01*
X161209459Y-85070272D01*
X161206471Y-85068101D01*
X161037557Y-84945379D01*
X160848215Y-84848903D01*
X160646124Y-84783241D01*
X160580000Y-84772768D01*
X160580000Y-85816988D01*
X160522993Y-85784075D01*
X160395826Y-85750000D01*
X160264174Y-85750000D01*
X160137007Y-85784075D01*
X160080000Y-85816988D01*
X160080000Y-84772768D01*
X160079999Y-84772768D01*
X160013875Y-84783241D01*
X159811784Y-84848903D01*
X159622442Y-84945379D01*
X159450540Y-85070272D01*
X159450535Y-85070276D01*
X159300276Y-85220535D01*
X159300272Y-85220540D01*
X159175379Y-85392442D01*
X159078904Y-85581782D01*
X159013242Y-85783869D01*
X159013242Y-85783872D01*
X158980000Y-85993753D01*
X150500000Y-85993753D01*
X150500000Y-84647682D01*
X176450000Y-84647682D01*
X176450000Y-84852317D01*
X176482009Y-85054417D01*
X176545244Y-85249031D01*
X176638141Y-85431350D01*
X176638147Y-85431359D01*
X176670523Y-85475921D01*
X176670524Y-85475922D01*
X177350000Y-84796446D01*
X177350000Y-84802661D01*
X177377259Y-84904394D01*
X177429920Y-84995606D01*
X177504394Y-85070080D01*
X177595606Y-85122741D01*
X177697339Y-85150000D01*
X177703553Y-85150000D01*
X177024076Y-85829474D01*
X177068650Y-85861859D01*
X177250968Y-85954755D01*
X177445582Y-86017990D01*
X177647683Y-86050000D01*
X177852317Y-86050000D01*
X178054417Y-86017990D01*
X178249031Y-85954755D01*
X178431349Y-85861859D01*
X178475921Y-85829474D01*
X177796447Y-85150000D01*
X177802661Y-85150000D01*
X177904394Y-85122741D01*
X177995606Y-85070080D01*
X178070080Y-84995606D01*
X178122741Y-84904394D01*
X178150000Y-84802661D01*
X178150000Y-84796448D01*
X178829474Y-85475922D01*
X178829474Y-85475921D01*
X178861859Y-85431349D01*
X178954755Y-85249031D01*
X179017990Y-85054417D01*
X179050000Y-84852317D01*
X179050000Y-84647682D01*
X179017990Y-84445582D01*
X178954755Y-84250968D01*
X178861859Y-84068650D01*
X178829474Y-84024077D01*
X178829474Y-84024076D01*
X178150000Y-84703551D01*
X178150000Y-84697339D01*
X178122741Y-84595606D01*
X178070080Y-84504394D01*
X177995606Y-84429920D01*
X177904394Y-84377259D01*
X177802661Y-84350000D01*
X177796446Y-84350000D01*
X178475922Y-83670524D01*
X178475921Y-83670523D01*
X178431359Y-83638147D01*
X178431350Y-83638141D01*
X178249031Y-83545244D01*
X178054417Y-83482009D01*
X177852317Y-83450000D01*
X177647683Y-83450000D01*
X177445582Y-83482009D01*
X177250968Y-83545244D01*
X177068644Y-83638143D01*
X177024077Y-83670523D01*
X177024077Y-83670524D01*
X177703554Y-84350000D01*
X177697339Y-84350000D01*
X177595606Y-84377259D01*
X177504394Y-84429920D01*
X177429920Y-84504394D01*
X177377259Y-84595606D01*
X177350000Y-84697339D01*
X177350000Y-84703553D01*
X176670524Y-84024077D01*
X176670523Y-84024077D01*
X176638143Y-84068644D01*
X176545244Y-84250968D01*
X176482009Y-84445582D01*
X176450000Y-84647682D01*
X150500000Y-84647682D01*
X150500000Y-81624500D01*
X150519685Y-81557461D01*
X150572489Y-81511706D01*
X150624000Y-81500500D01*
X224625500Y-81500500D01*
X224692539Y-81520185D01*
G37*
%TD.AperFunction*%
%TD*%
M02*
