%TF.GenerationSoftware,KiCad,Pcbnew,9.0.7*%
%TF.CreationDate,2026-02-27T15:48:28+03:00*%
%TF.ProjectId,3dFilamentDryer,33644669-6c61-46d6-956e-744472796572,rev?*%
%TF.SameCoordinates,Original*%
%TF.FileFunction,Soldermask,Top*%
%TF.FilePolarity,Negative*%
%FSLAX46Y46*%
G04 Gerber Fmt 4.6, Leading zero omitted, Abs format (unit mm)*
G04 Created by KiCad (PCBNEW 9.0.7) date 2026-02-27 15:48:28*
%MOMM*%
%LPD*%
G01*
G04 APERTURE LIST*
G04 Aperture macros list*
%AMRoundRect*
0 Rectangle with rounded corners*
0 $1 Rounding radius*
0 $2 $3 $4 $5 $6 $7 $8 $9 X,Y pos of 4 corners*
0 Add a 4 corners polygon primitive as box body*
4,1,4,$2,$3,$4,$5,$6,$7,$8,$9,$2,$3,0*
0 Add four circle primitives for the rounded corners*
1,1,$1+$1,$2,$3*
1,1,$1+$1,$4,$5*
1,1,$1+$1,$6,$7*
1,1,$1+$1,$8,$9*
0 Add four rect primitives between the rounded corners*
20,1,$1+$1,$2,$3,$4,$5,0*
20,1,$1+$1,$4,$5,$6,$7,0*
20,1,$1+$1,$6,$7,$8,$9,0*
20,1,$1+$1,$8,$9,$2,$3,0*%
G04 Aperture macros list end*
%ADD10R,1.700000X1.700000*%
%ADD11C,1.700000*%
%ADD12RoundRect,0.250002X-1.499998X1.499998X-1.499998X-1.499998X1.499998X-1.499998X1.499998X1.499998X0*%
%ADD13C,3.500000*%
%ADD14RoundRect,0.135000X-0.185000X0.135000X-0.185000X-0.135000X0.185000X-0.135000X0.185000X0.135000X0*%
%ADD15C,2.540000*%
%ADD16C,2.400000*%
%ADD17RoundRect,0.575000X0.575000X0.575000X-0.575000X0.575000X-0.575000X-0.575000X0.575000X-0.575000X0*%
%ADD18C,2.300000*%
%ADD19RoundRect,0.250000X-0.550000X-0.550000X0.550000X-0.550000X0.550000X0.550000X-0.550000X0.550000X0*%
%ADD20C,1.600000*%
%ADD21C,1.800000*%
%ADD22RoundRect,0.150000X-0.512500X-0.150000X0.512500X-0.150000X0.512500X0.150000X-0.512500X0.150000X0*%
%ADD23RoundRect,0.249999X0.850001X0.850001X-0.850001X0.850001X-0.850001X-0.850001X0.850001X-0.850001X0*%
%ADD24C,2.200000*%
%ADD25RoundRect,0.135000X0.135000X0.185000X-0.135000X0.185000X-0.135000X-0.185000X0.135000X-0.185000X0*%
%ADD26RoundRect,0.140000X-0.140000X-0.170000X0.140000X-0.170000X0.140000X0.170000X-0.140000X0.170000X0*%
%ADD27RoundRect,0.250002X-1.699998X1.699998X-1.699998X-1.699998X1.699998X-1.699998X1.699998X1.699998X0*%
%ADD28C,3.900000*%
%ADD29RoundRect,0.135000X0.185000X-0.135000X0.185000X0.135000X-0.185000X0.135000X-0.185000X-0.135000X0*%
%ADD30RoundRect,0.575000X-0.575000X-0.575000X0.575000X-0.575000X0.575000X0.575000X-0.575000X0.575000X0*%
%ADD31R,1.905000X2.000000*%
%ADD32O,1.905000X2.000000*%
%ADD33R,1.500000X0.900000*%
%ADD34R,0.900000X1.500000*%
%ADD35C,0.600000*%
%ADD36R,4.200000X4.200000*%
%ADD37C,2.000000*%
%ADD38RoundRect,0.250002X1.699998X1.699998X-1.699998X1.699998X-1.699998X-1.699998X1.699998X-1.699998X0*%
%ADD39RoundRect,0.140000X-0.170000X0.140000X-0.170000X-0.140000X0.170000X-0.140000X0.170000X0.140000X0*%
%ADD40RoundRect,0.200000X0.200000X0.275000X-0.200000X0.275000X-0.200000X-0.275000X0.200000X-0.275000X0*%
%ADD41RoundRect,0.225000X0.250000X-0.225000X0.250000X0.225000X-0.250000X0.225000X-0.250000X-0.225000X0*%
%ADD42RoundRect,0.250000X0.550000X-0.550000X0.550000X0.550000X-0.550000X0.550000X-0.550000X-0.550000X0*%
%ADD43RoundRect,0.250000X-0.600000X-0.750000X0.600000X-0.750000X0.600000X0.750000X-0.600000X0.750000X0*%
%ADD44O,1.700000X2.000000*%
%ADD45RoundRect,0.375000X-0.375000X0.625000X-0.375000X-0.625000X0.375000X-0.625000X0.375000X0.625000X0*%
%ADD46RoundRect,0.500000X-1.400000X0.500000X-1.400000X-0.500000X1.400000X-0.500000X1.400000X0.500000X0*%
%ADD47RoundRect,0.140000X0.170000X-0.140000X0.170000X0.140000X-0.170000X0.140000X-0.170000X-0.140000X0*%
G04 APERTURE END LIST*
D10*
%TO.C,J5*%
X199840000Y-123500000D03*
D11*
X202380000Y-123500000D03*
X204920000Y-123500000D03*
X207460000Y-123500000D03*
X210000000Y-123500000D03*
%TD*%
D12*
%TO.C,J4*%
X65500000Y-94500000D03*
D13*
X65500000Y-101500000D03*
%TD*%
D14*
%TO.C,R11*%
X191750000Y-84240000D03*
X191750000Y-85260000D03*
%TD*%
%TO.C,R8*%
X198750000Y-109750000D03*
X198750000Y-110770000D03*
%TD*%
D15*
%TO.C,L1*%
X115537500Y-97750000D03*
X122537500Y-97750000D03*
X122537500Y-89750000D03*
X115537500Y-89750000D03*
%TD*%
D16*
%TO.C,R7*%
X167130000Y-112750000D03*
X182370000Y-112750000D03*
%TD*%
D17*
%TO.C,F3*%
X93287500Y-111750000D03*
X88087500Y-111750000D03*
D18*
X77987500Y-111750000D03*
X72787500Y-111750000D03*
%TD*%
D19*
%TO.C,U1*%
X187945000Y-109210000D03*
D20*
X187945000Y-111750000D03*
X187945000Y-114290000D03*
X195565000Y-114290000D03*
X195565000Y-111750000D03*
X195565000Y-109210000D03*
%TD*%
D21*
%TO.C,RV2*%
X132500000Y-110550000D03*
X140000000Y-111950000D03*
%TD*%
D22*
%TO.C,U6*%
X199112500Y-114800000D03*
X199112500Y-115750000D03*
X199112500Y-116700000D03*
X201387500Y-116700000D03*
X201387500Y-114800000D03*
%TD*%
D23*
%TO.C,D3*%
X187830000Y-124750000D03*
D24*
X177670000Y-124750000D03*
%TD*%
D25*
%TO.C,R12*%
X215000000Y-102000000D03*
X216020000Y-102000000D03*
%TD*%
D16*
%TO.C,R6*%
X167130000Y-104750000D03*
X182370000Y-104750000D03*
%TD*%
D23*
%TO.C,D2*%
X187830000Y-119750000D03*
D24*
X177670000Y-119750000D03*
%TD*%
D26*
%TO.C,C5*%
X202270000Y-113250000D03*
X203230000Y-113250000D03*
%TD*%
D20*
%TO.C,R2*%
X147900000Y-114750000D03*
X160600000Y-114750000D03*
%TD*%
D27*
%TO.C,J3*%
X67000000Y-115200000D03*
D28*
X67000000Y-123000000D03*
%TD*%
D25*
%TO.C,R4*%
X160250000Y-122250000D03*
X159230000Y-122250000D03*
%TD*%
%TO.C,R10*%
X191760000Y-90750000D03*
X190740000Y-90750000D03*
%TD*%
D29*
%TO.C,R14*%
X177250000Y-97270000D03*
X177250000Y-96250000D03*
%TD*%
D30*
%TO.C,F1*%
X73237500Y-87750000D03*
X78437500Y-87750000D03*
D18*
X88537500Y-87750000D03*
X93737500Y-87750000D03*
%TD*%
D31*
%TO.C,Q1*%
X125000000Y-124950000D03*
D32*
X122460000Y-124950000D03*
X119920000Y-124950000D03*
%TD*%
D14*
%TO.C,R13*%
X175250000Y-98730000D03*
X175250000Y-99750000D03*
%TD*%
D30*
%TO.C,F2*%
X73237500Y-99750000D03*
X78437500Y-99750000D03*
D18*
X88537500Y-99750000D03*
X93737500Y-99750000D03*
%TD*%
D10*
%TO.C,J2*%
X185250000Y-85550000D03*
D11*
X185250000Y-88090000D03*
X185250000Y-90630000D03*
X185250000Y-93170000D03*
X185250000Y-95710000D03*
X185250000Y-98250000D03*
%TD*%
D22*
%TO.C,Q3*%
X179112500Y-98300000D03*
X179112500Y-100200000D03*
X181387500Y-99250000D03*
%TD*%
D33*
%TO.C,U3*%
X193750000Y-82590000D03*
X193750000Y-83860000D03*
X193750000Y-85130000D03*
X193750000Y-86400000D03*
X193750000Y-87670000D03*
X193750000Y-88940000D03*
X193750000Y-90210000D03*
X193750000Y-91480000D03*
X193750000Y-92750000D03*
X193750000Y-94020000D03*
X193750000Y-95290000D03*
X193750000Y-96560000D03*
X193750000Y-97830000D03*
X193750000Y-99100000D03*
D34*
X196790000Y-100350000D03*
X198060000Y-100350000D03*
X199330000Y-100350000D03*
X200600000Y-100350000D03*
X201870000Y-100350000D03*
X203140000Y-100350000D03*
X204410000Y-100350000D03*
X205680000Y-100350000D03*
X206950000Y-100350000D03*
X208220000Y-100350000D03*
D33*
X211250000Y-99100000D03*
X211250000Y-97830000D03*
X211250000Y-96560000D03*
X211250000Y-95290000D03*
X211250000Y-94020000D03*
X211250000Y-92750000D03*
X211250000Y-91480000D03*
X211250000Y-90210000D03*
X211250000Y-88940000D03*
X211250000Y-87670000D03*
X211250000Y-86400000D03*
X211250000Y-85130000D03*
X211250000Y-83860000D03*
X211250000Y-82590000D03*
D35*
X200295000Y-89167500D03*
X200295000Y-90692500D03*
X201057500Y-88405000D03*
X201057500Y-89930000D03*
X201057500Y-91455000D03*
X201820000Y-89167500D03*
D36*
X201820000Y-89930000D03*
D35*
X201820000Y-90692500D03*
X202582500Y-88405000D03*
X202582500Y-89930000D03*
X202582500Y-91455000D03*
X203345000Y-89167500D03*
X203345000Y-90692500D03*
%TD*%
D20*
%TO.C,R3*%
X160600000Y-109750000D03*
X147900000Y-109750000D03*
%TD*%
D37*
%TO.C,C4*%
X141000000Y-124450000D03*
X131000000Y-124450000D03*
%TD*%
D38*
%TO.C,R1*%
X108450000Y-123750000D03*
D28*
X100650000Y-123750000D03*
%TD*%
D39*
%TO.C,C8*%
X189955000Y-83130000D03*
X189955000Y-84090000D03*
%TD*%
D22*
%TO.C,Q2*%
X179112500Y-93300000D03*
X179112500Y-95200000D03*
X181387500Y-94250000D03*
%TD*%
D10*
%TO.C,J1*%
X222250000Y-117990000D03*
D11*
X222250000Y-115450000D03*
X222250000Y-112910000D03*
X222250000Y-110370000D03*
X222250000Y-107830000D03*
X222250000Y-105290000D03*
X222250000Y-102750000D03*
X222250000Y-100210000D03*
X222250000Y-97670000D03*
X222250000Y-95130000D03*
X222250000Y-92590000D03*
X222250000Y-90050000D03*
X222250000Y-87510000D03*
X222250000Y-84970000D03*
%TD*%
D40*
%TO.C,R9*%
X202075000Y-118250000D03*
X200425000Y-118250000D03*
%TD*%
D41*
%TO.C,C7*%
X188750000Y-84250000D03*
X188750000Y-82700000D03*
%TD*%
D42*
%TO.C,C3*%
X177750000Y-89750000D03*
D20*
X177750000Y-84750000D03*
%TD*%
D23*
%TO.C,D4*%
X174330000Y-124750000D03*
D24*
X164170000Y-124750000D03*
%TD*%
D16*
%TO.C,C1*%
X108037500Y-86250000D03*
X108037500Y-101250000D03*
%TD*%
D43*
%TO.C,PS1*%
X131250000Y-91250000D03*
D44*
X131250000Y-96250000D03*
X160330000Y-86250000D03*
X160330000Y-101250000D03*
%TD*%
D16*
%TO.C,R5*%
X144370000Y-118950000D03*
X129130000Y-118950000D03*
%TD*%
D20*
%TO.C,C2*%
X169537500Y-88500000D03*
X169537500Y-86000000D03*
%TD*%
D23*
%TO.C,D1*%
X174330000Y-119750000D03*
D24*
X164170000Y-119750000D03*
%TD*%
D30*
%TO.C,F4*%
X73237500Y-123750000D03*
X78437500Y-123750000D03*
D18*
X88537500Y-123750000D03*
X93737500Y-123750000D03*
%TD*%
D45*
%TO.C,U2*%
X172337500Y-93100000D03*
X170037500Y-93100000D03*
D46*
X170037500Y-99400000D03*
D45*
X167737500Y-93100000D03*
%TD*%
D47*
%TO.C,C6*%
X191750000Y-87230000D03*
X191750000Y-86270000D03*
%TD*%
D42*
%TO.C,U5*%
X149210000Y-126555000D03*
D20*
X151750000Y-126555000D03*
X154290000Y-126555000D03*
X154290000Y-118935000D03*
X151750000Y-118935000D03*
X149210000Y-118935000D03*
%TD*%
D21*
%TO.C,RV1*%
X100237500Y-89750000D03*
X98837500Y-97250000D03*
%TD*%
M02*
