%TF.GenerationSoftware,KiCad,Pcbnew,9.0.7*%
%TF.CreationDate,2026-02-27T15:48:28+03:00*%
%TF.ProjectId,3dFilamentDryer,33644669-6c61-46d6-956e-744472796572,rev?*%
%TF.SameCoordinates,Original*%
%TF.FileFunction,Paste,Top*%
%TF.FilePolarity,Positive*%
%FSLAX46Y46*%
G04 Gerber Fmt 4.6, Leading zero omitted, Abs format (unit mm)*
G04 Created by KiCad (PCBNEW 9.0.7) date 2026-02-27 15:48:28*
%MOMM*%
%LPD*%
G01*
G04 APERTURE LIST*
G04 Aperture macros list*
%AMRoundRect*
0 Rectangle with rounded corners*
0 $1 Rounding radius*
0 $2 $3 $4 $5 $6 $7 $8 $9 X,Y pos of 4 corners*
0 Add a 4 corners polygon primitive as box body*
4,1,4,$2,$3,$4,$5,$6,$7,$8,$9,$2,$3,0*
0 Add four circle primitives for the rounded corners*
1,1,$1+$1,$2,$3*
1,1,$1+$1,$4,$5*
1,1,$1+$1,$6,$7*
1,1,$1+$1,$8,$9*
0 Add four rect primitives between the rounded corners*
20,1,$1+$1,$2,$3,$4,$5,0*
20,1,$1+$1,$4,$5,$6,$7,0*
20,1,$1+$1,$6,$7,$8,$9,0*
20,1,$1+$1,$8,$9,$2,$3,0*%
G04 Aperture macros list end*
%ADD10RoundRect,0.135000X-0.185000X0.135000X-0.185000X-0.135000X0.185000X-0.135000X0.185000X0.135000X0*%
%ADD11RoundRect,0.150000X-0.512500X-0.150000X0.512500X-0.150000X0.512500X0.150000X-0.512500X0.150000X0*%
%ADD12RoundRect,0.135000X0.135000X0.185000X-0.135000X0.185000X-0.135000X-0.185000X0.135000X-0.185000X0*%
%ADD13RoundRect,0.140000X-0.140000X-0.170000X0.140000X-0.170000X0.140000X0.170000X-0.140000X0.170000X0*%
%ADD14RoundRect,0.135000X0.185000X-0.135000X0.185000X0.135000X-0.185000X0.135000X-0.185000X-0.135000X0*%
%ADD15R,1.500000X0.900000*%
%ADD16R,0.900000X1.500000*%
%ADD17R,1.050000X1.050000*%
%ADD18RoundRect,0.140000X-0.170000X0.140000X-0.170000X-0.140000X0.170000X-0.140000X0.170000X0.140000X0*%
%ADD19RoundRect,0.200000X0.200000X0.275000X-0.200000X0.275000X-0.200000X-0.275000X0.200000X-0.275000X0*%
%ADD20RoundRect,0.225000X0.250000X-0.225000X0.250000X0.225000X-0.250000X0.225000X-0.250000X-0.225000X0*%
%ADD21RoundRect,0.375000X-0.375000X0.625000X-0.375000X-0.625000X0.375000X-0.625000X0.375000X0.625000X0*%
%ADD22RoundRect,0.500000X-1.400000X0.500000X-1.400000X-0.500000X1.400000X-0.500000X1.400000X0.500000X0*%
%ADD23RoundRect,0.140000X0.170000X-0.140000X0.170000X0.140000X-0.170000X0.140000X-0.170000X-0.140000X0*%
G04 APERTURE END LIST*
D10*
%TO.C,R11*%
X191750000Y-84240000D03*
X191750000Y-85260000D03*
%TD*%
%TO.C,R8*%
X198750000Y-109750000D03*
X198750000Y-110770000D03*
%TD*%
D11*
%TO.C,U6*%
X199112500Y-114800000D03*
X199112500Y-115750000D03*
X199112500Y-116700000D03*
X201387500Y-116700000D03*
X201387500Y-114800000D03*
%TD*%
D12*
%TO.C,R12*%
X215000000Y-102000000D03*
X216020000Y-102000000D03*
%TD*%
D13*
%TO.C,C5*%
X202270000Y-113250000D03*
X203230000Y-113250000D03*
%TD*%
D12*
%TO.C,R4*%
X160250000Y-122250000D03*
X159230000Y-122250000D03*
%TD*%
%TO.C,R10*%
X191760000Y-90750000D03*
X190740000Y-90750000D03*
%TD*%
D14*
%TO.C,R14*%
X177250000Y-97270000D03*
X177250000Y-96250000D03*
%TD*%
D10*
%TO.C,R13*%
X175250000Y-98730000D03*
X175250000Y-99750000D03*
%TD*%
D11*
%TO.C,Q3*%
X179112500Y-98300000D03*
X179112500Y-100200000D03*
X181387500Y-99250000D03*
%TD*%
D15*
%TO.C,U3*%
X193750000Y-82590000D03*
X193750000Y-83860000D03*
X193750000Y-85130000D03*
X193750000Y-86400000D03*
X193750000Y-87670000D03*
X193750000Y-88940000D03*
X193750000Y-90210000D03*
X193750000Y-91480000D03*
X193750000Y-92750000D03*
X193750000Y-94020000D03*
X193750000Y-95290000D03*
X193750000Y-96560000D03*
X193750000Y-97830000D03*
X193750000Y-99100000D03*
D16*
X196790000Y-100350000D03*
X198060000Y-100350000D03*
X199330000Y-100350000D03*
X200600000Y-100350000D03*
X201870000Y-100350000D03*
X203140000Y-100350000D03*
X204410000Y-100350000D03*
X205680000Y-100350000D03*
X206950000Y-100350000D03*
X208220000Y-100350000D03*
D15*
X211250000Y-99100000D03*
X211250000Y-97830000D03*
X211250000Y-96560000D03*
X211250000Y-95290000D03*
X211250000Y-94020000D03*
X211250000Y-92750000D03*
X211250000Y-91480000D03*
X211250000Y-90210000D03*
X211250000Y-88940000D03*
X211250000Y-87670000D03*
X211250000Y-86400000D03*
X211250000Y-85130000D03*
X211250000Y-83860000D03*
X211250000Y-82590000D03*
D17*
X200295000Y-88405000D03*
X200295000Y-89930000D03*
X200295000Y-91455000D03*
X201820000Y-88405000D03*
X201820000Y-89930000D03*
X201820000Y-91455000D03*
X203345000Y-88405000D03*
X203345000Y-89930000D03*
X203345000Y-91455000D03*
%TD*%
D18*
%TO.C,C8*%
X189955000Y-83130000D03*
X189955000Y-84090000D03*
%TD*%
D11*
%TO.C,Q2*%
X179112500Y-93300000D03*
X179112500Y-95200000D03*
X181387500Y-94250000D03*
%TD*%
D19*
%TO.C,R9*%
X202075000Y-118250000D03*
X200425000Y-118250000D03*
%TD*%
D20*
%TO.C,C7*%
X188750000Y-84250000D03*
X188750000Y-82700000D03*
%TD*%
D21*
%TO.C,U2*%
X172337500Y-93100000D03*
X170037500Y-93100000D03*
D22*
X170037500Y-99400000D03*
D21*
X167737500Y-93100000D03*
%TD*%
D23*
%TO.C,C6*%
X191750000Y-87230000D03*
X191750000Y-86270000D03*
%TD*%
M02*
