M48
METRIC,TZ
T1C0.200
T2C0.300
T3C0.800
T4C1.000
T5C1.100
T6C1.200
T7C1.300
T8C1.600
T9C2.150
%
G90
G05
T1
X199615Y-89560
X199615Y-90960
X200315Y-88860
X200315Y-90260
X200315Y-91660
X201015Y-89560
X201015Y-90960
X201715Y-88860
X201715Y-90260
X201715Y-91660
X202415Y-89560
X202415Y-90960
T2
X134500Y-108000
X142000Y-106000
X143000Y-106000
X151000Y-106000
X152000Y-106000
X152000Y-110000
X152000Y-113000
X152500Y-85000
X152500Y-87500
X152500Y-90000
X152500Y-92500
X152500Y-95000
X152500Y-97500
X152500Y-100000
X155000Y-85000
X155000Y-87500
X155000Y-90000
X155000Y-92500
X155000Y-95000
X155000Y-97500
X155000Y-100000
X155000Y-110000
X155500Y-115000
X157500Y-85000
X157500Y-87500
X157500Y-90000
X157500Y-92500
X157500Y-95000
X157500Y-97500
X157500Y-100000
X157500Y-120000
X159000Y-112500
X159500Y-118000
X160000Y-90000
X160000Y-92500
X160000Y-95000
X160000Y-97500
X160000Y-125000
X160250Y-122250
X162500Y-85000
X162500Y-87500
X162500Y-90000
X162500Y-92500
X162500Y-95000
X162500Y-112500
X165000Y-85000
X165000Y-87500
X165000Y-90000
X165000Y-92500
X168500Y-120000
X168500Y-122500
X168500Y-125000
X170038Y-93100
X170038Y-99400
X170500Y-114500
X171500Y-108500
X172500Y-112500
X174000Y-116000
X174500Y-105500
X174500Y-110500
X175000Y-122500
X176000Y-114000
X176500Y-103500
X176500Y-108500
X178000Y-107000
X178000Y-112000
X178500Y-122500
X179500Y-105500
X181750Y-94250
X182000Y-120000
X182000Y-122500
X193750Y-88940
X193750Y-92750
X193765Y-99050
X195000Y-103000
X195000Y-120000
X195000Y-125000
X195500Y-106000
X196500Y-94500
X197000Y-82500
X197000Y-89000
X198000Y-97000
X198750Y-108750
X200425Y-118250
X200500Y-82500
X201388Y-114800
X202500Y-109500
X203000Y-94500
X203000Y-97000
X203140Y-100350
X203500Y-115000
X204000Y-82500
X204410Y-100350
X204920Y-108580
X205680Y-100350
X206000Y-106000
X206500Y-89500
X206500Y-94500
X206500Y-97000
X206500Y-108500
X207500Y-82500
X210000Y-110000
X211250Y-86400
X211250Y-87670
X211250Y-99100
X215000Y-85000
X215000Y-115000
X215000Y-120000
X216020Y-102000
X219500Y-97000
X222500Y-125000
T3
X98837Y-92750
X100238Y-85250
X115500Y-87000
X115500Y-95000
X122500Y-87000
X122500Y-95000
X132750Y-112800
X140250Y-114200
X147900Y-109750
X147900Y-114750
X149210Y-118935
X149210Y-126555
X151750Y-118935
X151750Y-126555
X154290Y-118935
X154290Y-126555
X160600Y-109750
X160600Y-114750
X169538Y-86000
X169538Y-88500
X177750Y-84750
X177750Y-89750
X187945Y-109210
X187945Y-111750
X187945Y-114290
X195565Y-109210
X195565Y-111750
X195565Y-114290
T4
X123000Y-103500
X123000Y-115500
X131000Y-124450
X131250Y-91250
X131250Y-96250
X141000Y-124450
X160330Y-86250
X160330Y-101250
X185250Y-85550
X185250Y-88090
X185250Y-90630
X185250Y-93170
X185250Y-95710
X185250Y-98250
X199840Y-123500
X202380Y-123500
X204920Y-123500
X207460Y-123500
X210000Y-123500
X222250Y-84970
X222250Y-87510
X222250Y-90050
X222250Y-92590
X222250Y-95130
X222250Y-97670
X222250Y-100210
X222250Y-102750
X222250Y-105290
X222250Y-107830
X222250Y-110370
X222250Y-112910
X222250Y-115450
X222250Y-117990
T5
X119920Y-124950
X122460Y-124950
X125000Y-124950
X164170Y-119750
X164170Y-124750
X174330Y-119750
X174330Y-124750
X177670Y-119750
X177670Y-124750
X187830Y-119750
X187830Y-124750
T6
X108000Y-83500
X108000Y-98500
X129130Y-118950
X144370Y-118950
X167130Y-104750
X167130Y-112750
X182370Y-104750
X182370Y-112750
T7
X72788Y-111750
X73238Y-87750
X73238Y-99750
X73238Y-123750
X77988Y-111750
X78438Y-87750
X78438Y-99750
X78438Y-123750
X88087Y-111750
X88538Y-87750
X88538Y-99750
X88538Y-123750
X93288Y-111750
X93738Y-87750
X93738Y-99750
X93738Y-123750
X110750Y-115550
X110800Y-103500
X124950Y-109550
T8
X65500Y-94500
X65500Y-101500
T9
X67000Y-115200
X67000Y-123000
X100650Y-123750
X108450Y-123750
M30
