%TF.GenerationSoftware,KiCad,Pcbnew,9.0.7*%
%TF.CreationDate,2026-03-17T10:38:45+03:00*%
%TF.ProjectId,3dFilamentDryer,33644669-6c61-46d6-956e-744472796572,rev?*%
%TF.SameCoordinates,Original*%
%TF.FileFunction,Profile,NP*%
%FSLAX46Y46*%
G04 Gerber Fmt 4.6, Leading zero omitted, Abs format (unit mm)*
G04 Created by KiCad (PCBNEW 9.0.7) date 2026-03-17 10:38:45*
%MOMM*%
%LPD*%
G01*
G04 APERTURE LIST*
%TA.AperFunction,Profile*%
%ADD10C,0.050000*%
%TD*%
%ADD11C,0.350000*%
%ADD12C,0.200000*%
G04 APERTURE END LIST*
D10*
X62750000Y-81000000D02*
X225250000Y-81000000D01*
X225250000Y-128000000D01*
X62750000Y-128000000D01*
X62750000Y-81000000D01*
X68500000Y-84500000D02*
G75*
G02*
X64300000Y-84500000I-2100000J0D01*
G01*
X64300000Y-84500000D02*
G75*
G02*
X68500000Y-84500000I2100000J0D01*
G01*
X220100000Y-123500000D02*
G75*
G02*
X215900000Y-123500000I-2100000J0D01*
G01*
X215900000Y-123500000D02*
G75*
G02*
X220100000Y-123500000I2100000J0D01*
G01*
D11*
X210000000Y-123500000D03*
X207460000Y-123500000D03*
X204920000Y-123500000D03*
X202380000Y-123500000D03*
X199840000Y-123500000D03*
X115500000Y-87000000D03*
X122500000Y-87000000D03*
X122500000Y-95000000D03*
X115500000Y-95000000D03*
X182370000Y-112750000D03*
X167130000Y-112750000D03*
X72787500Y-111750000D03*
X77987500Y-111750000D03*
X88087500Y-111750000D03*
X93287500Y-111750000D03*
X123000000Y-115500000D03*
X110750000Y-115550000D03*
X110800000Y-103500000D03*
X123000000Y-103500000D03*
X124950000Y-109550000D03*
X195565000Y-109210000D03*
X195565000Y-111750000D03*
X195565000Y-114290000D03*
X187945000Y-114290000D03*
X187945000Y-111750000D03*
X187945000Y-109210000D03*
X140250000Y-114200000D03*
X132750000Y-112800000D03*
X177670000Y-124750000D03*
X187830000Y-124750000D03*
X182370000Y-104750000D03*
X167130000Y-104750000D03*
X177670000Y-119750000D03*
X187830000Y-119750000D03*
X160600000Y-114750000D03*
X147900000Y-114750000D03*
X67000000Y-123000000D03*
X67000000Y-115200000D03*
X93737500Y-87750000D03*
X88537500Y-87750000D03*
X78437500Y-87750000D03*
X73237500Y-87750000D03*
X119920000Y-124950000D03*
X122460000Y-124950000D03*
X125000000Y-124950000D03*
X93737500Y-99750000D03*
X88537500Y-99750000D03*
X78437500Y-99750000D03*
X73237500Y-99750000D03*
X185250000Y-98250000D03*
X185250000Y-95710000D03*
X185250000Y-93170000D03*
X185250000Y-90630000D03*
X185250000Y-88090000D03*
X185250000Y-85550000D03*
D12*
X202415000Y-90960000D03*
X202415000Y-89560000D03*
X201715000Y-91660000D03*
X201715000Y-90260000D03*
X201715000Y-88860000D03*
X201015000Y-90960000D03*
X201015000Y-89560000D03*
X200315000Y-91660000D03*
X200315000Y-90260000D03*
X200315000Y-88860000D03*
X199615000Y-90960000D03*
X199615000Y-89560000D03*
D11*
X147900000Y-109750000D03*
X160600000Y-109750000D03*
X131000000Y-124450000D03*
X141000000Y-124450000D03*
X100650000Y-123750000D03*
X108450000Y-123750000D03*
X222250000Y-84970000D03*
X222250000Y-87510000D03*
X222250000Y-90050000D03*
X222250000Y-92590000D03*
X222250000Y-95130000D03*
X222250000Y-97670000D03*
X222250000Y-100210000D03*
X222250000Y-102750000D03*
X222250000Y-105290000D03*
X222250000Y-107830000D03*
X222250000Y-110370000D03*
X222250000Y-112910000D03*
X222250000Y-115450000D03*
X222250000Y-117990000D03*
X177750000Y-84750000D03*
X177750000Y-89750000D03*
X164170000Y-124750000D03*
X174330000Y-124750000D03*
X108000000Y-98500000D03*
X108000000Y-83500000D03*
X160330000Y-101250000D03*
X160330000Y-86250000D03*
X131250000Y-96250000D03*
X131250000Y-91250000D03*
X129130000Y-118950000D03*
X144370000Y-118950000D03*
X169537500Y-86000000D03*
X169537500Y-88500000D03*
X164170000Y-119750000D03*
X174330000Y-119750000D03*
X93737500Y-123750000D03*
X88537500Y-123750000D03*
X78437500Y-123750000D03*
X73237500Y-123750000D03*
X149210000Y-118935000D03*
X151750000Y-118935000D03*
X154290000Y-118935000D03*
X154290000Y-126555000D03*
X151750000Y-126555000D03*
X149210000Y-126555000D03*
X98837500Y-92750000D03*
X100237500Y-85250000D03*
X65500000Y-101500000D03*
X65500000Y-94500000D03*
M02*
